<?xml version="1.0" encoding="utf-8"?>
<!DOCTYPE svg PUBLIC "-//W3C//DTD SVG 1.1//EN" "http://www.w3.org/Graphics/SVG/1.1/DTD/svg11.dtd">
<svg version="1.1" id="Calque_1" xmlns="http://www.w3.org/2000/svg" xmlns:xlink="http://www.w3.org/1999/xlink" viewBox="0 0 64 64" xml:space="preserve">
<g>
	<path fill="##spriteCouleur3Fonce##" d="M23.311,38.491l-0.067-0.053l-0.058,0.063c-1.117,1.23-2.613,2.086-4.227,2.442
		c0.32,0.389,0.517,0.864,0.517,1.394c0,0.636-0.279,1.211-0.734,1.625l1.231,9.292l-2.925,2.926l-3.007-2.926l1.235-9.286
		c-0.455-0.416-0.739-0.995-0.739-1.63c0-0.565,0.233-1.077,0.602-1.476c-1.646-0.439-3.128-1.396-4.203-2.732l-0.054-0.062
		l-0.071,0.048c-4.582,3.143-7.604,7.806-7.9,15.079v0.292l0.048-0.21c4.28,2.712,9.21,4.146,14.262,4.146
		c4.72,0,9.368-1.259,13.447-3.649l0.046-0.026v-0.051C30.548,46.551,27.716,41.845,23.311,38.491z"/>
	<path fill="##spriteCouleur3Fonce##" d="M11.487,36.863c1.47,1.331,3.412,2.145,5.544,2.145c1.848,0,3.557-0.612,4.934-1.643
		c2.014-1.506,3.317-3.909,3.317-6.608c0-4.546-3.7-8.246-8.251-8.246c-4.545,0-8.246,3.7-8.246,8.246
		C8.785,33.173,9.83,35.352,11.487,36.863z"/>
	<path fill="##spriteCouleur3Fonce##" d="M58.103,15.269c-1.115-0.896-2.285-1.449-2.972-1.729c-0.281-0.733-0.881-1.989-2.021-3.229
		c-1.566-1.703-4.511-3.733-9.625-3.733c-4.827,0-7.934,2.023-9.688,3.722c-0.937,0.902-1.597,1.812-2.031,2.516
		c-1.603-0.925-4.655-2.248-8.24-1.599c-4.336,0.785-7.509,4.543-7.642,4.704c-0.427,0.512-0.357,1.273,0.154,1.699
		c0.515,0.427,1.275,0.357,1.701-0.155c0.027-0.032,2.732-3.242,6.215-3.872c4.088-0.74,7.471,1.876,7.5,1.899
		c0.297,0.236,0.688,0.317,1.058,0.223c0.368-0.096,0.67-0.36,0.813-0.711c0.102-0.245,2.562-6.011,10.16-6.011
		c7.934,0,9.45,5.536,9.509,5.766c0.103,0.41,0.41,0.738,0.813,0.864c0.229,0.073,5.578,1.818,4.785,6.408
		c-0.31,1.79-1.308,2.89-3.053,3.36c-1.441,0.39-2.843,0.184-2.853,0.181c-0.636-0.1-1.241,0.32-1.373,0.95
		c-0.038,0.187-1.005,4.592-4.921,5.149c-3.646,0.518-5.228-2.234-5.289-2.344c-0.314-0.587-1.049-0.807-1.636-0.489
		c-0.586,0.315-0.807,1.049-0.489,1.636c0.088,0.163,2.039,3.681,6.48,3.681c0.402,0,0.827-0.029,1.273-0.093
		c4.262-0.605,6.025-4.206,6.652-6.021c0.705,0.016,1.682-0.031,2.697-0.296c2.683-0.693,4.418-2.576,4.889-5.303
		C61.455,19.646,60.464,17.165,58.103,15.269z"/>
	<path fill="##spriteCouleur3Fonce##" d="M30.688,23.476h13.369c0.333,0,0.604-0.271,0.604-0.604s-0.27-0.604-0.604-0.604H30.688
		c-0.334,0-0.604,0.271-0.604,0.604S30.354,23.476,30.688,23.476z"/>
	<path fill="##spriteCouleur3Fonce##" d="M30.688,19.527H51.58c0.334,0,0.604-0.271,0.604-0.604c0-0.334-0.271-0.604-0.604-0.604H30.688
		c-0.334,0-0.604,0.271-0.604,0.604S30.354,19.527,30.688,19.527z"/>
	<path fill="##spriteCouleur3Fonce##" d="M31.89,29.615c-1.275,0-2.312,1.034-2.312,2.311c0,1.275,1.035,2.311,2.312,2.311
		s2.311-1.034,2.311-2.311C34.199,30.65,33.164,29.615,31.89,29.615z"/>
	<circle fill="##spriteCouleur3Fonce##" cx="29.008" cy="36.833" r="1.268"/>
</g>
</svg>