<?xml version="1.0" encoding="utf-8"?>
<!DOCTYPE svg PUBLIC "-//W3C//DTD SVG 1.1//EN" "http://www.w3.org/Graphics/SVG/1.1/DTD/svg11.dtd">
<svg version="1.1" id="Calque_1" xmlns="http://www.w3.org/2000/svg" xmlns:xlink="http://www.w3.org/1999/xlink" viewBox="0 0 64 64" xml:space="preserve">
<g>
	<path fill="##spriteCouleur3Fonce##" d="M11.897,28.322h5.434c1.221,0,2.215-0.735,2.215-1.637c0-0.903-0.994-1.638-2.215-1.638h-5.434
		c-1.229,0-2.219,0.732-2.219,1.638C9.678,27.586,10.667,28.322,11.897,28.322z"/>
	<path fill="##spriteCouleur3Fonce##" d="M11.897,17.572h5.434c1.221,0,2.215-0.733,2.215-1.638c0-0.898-0.994-1.636-2.215-1.636h-5.434
		c-1.229,0-2.219,0.738-2.219,1.636C9.678,16.84,10.667,17.572,11.897,17.572z"/>
	<path fill="##spriteCouleur3Fonce##" d="M11.897,39.064h5.434c1.221,0,2.215-0.729,2.215-1.631c0-0.908-0.994-1.636-2.215-1.636h-5.434
		c-1.229,0-2.219,0.729-2.219,1.636C9.678,38.334,10.667,39.064,11.897,39.064z"/>
	<path fill="##spriteCouleur3Fonce##" d="M19.543,48.175c0-0.897-0.994-1.633-2.213-1.633h-5.436c-1.229,0-2.219,0.733-2.219,1.633
		c0,0.909,0.99,1.644,2.219,1.644h5.436C18.549,49.816,19.543,49.084,19.543,48.175z"/>
	<path fill="##spriteCouleur3Fonce##" d="M47.834,8.773H16.17c-1.531,0-2.775,1.243-2.775,2.771v1.617h4.797c1.535,0,2.773,1.244,2.773,2.773
		c0,1.531-1.238,2.773-2.773,2.773h-4.797v5.203h4.797c1.535,0,2.773,1.239,2.773,2.773c0,1.531-1.238,2.773-2.773,2.773h-4.797
		v5.198h4.797c1.535,0,2.773,1.24,2.773,2.777c0,1.526-1.238,2.77-2.773,2.77h-4.797v5.197h4.797c1.535,0,2.773,1.248,2.773,2.772
		c0,1.531-1.238,2.774-2.773,2.774h-4.797v1.506c0,1.525,1.244,2.771,2.775,2.771h31.664c1.533,0,2.771-1.244,2.771-2.771V11.543
		C50.605,10.016,49.367,8.773,47.834,8.773z M38.857,51.156c-1.451,0.546-2.98,0.056-3.416-1.096l-3.997-10.6l0,0l-2.908-7.714
		c-0.436-1.149,0.391-2.528,1.842-3.079l1.021-0.384l4.429,11.751l4.049,10.734L38.857,51.156z M33.662,27.479l1.986-0.75
		c0.375-0.142,0.801,0.065,0.947,0.463l2.409,6.393c0.147,0.397-0.03,0.833-0.405,0.976l-1.984,0.748
		c-0.373,0.143-0.799-0.065-0.947-0.463l-2.412-6.395C33.107,28.055,33.289,27.618,33.662,27.479z M44.162,49.309l-1.984,0.746
		c-0.375,0.144-0.799-0.064-0.947-0.462l-2.412-6.394c-0.147-0.397,0.033-0.833,0.406-0.973l1.986-0.75
		c0.375-0.143,0.799,0.065,0.949,0.463l2.408,6.394C44.719,48.729,44.537,49.165,44.162,49.309z M47.719,20.211L47.719,20.211
		c0,1.53-1.242,2.777-2.775,2.777H26.92c-1.533,0-2.773-1.247-2.773-2.777v-4.507c0-1.528,1.24-2.773,2.773-2.773h18.025
		c1.531,0,2.772,1.244,2.772,2.773L47.719,20.211L47.719,20.211z"/>
</g>
</svg>