<?xml version="1.0" encoding="utf-8"?>
<!DOCTYPE svg PUBLIC "-//W3C//DTD SVG 1.1//EN" "http://www.w3.org/Graphics/SVG/1.1/DTD/svg11.dtd">
<svg version="1.1" id="Calque_1" xmlns="http://www.w3.org/2000/svg" xmlns:xlink="http://www.w3.org/1999/xlink" viewBox="0 0 64 64" xml:space="preserve">
<g>
	<polygon fill="##spriteCouleurDark##" points="31.788,16.554 11.719,29.68 11.719,56.357 26.714,56.357 26.714,42.093 31.857,42.093 
		36.998,42.093 36.998,56.357 51.993,56.357 51.993,29.68 31.925,16.554 "/>
	<path fill="##spriteCouleurDark##" d="M58.124,25.333L32.863,7.956c-0.609-0.419-1.415-0.417-2.022,0.005L22.09,14.05v-1.755
		c0-1.341-1.087-2.427-2.428-2.427h-7.506c-1.34,0-2.427,1.086-2.427,2.427v10.356l-3.862,2.688
		c-0.805,0.561-1.004,1.667-0.444,2.473c0.562,0.805,1.669,1.004,2.474,0.444l23.965-16.675l24.25,16.68
		c0.309,0.212,0.658,0.313,1.006,0.313c0.564,0,1.121-0.269,1.466-0.77C59.139,26.995,58.934,25.889,58.124,25.333z"/>
</g>
</svg>