<?xml version="1.0" encoding="utf-8"?>
<!DOCTYPE svg PUBLIC "-//W3C//DTD SVG 1.1//EN" "http://www.w3.org/Graphics/SVG/1.1/DTD/svg11.dtd">
<svg version="1.1" id="Calque_1" xmlns="http://www.w3.org/2000/svg" xmlns:xlink="http://www.w3.org/1999/xlink" viewBox="0 0 64 64" xml:space="preserve">
<g>
	<path fill="##spriteCouleurDark##" d="M50.479,13.667h-6.594v3.812c0,2.269-1.838,4.106-4.107,4.106h-2.053
		c-2.27,0-4.107-1.838-4.107-4.106v-3.812h-3.236v3.812c0,2.269-1.84,4.106-4.107,4.106h-2.053c-2.268,0-4.105-1.838-4.105-4.106
		v-3.812H13.52c-2.268,0-4.106,1.838-4.106,4.106v34.612c0,2.268,1.838,4.107,4.106,4.107h36.958c2.27,0,4.107-1.84,4.107-4.107
		V17.773C54.588,15.505,52.746,13.667,50.479,13.667z M31.528,44.695c-0.548,0.963-1.338,1.703-2.369,2.223
		c-1.033,0.521-2.388,0.779-4.065,0.779c-1.638,0-2.929-0.191-3.875-0.576c-0.945-0.385-1.724-0.945-2.333-1.688
		c-0.609-0.74-1.079-1.672-1.406-2.793l4.999-0.664c0.196,1.008,0.501,1.705,0.915,2.094c0.414,0.391,0.939,0.584,1.578,0.584
		c0.672,0,1.23-0.244,1.676-0.736c0.446-0.492,0.669-1.146,0.669-1.965c0-0.836-0.214-1.48-0.644-1.939s-1.014-0.688-1.75-0.688
		c-0.395,0-0.934,0.098-1.623,0.295l0.258-3.574c0.277,0.041,0.496,0.062,0.652,0.062c0.654,0,1.201-0.209,1.639-0.627
		s0.658-0.914,0.658-1.486c0-0.549-0.165-0.986-0.492-1.312c-0.328-0.327-0.777-0.491-1.352-0.491c-0.588,0-1.067,0.178-1.437,0.534
		c-0.368,0.355-0.618,0.98-0.749,1.873l-4.727-0.848c0.393-1.506,1.146-2.662,2.265-3.464c1.117-0.802,2.7-1.203,4.747-1.203
		c2.35,0,4.048,0.438,5.096,1.313c1.049,0.875,1.571,1.979,1.571,3.305c0,0.777-0.212,1.48-0.638,2.109
		c-0.426,0.633-1.068,1.184-1.928,1.658c0.695,0.174,1.228,0.373,1.596,0.604c0.598,0.367,1.062,0.852,1.395,1.455
		c0.332,0.602,0.498,1.32,0.498,2.156C32.35,42.73,32.077,43.734,31.528,44.695z M40.678,47.391V35.393
		c-0.82,0.623-1.611,1.127-2.375,1.51c-0.768,0.387-1.727,0.756-2.881,1.105v-4.102c1.703-0.549,3.025-1.207,3.967-1.977
		c0.939-0.771,1.676-1.72,2.211-2.851h4.137v18.31L40.678,47.391L40.678,47.391L40.678,47.391z"/>
	<path fill="##spriteCouleurDark##" d="M38.238,18.361h1.027c1.135,0,2.053-1.261,2.053-2.813v-5.226c0-1.554-0.92-2.813-2.053-2.813
		h-1.027c-1.135,0-2.053,1.261-2.053,2.813v5.226C36.186,17.1,37.105,18.361,38.238,18.361z"/>
	<path fill="##spriteCouleurDark##" d="M24.735,18.361h1.027c1.135,0,2.053-1.261,2.053-2.813v-5.226c0-1.554-0.919-2.813-2.053-2.813
		h-1.027c-1.134,0-2.054,1.261-2.054,2.813v5.226C22.681,17.1,23.601,18.361,24.735,18.361z"/>
</g>
</svg>