<?xml version="1.0" encoding="utf-8"?>
<!DOCTYPE svg PUBLIC "-//W3C//DTD SVG 1.1//EN" "http://www.w3.org/Graphics/SVG/1.1/DTD/svg11.dtd">
<svg version="1.1" id="Calque_1" xmlns="http://www.w3.org/2000/svg" xmlns:xlink="http://www.w3.org/1999/xlink" viewBox="0 0 64 64" xml:space="preserve">
<g fill="##spriteCouleurDark##">
	<path d="M10.742,28.967c0.146-0.362,0.311-0.729,0.486-1.099c0.229-0.475,0.48-0.954,0.756-1.432
		c0.242-0.418,0.502-0.834,0.777-1.25c0.25-0.376,0.516-0.751,0.793-1.124c0.256-0.347,0.523-0.688,0.801-1.029
		c0.262-0.321,0.531-0.638,0.811-0.952c0.266-0.298,0.539-0.59,0.818-0.879c0.268-0.279,0.543-0.553,0.826-0.823
		c0.27-0.261,0.549-0.517,0.83-0.767c0.273-0.244,0.555-0.481,0.838-0.715c0.275-0.229,0.557-0.452,0.842-0.669
		c0.279-0.213,0.562-0.421,0.846-0.623c0.281-0.198,0.566-0.388,0.854-0.575c0.283-0.183,0.568-0.36,0.857-0.53
		c0.285-0.169,0.572-0.333,0.861-0.488c0.287-0.154,0.576-0.305,0.867-0.445c0.289-0.139,0.58-0.271,0.871-0.396
		c0.293-0.125,0.584-0.24,0.877-0.35c0.293-0.11,0.588-0.211,0.883-0.304c0.295-0.094,0.592-0.181,0.889-0.256
		c0.297-0.077,0.596-0.147,0.893-0.206c0.301-0.06,0.602-0.104,0.9-0.146c0.189-0.023,0.377-0.049,0.566-0.065
		c0.117-0.012,0.229-0.025,0.338-0.04c0.107-0.017,0.213-0.033,0.318-0.05c0.113-0.018,0.229-0.036,0.346-0.053l0.238-0.03
		l0.902-0.116l0.209-0.026l-0.537-4.83l0.76,0.487l0.985,0.632l0.988,0.633l0.986,0.633l0.986,0.633l0.988,0.633l0.986,0.633
		l0.986,0.632l0.986,0.634l0.986,0.632l0.988,0.634l2.846,1.825l-2.375,2.407l-0.822,0.835l-0.822,0.834l-0.824,0.835l-0.824,0.834
		l-0.822,0.834l-0.824,0.835l-0.822,0.834l-0.824,0.835l-0.822,0.835l-0.824,0.834l-0.631,0.642h-0.002l-0.48-4.297l-0.207,0.022
		l-0.907,0.102l-0.26,0.028c-0.217,0.025-0.43,0.055-0.643,0.085c-0.305,0.042-0.605,0.091-0.9,0.146
		c-0.303,0.057-0.602,0.118-0.896,0.187c-0.301,0.07-0.598,0.148-0.891,0.231c-0.299,0.085-0.594,0.178-0.885,0.276
		c-0.299,0.101-0.59,0.208-0.881,0.321c-0.295,0.116-0.588,0.239-0.875,0.37c-0.293,0.134-0.582,0.274-0.869,0.424
		c-0.291,0.153-0.578,0.316-0.863,0.485c-0.289,0.172-0.576,0.353-0.855,0.542c-0.287,0.195-0.57,0.396-0.848,0.609
		c-0.287,0.218-0.566,0.446-0.84,0.684c-0.283,0.244-0.561,0.494-0.832,0.757c-0.281,0.271-0.553,0.559-0.822,0.851
		c-0.277,0.303-0.549,0.613-0.811,0.939c-0.275,0.339-0.541,0.694-0.799,1.057c-0.271,0.379-0.533,0.771-0.787,1.176
		c-0.266,0.424-0.521,0.86-0.768,1.313c-0.262,0.479-0.512,0.976-0.752,1.486c-0.256,0.545-0.498,1.107-0.729,1.688
		c-0.248,0.625-0.482,1.271-0.701,1.938c-0.191,0.589-0.375,1.19-0.543,1.81c-0.043,0.151-0.08,0.303-0.121,0.452
		c-0.238,0.913-0.441,1.816-0.613,2.702c-0.23,1.169-0.406,2.305-0.541,3.383c-0.15,1.207-0.25,2.339-0.314,3.362
		c-0.1-0.212-0.201-0.434-0.301-0.657c-0.438-0.973-0.875-2.062-1.277-3.248c-0.029-0.086-0.059-0.171-0.088-0.256
		c-1.508-4.555-1.971-8.926-1.398-13.057c0.139-0.987,0.334-1.964,0.592-2.924c0.191-0.72,0.42-1.432,0.68-2.135
		C10.58,29.381,10.66,29.174,10.742,28.967z"/>
	<path d="M18.878,46.57l2.4-2.432l0.832-0.844l0.832-0.843l0.832-0.843l0.832-0.843l0.832-0.843l0.832-0.843
		l0.832-0.844l0.832-0.842l0.832-0.843l0.832-0.844l0.639-0.647c0,0,0.002,0,0.002-0.001l0.482,4.341l0.211-0.022l0.914-0.103
		l0.264-0.029c0.221-0.023,0.436-0.054,0.651-0.085c0.305-0.043,0.609-0.09,0.908-0.146c0.305-0.058,0.607-0.119,0.906-0.189
		c0.303-0.071,0.602-0.149,0.898-0.232c0.303-0.086,0.602-0.181,0.895-0.279c0.301-0.102,0.598-0.209,0.891-0.325
		c0.299-0.118,0.594-0.242,0.885-0.374c0.295-0.136,0.59-0.278,0.877-0.429c0.297-0.154,0.586-0.319,0.871-0.49
		c0.293-0.174,0.582-0.356,0.865-0.548c0.291-0.196,0.578-0.399,0.859-0.612c0.289-0.221,0.57-0.453,0.848-0.691
		c0.287-0.246,0.566-0.499,0.84-0.765c0.285-0.275,0.561-0.563,0.83-0.859c0.281-0.308,0.555-0.621,0.82-0.949
		c0.277-0.343,0.547-0.701,0.807-1.067c0.273-0.383,0.539-0.778,0.793-1.188c0.268-0.429,0.529-0.87,0.777-1.327
		c0.264-0.485,0.516-0.985,0.76-1.503c0.256-0.55,0.502-1.118,0.734-1.705c0.252-0.632,0.486-1.286,0.709-1.958
		c0.195-0.594,0.377-1.203,0.549-1.828c0.043-0.152,0.082-0.304,0.121-0.457c0.242-0.921,0.447-1.834,0.623-2.729
		c0.23-1.183,0.408-2.329,0.545-3.418c0.15-1.212,0.252-2.354,0.314-3.383c0.104,0.218,0.207,0.445,0.309,0.676
		c0.443,0.99,0.889,2.101,1.297,3.311c1.254,3.723,2.15,8.381,1.484,13.339c-0.131,0.986-0.326,1.983-0.592,2.988
		c-0.189,0.721-0.418,1.445-0.684,2.17c-0.078,0.211-0.154,0.423-0.24,0.635c-0.146,0.368-0.312,0.737-0.492,1.109
		c-0.23,0.482-0.484,0.964-0.766,1.447c-0.244,0.422-0.506,0.843-0.785,1.263c-0.252,0.38-0.52,0.759-0.799,1.136
		c-0.26,0.35-0.529,0.695-0.811,1.039c-0.266,0.324-0.535,0.646-0.816,0.962c-0.27,0.301-0.545,0.597-0.828,0.89
		c-0.271,0.28-0.549,0.559-0.834,0.832c-0.273,0.263-0.555,0.521-0.838,0.774c-0.277,0.245-0.561,0.485-0.846,0.721
		c-0.279,0.23-0.562,0.458-0.852,0.676c-0.281,0.216-0.564,0.426-0.855,0.629c-0.283,0.2-0.572,0.393-0.861,0.58
		c-0.287,0.185-0.574,0.363-0.865,0.536c-0.291,0.17-0.58,0.336-0.873,0.493c-0.291,0.157-0.582,0.308-0.875,0.449
		c-0.293,0.143-0.586,0.273-0.881,0.4c-0.293,0.125-0.59,0.243-0.885,0.354c-0.297,0.11-0.594,0.213-0.893,0.308
		s-0.598,0.182-0.896,0.258c-0.301,0.077-0.602,0.147-0.904,0.208c-0.303,0.06-0.605,0.105-0.908,0.146
		c-0.191,0.025-0.383,0.051-0.572,0.067c-0.119,0.01-0.232,0.023-0.342,0.04c-0.109,0.016-0.217,0.033-0.32,0.05
		c-0.115,0.02-0.232,0.037-0.35,0.053l-0.242,0.031l-0.913,0.117l-0.209,0.026l0.543,4.88l-0.768-0.493l-0.996-0.641l-0.998-0.638
		l-0.996-0.64l-0.998-0.64l-0.996-0.64l-0.998-0.638l-0.996-0.641l-0.998-0.639l-0.996-0.639l-0.998-0.64L18.878,46.57z"/>
</g>
</svg>