<?xml version="1.0" encoding="utf-8"?>
<!DOCTYPE svg PUBLIC "-//W3C//DTD SVG 1.1//EN" "http://www.w3.org/Graphics/SVG/1.1/DTD/svg11.dtd">
<svg version="1.1" id="Calque_1" xmlns="http://www.w3.org/2000/svg" xmlns:xlink="http://www.w3.org/1999/xlink" viewBox="0 0 64 64" xml:space="preserve">
<g>
	
		<linearGradient id="SVGID_1_" gradientUnits="userSpaceOnUse" x1="-729.8984" y1="-7062.8193" x2="-729.8984" y2="-7018.3755" gradientTransform="matrix(1 0 0 1 758.5049 7068.9102)">
		<stop  offset="0" style="stop-color:##spriteCouleur2##"/>
		<stop  offset="1" style="stop-color:##spriteCouleur2Fonce##"/>
	</linearGradient>
	<path fill="url(#SVGID_1_)" d="M51.181,21.153c0-1.938,0.989-3.69,1.097-3.875c-1.889-4.813-5.923-11.188-14.051-11.188
		c-5.381,0-10.009,2.826-13.795,6.784c3.892,3.232,8.37,7.787,9.582,13.088c1.967,8.603-5.898,12.29-11.059,12.29
		c-3.403,0-7.34-2.67-10.686-5.828c-1.048,0.234-2.755,0.267-5.339-0.614c-4.991-1.703-0.051,9.148,4.992,12.671
		c0,0,5.952,6.053,15.169,6.053c9.216,0,17.088-6.621,19.778-11.916c2.088-4.115,3.83-9.944,5.493-13.58
		c-0.048,0.005-0.074,0.007-0.074,0.007S51.181,23.201,51.181,21.153z M42.23,22.188c-2.418,0-4.379-1.96-4.379-4.38
		c0-2.418,1.961-4.378,4.379-4.378s4.378,1.96,4.378,4.378C46.608,20.227,44.648,22.188,42.23,22.188z"/>
	
		<linearGradient id="SVGID_2_" gradientUnits="userSpaceOnUse" x1="-702.3809" y1="-7050.7354" x2="-702.3809" y2="-7044.7764" gradientTransform="matrix(1 0 0 1 758.5049 7068.9102)">
		<stop  offset="0" style="stop-color:##spriteCouleur2##"/>
		<stop  offset="1" style="stop-color:##spriteCouleur2Fonce##"/>
	</linearGradient>
	<path fill="url(#SVGID_2_)" d="M57.75,21.153c0.655-0.323,1.938-1.082,1.147-1.756c-1.036-0.886-4.949-1.223-4.949-1.223
		s-0.847,1.411-0.847,2.979c0,1.567,0.847,2.979,0.847,2.979s3.913-0.338,4.949-1.224C59.688,22.235,58.405,21.477,57.75,21.153z"/>
	
		<linearGradient id="SVGID_3_" gradientUnits="userSpaceOnUse" x1="-737.5107" y1="-7057.8184" x2="-737.5107" y2="-7033.1274" gradientTransform="matrix(1 0 0 1 758.5049 7068.9102)">
		<stop  offset="0" style="stop-color:##spriteCouleur1##"/>
		<stop  offset="1" style="stop-color:##spriteCouleur1Moyen##"/>
	</linearGradient>
	<path fill="url(#SVGID_3_)" d="M22.974,35.782c3.971,0,10.022-2.836,8.51-9.455c-1.513-6.619-9.646-11.727-11.727-13.429
		c-2.08-1.703-6.051-3.025-6.619,0c-0.566,3.026-4.727,10.97-1.891,14.562C14.084,31.055,19.001,35.782,22.974,35.782z"/>
	
		<linearGradient id="SVGID_4_" gradientUnits="userSpaceOnUse" x1="-727.021" y1="-7016.106" x2="-727.021" y2="-7011.0005" gradientTransform="matrix(1 0 0 1 758.5049 7068.9102)">
		<stop  offset="0" style="stop-color:##spriteCouleur2##"/>
		<stop  offset="1" style="stop-color:##spriteCouleur2Fonce##"/>
	</linearGradient>
	<path fill="url(#SVGID_4_)" d="M36.968,55.642h-5.246v-2.838h-1.261v2.838h-1.146v-2.838h-2.748v2.838H26
		c-1.254,0-2.27,1.015-2.27,2.268h15.508C39.237,56.656,38.22,55.642,36.968,55.642z"/>
	
		<linearGradient id="SVGID_5_" gradientUnits="userSpaceOnUse" x1="-716.2749" y1="-7053.1689" x2="-716.2749" y2="-7049.0352" gradientTransform="matrix(1 0 0 1 758.5049 7068.9102)">
		<stop  offset="0" style="stop-color:##spriteCouleur2##"/>
		<stop  offset="1" style="stop-color:##spriteCouleur2Fonce##"/>
	</linearGradient>
	<path fill="url(#SVGID_5_)" d="M42.23,15.741c-1.142,0-2.066,0.927-2.066,2.066c0,1.142,0.925,2.067,2.066,2.067
		s2.066-0.926,2.066-2.067C44.297,16.667,43.372,15.741,42.23,15.741z"/>
</g>
</svg>
