<?xml version="1.0" encoding="utf-8"?>
<!DOCTYPE svg PUBLIC "-//W3C//DTD SVG 1.1//EN" "http://www.w3.org/Graphics/SVG/1.1/DTD/svg11.dtd">
<svg version="1.1" id="Calque_1" xmlns="http://www.w3.org/2000/svg" xmlns:xlink="http://www.w3.org/1999/xlink" viewBox="0 0 64 64" xml:space="preserve">
<g fill="##spriteCouleurLight##">
	<path d="M39.176,21.847c-12.845,0-15.337,6.219-15.337,10.452c0,4.234,3.394,7.873,7.67,11.675
		c4.275,3.801,5.769,9.094,5.769,11.537h1.102c0,0,0-15.682,0-15.943c-2.523,0-4.594-1.936-4.594-5.178
		c0-3.455,2.541-5.349,5.393-5.349c2.85,0,5.393,1.895,5.393,5.349c0,3.242-2.07,5.178-4.596,5.178c0,0.262,0,15.943,0,15.943h1.104
		c0-2.443,1.492-7.736,5.77-11.537c4.275-3.803,7.67-7.439,7.67-11.675C54.516,28.066,52.023,21.847,39.176,21.847z"/>
	<path d="M33.803,19.686h10.748c1.41,0,2.553-1.144,2.553-2.553v-6.092c0-1.409-1.143-2.553-2.553-2.553
		H33.803c-1.409,0-2.553,1.143-2.553,2.553v6.092C31.25,18.542,32.394,19.686,33.803,19.686z"/>
	<rect x="9.483" y="53.264" width="21.768" height="2.248"/>
</g>
</svg>