<?xml version="1.0" encoding="utf-8"?>
<!DOCTYPE svg PUBLIC "-//W3C//DTD SVG 1.1//EN" "http://www.w3.org/Graphics/SVG/1.1/DTD/svg11.dtd">
<svg version="1.1" id="Calque_1" xmlns="http://www.w3.org/2000/svg" xmlns:xlink="http://www.w3.org/1999/xlink" viewBox="0 0 64 64" xml:space="preserve">
<path fill="##spriteCouleurLight##" d="M19.947,53.335c-1.487-1.485-1.487-3.894,0-5.385l16.029-16.026L20.105,16.052
	c-1.487-1.487-1.487-3.897,0-5.384c1.486-1.487,3.897-1.487,5.385,0l21.254,21.254L25.331,53.335
	c-0.743,0.743-1.719,1.118-2.692,1.118C21.664,54.453,20.689,54.078,19.947,53.335 M10.5,0C4.71,0,0,4.71,0,10.502v42.999
	C0,59.29,4.71,64,10.5,64h43.002C59.292,64,64,59.29,64,53.501V10.502C64,4.71,59.29,0,53.502,0H10.5z"/>
</svg>