<?xml version="1.0" encoding="utf-8"?>
<!DOCTYPE svg PUBLIC "-//W3C//DTD SVG 1.1//EN" "http://www.w3.org/Graphics/SVG/1.1/DTD/svg11.dtd">
<svg version="1.1" id="Calque_1" xmlns="http://www.w3.org/2000/svg" xmlns:xlink="http://www.w3.org/1999/xlink" viewBox="0 0 64 64" xml:space="preserve">
<g fill="##spriteCouleurLight##">
	<path d="M15.646,10.966H6.23c-1.102,0-1.996,0.982-1.996,2.195v38.566c0,1.212,0.895,2.194,1.996,2.194
		h9.416c1.104,0,1.996-0.982,1.996-2.194V13.161C17.642,11.948,16.75,10.966,15.646,10.966z M10.939,50.63
		c-1.496,0-2.711-1.333-2.711-2.979c0-1.645,1.215-2.979,2.711-2.979s2.709,1.333,2.709,2.979S12.435,50.63,10.939,50.63z
		 M14.753,37.344H7.193V15.237h7.561V37.344z"/>
	<rect x="8.103" y="18.335" width="5.672" height="2.507"/>
	<path d="M30.529,10.966h-9.414c-1.105,0-1.998,0.982-1.998,2.193v38.568c0,1.212,0.893,2.194,1.998,2.194
		h9.414c1.104,0,1.996-0.982,1.996-2.194V13.159C32.524,11.948,31.632,10.966,30.529,10.966z M25.822,50.63
		c-1.496,0-2.711-1.333-2.711-2.979c0-1.645,1.215-2.979,2.711-2.979c1.494,0,2.709,1.333,2.709,2.979
		C28.533,49.297,27.316,50.63,25.822,50.63z M29.636,37.344h-7.559V15.236h7.559V37.344z"/>
	<rect x="22.988" y="18.334" width="5.67" height="2.508"/>
	<path d="M59.628,47.937L46.745,11.584c-0.406-1.143-1.576-1.771-2.617-1.402l-8.875,3.146
		c-1.039,0.367-1.553,1.593-1.148,2.735l12.881,36.354c0.406,1.143,1.576,1.77,2.617,1.4l8.875-3.146
		C59.517,50.304,60.032,49.079,59.628,47.937z M44.974,37.868l-7.383-20.836l7.125-2.525l7.385,20.836L44.974,37.868z M52.94,49.142
		c-1.41,0.5-3-0.352-3.549-1.902c-0.551-1.553,0.148-3.214,1.561-3.714c1.41-0.5,3,0.352,3.549,1.903
		C55.05,46.979,54.353,48.642,52.94,49.142z"/>
	<polygon points="45.651,20.131 40.306,22.023 39.468,19.66 44.813,17.767 	"/>
</g>
</svg>