<?xml version="1.0" encoding="utf-8"?>
<!DOCTYPE svg PUBLIC "-//W3C//DTD SVG 1.1//EN" "http://www.w3.org/Graphics/SVG/1.1/DTD/svg11.dtd">
<svg version="1.1" id="Calque_1" xmlns="http://www.w3.org/2000/svg" xmlns:xlink="http://www.w3.org/1999/xlink" viewBox="0 0 64 64" xml:space="preserve">
<g>
	<linearGradient id="SVGID_1_" gradientUnits="userSpaceOnUse" x1="-461.0049" y1="6735.5293" x2="-461.005" y2="6688.2891" gradientTransform="matrix(1 0 0 -1 493.0049 6743.9102)">
		<stop  offset="0" style="stop-color:#828991"/>
		<stop  offset="1" style="stop-color:#50565e"/>
	</linearGradient>
	<path fill="url(#SVGID_1_)" d="M32.001,8.38C18.956,8.38,8.38,18.956,8.38,32s10.576,23.62,23.621,23.62
		C45.044,55.62,55.62,45.044,55.62,32C55.62,18.957,45.044,8.38,32.001,8.38z M32.001,52.669c-11.416,0-20.672-9.253-20.672-20.669
		c0-11.415,9.256-20.669,20.672-20.669c11.414,0,20.668,9.255,20.668,20.669C52.669,43.416,43.415,52.669,32.001,52.669z"/>
	
		<linearGradient id="SVGID_2_" gradientUnits="userSpaceOnUse" x1="-462.3423" y1="6717.2754" x2="-462.3423" y2="6707.0488" gradientTransform="matrix(1 0 0 -1 493.0049 6743.9102)">
		<stop  offset="0" style="stop-color:#828991"/>
		<stop  offset="1" style="stop-color:#50565e"/>
	</linearGradient>
	<path fill="url(#SVGID_2_)" d="M31.401,26.635c-0.59,0-1.109,0.224-1.559,0.671c-0.6,0.599-1.053,1.548-1.361,2.848
		s-0.463,2.491-0.463,3.572c0,1.063,0.229,1.891,0.686,2.479c0.338,0.438,0.771,0.656,1.301,0.656c0.572,0,1.092-0.244,1.559-0.729
		c0.465-0.487,0.871-1.458,1.221-2.916c0.35-1.457,0.523-2.766,0.523-3.928c0-0.875-0.188-1.536-0.564-1.982
		C32.368,26.858,31.919,26.635,31.401,26.635z"/>
	
		<linearGradient id="SVGID_3_" gradientUnits="userSpaceOnUse" x1="-460.7671" y1="6729.6934" x2="-460.7671" y2="6694.125" gradientTransform="matrix(1 0 0 -1 493.0049 6743.9102)">
		<stop  offset="0" style="stop-color:#5c98cc"/>
		<stop  offset="1" style="stop-color:#195d99"/>
	</linearGradient>
	<path fill="url(#SVGID_3_)" d="M32.237,14.217c-9.822,0-17.783,7.962-17.783,17.783c0,9.822,7.961,17.785,17.783,17.785
		S50.022,41.823,50.022,32C50.022,22.179,42.06,14.217,32.237,14.217z M35.796,36.912c0.1,0.102,0.248,0.15,0.447,0.15
		c0.457,0,0.975-0.205,1.553-0.614c0.855-0.599,1.561-1.464,2.113-2.596c0.551-1.132,0.828-2.5,0.828-4.107
		c0-2.633-0.756-4.713-2.268-6.239c-1.512-1.525-3.539-2.288-6.084-2.288c-1.875,0-3.582,0.447-5.125,1.347
		c-1.539,0.896-2.727,2.2-3.561,3.906c-0.832,1.706-1.248,3.591-1.248,5.656c0,3.213,0.906,5.76,2.717,7.641
		c1.812,1.88,4.15,2.82,7.018,2.82c1.396,0,2.742-0.234,4.035-0.704c1.291-0.47,2.533-1.168,3.723-2.098h3.068
		c-0.818,0.97-1.598,1.729-2.336,2.277c-1.088,0.809-2.352,1.468-3.789,1.977c-1.438,0.511-2.984,0.765-4.643,0.765
		c-2.305,0-4.377-0.534-6.215-1.602c-1.836-1.066-3.271-2.589-4.305-4.563c-1.033-1.977-1.551-4.151-1.551-6.526
		c0-2.495,0.535-4.762,1.609-6.802s2.498-3.604,4.275-4.691c1.775-1.088,3.883-1.631,6.32-1.631c3.145,0,5.701,0.997,7.674,2.993
		c1.973,1.995,2.959,4.573,2.959,7.736c0,1.875-0.387,3.591-1.152,5.146c-0.771,1.558-1.898,2.789-3.385,3.696
		c-1.148,0.699-2.229,1.047-3.236,1.047c-0.6,0-1.088-0.139-1.467-0.419c-0.379-0.279-0.66-0.724-0.84-1.333
		c-0.668,0.647-1.277,1.105-1.826,1.37s-1.145,0.396-1.783,0.396c-1.326,0-2.471-0.553-3.43-1.66
		c-0.957-1.106-1.438-2.692-1.438-4.758c0-2.442,0.613-4.653,1.842-6.628s2.75-2.962,4.568-2.962c0.709,0,1.334,0.165,1.879,0.494
		c0.543,0.329,1.092,0.903,1.641,1.721l0.27-1.691h2.92L35.704,35.97c-0.041,0.239-0.061,0.415-0.061,0.523
		C35.646,36.674,35.696,36.813,35.796,36.912z"/>
</g>
</svg>
