<?xml version="1.0" encoding="utf-8"?>
<!DOCTYPE svg PUBLIC "-//W3C//DTD SVG 1.1//EN" "http://www.w3.org/Graphics/SVG/1.1/DTD/svg11.dtd">
<svg version="1.1" id="Calque_1" xmlns="http://www.w3.org/2000/svg" xmlns:xlink="http://www.w3.org/1999/xlink" viewBox="0 0 64 64" xml:space="preserve">
<g>
	<linearGradient id="SVGID_1_" gradientUnits="userSpaceOnUse" x1="-461.2822" y1="6732.8496" x2="-461.2822" y2="6713.5742" gradientTransform="matrix(1 0 0 -1 493.0049 6743.9102)">
		<stop  offset="0" style="stop-color:#5c98cc"/>
		<stop  offset="1" style="stop-color:#195d99"/>
	</linearGradient>
	<path fill="url(#SVGID_1_)" d="M43.891,30.336v-5.635v-6.333h-5.299c-1.17,0-2.117-0.948-2.117-2.119v-5.188H21.673
		c-1.171,0-2.118,0.944-2.118,2.114v17.16h0.838H43.891L43.891,30.336z M26.116,20.841h10.71c0.488,0,0.881,0.396,0.881,0.883
		s-0.393,0.884-0.881,0.884h-10.71c-0.488,0-0.883-0.396-0.883-0.884C25.234,21.238,25.627,20.841,26.116,20.841z M26.115,24.726
		h10.711c0.488,0,0.881,0.394,0.881,0.883c0,0.104-0.025,0.204-0.059,0.299c-0.01,0.021-0.014,0.044-0.023,0.065
		c-0.139,0.305-0.441,0.52-0.799,0.52h-1.021h-9.689c-0.487,0-0.883-0.395-0.883-0.884C25.234,25.118,25.627,24.726,26.115,24.726z"
		/>
	
		<linearGradient id="SVGID_2_" gradientUnits="userSpaceOnUse" x1="-461.0049" y1="6711.9297" x2="-461.0049" y2="6690.9717" gradientTransform="matrix(1 0 0 -1 493.0049 6743.9102)">
		<stop  offset="0" style="stop-color:#828991"/>
		<stop  offset="1" style="stop-color:#50565e"/>
	</linearGradient>
	<path fill="url(#SVGID_2_)" d="M52.701,31.981H11.3c-3.265,0-5.915,2.646-5.915,5.916v9.125c0,3.267,2.648,5.916,5.915,5.916
		h41.401c3.266,0,5.914-2.649,5.914-5.916v-9.125C58.615,34.627,55.967,31.981,52.701,31.981z M44.176,44.449
		c0,1.312-1.93,2.381-4.299,2.381H24.121c-2.368,0-4.297-1.068-4.297-2.381v-1.742h0.001c0-0.265,0.385-0.477,0.858-0.477h3.396
		c0.478,0,0.859,0.212,0.859,0.477v0.437c0,0.472,0.695,0.854,1.548,0.854h11.026c0.854,0,1.551-0.384,1.551-0.854v-0.437
		c0-0.265,0.385-0.477,0.857-0.477h3.396c0.475,0,0.859,0.212,0.859,0.477V44.449L44.176,44.449z M53.363,50.377
		c-1.09,0-1.973-0.885-1.973-1.975c0.002-0.932,0.646-1.712,1.516-1.917v0.858c0,0.256,0.205,0.457,0.457,0.457
		s0.457-0.2,0.457-0.457v-0.858c0.869,0.203,1.516,0.985,1.516,1.917C55.336,49.492,54.451,50.377,53.363,50.377z"/>
	
		<linearGradient id="SVGID_3_" gradientUnits="userSpaceOnUse" x1="-452.02" y1="6732.8477" x2="-452.02" y2="6727.0117" gradientTransform="matrix(1 0 0 -1 493.0049 6743.9102)">
		<stop  offset="0" style="stop-color:#828991"/>
		<stop  offset="1" style="stop-color:#50565e"/>
	</linearGradient>
	<path fill="url(#SVGID_3_)" d="M40.186,16.898h3.721l-5.842-5.836v3.717C38.064,15.95,39.016,16.898,40.186,16.898z"/>
</g>
</svg>
