<?xml version="1.0" encoding="utf-8"?>
<!DOCTYPE svg PUBLIC "-//W3C//DTD SVG 1.1//EN" "http://www.w3.org/Graphics/SVG/1.1/DTD/svg11.dtd">
<svg version="1.1" id="Calque_1" xmlns="http://www.w3.org/2000/svg" xmlns:xlink="http://www.w3.org/1999/xlink" viewBox="0 0 64 64" xml:space="preserve">
<g>
	<linearGradient id="SVGID_1_" gradientUnits="userSpaceOnUse" x1="-726.6489" y1="-7052.3564" x2="-726.6489" y2="-7012.5522" gradientTransform="matrix(1 0 0 1 758.5049 7068.9102)">
		<stop  offset="0" style="stop-color:#828991"/>
		<stop  offset="1" style="stop-color:#50565e"/>
	</linearGradient>
	<polygon fill="url(#SVGID_1_)" points="31.788,16.554 11.719,29.68 11.719,56.357 26.714,56.357 26.714,42.093 31.857,42.093 
		36.998,42.093 36.998,56.357 51.993,56.357 51.993,29.68 31.925,16.554 "/>
	
	<linearGradient id="SVGID_2_" gradientUnits="userSpaceOnUse" x1="-15.1597" y1="-4013.9546" x2="-15.1597" y2="-3834.3445" gradientTransform="matrix(1 0 0 1 47.1602 3949.3398)">
		<stop  offset="0" style="stop-color:#5c98cc"/>
		<stop  offset="1" style="stop-color:#195d99"/>
	</linearGradient>
	<path fill="url(#SVGID_2_)" d="M58.124,25.333L32.864,7.956c-0.61-0.419-1.416-0.417-2.023,0.005L22.09,14.05v-1.755
		c0-1.341-1.087-2.427-2.428-2.427h-7.506c-1.34,0-2.427,1.086-2.427,2.427v10.356l-3.862,2.688
		c-0.805,0.561-1.004,1.667-0.444,2.473c0.562,0.805,1.669,1.004,2.474,0.444l23.965-16.675l24.249,16.68
		c0.309,0.212,0.659,0.313,1.006,0.313c0.564,0,1.121-0.269,1.466-0.77C59.138,26.995,58.933,25.889,58.124,25.333z"/>
</g>
</svg>
