<?xml version="1.0" encoding="utf-8"?>
<!DOCTYPE svg PUBLIC "-//W3C//DTD SVG 1.1//EN" "http://www.w3.org/Graphics/SVG/1.1/DTD/svg11.dtd">
<svg version="1.1" id="Calque_1" xmlns="http://www.w3.org/2000/svg" xmlns:xlink="http://www.w3.org/1999/xlink" viewBox="0 0 64 64" xml:space="preserve">
<g>
	<g>
		<linearGradient id="SVGID_1_" gradientUnits="userSpaceOnUse" x1="-268.1606" y1="-6391.8301" x2="-268.1606" y2="-6347.1104" gradientTransform="matrix(1 0 0 1 314.0049 6403.4102)">
			<stop  offset="0" style="stop-color:#828991"/>
			<stop  offset="1" style="stop-color:#50565e"/>
		</linearGradient>
		<path fill="url(#SVGID_1_)" d="M52.746,19.182c-2.811-3.991-6.369-6.256-8.855-7.453c-0.744-0.358-1.637-0.045-1.992,0.697
			c-0.357,0.744-0.045,1.635,0.695,1.993c3.396,1.634,11.295,6.699,11.295,18.414c0,14.589-12.408,20.483-17.58,20.483
			c-0.826,0-1.494,0.668-1.494,1.492s0.668,1.492,1.494,1.492c3.049,0,8.258-1.487,12.9-5.683c3.496-3.161,7.666-8.812,7.666-17.787
			C56.875,27.659,55.486,23.066,52.746,19.182z"/>
		
			<linearGradient id="SVGID_2_" gradientUnits="userSpaceOnUse" x1="-298.877" y1="-6392.2295" x2="-298.877" y2="-6355.7368" gradientTransform="matrix(1 0 0 1 314.0049 6403.4102)">
			<stop  offset="0" style="stop-color:#828991"/>
			<stop  offset="1" style="stop-color:#50565e"/>
		</linearGradient>
		<path fill="url(#SVGID_2_)" d="M22.222,14.047c0.76-0.324,1.111-1.201,0.789-1.959c-0.324-0.758-1.2-1.112-1.96-0.787
			c-3.267,1.394-13.926,7.063-13.926,21.531c0,5.385,1.499,10.172,4.456,14.229c0.292,0.399,0.747,0.612,1.207,0.612
			c0.306,0,0.613-0.094,0.879-0.287c0.665-0.485,0.812-1.42,0.327-2.086c-2.577-3.533-3.885-7.729-3.885-12.468
			C10.111,20.194,19.38,15.259,22.222,14.047z"/>
	</g>
	
	<linearGradient id="SVGID_3_" gradientUnits="userSpaceOnUse" x1="-283.8579" y1="-6395.71" x2="-283.8579" y2="-6351.5864" gradientTransform="matrix(1 0 0 1 314.0049 6403.4102)">
		<stop  offset="0" style="stop-color:#5c98cc"/>
		<stop  offset="1" style="stop-color:#195d99"/>
	</linearGradient>
	<path fill="url(#SVGID_3_)" d="M32.551,19.644c3.402,0,3.07,0,4.314,0c1.242,0,2.072-1.742,2.072-2.903c0-1.161,0-6.054,0-7.049
		S38.025,7.7,36.949,7.7c-1.08,0-2.406,0-3.568,0c-1.16,0-12.024,1.161-12.024,22.061S32.22,51.823,33.381,51.823
		c1.162,0,2.488,0,3.568,0c1.076,0,1.988-0.996,1.988-1.99c0-0.996,0-5.888,0-7.05c0-1.16-0.828-2.902-2.072-2.902s-0.912,0-4.314,0
		c-3.398,0-3.149-10.117-3.149-10.117S29.153,19.644,32.551,19.644z M34.377,10.77c0-0.778,0.631-1.41,1.41-1.41
		c0.777,0,1.41,0.632,1.41,1.41v5.806c0,0.779-0.633,1.41-1.41,1.41c-0.779,0-1.41-0.63-1.41-1.41V10.77z M34.377,42.782
		c0-0.778,0.631-1.409,1.41-1.409c0.777,0,1.41,0.631,1.41,1.409v5.807c0,0.778-0.633,1.408-1.41,1.408
		c-0.779,0-1.41-0.631-1.41-1.408V42.782z"/>
</g>
</svg>
