<?xml version="1.0" standalone="no"?>
<!DOCTYPE svg PUBLIC "-//W3C//DTD SVG 1.1//EN" "http://www.w3.org/Graphics/SVG/1.1/DTD/svg11.dtd" >
<svg xmlns="http://www.w3.org/2000/svg">
<metadata></metadata>
<defs>
<font id="caviar_dreamsregular" horiz-adv-x="464" >
<font-face units-per-em="2048" ascent="1638" descent="-410" />
<missing-glyph horiz-adv-x="764" />
<glyph horiz-adv-x="2048" />
<glyph horiz-adv-x="2048" />
<glyph unicode="&#xd;" horiz-adv-x="764" />
<glyph unicode=" "  horiz-adv-x="764" />
<glyph unicode="&#x09;" horiz-adv-x="764" />
<glyph unicode="&#xa0;" horiz-adv-x="764" />
<glyph unicode="!" d="M135 81.5q0 40.5 28.5 68.5t68.5 28t68.5 -28t28.5 -68.5t-28.5 -68.5t-68.5 -28t-68.5 28t-28.5 68.5zM181 298v1430h98v-1430h-98z" />
<glyph unicode="&#x22;" horiz-adv-x="621" d="M135 1077v648h97v-648h-97zM389 1077v648h97v-648h-97z" />
<glyph unicode="#" horiz-adv-x="1785" d="M135 621l25 97h480l62 249h-481l25 97h481l120 480h97l-120 -480h248l120 480h98l-120 -480h480l-25 -97h-480l-62 -249h481l-25 -97h-481l-119 -481h-98l120 481h-248l-120 -481h-97l120 481h-481zM738 718h248l62 249h-249z" />
<glyph unicode="$" horiz-adv-x="1091" d="M108 481l89 32q13 -124 101 -211.5t205 -99.5v760q-276 120 -276 345q0 128 85 214t191 98v176h97v-178q96 -16 157.5 -76.5t82.5 -127.5l-84 -34q-18 50 -58.5 90t-97.5 54v-501q148 -58 266 -175t118 -299.5t-119 -301.5t-265 -136v-151h-97v150q-155 12 -264 121.5 t-131 250.5zM321 1307q0 -93 55 -148t127 -95v462q-67 -11 -124.5 -68.5t-57.5 -150.5zM600 204q108 16 200 108t92 236t-101 246q-80 80 -191 130v-720z" />
<glyph unicode="%" horiz-adv-x="1318" d="M86 1063q0 103 73 176t177 73t176.5 -73t72.5 -176q0 -104 -72.5 -177t-176.5 -73t-177 73t-73 177zM124 58l992 1416l80 -55l-992 -1416zM180 1063q0 -65 45.5 -110.5t110 -45.5t110 45.5t45.5 110.5t-45.5 110t-110 45t-110 -45t-45.5 -110zM734 415q0 103 73 176 t177 73t176.5 -73t72.5 -176q0 -104 -72.5 -177t-176.5 -73t-177 73t-73 177zM828 415q0 -65 45.5 -110.5t110 -45.5t110 45.5t45.5 110.5t-45.5 110t-110 45t-110 -45t-45.5 -110z" />
<glyph unicode="&#x26;" horiz-adv-x="1408" d="M81 492q0 212 148 370q101 109 263 163q-77 33 -158.5 120t-81.5 238t106.5 258.5t258.5 107.5t260 -107q59 -58 82 -129l-87 -34q-20 52 -64 97q-79 77 -190 77t-190 -78t-79 -190t76 -193t141 -105.5t162 -25.5v-91l-78 -2q-236 -45 -355 -174.5t-119 -301.5t122 -294 t294.5 -122t294.5 122q71 71 101 159q-61 24 -156 124q-52 47 -75 59.5t-41 12.5q-63 0 -91 -49q-14 -23 -14 -42q0 -99 103 -99q19 0 44 3l-10 -88q-27 -8 -62 -8t-76 23q-65 35 -85 112q-8 27 -8 63t26 82q56 97 169 97q47 0 91 -25t113 -97q62 -57 93 -74.5t58 -17.5 q91 0 132 71q18 34 18 60q0 89 -70 130q-30 18 -62.5 18t-63.5 -9l-1 96q30 9 73.5 9t98.5 -31q85 -48 110 -142q9 -32 9 -77t-31 -99q-64 -113 -197 -119q-35 -116 -128 -209q-150 -152 -362 -152t-362 150.5t-150 362.5z" />
<glyph unicode="'" horiz-adv-x="367" d="M135 1077v648h97v-648h-97z" />
<glyph unicode="(" horiz-adv-x="759" d="M108 863.5q0 474.5 220 750.5q142 178 323 240v-96q-146 -67 -263 -215q-196 -246 -196 -679.5t196 -679.5q117 -148 263 -219v-91q-181 62 -323 240q-220 275 -220 749.5z" />
<glyph unicode=")" horiz-adv-x="759" d="M108 -35q146 71 264 219q195 246 195 679.5t-195 679.5q-118 148 -264 215v96q181 -62 323 -240q220 -276 220 -750.5t-220 -749.5q-142 -178 -323 -240v91z" />
<glyph unicode="*" horiz-adv-x="864" d="M138 1255l209 146l-209 146l56 79l189 -132v231h98v-230l188 131l56 -79l-209 -146l209 -146l-56 -80l-188 132v-230h-98v231l-189 -133z" />
<glyph unicode="+" horiz-adv-x="1134" d="M135 591v97h383v383h98v-383h383v-97h-383v-384h-98v384h-383z" />
<glyph unicode="," horiz-adv-x="409" d="M11 -237l111 416h179l-199 -416h-91z" />
<glyph unicode="-" horiz-adv-x="907" d="M135 591v97h637v-97h-637z" />
<glyph unicode="." horiz-adv-x="410" d="M108 81.5q0 40.5 28.5 68.5t68.5 28t68.5 -28t28.5 -68.5t-28.5 -68.5t-68.5 -28t-68.5 28t-28.5 68.5z" />
<glyph unicode="/" horiz-adv-x="785" d="M-54 0l782 1728h111l-783 -1728h-110z" />
<glyph unicode="0" horiz-adv-x="1350" d="M82 563v572q0 245 174 419t419.5 174t419 -174t173.5 -419v-572q0 -245 -173.5 -419t-419 -174t-419.5 174t-174 419zM185 563q0 -203 143.5 -346.5t346.5 -143.5t346.5 143.5t143.5 346.5v572q0 203 -143.5 346t-346.5 143t-346.5 -143t-143.5 -346v-572z" />
<glyph unicode="1" horiz-adv-x="1350" d="M575 1557l132 171h67v-1728h-97v1557h-102z" />
<glyph unicode="2" horiz-adv-x="1350" d="M163 1317q25 162 145 282q151 153 364.5 153t364 -151.5t150.5 -364.5t-148 -372q-100 -109 -237.5 -211.5t-309.5 -231.5q-171 -128 -213 -324h908v-97h-1019q50 335 229 468.5t316 236.5t254.5 231.5t117.5 299.5t-121 292t-291.5 121t-283.5 -112t-128 -256z" />
<glyph unicode="3" horiz-adv-x="1350" d="M163 411l98 36q15 -144 128 -256t283.5 -112t291.5 121t121 292t-117.5 299.5t-352.5 172.5l-81 3v97q100 1 164 26t139.5 104.5t75.5 190.5t-78 188t-187.5 77t-188.5 -76q-43 -45 -64 -100l-93 37q24 76 84 133q109 108 262 108t260.5 -108.5t107.5 -260.5t-82 -240 t-153 -117q155 -52 258 -162q148 -159 148 -372t-150.5 -364.5t-364 -151.5t-364.5 153q-120 120 -145 282z" />
<glyph unicode="4" horiz-adv-x="1350" d="M187 505l713 1223h97v-1125h165v-98h-165v-505h-97v505h-713zM354 603h546v915z" />
<glyph unicode="5" horiz-adv-x="1350" d="M126 227l69 76q92 -136 266 -189q78 -23 176 -23t213 60q187 100 249 303q24 77 24 175.5t-61 213.5q-100 186 -303 258q-87 30 -208 30t-289 -53l-77 68l198 547v35h540v-97h-459l-159 -440q138 45 255.5 45t226.5 -38q244 -83 363 -307q75 -139 75 -285q0 -91 -28 -183 q-75 -243 -298 -363q-137 -72 -281 -72q-92 0 -187 29q-194 60 -305 210z" />
<glyph unicode="6" horiz-adv-x="1350" d="M79 544q11 382 183.5 623.5t427.5 527.5q15 17 29 33h134q-21 -27 -45 -54q-284 -318 -451 -554q-35 -50 -63 -105q163 142 396.5 142t407 -174t173.5 -419.5t-173.5 -419.5t-419 -174t-416 170.5t-177.5 403.5h-6zM188 563q0 -203 143.5 -346.5t346.5 -143.5t347 143.5 t144 346.5t-144 346.5t-347 143.5t-346.5 -143.5t-143.5 -346.5z" />
<glyph unicode="7" horiz-adv-x="1350" d="M165 0q11 381 184 623t427.5 527t297.5 481h-909v97h1019q-7 -281 -290.5 -598.5t-449.5 -554t-177 -575.5h-102z" />
<glyph unicode="8" horiz-adv-x="1350" d="M116 492q0 213 148 372q102 110 258 162q-72 29 -154 117t-82 240t107.5 260.5t262.5 108.5h38q155 0 262.5 -108.5t107.5 -260.5t-82 -240t-154 -117q156 -52 258 -162q148 -159 148 -372t-150.5 -364.5t-364.5 -151.5q-21 0 -44 2q-22 -2 -44 -2q-214 0 -364.5 151.5 t-150.5 364.5zM217 492q0 -171 121 -292t293 -121q21 0 43 2h2q22 -2 43 -2q172 0 293 121t121 292t-116 298t-342 172q-226 -45 -342 -172t-116 -298zM390 1385q0 -111 75 -190.5t123 -98t87 -25.5q39 7 87 25.5t123 98t75 190.5t-77.5 188t-188.5 77q-9 0 -18 -1h-2 q-9 1 -18 1q-111 0 -188.5 -77t-77.5 -188z" />
<glyph unicode="9" horiz-adv-x="1350" d="M79 1134.5q0 245.5 173.5 419.5t419 174t416 -170.5t177.5 -404.5h6q-11 -381 -183.5 -623t-427.5 -527q-15 -17 -29 -33h-134q21 27 45 54q284 317 451 554q35 49 63 105q-163 -142 -396.5 -142t-407 174t-173.5 419.5zM181 1135q0 -203 144 -346.5t347 -143.5 t346.5 143.5t143.5 346.5t-143.5 346t-346.5 143t-347 -143t-144 -346z" />
<glyph unicode=":" d="M135 81.5q0 40.5 28.5 68.5t68.5 28t68.5 -28t28.5 -68.5t-28.5 -68.5t-68.5 -28t-68.5 28t-28.5 68.5zM135 747.5q0 40.5 28.5 69t68.5 28.5t68.5 -28.5t28.5 -69t-28.5 -68.5t-68.5 -28t-68.5 28t-28.5 68.5z" />
<glyph unicode=";" horiz-adv-x="515" d="M90 -237l111 416h179l-200 -416h-90zM135 747.5q0 40.5 28.5 69t68.5 28.5t68.5 -28.5t28.5 -69t-28.5 -68.5t-68.5 -28t-68.5 28t-28.5 68.5z" />
<glyph unicode="&#x3c;" horiz-adv-x="1456" d="M108 608l1241 451v-103l-957 -348l957 -348v-103z" />
<glyph unicode="=" horiz-adv-x="1134" d="M135 418v97h864v-97h-864zM135 764v97h864v-97h-864z" />
<glyph unicode="&#x3e;" horiz-adv-x="1456" d="M108 157v103l957 348l-957 348v103l1241 -451z" />
<glyph unicode="?" horiz-adv-x="1032" d="M137 1307v8q0 71 35 140q67 137 209 187q63 21 133 21t148 -37q136 -65 186 -207q21 -61 21 -131.5t-37 -148.5q-66 -137 -220 -256q-126 -111 -191 -247q-43 -88 -43 -168t25 -150l-90 -32q-30 87 -30 185t53 206q86 181 260 312q175 170 175 309q0 44 -15 89 q-38 106 -138 154q-57 27 -108.5 27t-96.5 -16q-105 -37 -154 -136q-27 -56 -27 -114zM255 81.5q0 40.5 28.5 68.5t68.5 28t68.5 -28t28.5 -68.5t-28.5 -68.5t-68.5 -28t-68.5 28t-28.5 68.5z" />
<glyph unicode="@" horiz-adv-x="1756" d="M135 591q0 306 218.5 525t526 219t524.5 -219t217 -525q0 -137 -100 -294t-221 -157q-14 0 -27 3q-93 19 -100 108v87q-131 -137 -293.5 -137t-278 115.5t-115.5 277t115.5 277t278 115.5t293.5 -137v123h87v-700q20 -46 63.5 -46t128 119t84.5 246q0 271 -193 463.5 t-464 192.5t-462.5 -192.5t-191.5 -463.5t191.5 -463t462.5 -192q186 0 271 53l62 -65q-130 -75 -333 -75q-307 0 -525.5 218t-218.5 524zM580 593q0 -125 88 -213.5t213 -88.5q126 0 214 88q62 62 80 143v142q-18 81 -80 143q-88 89 -214 89q-125 0 -213 -89t-88 -214z" />
<glyph unicode="A" horiz-adv-x="1394" d="M54 0l644 1768l642 -1768h-102l-241 662h-598l-241 -662h-104zM434 759h527l-263 725z" />
<glyph unicode="B" horiz-adv-x="1151" d="M162 0v1728h307q133 0 227.5 -94t94.5 -227.5t-138 -248.5q121 -25 228 -143q173 -174 173 -419.5t-167 -418.5t-390 -176v-1h-335zM259 97h238v-1q180 12 317 154t137 345t-143.5 346.5t-346.5 143.5h-202v-988zM259 1189h235q81 8 142.5 64.5t61.5 153.5t-66 160.5 t-163 63.5h-210v-442z" />
<glyph unicode="C" horiz-adv-x="1722" d="M135 863.5q0 366.5 258.5 626t613.5 259.5t608 -231l-74 -66q-222 197 -534.5 197t-542.5 -230t-230 -555.5t230 -555.5t542.5 -230t534.5 197l74 -65q-253 -231 -608 -231t-613.5 259t-258.5 625.5z" />
<glyph unicode="D" horiz-adv-x="1294" d="M162 0v1728h97v-2h8q426 0 661 -236q259 -260 259 -626.5t-259 -625.5q-235 -236 -661 -236h-8v-2h-97zM259 100h8q384 0 591 208q230 230 230 555.5t-230 556.5q-207 206 -591 206h-8v-1526z" />
<glyph unicode="E" horiz-adv-x="1161" d="M162 0v1728h864v-97h-767v-718h767v-98h-767v-718h767v-97h-864z" />
<glyph unicode="F" horiz-adv-x="1053" d="M162 0v1728h756v-97h-659v-718h659v-98h-659v-815h-97z" />
<glyph unicode="G" horiz-adv-x="1749" d="M135 863.5q0 366.5 258.5 626t613.5 259.5t608 -231l-74 -66q-222 197 -534.5 197t-542.5 -230t-230 -555.5t230 -555.5t556 -230q278 0 491 171v528h97v-562q-246 -236 -601 -236t-613.5 259t-258.5 625.5z" />
<glyph unicode="H" horiz-adv-x="1242" d="M162 0v1728h97v-856h724v856h97v-1728h-97v774h-724v-774h-97z" />
<glyph unicode="I" d="M184 0v1728h97v-1728h-97z" />
<glyph unicode="J" horiz-adv-x="925" d="M135 280l64 25q21 -117 85.5 -171t137.5 -54q13 0 27 2q90 0 151 60.5t61 196.5v1389h97v-1400q0 -164 -89 -253.5t-220 -89.5q-130 0 -222 92.5t-92 202.5z" />
<glyph unicode="K" horiz-adv-x="1184" d="M162 0v1728h97v-735l552 735h125l-518 -696l670 -1032h-120l-614 955l-95 -118v-837h-97z" />
<glyph unicode="L" horiz-adv-x="1026" d="M162 0v1728h97v-1631h670v-97h-767z" />
<glyph unicode="M" horiz-adv-x="1843" d="M162 1728h111l649 -1123l648 1123h112l-5 -8v-1720h-97v1552l-658 -1138l-658 1138v-1552h-98v1720z" />
<glyph unicode="N" horiz-adv-x="1415" d="M162 0v1728h107l888 -1537v1537h97v-1728h-97l-898 1552v-1552h-97z" />
<glyph unicode="O" horiz-adv-x="2043" d="M135 866q0 367 259.5 627t627.5 260q367 0 626.5 -260t259.5 -627t-259.5 -627t-626.5 -260q-368 0 -627.5 260t-259.5 627zM234 866q0 -326 231 -557t557 -231t556.5 231t230.5 557t-230.5 556.5t-556.5 230.5t-557 -230.5t-231 -556.5z" />
<glyph unicode="P" horiz-adv-x="1176" d="M162 0v1728h454q197 -27 335 -165q166 -165 166 -399t-165.5 -399.5t-398.5 -165.5h-294v-599h-97zM259 698h294q192 0 328.5 136.5t136.5 329.5q0 194 -136.5 330t-328.5 136h-294v-932z" />
<glyph unicode="Q" horiz-adv-x="2043" d="M135 866q0 367 259.5 627t627.5 260q367 0 626.5 -260t259.5 -627t-259 -626q-188 -188 -431 -240q6 -2 11 -3q79 -22 213 -106q91 -49 120.5 -57.5t59.5 -8.5t77 26.5t65 89.5q5 17 6 34h98q-10 -144 -131 -213q-59 -33 -108 -33t-99.5 14t-169.5 90q-110 58 -149 69 t-81 11t-92 -29q-80 -45 -104 -132q-4 -13 -5 -26h-98q2 26 9 53q36 125 150 190l22 10q-361 4 -619 262t-258 625zM234 866q0 -326 231 -557t557 -231t556.5 231t230.5 557t-230.5 556.5t-556.5 230.5t-557 -230.5t-231 -556.5z" />
<glyph unicode="R" horiz-adv-x="1176" d="M162 0v1728h454q197 -27 335 -165q166 -165 166 -399t-166 -399q-114 -115 -262 -150l399 -615h-120l-386 600q-14 -1 -29 -1h-294v-599h-97zM259 698h294q192 0 328.5 136.5t136.5 329.5q0 194 -136.5 330t-328.5 136h-294v-932z" />
<glyph unicode="S" horiz-adv-x="1125" d="M54 409l92 34q15 -141 128.5 -254t285.5 -113t294 122t122 294t-114.5 286.5t-269.5 178.5q-185 61 -292 168t-107 258t107 258.5t259 107.5t260 -107q59 -58 82 -129l-88 -34q-19 52 -63 97q-79 77 -191 77q-111 0 -189.5 -78t-78.5 -190t76 -187.5t205 -135.5 q208 -67 353.5 -212.5t145.5 -357.5t-150 -362.5t-362 -150.5q-211 0 -361 152q-120 120 -144 278z" />
<glyph unicode="T" horiz-adv-x="1080" d="M54 1631v97h972v-97h-437v-1631h-98v1631h-437z" />
<glyph unicode="U" horiz-adv-x="1452" d="M162 549v1179h98v-1179q0 -193 137 -329.5t330 -136.5t329 136.5t136 329.5v1179h99v-1242q-27 -198 -166 -336q-165 -165 -399 -165t-399 165t-165 399z" />
<glyph unicode="V" horiz-adv-x="1394" d="M54 1728h103l540 -1484l540 1484h103l-643 -1768z" />
<glyph unicode="W" horiz-adv-x="1805" d="M135 400v1328h97v-1320q0 -135 98 -230.5t232 -95.5t231 94q36 37 61 83v1469h97v-1469q25 -46 62 -83q97 -94 231 -94t232 95.5t98 230.5v1320h97v-1328q-3 -169 -126.5 -292t-300 -123t-301.5 124q-23 22 -40 44q-17 -22 -40 -44q-125 -124 -302 -124t-300 123 t-126 292z" />
<glyph unicode="X" horiz-adv-x="1315" d="M54 0l548 949l-450 779h112l393 -683l395 683h111l-451 -779l549 -949h-111l-493 853l-493 -853h-110z" />
<glyph unicode="Y" horiz-adv-x="1394" d="M54 1728h111l532 -921l532 921h111l-595 -1029v-699h-97v699z" />
<glyph unicode="Z" horiz-adv-x="1433" d="M162 0l942 1631h-942v97h1109l-943 -1631h943v-97h-1109z" />
<glyph unicode="[" horiz-adv-x="604" d="M135 -405v2133h335v-97h-238v-1939h238v-97h-335z" />
<glyph unicode="\" horiz-adv-x="785" d="M-54 1728h111l782 -1728h-110z" />
<glyph unicode="]" horiz-adv-x="604" d="M135 -308h238v1939h-238v97h335v-2133h-335v97z" />
<glyph unicode="^" horiz-adv-x="994" d="M108 1151l334 577h112l333 -577h-113l-276 479l-277 -479h-113z" />
<glyph unicode="_" horiz-adv-x="1134" d="M27 -32h1080v-98h-1080v98z" />
<glyph unicode="`" horiz-adv-x="679" d="M162 1498h179l176 -202h-90z" />
<glyph unicode="a" horiz-adv-x="1468" d="M135 563.5q0 245.5 174 419.5t419 174q299 0 482 -247v151h97v-1061h-97v216q-183 -246 -482 -246q-245 0 -419 174t-174 419.5zM238 563q0 -203 143.5 -346.5t346.5 -143.5t347 144q108 108 135 250v192q-27 142 -135 250q-144 144 -347 144t-346.5 -143.5 t-143.5 -346.5z" />
<glyph unicode="b" horiz-adv-x="1467" d="M162 0v1728h97v-816q27 36 62 71q174 174 419.5 174t419 -174t173.5 -419.5t-173.5 -419.5t-419 -174t-419.5 174q-35 34 -62 71v-215h-97zM259 461q28 -138 134 -244q144 -144 347 -144t346.5 143.5t143.5 346.5t-143.5 346.5t-346.5 143.5t-347 -144 q-106 -105 -134 -245v-203z" />
<glyph unicode="c" horiz-adv-x="1271" d="M97 563.5q0 245.5 174 419.5t420 174q299 0 483 -248l-103 -37q-151 181 -367 181t-359.5 -143t-143.5 -346t143.5 -347t359.5 -144t367 182l103 -37q-28 -39 -64 -74q-174 -174 -419.5 -174t-419.5 174t-174 419.5z" />
<glyph unicode="d" horiz-adv-x="1468" d="M135 563.5q0 245.5 174 419.5t419 174q299 0 482 -247v818h97v-1728h-97v216q-183 -246 -482 -246q-245 0 -419 174t-174 419.5zM238 563q0 -203 143.5 -346.5t346.5 -143.5t347 144q108 108 135 250v192q-27 142 -135 250q-144 144 -347 144t-346.5 -143.5 t-143.5 -346.5z" />
<glyph unicode="e" horiz-adv-x="1271" d="M97 563.5q0 245.5 174 419.5t419 174q267 0 439 -194l-765 -764q137 -126 326 -126q230 0 381 182l103 -37q-28 -39 -64 -74q-174 -174 -419.5 -174t-419.5 174t-174 419.5zM201 564q0 -168 97 -294l686 686q-126 97 -294 97q-202 0 -345.5 -143t-143.5 -346z" />
<glyph unicode="f" horiz-adv-x="564" d="M97 963v98h108v287q7 120 92 206q89 82 204 82q61 0 128 -22l-31 -87q-45 20 -87 20q-77 0 -145 -62q-60 -59 -64 -144v-280h216v-98h-216v-963h-97v963h-108z" />
<glyph unicode="g" horiz-adv-x="1473" d="M135 563.5q0 245.5 174 419t419 173.5q299 0 482 -246v151h97v-824q0 -239 -172 -411t-417.5 -172t-419.5 174q-36 36 -64 75l103 37q151 -182 367 -182t353 137t149 316q-188 -241 -478 -241q-245 0 -419 174t-174 419.5zM238 563q0 -203 143.5 -347t346.5 -144t347 144 q104 105 134 243v205q-29 140 -134 245q-144 144 -347 144t-346.5 -143.5t-143.5 -346.5z" />
<glyph unicode="h" horiz-adv-x="1143" d="M162 0v1728h97v-723q123 119 303.5 119t298 -117.5t121.5 -296.5v-710h-97v701q0 135 -98 230.5t-232 95.5t-231 -94q-43 -43 -65 -90v-843h-97z" />
<glyph unicode="i" d="M135 1339.5q0 40.5 28.5 68.5t68.5 28t68.5 -28t28.5 -68.5t-28.5 -68.5t-68.5 -28t-68.5 28t-28.5 68.5zM184 0v1061h97v-1061h-97z" />
<glyph unicode="j" horiz-adv-x="491" d="M53 -149q131 15 131 147v1063h97v-1061q0 -228 -228 -246v97zM135 1339.5q0 40.5 28.5 68.5t68.5 28t68.5 -28t28.5 -68.5t-28.5 -68.5t-68.5 -28t-68.5 28t-28.5 68.5z" />
<glyph unicode="k" horiz-adv-x="888" d="M162 0v1512h97v-815l295 364h125l-261 -324l417 -737h-121l-360 659l-95 -118v-541h-97z" />
<glyph unicode="l" horiz-adv-x="421" d="M162 0v1728h97v-1728h-97z" />
<glyph unicode="m" horiz-adv-x="1485" d="M162 0v1061h97v-25q91 87 219.5 87t220.5 -92q25 -24 43 -54q18 28 44 54q92 92 223 92q130 0 220 -90t94 -214v-819h-97v819h1q-4 84 -66.5 145.5t-151.5 61.5q-90 0 -154 -63.5t-64 -158.5v-804h-98v819h1q-4 84 -66 145.5t-152 61.5q-89 0 -149 -59.5t-68 -139.5v-827 h-97z" />
<glyph unicode="n" horiz-adv-x="1156" d="M162 0v1061h97v-68q133 131 315 131t299.5 -117.5t121.5 -296.5v-710h-98v701q0 135 -97.5 230.5t-231.5 95.5t-231 -94q-53 -53 -78 -109v-824h-97z" />
<glyph unicode="o" horiz-adv-x="1380" d="M97 563.5q0 245.5 174 419.5t419.5 174t419 -174t173.5 -419.5t-173.5 -419.5t-419 -174t-419.5 174t-174 419.5zM200 563q0 -203 143.5 -346.5t346.5 -143.5t346.5 143.5t143.5 346.5t-143.5 346.5t-346.5 143.5t-346.5 -143.5t-143.5 -346.5z" />
<glyph unicode="p" horiz-adv-x="1440" d="M162 -405v1466h97v-149q27 36 62 71q174 173 419.5 173t419 -173.5t173.5 -419t-173.5 -419.5t-419 -174t-419.5 174q-35 34 -62 71v-620h-97zM259 461q28 -139 134 -245q144 -144 347 -144t346.5 144t143.5 347t-143.5 346.5t-346.5 143.5t-347 -144 q-106 -105 -134 -245v-203z" />
<glyph unicode="q" horiz-adv-x="1441" d="M108 563.5q0 245.5 174 419t419 173.5q299 0 482 -246v151h97v-1466h-97v621q-183 -246 -482 -246q-245 0 -419 174t-174 419.5zM211 563q0 -203 143.5 -347t346.5 -144t347 144q108 108 135 251v192q-27 142 -135 250q-144 144 -347 144t-346.5 -143.5t-143.5 -346.5z " />
<glyph unicode="r" horiz-adv-x="646" d="M162 0v1061h97v-194q30 43 70 83q129 129 264 135v-105q-92 -5 -190 -103q-138 -137 -144 -329v-548h-97z" />
<glyph unicode="s" horiz-adv-x="866" d="M124 269l96 25q0 -95 64.5 -159t153.5 -64q90 0 154.5 64t64.5 154.5t-64 154.5q-35 34 -139 101q-125 67 -172 115q-75 74 -75 179.5t74.5 180.5t180 75t173.5 -68.5t68 -154.5v-6l-84 -33q-22 164 -158 164q-65 0 -111.5 -46t-46.5 -111.5t37 -102t124 -91.5 q139 -76 197 -134q92 -93 92 -223t-92 -222.5t-223 -92.5q-130 0 -222 92.5t-92 202.5z" />
<glyph unicode="t" horiz-adv-x="723" d="M97 963v98h216v451h97v-451h216v-98h-216v-963h-97v963h-216z" />
<glyph unicode="u" horiz-adv-x="1186" d="M162 400v661h97v-653q0 -135 98 -230.5t236.5 -95.5t236.5 95.5t98 230.5v653h97v-661q-3 -180 -121 -297q-118 -118 -310.5 -118t-310.5 117.5t-121 297.5z" />
<glyph unicode="v" horiz-adv-x="1149" d="M54 1061h112l409 -884l408 884h112l-520 -1090z" />
<glyph unicode="w" horiz-adv-x="1485" d="M162 289v772h97v-772h-1q4 -84 66.5 -145.5t151.5 -61.5q90 0 150 59.5t67 139.5v780h98v-756q0 -95 64 -159t154 -64q89 0 151.5 61.5t66.5 145.5h-1v772h97v-772q-4 -124 -94 -214t-220 -90q-168 0 -266 145q-18 -27 -44 -52q-92 -93 -223 -93q-130 0 -220 90t-94 214z " />
<glyph unicode="x" horiz-adv-x="940" d="M81 0l337 582l-277 479h113l217 -375l216 375h113l-276 -479l336 -582h-113l-276 478l-277 -478h-113z" />
<glyph unicode="y" horiz-adv-x="1085" d="M81 1061h110l352 -761l352 761h109l-461 -967v1l-240 -500h-95l287 600z" />
<glyph unicode="z" horiz-adv-x="1080" d="M162 0l548 963h-548v98h715l-549 -964h590v-97h-756z" />
<glyph unicode="{" horiz-adv-x="935" d="M135 618v87q10 -3 22 -3q49 0 132 48q125 71 164 210q20 78 20 145t-6 116q-16 78 -16 148q0 227 161 318q71 41 147 41q21 0 41 -3v-81q-19 3 -57 3t-91 -29q-81 -47 -104 -136q-17 -60 -17 -114t4 -90q17 -82 17 -161q0 -339 -260 -455q19 -10 37 -19q153 -88 200 -259 q23 -86 23 -171.5t-17 -167.5q-4 -36 -4 -90q0 -181 121 -249q55 -30 92.5 -30t55.5 2v-80q-20 -3 -41 -3q-76 0 -147 41q-161 91 -161 321q0 68 16 145q6 49 6 116t-20 145q-39 139 -164 210q-83 48 -132 48q-12 0 -22 -3z" />
<glyph unicode="|" horiz-adv-x="421" d="M162 -405v2133h97v-2133h-97z" />
<glyph unicode="}" horiz-adv-x="935" d="M135 -322q18 -2 55.5 -2t92.5 30q81 46 105 135q16 60 16 114t-3 90q-18 82 -18 167.5t23 171.5q48 171 200 259l38 19q-261 116 -261 455q0 79 18 161q3 36 3 90q0 180 -121 250q-53 29 -91 29t-57 -3v81q21 3 41 3q77 0 147 -41q161 -91 161 -320q0 -68 -11 -131.5 t-11 -130.5t21 -145q39 -139 163 -210q83 -48 133 -48q12 0 21 3v-87q-9 3 -21 3q-50 0 -133 -48q-124 -71 -163 -210q-21 -78 -21 -145t7 -116q15 -77 15 -147q0 -228 -161 -319q-70 -41 -147 -41q-20 0 -41 3v80z" />
<glyph unicode="~" horiz-adv-x="1379" d="M135 764q2 51 24 104q49 120 169 160q27 9 60 9q114 0 309 -112.5t287 -112.5q16 0 29 3q83 25 117 108q16 41 16 84l98 -16q-4 -51 -25 -104q-49 -120 -168 -160q-27 -9 -61 -9q-113 0 -309 112.5t-287 112.5q-15 0 -28 -3q-83 -25 -117 -108q-16 -43 -17 -84z" />
<glyph unicode="&#xa1;" d="M135 1650.5q0 40.5 28.5 68.5t68.5 28t68.5 -28t28.5 -68.5t-28.5 -68.5t-68.5 -28t-68.5 28t-28.5 68.5zM186 4v1430h97v-1430h-97z" />
<glyph unicode="&#xa2;" horiz-adv-x="1094" d="M107 1146.5q0 199.5 141 340.5q108 108 250 134v174h97v-166q233 -3 390 -208l-94 -35q-120 144 -296 147v-772q176 3 296 147l94 -34q-153 -206 -390 -209v-166h-97v174q-142 25 -250 134q-141 140 -141 339.5zM203 1147q0 -160 113 -272q79 -80 182 -104v752 q-103 -24 -182 -103q-113 -113 -113 -273z" />
<glyph unicode="&#xa3;" horiz-adv-x="1220" d="M108 22q134 118 168 161q117 138 117 315q0 47 -9 101h-246v98h226q-28 102 -81 204q-137 222 -137 391.5t105 295.5q120 143 322 143q151 0 277 -106q147 -123 147 -329q0 -68 -24 -123l-93 31q16 47 16 82q0 172 -116 270q-91 76 -205 76q-154 0 -251 -116 q-76 -90 -76 -204q0 -129 86 -309q93 -149 131 -306h213v-98h-194q7 -53 7 -94q0 -220 -183 -437q135 49 239 49t196 -21t183 -21t168 19l18 -96q-87 -22 -182 -22t-199 23.5t-181 23.5t-130 -19q-112 -41 -218 -94z" />
<glyph unicode="&#xa4;" horiz-adv-x="1200" d="M108 813l150 150q-96 117 -96 274q0 156 96 273l-150 150l69 69l150 -150q117 96 273 96q157 0 274 -96l150 150l69 -69l-150 -150q96 -117 96 -273q0 -157 -96 -274l150 -150l-69 -69l-150 150q-117 -96 -274 -96q-156 0 -273 96l-150 -150zM259 1237q0 -147 101 -241 q94 -101 240 -101q142 0 242 101q100 99 100 241q0 136 -100 242q-105 99 -242 99q-141 0 -240 -99q-101 -101 -101 -242z" />
<glyph unicode="&#xa5;" horiz-adv-x="1394" d="M54 1728h111l526 -913h11l527 913h111l-528 -913h318v-97h-374l-11 -19v-110h385v-98h-385v-491h-97v491h-382v98h382v110l-11 19h-371v97h315z" />
<glyph unicode="&#xa6;" horiz-adv-x="421" d="M162 -405v917h97v-917h-97zM162 811v917h97v-917h-97z" />
<glyph unicode="&#xa7;" horiz-adv-x="1250" d="M108 1107.5q0 212.5 96 308.5q39 39 66 55q-5 31 -5 66q0 149 106.5 256.5t258.5 107.5t260 -107q59 -57 82 -129l-87 -34q-20 53 -64 97q-79 78 -190 78q-112 0 -190.5 -78.5t-78.5 -190t76 -187.5t206 -136q207 -67 353 -212.5t146 -357.5t-96 -308q-39 -39 -66 -55 q5 -32 5 -66q0 -149 -107 -256.5t-258.5 -107.5t-259.5 107q-60 57 -82 128l87 35q20 -53 64 -97q79 -78 190 -78t190 78.5t79 190t-76 187t-206 136.5q-207 67 -353 212t-146 357.5zM203 1107.5q0 -172.5 114.5 -287t270.5 -177.5q184 -62 291 -169q47 -46 72 -101 q12 15 29 31q68 68 68 240t-114.5 286.5t-270.5 178.5q-185 62 -291 169q-47 46 -73 101q-12 -15 -28 -31q-68 -68 -68 -240.5z" />
<glyph unicode="&#xa8;" horiz-adv-x="788" d="M135 1339.5q0 40.5 28.5 68.5t68.5 28t68.5 -28t28.5 -68.5t-28.5 -68.5t-68.5 -28t-68.5 28t-28.5 68.5zM459 1339.5q0 40.5 28.5 68.5t68.5 28t68.5 -28t28.5 -68.5t-28.5 -68.5t-68.5 -28t-68.5 28t-28.5 68.5z" />
<glyph unicode="&#xa9;" horiz-adv-x="1517" d="M107 651q0 269 190 459t458.5 190t458.5 -190t190 -459t-190 -459t-458.5 -190t-458.5 190t-190 459zM184 652q0 -237 167 -405t404.5 -168t404.5 168t167 405t-167 404.5t-404.5 167.5t-404.5 -167.5t-167 -404.5zM410 651q0 148 105 253t253 105q184 0 296 -157 l-74 -27q-85 109 -222 109q-117 0 -200 -82.5t-83 -199.5t83 -200.5t200 -83.5q137 0 222 109l74 -27q-112 -156 -296 -156q-148 0 -253 104.5t-105 252.5z" />
<glyph unicode="&#xaa;" horiz-adv-x="948" d="M108 986v678h33v-644h621v-34h-654zM262 1435q0 121 85.5 207t207 86t207.5 -85q17 -18 19 -21v60h59v-525h-59v91q-2 -3 -19 -20q-86 -85 -207.5 -85t-207 85.5t-85.5 206.5zM324 1434.5q0 -95.5 67.5 -162.5t163 -67t155 59t71.5 125v92q-12 67 -71.5 125.5t-155 58.5 t-163 -67.5t-67.5 -163z" />
<glyph unicode="&#xab;" horiz-adv-x="1058" d="M108 499l463 497v-113l-357 -384l357 -385v-113zM480 499l470 497v-113l-357 -384l357 -385v-113z" />
<glyph unicode="&#xad;" horiz-adv-x="907" d="M135 591v97h637v-97h-637z" />
<glyph unicode="&#xae;" horiz-adv-x="1253" d="M108 1209q0 214 151.5 366.5t366.5 152.5t367.5 -152.5t152.5 -366.5q0 -314 -301 -470q-95 -50 -218 -50q-216 0 -367.5 152.5t-151.5 367.5zM170 1209.5q0 -189.5 133 -324.5q137 -134 324 -134q85 0 161 28l-149 232h-135v-168h-59v696h214q93 -13 163.5 -83.5 t70.5 -180.5t-65.5 -175t-123.5 -79l141 -216q57 32 105 80q134 135 134 324.5t-134 323t-323.5 133.5t-323 -133.5t-133.5 -323zM504 1072h126q84 0 144 60t60 145q0 84 -60 144t-144 60h-126v-409z" />
<glyph unicode="&#xaf;" horiz-adv-x="907" d="M135 1444v97h637v-97h-637z" />
<glyph unicode="&#xb0;" horiz-adv-x="822" d="M162 1479q0 103 73 176t176 73q104 0 177 -73t73 -176q0 -104 -73 -177t-177 -73q-103 0 -176 73t-73 177zM239 1479q0 -72 50.5 -122.5t121.5 -50.5q72 0 122.5 50.5t50.5 122.5q0 71 -50.5 121.5t-122.5 50.5q-71 0 -121.5 -50.5t-50.5 -121.5z" />
<glyph unicode="&#xb1;" horiz-adv-x="1134" d="M135 0v97h864v-97h-864zM135 591v97h383v383h98v-383h383v-97h-383v-384h-98v384h-383z" />
<glyph unicode="&#xb2;" horiz-adv-x="970" d="M135 1474q17 106 109.5 192t240 86t249.5 -94.5t102 -225.5t-98 -229q-67 -67 -157 -128.5t-199.5 -137.5t-133.5 -178h588v-80h-698q35 216 153 297.5t206.5 142.5t163 137t74.5 175.5t-74.5 168.5t-176.5 69t-171 -64t-81 -164z" />
<glyph unicode="&#xb3;" horiz-adv-x="970" d="M135 943l97 32q12 -100 81 -163.5t171 -63.5t176.5 69t74.5 168.5t-72.5 173t-217.5 99.5l-68 1v80q79 0 116.5 13.5t83.5 59t46 109.5q0 63 -46 106t-109 43q-108 0 -153 -112l-90 33q18 55 59 91q77 70 185 70t182 -69t74 -163t-56 -149.5t-78 -63.5q76 -24 147 -93 q98 -98 98 -229t-102 -225.5t-249.5 -94.5t-251.5 96q-81 75 -98 182z" />
<glyph unicode="&#xb4;" horiz-adv-x="679" d="M162 1296l176 202h179l-264 -202h-91z" />
<glyph unicode="&#xb5;" horiz-adv-x="1129" d="M162 -405v1466h97v-790q22 -46 65 -90q97 -94 231 -94t232 97q63 61 86 140v737h95v-1061h-95v120l-12 -12q-118 -118 -298.5 -118t-303.5 119v-514h-97z" />
<glyph unicode="&#xb6;" horiz-adv-x="1225" d="M55 1262q0 234 165 399q139 138 336 165h87v1h530v-97h-95v-2135h-97v2135h-101v-2135h-97v1103h-164q-233 0 -398.5 165t-165.5 399z" />
<glyph unicode="&#xb7;" horiz-adv-x="435" d="M135 864q0 35 24.5 58.5t58.5 23.5t58 -23.5t24 -58.5t-24 -58.5t-58 -23.5t-58.5 23.5t-24.5 58.5z" />
<glyph unicode="&#xb8;" horiz-adv-x="277" d="M11 -333l12 60q22 -8 60 -8t67 23t29 52v7q-5 35 -43 58.5t-83 24.5l46 116h69l-3 -31l-1 -7h1l-3 -43q105 -52 105 -133q0 -48 -51 -87t-136 -39q-37 0 -69 7z" />
<glyph unicode="&#xb9;" horiz-adv-x="970" d="M397 1604l105 124h70v-1058h-97v934h-78z" />
<glyph unicode="&#xba;" horiz-adv-x="987" d="M108 986v678h33v-644h621v-34h-654zM262 1435q0 121 85.5 207t207.5 86h31q122 0 207.5 -86t85.5 -207t-85.5 -206.5t-207.5 -85.5h-31q-122 0 -207.5 85.5t-85.5 206.5zM324 1434.5q0 -95.5 65 -159.5t182 -70q117 6 182 70t65 159.5t-65 160.5t-182 70 q-117 -5 -182 -70t-65 -160.5z" />
<glyph unicode="&#xbb;" horiz-adv-x="1058" d="M108 1v113l357 385l-357 384v113l471 -497zM487 1v113l358 385l-358 384v113l463 -497z" />
<glyph unicode="&#xbf;" horiz-adv-x="1032" d="M163 445q0 70 38 148q66 137 219 256q126 111 191 247q43 89 43 169t-24 150l89 31q31 -86 31 -184.5t-53 -206.5q-87 -180 -261 -312q-175 -169 -175 -309q0 -44 15 -88q38 -106 139 -155q57 -27 108.5 -27t96.5 16q105 37 153 136q27 57 27 114l95 -4v-9 q0 -70 -34 -139q-67 -138 -210 -187q-62 -22 -132.5 -22t-148.5 37q-136 66 -185 207q-22 62 -22 132zM583 1650.5q0 40.5 28.5 68.5t68.5 28t69 -28t29 -68.5t-29 -68.5t-69 -28t-68.5 28t-28.5 68.5z" />
<glyph unicode="&#xc0;" horiz-adv-x="1394" d="M54 0l644 1768l642 -1768h-102l-241 662h-598l-241 -662h-104zM434 759h527l-263 725zM460 2165h179l176 -202h-90z" />
<glyph unicode="&#xc1;" horiz-adv-x="1394" d="M54 0l644 1768l642 -1768h-102l-241 662h-598l-241 -662h-104zM434 759h527l-263 725zM579 1963l176 202h179l-264 -202h-91z" />
<glyph unicode="&#xc2;" horiz-adv-x="1394" d="M54 0l644 1768l642 -1768h-102l-241 662h-598l-241 -662h-104zM389 1844l247 253h112l257 -253h-112l-201 155l-190 -155h-113zM434 759h527l-263 725z" />
<glyph unicode="&#xc3;" horiz-adv-x="1394" d="M54 0l644 1768l642 -1768h-102l-241 662h-598l-241 -662h-104zM414 1900q29 171 153 171q62 0 134 -56.5t124 -56.5h6q54 3 75 90h75q-28 -170 -152 -170q-62 0 -133.5 56.5t-124.5 56.5h-6q-54 -3 -75 -91h-76zM434 759h527l-263 725z" />
<glyph unicode="&#xc4;" horiz-adv-x="1394" d="M54 0l644 1768l642 -1768h-102l-241 662h-598l-241 -662h-104zM434 759h527l-263 725zM438 2006.5q0 40.5 28.5 68.5t68.5 28t68.5 -28t28.5 -68.5t-28.5 -68.5t-68.5 -28t-68.5 28t-28.5 68.5zM762 2006.5q0 40.5 28.5 68.5t68.5 28t68.5 -28t28.5 -68.5t-28.5 -68.5 t-68.5 -28t-68.5 28t-28.5 68.5z" />
<glyph unicode="&#xc5;" horiz-adv-x="1394" d="M54 0l644 1768l642 -1768h-102l-241 662h-598l-241 -662h-104zM434 759h527l-263 725zM565 2005.5q0 54.5 38.5 93.5t94.5 39q55 0 93.5 -39t38.5 -93.5t-38.5 -93.5t-93.5 -39q-56 0 -94.5 39t-38.5 93.5zM635 2005.5q0 -25.5 18.5 -43.5t43.5 -18t43.5 18t18.5 43.5 t-18.5 44t-43.5 18.5t-43.5 -18.5t-18.5 -44z" />
<glyph unicode="&#xc6;" horiz-adv-x="1810" d="M43 0l768 1725v3h864v-97h-767v-718h767v-98h-767v-718h767v-97h-864v662h-348l-284 -662h-136zM499 759h312v724z" />
<glyph unicode="&#xc7;" horiz-adv-x="1722" d="M135 863.5q0 366.5 258.5 626t613.5 259.5t608 -231l-74 -66q-222 197 -534.5 197t-542.5 -230t-230 -555.5t230 -555.5t542.5 -230t534.5 197l74 -65q-253 -231 -595 -231q-60 0 -116 7l-2 -17l-1 -7h1l-3 -43q104 -52 104 -133q0 -48 -50.5 -87t-136.5 -39q-36 0 -69 7 l12 60q23 -8 61 -8t67 23t29 52v7q-6 35 -43.5 58.5t-83.5 24.5l46 113q-251 51 -441 242q-259 258 -259 624.5z" />
<glyph unicode="&#xc8;" horiz-adv-x="1161" d="M162 0v1728h864v-97h-767v-718h767v-98h-767v-718h767v-97h-864zM357 2165h179l176 -202h-90z" />
<glyph unicode="&#xc9;" horiz-adv-x="1161" d="M162 0v1728h864v-97h-767v-718h767v-98h-767v-718h767v-97h-864zM475 1963l176 202h179l-264 -202h-91z" />
<glyph unicode="&#xca;" horiz-adv-x="1161" d="M162 0v1728h864v-97h-767v-718h767v-98h-767v-718h767v-97h-864zM287 1844l247 253h112l257 -253h-112l-201 155l-190 -155h-113z" />
<glyph unicode="&#xcb;" horiz-adv-x="1161" d="M162 0v1728h864v-97h-767v-718h767v-98h-767v-718h767v-97h-864zM335 2006.5q0 40.5 28.5 68.5t68.5 28t68.5 -28t28.5 -68.5t-28.5 -68.5t-68.5 -28t-68.5 28t-28.5 68.5zM659 2006.5q0 40.5 28.5 68.5t68.5 28t68.5 -28t28.5 -68.5t-28.5 -68.5t-68.5 -28t-68.5 28 t-28.5 68.5z" />
<glyph unicode="&#xcc;" d="M-4 2165h179l176 -202h-90zM184 0v1728h97v-1728h-97z" />
<glyph unicode="&#xcd;" d="M113 1963l176 202h179l-264 -202h-91zM184 0v1728h97v-1728h-97z" />
<glyph unicode="&#xce;" d="M-75 1844l247 253h112l257 -253h-112l-201 155l-190 -155h-113zM185 0v1728h97v-1728h-97z" />
<glyph unicode="&#xcf;" d="M-27 2006.5q0 40.5 28.5 68.5t68.5 28t68.5 -28t28.5 -68.5t-28.5 -68.5t-68.5 -28t-68.5 28t-28.5 68.5zM184 0v1728h97v-1728h-97zM297 2006.5q0 40.5 28.5 68.5t68.5 28t68.5 -28t28.5 -68.5t-28.5 -68.5t-68.5 -28t-68.5 28t-28.5 68.5z" />
<glyph unicode="&#xd0;" horiz-adv-x="1386" d="M54 815v98h173v815h97v-2h8q426 0 661 -236q259 -260 259 -626.5t-259 -625.5q-235 -236 -661 -236h-8v-2h-97v815h-173zM324 100h8q384 0 590 208q230 230 230 555.5t-230 556.5q-206 206 -590 206h-8v-713h400v-98h-400v-715z" />
<glyph unicode="&#xd1;" horiz-adv-x="1415" d="M162 0v1728h107l888 -1537v1537h97v-1728h-97l-898 1552v-1552h-97zM424 1900q29 171 153 171q62 0 134 -56.5t124 -56.5h6q54 3 75 90h75q-28 -170 -152 -170q-62 0 -133.5 56.5t-124.5 56.5h-6q-54 -3 -75 -91h-76z" />
<glyph unicode="&#xd2;" horiz-adv-x="2043" d="M135 866q0 367 259.5 627t627.5 260q367 0 626.5 -260t259.5 -627t-259.5 -627t-626.5 -260q-368 0 -627.5 260t-259.5 627zM234 866q0 -326 231 -557t557 -231t556.5 231t230.5 557t-230.5 556.5t-556.5 230.5t-557 -230.5t-231 -556.5zM785 2165h179l176 -202h-90z" />
<glyph unicode="&#xd3;" horiz-adv-x="2043" d="M135 866q0 367 259.5 627t627.5 260q367 0 626.5 -260t259.5 -627t-259.5 -627t-626.5 -260q-368 0 -627.5 260t-259.5 627zM234 866q0 -326 231 -557t557 -231t556.5 231t230.5 557t-230.5 556.5t-556.5 230.5t-557 -230.5t-231 -556.5zM903 1963l176 202h179l-264 -202 h-91z" />
<glyph unicode="&#xd4;" horiz-adv-x="2043" d="M135 866q0 367 259.5 627t627.5 260q367 0 626.5 -260t259.5 -627t-259.5 -627t-626.5 -260q-368 0 -627.5 260t-259.5 627zM234 866q0 -326 231 -557t557 -231t556.5 231t230.5 557t-230.5 556.5t-556.5 230.5t-557 -230.5t-231 -556.5zM714 1844l247 253h112l257 -253 h-112l-201 155l-190 -155h-113z" />
<glyph unicode="&#xd5;" horiz-adv-x="2043" d="M135 866q0 367 259.5 627t627.5 260q367 0 626.5 -260t259.5 -627t-259.5 -627t-626.5 -260q-368 0 -627.5 260t-259.5 627zM234 866q0 -326 231 -557t557 -231t556.5 231t230.5 557t-230.5 556.5t-556.5 230.5t-557 -230.5t-231 -556.5zM739 1900q29 171 153 171 q62 0 134 -56.5t124 -56.5h6q54 3 75 90h75q-28 -170 -152 -170q-62 0 -133.5 56.5t-124.5 56.5h-6q-54 -3 -75 -91h-76z" />
<glyph unicode="&#xd6;" horiz-adv-x="2043" d="M135 866q0 367 259.5 627t627.5 260q367 0 626.5 -260t259.5 -627t-259.5 -627t-626.5 -260q-368 0 -627.5 260t-259.5 627zM234 866q0 -326 231 -557t557 -231t556.5 231t230.5 557t-230.5 556.5t-556.5 230.5t-557 -230.5t-231 -556.5zM762 2006.5q0 40.5 28.5 68.5 t68.5 28t68.5 -28t28.5 -68.5t-28.5 -68.5t-68.5 -28t-68.5 28t-28.5 68.5zM1086 2006.5q0 40.5 28.5 68.5t68.5 28t68.5 -28t28.5 -68.5t-28.5 -68.5t-68.5 -28t-68.5 28t-28.5 68.5z" />
<glyph unicode="&#xd7;" horiz-adv-x="1134" d="M227 368l271 271l-271 271l69 70l271 -272l271 272l68 -70l-271 -271l271 -271l-68 -69l-271 271l-271 -271z" />
<glyph unicode="&#xd8;" horiz-adv-x="2043" d="M135 866q0 367 259.5 627t627.5 260q178 0 330 -62l93 199l89 -41l-93 -199q111 -60 208 -156q259 -261 259 -628t-259.5 -627t-626.5 -260q-179 0 -331 62l-93 -199l-88 41l93 199q-112 61 -208 158q-260 259 -260 626zM234 866q0 -326 231 -557q84 -83 180 -137 l665 1430q-133 51 -288 51q-326 0 -557 -230.5t-231 -556.5zM732 131q134 -53 290 -53q326 0 556.5 231t230.5 557t-230 557q-84 84 -180 137z" />
<glyph unicode="&#xd9;" horiz-adv-x="1452" d="M162 549v1179h98v-1179q0 -193 137 -329.5t330 -136.5t329 136.5t136 329.5v1179h99v-1242q-27 -198 -166 -336q-165 -165 -399 -165t-399 165t-165 399zM489 2165h179l176 -202h-90z" />
<glyph unicode="&#xda;" horiz-adv-x="1452" d="M162 549v1179h98v-1179q0 -193 137 -329.5t330 -136.5t329 136.5t136 329.5v1179h99v-1242q-27 -198 -166 -336q-165 -165 -399 -165t-399 165t-165 399zM608 1963l176 202h179l-264 -202h-91z" />
<glyph unicode="&#xdb;" horiz-adv-x="1452" d="M162 549v1179h98v-1179q0 -193 137 -329.5t330 -136.5t329 136.5t136 329.5v1179h99v-1242q-27 -198 -166 -336q-165 -165 -399 -165t-399 165t-165 399zM418 1844l247 253h112l257 -253h-112l-201 155l-190 -155h-113z" />
<glyph unicode="&#xdc;" horiz-adv-x="1452" d="M162 549v1179h98v-1179q0 -193 137 -329.5t330 -136.5t329 136.5t136 329.5v1179h99v-1242q-27 -198 -166 -336q-165 -165 -399 -165t-399 165t-165 399zM468 2006.5q0 40.5 28.5 68.5t68.5 28t68.5 -28t28.5 -68.5t-28.5 -68.5t-68.5 -28t-68.5 28t-28.5 68.5z M792 2006.5q0 40.5 28.5 68.5t68.5 28t68.5 -28t28.5 -68.5t-28.5 -68.5t-68.5 -28t-68.5 28t-28.5 68.5z" />
<glyph unicode="&#xdd;" horiz-adv-x="1394" d="M54 1728h111l532 -921l532 921h111l-595 -1029v-699h-97v699zM579 1963l176 202h179l-264 -202h-91z" />
<glyph unicode="&#xde;" horiz-adv-x="1213" d="M162 0v1728h97v-299h357q197 -27 335 -165q166 -166 166 -399.5t-165.5 -399t-398.5 -165.5h-294v-300h-97zM259 399h294q192 0 328.5 136.5t136.5 329.5t-136.5 329.5t-328.5 136.5h-294v-932z" />
<glyph unicode="&#xdf;" horiz-adv-x="1170" d="M151 0v1383q21 342 314 354h18q130 0 225.5 -78.5t103.5 -242.5v-18q0 -152 -139 -240q386 -155 401 -563q0 -245 -167 -418t-391 -176v-1h-180v97h180v-1q181 12 318 154t137 345t-143.5 346.5t-383.5 143.5v104q150 8 211.5 64.5t61.5 152t-59 162.5t-164 67h-12 q-115 -4 -171 -70.5t-63 -197.5v-1367h-97z" />
<glyph unicode="&#xe0;" horiz-adv-x="1468" d="M135 563.5q0 245.5 174 419.5t419 174q299 0 482 -247v151h97v-1061h-97v216q-183 -246 -482 -246q-245 0 -419 174t-174 419.5zM238 563q0 -203 143.5 -346.5t346.5 -143.5t347 144q108 108 135 250v192q-27 142 -135 250q-144 144 -347 144t-346.5 -143.5 t-143.5 -346.5zM484 1498h179l176 -202h-90z" />
<glyph unicode="&#xe1;" horiz-adv-x="1468" d="M135 563.5q0 245.5 174 419.5t419 174q299 0 482 -247v151h97v-1061h-97v216q-183 -246 -482 -246q-245 0 -419 174t-174 419.5zM238 563q0 -203 143.5 -346.5t346.5 -143.5t347 144q108 108 135 250v192q-27 142 -135 250q-144 144 -347 144t-346.5 -143.5 t-143.5 -346.5zM603 1296l176 202h179l-264 -202h-91z" />
<glyph unicode="&#xe2;" horiz-adv-x="1468" d="M135 563.5q0 245.5 174 419.5t419 174q299 0 482 -247v151h97v-1061h-97v216q-183 -246 -482 -246q-245 0 -419 174t-174 419.5zM238 563q0 -203 143.5 -346.5t346.5 -143.5t347 144q108 108 135 250v192q-27 142 -135 250q-144 144 -347 144t-346.5 -143.5 t-143.5 -346.5zM413 1177l247 253h112l257 -253h-112l-201 155l-190 -155h-113z" />
<glyph unicode="&#xe3;" horiz-adv-x="1468" d="M135 563.5q0 245.5 174 419.5t419 174q299 0 482 -247v151h97v-1061h-97v216q-183 -246 -482 -246q-245 0 -419 174t-174 419.5zM238 563q0 -203 143.5 -346.5t346.5 -143.5t347 144q108 108 135 250v192q-27 142 -135 250q-144 144 -347 144t-346.5 -143.5 t-143.5 -346.5zM437 1233q29 171 153 171q62 0 134 -56.5t124 -56.5h6q54 3 75 90h75q-28 -170 -152 -170q-62 0 -133.5 56.5t-124.5 56.5h-6q-54 -3 -75 -91h-76z" />
<glyph unicode="&#xe4;" horiz-adv-x="1468" d="M135 563.5q0 245.5 174 419.5t419 174q299 0 482 -247v151h97v-1061h-97v216q-183 -246 -482 -246q-245 0 -419 174t-174 419.5zM238 563q0 -203 143.5 -346.5t346.5 -143.5t347 144q108 108 135 250v192q-27 142 -135 250q-144 144 -347 144t-346.5 -143.5 t-143.5 -346.5zM462 1339.5q0 40.5 28.5 68.5t68.5 28t68.5 -28t28.5 -68.5t-28.5 -68.5t-68.5 -28t-68.5 28t-28.5 68.5zM786 1339.5q0 40.5 28.5 68.5t68.5 28t68.5 -28t28.5 -68.5t-28.5 -68.5t-68.5 -28t-68.5 28t-28.5 68.5z" />
<glyph unicode="&#xe5;" horiz-adv-x="1468" d="M135 563.5q0 245.5 174 419.5t419 174q299 0 482 -247v151h97v-1061h-97v216q-183 -246 -482 -246q-245 0 -419 174t-174 419.5zM238 563q0 -203 143.5 -346.5t346.5 -143.5t347 144q108 108 135 250v192q-27 142 -135 250q-144 144 -347 144t-346.5 -143.5 t-143.5 -346.5zM589 1338.5q0 54.5 38.5 93.5t94.5 39q55 0 93.5 -39t38.5 -93.5t-38.5 -93.5t-93.5 -39q-56 0 -94.5 39t-38.5 93.5zM659 1338.5q0 -25.5 18.5 -43.5t43.5 -18t43.5 18t18.5 43.5t-18.5 44t-43.5 18.5t-43.5 -18.5t-18.5 -44z" />
<glyph unicode="&#xe6;" horiz-adv-x="2344" d="M97 563.5q0 245.5 174 419.5t419 174q299 0 482 -247v151h97v-59q167 155 406 155t402.5 -164.5t169.5 -374.5l-978 1v-343q23 -31 52 -59q143 -144 347 -144q236 0 393 196l103 -37q-18 -30 -76 -88q-174 -174 -413 -174t-406 154v-124h-97v216q-183 -246 -482 -246 q-245 0 -419 174t-174 419.5zM200 563q0 -203 143.5 -346.5t346.5 -143.5t347 144q108 109 135 250v192q-14 74 -48.5 136.5t-86.5 113.5q-144 144 -347 144t-346.5 -143.5t-143.5 -346.5zM1269 716h862q-35 111 -117 193q-143 144 -346 144q-247 0 -399 -203v-134z" />
<glyph unicode="&#xe7;" horiz-adv-x="1271" d="M97 563.5q0 245.5 174 419.5t420 174q299 0 483 -248l-103 -37q-151 181 -367 181t-359.5 -143t-143.5 -346t143.5 -347t359.5 -144t367 182l103 -37q-28 -39 -64 -74q-174 -174 -420 -174q-14 0 -28 1v-2l-1 -7h1l-3 -43q105 -52 105 -133q0 -48 -51 -87t-136 -39 q-37 0 -69 7l11 60q23 -8 61 -8t67 23t29 52v7q-5 35 -43 58.5t-83 24.5l38 94q-181 30 -317 166q-174 174 -174 419.5z" />
<glyph unicode="&#xe8;" horiz-adv-x="1271" d="M97 563.5q0 245.5 174 419.5t419 174q267 0 439 -194l-765 -764q137 -126 326 -126q230 0 381 182l103 -37q-28 -39 -64 -74q-174 -174 -419.5 -174t-419.5 174t-174 419.5zM201 564q0 -168 97 -294l686 686q-126 97 -294 97q-202 0 -345.5 -143t-143.5 -346zM399 1498 h179l176 -202h-90z" />
<glyph unicode="&#xe9;" horiz-adv-x="1271" d="M97 563.5q0 245.5 174 419.5t419 174q267 0 439 -194l-765 -764q137 -126 326 -126q230 0 381 182l103 -37q-28 -39 -64 -74q-174 -174 -419.5 -174t-419.5 174t-174 419.5zM201 564q0 -168 97 -294l686 686q-126 97 -294 97q-202 0 -345.5 -143t-143.5 -346zM517 1296 l176 202h179l-264 -202h-91z" />
<glyph unicode="&#xea;" horiz-adv-x="1271" d="M97 563.5q0 245.5 174 419.5t419 174q267 0 439 -194l-765 -764q137 -126 326 -126q230 0 381 182l103 -37q-28 -39 -64 -74q-174 -174 -419.5 -174t-419.5 174t-174 419.5zM201 564q0 -168 97 -294l686 686q-126 97 -294 97q-202 0 -345.5 -143t-143.5 -346zM328 1177 l247 253h112l257 -253h-112l-201 155l-190 -155h-113z" />
<glyph unicode="&#xeb;" horiz-adv-x="1271" d="M97 563.5q0 245.5 174 419.5t419 174q267 0 439 -194l-765 -764q137 -126 326 -126q230 0 381 182l103 -37q-28 -39 -64 -74q-174 -174 -419.5 -174t-419.5 174t-174 419.5zM201 564q0 -168 97 -294l686 686q-126 97 -294 97q-202 0 -345.5 -143t-143.5 -346zM377 1339.5 q0 40.5 28.5 68.5t68.5 28t68.5 -28t28.5 -68.5t-28.5 -68.5t-68.5 -28t-68.5 28t-28.5 68.5zM701 1339.5q0 40.5 28.5 68.5t68.5 28t68.5 -28t28.5 -68.5t-28.5 -68.5t-68.5 -28t-68.5 28t-28.5 68.5z" />
<glyph unicode="&#xec;" d="M-4 1498h179l176 -202h-90zM184 0v1061h97v-1061h-97z" />
<glyph unicode="&#xed;" d="M113 1296l176 202h179l-264 -202h-91zM184 0v1061h97v-1061h-97z" />
<glyph unicode="&#xee;" d="M-75 1177l247 253h112l257 -253h-112l-201 155l-190 -155h-113zM185 0v1061h97v-1061h-97z" />
<glyph unicode="&#xef;" d="M-27 1339.5q0 40.5 28.5 68.5t68.5 28t68.5 -28t28.5 -68.5t-28.5 -68.5t-68.5 -28t-68.5 28t-28.5 68.5zM184 0v1061h97v-1061h-97zM297 1339.5q0 40.5 28.5 68.5t68.5 28t68.5 -28t28.5 -68.5t-28.5 -68.5t-68.5 -28t-68.5 28t-28.5 68.5z" />
<glyph unicode="&#xf0;" horiz-adv-x="1380" d="M97 563.5q0 245.5 174 419.5t419 174q36 0 70 -4l-58 65h-181v97h94l-113 125h138l125 -125h177v-97h-79l171 -169q40 -29 76 -66q173 -174 173 -419.5t-173.5 -419.5t-419 -174t-419.5 174t-174 419.5zM200 563q0 -203 143.5 -346.5t346.5 -143.5t346.5 143.5 t143.5 346.5t-143.5 346.5t-346.5 143.5t-346.5 -143.5t-143.5 -346.5z" />
<glyph unicode="&#xf1;" horiz-adv-x="1156" d="M162 0v1061h97v-68q133 131 315 131t299.5 -117.5t121.5 -296.5v-710h-98v701q0 135 -97.5 230.5t-231.5 95.5t-231 -94q-53 -53 -78 -109v-824h-97zM295 1233q29 171 153 171q62 0 134 -56.5t124 -56.5h6q54 3 75 90h75q-28 -170 -152 -170q-62 0 -133.5 56.5 t-124.5 56.5h-6q-54 -3 -75 -91h-76z" />
<glyph unicode="&#xf2;" horiz-adv-x="1380" d="M97 563.5q0 245.5 174 419.5t419.5 174t419 -174t173.5 -419.5t-173.5 -419.5t-419 -174t-419.5 174t-174 419.5zM200 563q0 -203 143.5 -346.5t346.5 -143.5t346.5 143.5t143.5 346.5t-143.5 346.5t-346.5 143.5t-346.5 -143.5t-143.5 -346.5zM454 1498h179l176 -202 h-90z" />
<glyph unicode="&#xf3;" horiz-adv-x="1380" d="M97 563.5q0 245.5 174 419.5t419.5 174t419 -174t173.5 -419.5t-173.5 -419.5t-419 -174t-419.5 174t-174 419.5zM200 563q0 -203 143.5 -346.5t346.5 -143.5t346.5 143.5t143.5 346.5t-143.5 346.5t-346.5 143.5t-346.5 -143.5t-143.5 -346.5zM571 1296l176 202h179 l-264 -202h-91z" />
<glyph unicode="&#xf4;" horiz-adv-x="1380" d="M97 563.5q0 245.5 174 419.5t419.5 174t419 -174t173.5 -419.5t-173.5 -419.5t-419 -174t-419.5 174t-174 419.5zM200 563q0 -203 143.5 -346.5t346.5 -143.5t346.5 143.5t143.5 346.5t-143.5 346.5t-346.5 143.5t-346.5 -143.5t-143.5 -346.5zM383 1177l247 253h112 l257 -253h-112l-201 155l-190 -155h-113z" />
<glyph unicode="&#xf5;" horiz-adv-x="1380" d="M97 563.5q0 245.5 174 419.5t419.5 174t419 -174t173.5 -419.5t-173.5 -419.5t-419 -174t-419.5 174t-174 419.5zM200 563q0 -203 143.5 -346.5t346.5 -143.5t346.5 143.5t143.5 346.5t-143.5 346.5t-346.5 143.5t-346.5 -143.5t-143.5 -346.5zM407 1233q29 171 153 171 q62 0 134 -56.5t124 -56.5h6q54 3 75 90h75q-28 -170 -152 -170q-62 0 -133.5 56.5t-124.5 56.5h-6q-54 -3 -75 -91h-76z" />
<glyph unicode="&#xf6;" horiz-adv-x="1380" d="M97 563.5q0 245.5 174 419.5t419.5 174t419 -174t173.5 -419.5t-173.5 -419.5t-419 -174t-419.5 174t-174 419.5zM200 563q0 -203 143.5 -346.5t346.5 -143.5t346.5 143.5t143.5 346.5t-143.5 346.5t-346.5 143.5t-346.5 -143.5t-143.5 -346.5zM431 1339.5 q0 40.5 28.5 68.5t68.5 28t68.5 -28t28.5 -68.5t-28.5 -68.5t-68.5 -28t-68.5 28t-28.5 68.5zM755 1339.5q0 40.5 28.5 68.5t68.5 28t68.5 -28t28.5 -68.5t-28.5 -68.5t-68.5 -28t-68.5 28t-28.5 68.5z" />
<glyph unicode="&#xf7;" horiz-adv-x="1134" d="M135 615v97h864v-97h-864zM470 446.5q0 40.5 28.5 68.5t68.5 28t68.5 -28t28.5 -68.5t-28.5 -68.5t-68.5 -28t-68.5 28t-28.5 68.5zM470 878.5q0 40.5 28.5 68.5t68.5 28t68.5 -28t28.5 -68.5t-28.5 -68.5t-68.5 -28t-68.5 28t-28.5 68.5z" />
<glyph unicode="&#xf8;" horiz-adv-x="1380" d="M97 564.5q0 245.5 174 419.5t419 174q139 0 256 -56l132 229l85 -45l-135 -233q43 -30 82 -69q173 -174 173 -419.5t-173.5 -419.5t-419.5 -174q-139 0 -255 56l-133 -230l-85 41l136 238q-43 30 -82 69q-174 174 -174 419.5zM200 564q0 -203 143 -346q30 -30 62 -53 l488 847q-93 42 -203 42q-203 0 -346.5 -143.5t-143.5 -346.5zM487 117q93 -42 203 -42q203 0 346.5 143t143.5 346t-143 346q-29 30 -61 52z" />
<glyph unicode="&#xf9;" horiz-adv-x="1186" d="M162 400v661h97v-653q0 -135 98 -230.5t236.5 -95.5t236.5 95.5t98 230.5v653h97v-661q-3 -180 -121 -297q-118 -118 -310.5 -118t-310.5 117.5t-121 297.5zM356 1498h179l176 -202h-90z" />
<glyph unicode="&#xfa;" horiz-adv-x="1186" d="M162 400v661h97v-653q0 -135 98 -230.5t236.5 -95.5t236.5 95.5t98 230.5v653h97v-661q-3 -180 -121 -297q-118 -118 -310.5 -118t-310.5 117.5t-121 297.5zM475 1296l176 202h179l-264 -202h-91z" />
<glyph unicode="&#xfb;" horiz-adv-x="1186" d="M162 400v661h97v-653q0 -135 98 -230.5t236.5 -95.5t236.5 95.5t98 230.5v653h97v-661q-3 -180 -121 -297q-118 -118 -310.5 -118t-310.5 117.5t-121 297.5zM285 1177l247 253h112l257 -253h-112l-201 155l-190 -155h-113z" />
<glyph unicode="&#xfc;" horiz-adv-x="1186" d="M162 400v661h97v-653q0 -135 98 -230.5t236.5 -95.5t236.5 95.5t98 230.5v653h97v-661q-3 -180 -121 -297q-118 -118 -310.5 -118t-310.5 117.5t-121 297.5zM335 1339.5q0 40.5 28.5 68.5t68.5 28t68.5 -28t28.5 -68.5t-28.5 -68.5t-68.5 -28t-68.5 28t-28.5 68.5z M659 1339.5q0 40.5 28.5 68.5t68.5 28t68.5 -28t28.5 -68.5t-28.5 -68.5t-68.5 -28t-68.5 28t-28.5 68.5z" />
<glyph unicode="&#xfd;" horiz-adv-x="1085" d="M81 1061h110l352 -761l352 761h109l-461 -967v1l-240 -500h-95l287 600zM424 1296l176 202h179l-264 -202h-91z" />
<glyph unicode="&#xfe;" horiz-adv-x="1440" d="M162 -405v2133h97v-816q27 36 62 71q174 173 419.5 173t419 -173.5t173.5 -419t-173.5 -419.5t-419 -174t-419.5 174q-35 34 -62 71v-620h-97zM259 461q28 -139 134 -245q144 -144 347 -144t346.5 144t143.5 347t-143.5 346.5t-346.5 143.5t-347 -144 q-106 -105 -134 -245v-203z" />
<glyph unicode="&#xff;" horiz-adv-x="1085" d="M81 1061h110l352 -761l352 761h109l-461 -967v1l-240 -500h-95l287 600zM284 1339.5q0 40.5 28.5 68.5t68.5 28t68.5 -28t28.5 -68.5t-28.5 -68.5t-68.5 -28t-68.5 28t-28.5 68.5zM608 1339.5q0 40.5 28.5 68.5t68.5 28t68.5 -28t28.5 -68.5t-28.5 -68.5t-68.5 -28 t-68.5 28t-28.5 68.5z" />
<glyph unicode="&#x152;" horiz-adv-x="2478" d="M97 866q0 367 260 627t627 260q149 0 280 -25h1080v-97h-908q93 -56 175 -137q243 -244 258 -581h475v-98h-475q-17 -334 -258 -575q-85 -86 -181 -143h914v-97h-1080q-131 -21 -280 -21q-367 0 -627 260t-260 627zM197 866q0 -326 230.5 -557t556.5 -231t547 222 q240 240 240 566t-230 557q-122 121 -264.5 175.5t-292.5 54.5q-326 0 -556.5 -230.5t-230.5 -556.5z" />
<glyph unicode="&#x153;" horiz-adv-x="2297" d="M97 563.5q0 245.5 174 419.5t419 174q278 0 466 -225q20 26 45 51q174 174 419.5 174t409 -164.5t170.5 -374.5l-919 1q2 -28 2 -56q0 -154 -68 -279q158 -211 405 -211q237 0 393 196l104 -37q-19 -30 -77 -88q-174 -174 -419.5 -174t-419.5 174q-25 24 -45 50 q-188 -224 -466 -224q-245 0 -419 174t-174 419.5zM200 563q0 -203 143.5 -346.5t346.5 -143.5t346.5 143.5t143.5 346.5t-143.5 346.5t-346.5 143.5t-346.5 -143.5t-143.5 -346.5zM1216 841q31 -59 49 -125h818q-34 111 -116 193q-144 144 -347 144t-347 -144 q-32 -32 -57 -68z" />
<glyph unicode="&#x178;" horiz-adv-x="1394" d="M54 1728h111l532 -921l532 921h111l-595 -1029v-699h-97v699zM438 2006.5q0 40.5 28.5 68.5t68.5 28t68.5 -28t28.5 -68.5t-28.5 -68.5t-68.5 -28t-68.5 28t-28.5 68.5zM762 2006.5q0 40.5 28.5 68.5t68.5 28t68.5 -28t28.5 -68.5t-28.5 -68.5t-68.5 -28t-68.5 28 t-28.5 68.5z" />
<glyph unicode="&#x2c6;" horiz-adv-x="875" d="M131 1177l247 253h112l257 -253h-112l-201 155l-190 -155h-113z" />
<glyph unicode="&#x2dc;" horiz-adv-x="891" d="M162 1233q29 171 153 171q62 0 134 -56.5t124 -56.5h6q54 3 75 90h75q-28 -170 -152 -170q-62 0 -133.5 56.5t-124.5 56.5h-6q-54 -3 -75 -91h-76z" />
<glyph unicode="&#x2000;" horiz-adv-x="1082" />
<glyph unicode="&#x2001;" horiz-adv-x="2165" />
<glyph unicode="&#x2002;" horiz-adv-x="1082" />
<glyph unicode="&#x2003;" horiz-adv-x="2165" />
<glyph unicode="&#x2004;" horiz-adv-x="721" />
<glyph unicode="&#x2005;" horiz-adv-x="541" />
<glyph unicode="&#x2006;" horiz-adv-x="360" />
<glyph unicode="&#x2007;" horiz-adv-x="360" />
<glyph unicode="&#x2008;" horiz-adv-x="270" />
<glyph unicode="&#x2009;" horiz-adv-x="433" />
<glyph unicode="&#x200a;" horiz-adv-x="120" />
<glyph unicode="&#x2010;" horiz-adv-x="907" d="M135 591v97h637v-97h-637z" />
<glyph unicode="&#x2011;" horiz-adv-x="907" d="M135 591v97h637v-97h-637z" />
<glyph unicode="&#x2012;" horiz-adv-x="907" d="M135 591v97h637v-97h-637z" />
<glyph unicode="&#x2013;" horiz-adv-x="940" d="M54 591v97h833v-97h-833z" />
<glyph unicode="&#x2014;" horiz-adv-x="1627" d="M54 591v97h1520v-97h-1520z" />
<glyph unicode="&#x2018;" horiz-adv-x="302" d="M54 1475.5q0 31.5 8 50.5l105 214h71l-62 -162q25 -6 48.5 -29.5t23.5 -64t-28.5 -68.5t-68.5 -28t-68.5 28t-28.5 59.5z" />
<glyph unicode="&#x2019;" horiz-adv-x="302" d="M54 1643.5q0 40.5 28.5 68.5t68.5 28t68.5 -28t28.5 -59.5t-7 -50.5l-106 -214h-70l61 162q-24 5 -48 29t-24 64.5z" />
<glyph unicode="&#x201a;" horiz-adv-x="302" d="M54 79.5q0 40.5 28.5 68.5t68.5 28t68.5 -28t28.5 -59.5t-7 -50.5l-106 -214h-70l61 162q-24 5 -48 29t-24 64.5z" />
<glyph unicode="&#x201c;" horiz-adv-x="574" d="M54 1475.5q0 31.5 8 50.5l105 214h71l-62 -162q25 -6 48.5 -29.5t23.5 -64t-28.5 -68.5t-68.5 -28t-68.5 28t-28.5 59.5zM326 1475.5q0 31.5 8 50.5l106 214h70l-62 -162q25 -6 49 -29.5t24 -64t-29 -68.5t-69 -28t-68.5 28t-28.5 59.5z" />
<glyph unicode="&#x201d;" horiz-adv-x="574" d="M54 1643.5q0 40.5 28.5 68.5t68.5 28t68.5 -28t28.5 -59.5t-7 -50.5l-106 -214h-70l61 162q-24 5 -48 29t-24 64.5zM326 1643.5q0 40.5 28.5 68.5t68.5 28t69 -28t29 -59.5t-8 -50.5l-106 -214h-70l62 162q-25 5 -49 29t-24 64.5z" />
<glyph unicode="&#x201e;" horiz-adv-x="574" d="M54 79.5q0 40.5 28.5 68.5t68.5 28t68.5 -28t28.5 -59.5t-7 -50.5l-106 -214h-70l61 162q-24 5 -48 29t-24 64.5zM326 79.5q0 40.5 28.5 68.5t68.5 28t69 -28t29 -59.5t-8 -50.5l-106 -214h-70l62 162q-25 5 -49 29t-24 64.5z" />
<glyph unicode="&#x2022;" horiz-adv-x="818" d="M244 803q0 69 49 116.5t116 47.5t116.5 -47.5t49.5 -116.5t-49.5 -116.5t-116.5 -47.5t-116 47.5t-49 116.5z" />
<glyph unicode="&#x2026;" horiz-adv-x="2319" d="M108 81.5q0 40.5 28.5 68.5t68.5 28t68.5 -28t28.5 -68.5t-28.5 -68.5t-68.5 -28t-68.5 28t-28.5 68.5zM846 81.5q0 40.5 28.5 68.5t68.5 28t68.5 -28t28.5 -68.5t-28.5 -68.5t-68.5 -28t-68.5 28t-28.5 68.5zM1583 81.5q0 40.5 29 68.5t68 28q40 0 69 -28t29 -68.5 t-29 -68.5t-69 -28q-39 0 -68 28t-29 68.5z" />
<glyph unicode="&#x202f;" horiz-adv-x="433" />
<glyph unicode="&#x2039;" horiz-adv-x="679" d="M108 499l463 497v-113l-357 -384l357 -385v-113z" />
<glyph unicode="&#x203a;" horiz-adv-x="679" d="M108 1v113l357 385l-357 384v113l463 -497z" />
<glyph unicode="&#x205f;" horiz-adv-x="541" />
<glyph unicode="&#x20ac;" horiz-adv-x="1566" d="M108 632l19 97h162v130h-136l20 97h116v179q0 245 174 419t420 174t418 -174l-72 -72q-144 142 -347 142t-346.5 -143t-143.5 -346v-179h710l-20 -97h-690v-130h664l-19 -97h-645v-69q0 -203 143.5 -346.5t346.5 -143.5t347 144q89 89 123 200h106q-37 -153 -157 -273 q-172 -174 -418 -174t-420 174t-174 419v69h-181z" />
<glyph unicode="&#x2122;" horiz-adv-x="1351" d="M108 1680v57h489l289 -442l287 442h70l-10 -14v-695h-60v601l-287 -443l-289 443v-601h-60v652h-171v-652h-61v652h-197z" />
<glyph unicode="&#xe000;" horiz-adv-x="1058" d="M0 0v1058h1058v-1058h-1058z" />
<glyph unicode="&#xfb01;" horiz-adv-x="1029" d="M97 963v98h108v287q7 120 92 206q89 82 204 82q61 0 128 -22l-31 -87q-45 20 -87 20q-77 0 -145 -62q-60 -59 -64 -144v-280h544v-1061h-98v963h-446v-963h-97v963h-108zM700 1339.5q0 40.5 28.5 68.5t68.5 28t68.5 -28t28.5 -68.5t-28.5 -68.5t-68.5 -28t-68.5 28 t-28.5 68.5z" />
<glyph unicode="&#xfb02;" horiz-adv-x="986" d="M97 963v98h108v287q7 120 92 206q89 82 252.5 82t274.5 -59v-1577h-97v1523q-76 24 -184.5 24t-176.5 -62q-60 -59 -64 -144v-280h216v-98h-216v-963h-97v963h-108z" />
<glyph unicode="&#xfb03;" horiz-adv-x="1594" d="M97 963v98h108v287q7 120 92 206q89 82 204 82q61 0 128 -22l-31 -87q-45 20 -87 20q-77 0 -145 -62q-60 -59 -64 -144v-280h468v287q7 120 92 206q88 82 204 82q60 0 127 -22l-30 -87q-45 20 -87 20q-77 0 -145 -62q-61 -59 -64 -144v-280h543v-1061h-97v963h-446v-963 h-97v963h-468v-963h-97v963h-108zM1265 1339.5q0 40.5 28.5 68.5t68.5 28t68.5 -28t28.5 -68.5t-28.5 -68.5t-68.5 -28t-68.5 28t-28.5 68.5z" />
<glyph unicode="&#xfb04;" horiz-adv-x="1550" d="M97 963v98h108v287q7 120 92 206q89 82 204 82q61 0 128 -22l-31 -87q-45 20 -87 20q-77 0 -145 -62q-60 -59 -64 -144v-280h468v287q7 120 92 206q88 82 252 82t275 -59v-1577h-97v1523q-76 24 -184.5 24t-176.5 -62q-61 -59 -64 -144v-280h216v-98h-216v-963h-97v963 h-468v-963h-97v963h-108z" />
</font>
</defs>
</svg>
