<?xml version="1.0" encoding="utf-8"?>
<!DOCTYPE svg PUBLIC "-//W3C//DTD SVG 1.1//EN" "http://www.w3.org/Graphics/SVG/1.1/DTD/svg11.dtd">
<svg version="1.1" id="Calque_1" xmlns="http://www.w3.org/2000/svg" xmlns:xlink="http://www.w3.org/1999/xlink" viewBox="0 0 64 64" xml:space="preserve">
<g>
	<linearGradient id="SVGID_1_" gradientUnits="userSpaceOnUse" x1="4.882812e-04" y1="44.1201" x2="64" y2="44.1201">
		<stop  offset="0" style="stop-color:#00A0DD"/>
		<stop  offset="1" style="stop-color:#007AC2"/>
	</linearGradient>
	<path fill="url(#SVGID_1_)" d="M0,46.044c0,0,9.962-6.598,24.145-6.598c11.088,0,22.975,9.688,39.854,3.295
		c-6.891,9.39-25.729,5.615-30.166,3.397C29.041,43.741,18.106,39.561,0,46.044z"/>
	<path fill="#FFCD32" d="M18.469,27.663H7.28v13.274c3.127-1.104,6.906-2.072,11.188-2.587V27.663z"/>
	<path fill="#A0C648" d="M30.287,49.207c0,0,10.711-16.888,8.072-34.414c12.188,12.265,19.833,29.068,19.833,29.068
		S51.571,35.286,30.287,49.207z"/>
	<path fill="#E74E0F" d="M36.285,20.087H19.867v18.115c1.639-0.154,3.341-0.242,5.109-0.242c2.769,0,5.506,0.208,8.206,0.617
		C35.02,33.401,36.587,26.866,36.285,20.087z"/>
</g>
</svg>
