<?xml version="1.0" standalone="no"?>
<!DOCTYPE svg PUBLIC "-//W3C//DTD SVG 1.1//EN" "http://www.w3.org/Graphics/SVG/1.1/DTD/svg11.dtd" >
<svg xmlns="http://www.w3.org/2000/svg">
<metadata></metadata>
<defs>
<font id="times_sans_serifregular" horiz-adv-x="1187" >
<font-face units-per-em="2048" ascent="1638" descent="-410" />
<missing-glyph horiz-adv-x="593" />
<glyph horiz-adv-x="2048" />
<glyph horiz-adv-x="2048" />
<glyph unicode="&#xd;" horiz-adv-x="593" />
<glyph unicode=" "  horiz-adv-x="593" />
<glyph unicode="&#x09;" horiz-adv-x="593" />
<glyph unicode="&#xa0;" horiz-adv-x="593" />
<glyph unicode="!" horiz-adv-x="791" d="M264 1466.5q0 46.5 35 94.5t98 48q130 0 130 -175q0 -36 -5 -78l-104 -940h-44l-103 940q-7 64 -7 110.5zM266 96q0 54 37.5 91t90.5 37q54 0 91.5 -37t37.5 -91q0 -53 -37.5 -90.5t-91.5 -37.5q-53 0 -90.5 37.5t-37.5 90.5z" />
<glyph unicode="&#x22;" horiz-adv-x="969" d="M154 1467q0 142 114 142q53 0 85.5 -35.5t32.5 -85.5t-30 -214l-63 -343h-49l-64 344q-26 137 -26 192zM578 1469q0 140 117 140t117 -124q0 -100 -22 -214l-66 -340h-56l-88 480q-2 29 -2 58z" />
<glyph unicode="#" d="M43 495v95h217l80 398h-297v93h319l105 528h97l-106 -528h391l113 528h96l-110 -528h197v-93h-215l-81 -398h296v-95h-316l-107 -527h-94l105 527h-393l-110 -527h-97l108 527h-198zM357 590h394l83 398h-396z" />
<glyph unicode="$" d="M125 387h51q26 -313 360 -344v677q-261 162 -348 286q-62 88 -62 214q0 164 119 261.5t291 116.5v107h74v-107q94 -5 160 -22q231 -107 223 -426h-45q-14 175 -91 264t-247 107v-590q251 -175 301 -221q157 -150 157 -327t-134 -288t-324 -127v-149h-74v149 q-362 0 -411 419zM307 1296q0 -165 229 -316v540q-229 -28 -229 -224zM610 43q88 15 134 43q140 86 140 246q0 105 -93 199q-45 47 -181 139v-627z" />
<glyph unicode="%" horiz-adv-x="1978" d="M84 1181q0 269 174 378q80 50 164 50q159 0 244.5 -130t85.5 -299.5t-85 -295t-247 -125.5q-198 0 -290 200q-46 100 -46 222zM268 1182q0 -271 87 -344q24 -21 60 -21q153 0 153 363.5t-150 363.5t-150 -362zM365 -65l1146 1674h104l-1146 -1674h-104zM1230 357 q0 266 171 374q79 50 166.5 50t166.5 -58q163 -119 163 -366q0 -170 -85 -296t-247 -126q-194 0 -289 202q-46 96 -46 220zM1414 358q0 -358 149.5 -358t149.5 359.5t-150 359.5q-56 0 -102.5 -72t-46.5 -289z" />
<glyph unicode="&#x26;" horiz-adv-x="1847" d="M87 310q0 311 480 569q-94 208 -94 346q0 198 146 303q114 81 251.5 81t228.5 -78t91 -213.5t-127 -250.5q-77 -68 -254 -160q147 -262 307 -480q163 179 206 341.5t15 241.5h48q36 -109 3.5 -305.5t-198.5 -366.5q166 -195 330.5 -195t212.5 171l43 -31 q-84 -319 -360 -319q-193 0 -407 226q-255 -226 -506 -226q-168 0 -292 91.5t-124 254.5zM327 416q0 -131 83 -221.5t216.5 -90.5t322.5 154q-224 305 -342 544q-280 -162 -280 -386zM672 1307q0 -95 97 -324q287 136 287 349q0 81 -50 136.5t-133 55.5t-142 -61t-59 -156z " />
<glyph unicode="'" horiz-adv-x="428" d="M94 1467q0 142 112 142q55 0 88 -35t33 -85.5t-30 -214.5l-63 -343h-51l-62 344q-27 146 -27 192z" />
<glyph unicode="(" horiz-adv-x="791" d="M97 570q0 343 170 644t471 436v-49q-284 -157 -371 -563q-46 -210 -46 -448q0 -605 228 -885q72 -89 189 -170v-43q-175 88 -293 206q-348 351 -348 872z" />
<glyph unicode=")" horiz-adv-x="791" d="M53 -465q417 234 417 1002q0 612 -226 893q-72 90 -191 171v49q387 -191 550 -603q91 -228 91 -475q0 -345 -170 -645.5t-471 -434.5v43z" />
<glyph unicode="*" d="M168 973q0 72 95 114q32 14 123.5 33t159.5 48q-60 30 -175.5 54t-159 56t-43.5 76t27 69t60 25q83 0 188 -122q64 -74 130 -115q-5 79 -38.5 175t-33.5 141q0 123 99 123q89 0 89 -121q0 -48 -32 -157t-36 -161q65 42 114 99q119 135 195 135q37 0 64 -25.5t27 -62.5 q0 -66 -87 -104q-38 -16 -135 -37.5t-156 -47.5q61 -31 147 -47q227 -42 227 -148q0 -35 -26 -60.5t-61 -25.5q-79 0 -191 134q-49 58 -118 107q2 -65 35 -172.5t33 -153t-25 -80.5t-62 -35q-102 0 -102 111q0 50 29 141t33.5 111t10.5 78q-71 -47 -138 -122t-103.5 -97 t-70.5 -22t-63.5 25t-29.5 61z" />
<glyph unicode="+" horiz-adv-x="1339" d="M43 742v96h578v576h92v-576h580v-96h-580v-578h-92v578h-578z" />
<glyph unicode="," horiz-adv-x="593" d="M128 94q0 59 44.5 98.5t104.5 39.5q91 0 143.5 -75t52.5 -169q0 -270 -345 -384v51q105 35 177.5 114.5t72.5 184.5q0 47 -27 47q-11 0 -43 -16.5t-56 -16.5q-124 0 -124 126z" />
<glyph unicode="-" horiz-adv-x="791" d="M96 445v176h600v-176h-600z" />
<glyph unicode="." horiz-adv-x="593" d="M168 97q0 54 37 91t92 37q54 0 91.5 -37t37.5 -91t-38 -91.5t-91 -37.5t-91 37.5t-38 91.5z" />
<glyph unicode="/" horiz-adv-x="660" d="M3 -32l570 1682h93l-570 -1682h-93z" />
<glyph unicode="0" d="M86 777q0 541 297 753q105 75 216 75q179 0 324 -184q180 -230 180 -619q0 -223 -65.5 -430t-213.5 -313q-123 -87 -237 -87q-225 0 -375 266q-126 224 -126 539zM313 748q0 -322 80 -530q68 -173 197 -173q167 0 232 245q54 201 54 517t-56 495q-71 227 -223 227 q-199 0 -254 -374q-30 -206 -30 -407z" />
<glyph unicode="1" d="M278 1419l383 186h38l-1 -1605h-190v1126q0 170 -12 221q-16 72 -81 72q-43 0 -119 -36z" />
<glyph unicode="2" d="M51 0v43q320 292 465 466q279 333 279 577q0 140 -86.5 241t-224.5 101q-255 0 -345 -267h-43q27 200 141 322t301.5 122t321 -117t133.5 -296q0 -272 -334 -636q-290 -317 -361 -381h745l-64 -175h-928z" />
<glyph unicode="3" d="M118 195l66 23q85 -119 174 -147t189 -13t186 108t86 200t-35.5 183t-71.5 110q-131 122 -314 122h-37v34q93 12 184 67q175 104 175 299q0 116 -72.5 191.5t-188.5 75.5q-179 0 -300 -193l-38 19q140 331 425 331q188 0 290 -123q77 -92 77 -196q0 -171 -216 -355 q294 -114 294 -410q0 -204 -130 -354q-170 -195 -402 -193q-233 10 -341 221z" />
<glyph unicode="4" d="M37 415v149l730 1041h127v-1025h211v-165h-211v-415h-191v415h-666zM151 580h552v781z" />
<glyph unicode="5" d="M159 206l61 21q80 -117 169 -149q145 -45 288 22q63 30 99 71t56.5 90.5t27.5 103.5q14 112 -14 192t-52.5 127t-58.5 84q-64 71 -186.5 124t-330.5 64l285 611h539l-86 -198h-453l-97 -210q291 -47 465 -230q106 -117 135 -256q18 -63 18 -143q0 -204 -124 -351 q-122 -148 -303 -185q-56 -11 -111 -10q-226 7 -327 222z" />
<glyph unicode="6" d="M102 617q0 433 327 739q266 249 569 249h67v-42q-266 -27 -444 -204t-258 -481q167 115 341 115t283 -140t109 -330t-119 -354q-144 -197 -381 -197q-161 0 -274 107q-220 208 -220 538zM322 541q0 -170 70 -318q88 -186 238 -186q129 0 201 125q59 104 59 262t-63 293 q-81 175 -240 175q-86 0 -244 -99q-21 -156 -21 -252z" />
<glyph unicode="7" d="M164 1384l75 189h843v-44l-524 -1561h-130l470 1416h-734z" />
<glyph unicode="8" d="M144 358q0 209 312 434q-143 117 -200 189q-95 120 -95 250q0 171 128.5 272.5t297.5 101.5t299 -91t130 -247q0 -193 -323 -396q203 -156 280.5 -262t77.5 -235q0 -184 -135 -293t-341 -109t-331 141q-100 112 -100 245zM321 364q0 -139 77.5 -234t202 -95t205.5 65.5 t81 163t-44 163.5q-82 123 -333 321q-189 -159 -189 -384zM329 1310q0 -61 34.5 -127.5t84.5 -108.5l190 -158q111 101 151 158q62 91 62 208t-67 186.5t-180 69.5t-194 -62.5t-81 -165.5z" />
<glyph unicode="9" d="M94 1048.5q0 198.5 118 360.5q143 196 373 196q195 0 331 -160q170 -197 170 -476t-130 -504t-357 -375q-188 -122 -408 -122h-66v42q316 5 533 308q120 169 168 372q-182 -117 -330 -117q-185 0 -293.5 138.5t-108.5 337zM300 1161q0 -246 104 -383q75 -99 199 -99 t241 97q21 151 21 254t-38 232t-108.5 198.5t-159.5 69.5q-132 0 -202 -125q-57 -101 -57 -244z" />
<glyph unicode=":" horiz-adv-x="660" d="M204 96q0 54 38 92t91.5 38t91.5 -37.5t38 -91.5t-38.5 -91.5t-91.5 -37.5t-91 37.5t-38 90.5zM206 966q0 54 38 91.5t91 37.5q54 0 91.5 -37.5t37.5 -91.5q0 -53 -37.5 -90.5t-91.5 -37.5q-53 0 -91 37.5t-38 90.5z" />
<glyph unicode=";" horiz-adv-x="660" d="M165 94q0 59 44.5 98.5t104.5 39.5q91 0 143.5 -75t52.5 -169q0 -270 -345 -384v51q105 35 177.5 114.5t72.5 184.5q0 47 -26 47q-12 0 -44 -16.5t-56 -16.5q-124 0 -124 126zM198 969q0 53 38 90t91 37t91 -37t38 -90q0 -54 -38 -91.5t-91 -37.5t-91 37.5t-38 91.5z" />
<glyph unicode="&#x3c;" horiz-adv-x="1339" d="M43 762v57l1248 541v-101l-1074 -467l1074 -471v-104z" />
<glyph unicode="=" horiz-adv-x="1339" d="M43 551v95h1252v-95h-1252zM43 929v95h1252v-95h-1252z" />
<glyph unicode="&#x3e;" horiz-adv-x="1339" d="M43 217v100l1075 466l-1075 471v106l1248 -546v-57z" />
<glyph unicode="?" horiz-adv-x="1054" d="M107 1276q0 157 135 249q120 84 282 84q239 0 352 -139q83 -104 83 -226q0 -179 -181 -384q-143 -164 -178 -222q-64 -108 -73 -267h-48q8 153 40.5 253.5t129 283t96.5 315.5q0 132 -71.5 226.5t-199.5 94.5q-77 0 -146.5 -39.5t-69.5 -111.5q0 -39 34.5 -105.5 t34.5 -101t-26 -63.5t-66 -29q-62 0 -95 57.5t-33 124.5zM382 98q0 54 37 91.5t91 37.5q55 0 92.5 -37.5t37.5 -91.5t-38 -91.5t-92 -37.5q-53 0 -90.5 37.5t-37.5 91.5z" />
<glyph unicode="@" horiz-adv-x="2187" d="M113 524.5q0 297.5 143 562t403 414t551 149.5q235 0 429.5 -97t296.5 -290t102 -401.5t-90.5 -419t-240.5 -308.5t-309 -98q-178 0 -178 159q0 65 21 170q-274 -330 -457 -330q-98 0 -154 83.5t-56 186.5q0 190 118.5 394.5t267 311.5t253.5 107q163 0 200 -160l38 128 l182 25l-135 -463q-108 -367 -108 -440q0 -89 87 -89q125 0 236 112t183.5 275t72.5 366t-96 371t-270.5 257.5t-385.5 89.5q-281 0 -507 -147.5t-357 -408.5t-131 -535.5t114.5 -494t331 -333t462.5 -113.5q320 0 562 170.5t370 471.5h68q-107 -326 -383.5 -519.5 t-622.5 -193.5q-278 0 -513.5 131t-366.5 370t-131 536.5zM757 359q0 -82 37 -133t97 -51q138 0 297 209q81 104 132 251t51 239t-39 141t-116 49t-166 -92q-130 -133 -211.5 -332t-81.5 -281z" />
<glyph unicode="A" horiz-adv-x="1715" d="M133 0l698 1609h40l723 -1609h-294l-50 135q-8 23 -68 165l-95 227h-609l-227 -527h-118zM514 612h540l-266 636z" />
<glyph unicode="B" horiz-adv-x="1584" d="M264 0l3 1573h452q189 0 326 -33t237 -133.5t100 -253.5q0 -259 -285 -350q164 -35 245 -112q113 -106 113 -246.5t-78.5 -245t-204 -152t-390.5 -47.5h-518zM490 114q134 -32 287 -32t270 75q139 88 139 254q0 218 -213 309q-112 49 -269.5 49t-213.5 -10v-645zM490 865 q85 -16 219 -16q296 0 385 149q45 75 45 164q0 169 -143 258q-120 75 -298 75q-116 0 -208 -25v-605z" />
<glyph unicode="C" horiz-adv-x="1584" d="M86 797q0 230 102.5 428t290.5 308.5t386.5 110.5t343 -89t262.5 -299l-36 -23q-140 195 -259 261t-271 66q-344 0 -482 -333q-73 -174 -73 -432q0 -444 275 -611q137 -83 314 -83t292 79.5t235 246.5l36 -23q-228 -405 -651 -405q-390 0 -605 290q-160 216 -160 508z " />
<glyph unicode="D" horiz-adv-x="1715" d="M267 0v1573h414q304 0 472 -57q233 -78 352.5 -277.5t119.5 -443.5q0 -330 -199 -549q-223 -246 -682 -246h-477zM490 114q147 -33 247 -33q292 0 458 201.5t166 503.5t-167 500.5t-467 198.5q-104 0 -237 -34v-1337z" />
<glyph unicode="E" horiz-adv-x="1451" d="M271 0l2 1573h988v-86h-765v-622h638v-84h-638v-519q0 -81 2 -89q7 -55 35 -71t93 -16h635v-86h-990z" />
<glyph unicode="F" horiz-adv-x="1451" d="M271 0l2 1573h988v-86h-765v-622h638v-84h-638v-781h-225z" />
<glyph unicode="G" horiz-adv-x="1715" d="M92 797q0 -292 160 -508q214 -290 605 -290q188 0 393 88q85 49 259 146l-1 625h-435v-136q152 0 189 -75q6 -6 11.5 -10.5t5.5 -51.5v-362q-218 -122 -335 -122q-176 0 -314 83q-274 165 -274 611q0 515 272 686q126 79 280.5 79t273 -66t259.5 -261l36 23 q-119 210 -263 299t-344.5 89t-384 -110t-288.5 -306t-105 -431z" />
<glyph unicode="H" horiz-adv-x="1715" d="M264 1542l2 -1542h222v757h731v-757h222v66l-1 1507h-221v-730h-731l-1 730h-223v-31z" />
<glyph unicode="I" horiz-adv-x="791" d="M284 0v1573h223v-1573h-223z" />
<glyph unicode="J" horiz-adv-x="924" d="M49 142l81 42q94 -123 208 -123h7q118 4 118 159v1353l223 -1v-1047v-11q0 -339 -59 -440q-60 -102 -270 -104h-5q-206 0 -303 172z" />
<glyph unicode="K" horiz-adv-x="1715" d="M262 0h225v785l964 -785h265l-1006 872l717 700h-166l-774 -759l-1 759h-223zM487 813l774 759zM1261 1572z" />
<glyph unicode="L" horiz-adv-x="1451" d="M274 0l2 1571l222 2l-2 -1293q0 -98 20 -135t102 -45h680l-32 -100h-992z" />
<glyph unicode="M" horiz-adv-x="2112" d="M262 0v1572l223 1l571 -1231l561 1231h223v-1573h-223v1324l-607 -1324h-38l-608 1324v-1324h-102z" />
<glyph unicode="N" horiz-adv-x="1715" d="M278 0l2 1573h116l961 -1180l1 1180h101v-1599h-41l-1038 1267v-1241h-102z" />
<glyph unicode="O" horiz-adv-x="1715" d="M84 805q0 362 255 599q221 205 538.5 205t532 -241.5t214.5 -578.5t-217.5 -581t-559 -244t-552.5 239.5t-211 601.5zM349 792q0 -381 165 -588q125 -158 334 -158q275 0 406 235q104 185 104 492.5t-98 499.5q-129 251 -413 251q-211 0 -339 -156q-159 -195 -159 -576z " />
<glyph unicode="P" horiz-adv-x="1321" d="M264 1560l352 13q24 1 47 1q347 0 495 -196q80 -105 80 -240q0 -210 -136 -322t-350 -112q-114 0 -265 33v-737h-221zM487 803q123 -23 190 -23q134 0 215 99.5t81 235.5q0 229 -160 321q-76 43 -154.5 43t-171.5 -22v-654z" />
<glyph unicode="Q" horiz-adv-x="1715" d="M84 790q0 342 221.5 580.5t556.5 238.5t549 -244t214 -580q0 -282 -156 -502t-423 -300q222 -383 569 -411v-37q-352 13 -687 226q-164 104 -282 222q-170 68 -264 142q-298 235 -298 665zM349 790q0 -383 165 -588q127 -159 337 -159q271 0 403 233q106 186 106 480 q0 526 -261 694q-111 70 -248 70q-272 0 -401 -242q-101 -189 -101 -488z" />
<glyph unicode="R" horiz-adv-x="1584" d="M267 0v1561l347 12q37 1 71 1q177 0 289 -34q134 -42 214 -142t80 -230q0 -317 -388 -402l555 -766h-249l-533 735q-59 -2 -93.5 -2t-71.5 2v-735h-221zM488 809h33q22 -2 32 -2q189 0 310 77q144 90 144 269q0 150 -93 241t-244 91q-67 0 -182 -22v-654z" />
<glyph unicode="S" horiz-adv-x="1321" d="M148 1191.5q0 186.5 137 302t324 116.5q213 -13 300 -84q165 -133 180 -392h-69q-46 250 -167 322q-112 66 -219 66h-16q-114 -6 -199.5 -74t-85.5 -173q0 -71 50 -131q73 -87 301 -209.5t280 -158.5q133 -90 181.5 -185.5t48.5 -189.5q0 -196 -147.5 -316.5 t-348.5 -120.5q-67 0 -132.5 8t-151 48t-169 160t-83.5 329h70q1 -158 43 -235q54 -103 164 -161t235 -58t219 67.5t94 192.5t-131 224q-80 62 -265 162.5t-269 166.5q-174 137 -174 323.5z" />
<glyph unicode="T" horiz-adv-x="1451" d="M90 1469v104h1285v-101l-536 2v-1474h-223v1470z" />
<glyph unicode="U" horiz-adv-x="1715" d="M241 680v894l223 -1v-964q0 -277 78 -394q101 -152 330 -152q140 0 258 58q136 65 183 175.5t47 361.5v913h104v-924q0 -218 -35 -331q-51 -161 -192.5 -257t-378.5 -96q-459 0 -580 329q-37 102 -37 388z" />
<glyph unicode="V" horiz-adv-x="1715" d="M160 1573h237l546 -1252l509 1253h116l-666 -1610h-42z" />
<glyph unicode="W" horiz-adv-x="2242" d="M158 1573h239l407 -1209l366 1209l41 1l367 -1209l415 1209l105 -1l-559 -1609h-46l-359 1006l-356 -1006h-41z" />
<glyph unicode="X" horiz-adv-x="1715" d="M160 0l616 774l-546 799l275 -1l407 -617l483 617h128l-553 -701l580 -871h-274l-449 691l-537 -691h-130z" />
<glyph unicode="Y" horiz-adv-x="1715" d="M131 1572l261 1l521 -803l503 798h121l-577 -901v-667h-222v645z" />
<glyph unicode="Z" horiz-adv-x="1451" d="M30 0v43l1009 1436h-843l7 94h1163l-1033 -1478h998l-20 -95h-1281z" />
<glyph unicode="[" horiz-adv-x="791" d="M195 -471v2080h510v-92h-336v-1897h336v-91h-510z" />
<glyph unicode="\" horiz-adv-x="660" d="M3 1650h93l569 -1682h-93z" />
<glyph unicode="]" horiz-adv-x="791" d="M87 -380h336v1897h-336v92h510v-2081h-510v92z" />
<glyph unicode="^" horiz-adv-x="1114" d="M43 774l500 831h35l493 -831h-107l-406 679l-406 -679h-109z" />
<glyph unicode="_" d="M-20 -415h1229v-98h-1229v98z" />
<glyph unicode="`" horiz-adv-x="791" d="M137 1612h259l123 -400h-41z" />
<glyph unicode="a" horiz-adv-x="1054" d="M85 252q0 164 200 283q118 69 391 169v42q0 268 -168 288q-20 2 -39 2q-67 0 -130 -27q-81 -35 -84 -194h-86q4 177 94 229q88 51 245 50h6q266 0 333 -160q21 -50 21 -204v-361l7 -389h-194l-5 173q-164 -127 -216 -151t-122 -24q-116 0 -184.5 78.5t-68.5 195.5z M280 306q0 -75 45.5 -134t126 -59t224.5 116v404q-173 -68 -226 -98q-170 -95 -170 -229z" />
<glyph unicode="b" horiz-adv-x="1097" d="M81 102v1101l3 447h189v-771q154 215 340.5 215t300.5 -171q99 -147 99 -351q0 -283 -188 -456q-161 -148 -352.5 -148t-391.5 134zM273 169q119 -117 257.5 -117t218.5 164q63 130 63 289.5t-67 278.5q-83 145 -231 145q-62 0 -115.5 -27t-125.5 -97v-636z" />
<glyph unicode="c" horiz-adv-x="1054" d="M81 535.5q0 226.5 140 392.5t367 166q279 -11 359 -255l-80 -44q-94 221 -301 221h-16q-110 -4 -187 -86q-94 -113 -94 -296.5t81 -321.5q97 -164 265 -164q112 0 204 78q64 55 124 194l34 -16q-37 -184 -154 -310t-292 -126q-212 0 -338 180q-112 161 -112 387.5z" />
<glyph unicode="d" horiz-adv-x="1132" d="M79 502q0 218 144 405.5t370 187.5q140 0 232 -89v644h191v-1682h-191v151q-145 -151 -312 -151q-197 0 -315.5 158t-118.5 376zM291 579q0 -179 74 -316q91 -168 256 -168q105 0 204 106v547q-15 174 -134 243q-58 32 -112 32q-102 0 -182 -92q-106 -120 -106 -352z" />
<glyph unicode="e" horiz-adv-x="1054" d="M88 527.5q0 234.5 127 401t364 166.5q188 0 298 -122t110 -311h-734q-1 -197 92 -340q107 -165 295 -165q216 0 311 254l36 -24q-27 -171 -147 -295t-288 -124q-217 0 -340.5 162.5t-123.5 397zM253 730h492q-6 102 -25 143q-61 140 -206 140q-111 0 -180.5 -83.5 t-80.5 -199.5z" />
<glyph unicode="f" horiz-adv-x="791" d="M92 979v84h206v69q0 313 208 448q98 63 214 63h14q192 -6 276 -203l-84 -85q-87 209 -251 209h-14q-124 0 -155 -116q-16 -61 -16 -309v-76h273v-84h-273v-979l-192 -3v982h-206z" />
<glyph unicode="g" d="M71 -291q0 28 16 63t51 78.5t145 158.5q-60 36 -85 64.5t-25 67t33 93t152 153.5q-97 48 -149 133.5t-52 188.5q0 158 118.5 271.5t287.5 113.5t280 -74h225q50 0 58 -3q19 -7 19 -42t-4.5 -44t-13.5 -12.5t-59 -3.5h-138q65 -83 65 -222.5t-113.5 -245t-304.5 -105.5 q-79 0 -162 23q-87 -75 -87 -133q0 -51 94 -65q33 -5 217.5 -9.5t273.5 -17t153.5 -77.5t64.5 -160q0 -132 -123 -246q-181 -170 -472 -170q-224 0 -378 101q-87 58 -87 121zM237 -204q0 -56 67 -98q116 -72 330 -72t313 74t99 157q0 61 -59 86q-60 26 -280 31.5t-360 25.5 q-110 -120 -110 -204zM358 739q0 -162 79 -263q61 -77 151.5 -77t147 66t56.5 229t-80 268q-59 76 -148.5 76t-147.5 -68.5t-58 -230.5z" />
<glyph unicode="h" d="M194 0v1648l192 2v-778q98 107 157 150q97 72 198 72q192 0 252 -207q22 -74 22 -271l1 -616h-194v616q0 129 -4 166q-15 105 -62.5 138.5t-103.5 33.5q-123 0 -266 -152l-1 -802h-191z" />
<glyph unicode="i" horiz-adv-x="660" d="M226 1533q0 49 34.5 83t83.5 34t83.5 -34.5t34.5 -83.5q0 -48 -34.5 -83t-82.5 -35q-49 0 -84 35t-35 84zM248 -3v1102l142 -5h51l1 -1094z" />
<glyph unicode="j" horiz-adv-x="660" d="M-182 -396l83 97q137 -117 223 -117q11 0 20 2q90 16 99 76.5t9 228.5v1198l191 5v-1070v-12q0 -533 -314 -533q-28 0 -59 4q-118 3 -252 121zM225 1531.5q0 49.5 34 84.5t84 35t85 -35t35 -85t-35 -84t-84 -34t-84 34.5t-35 84z" />
<glyph unicode="k" d="M195 1646l194 4v-1058l496 469h130l-437 -411l523 -653h-224l-488 595l1 -592h-194v233z" />
<glyph unicode="l" horiz-adv-x="660" d="M246 1648l194 2v-1650h-193z" />
<glyph unicode="m" horiz-adv-x="1847" d="M201 0v1094h189v-226q115 115 137 133q110 93 232 93q218 0 268 -226q94 109 176.5 167.5t194.5 58.5q182 0 254 -186q25 -66 25 -211l2 -697h-194v697q0 131 -32 183q-44 75 -154.5 75t-263.5 -145l-3 -13l3 -50l-3 -747h-189v697q0 131 -38 187q-51 74 -143 74 q-61 0 -141 -43t-131 -105l2 -810h-191z" />
<glyph unicode="n" d="M193 0v635l1 459h190v-225q187 225 361.5 225t243.5 -187q26 -68 26 -213v-454l1 -240h-192v675q0 276 -165 276q-138 0 -275 -151l-1 -800h-190z" />
<glyph unicode="o" d="M80 521q0 146 72 290t191 213.5t251 69.5q241 0 387 -183q124 -157 124 -360q0 -147 -69 -291.5t-188.5 -218t-266.5 -73.5q-240 0 -381 191q-120 161 -120 362zM296 591.5q0 -170.5 71 -331.5q91 -210 264 -210q259 0 259 412q0 282 -122 445q-84 111 -210 111 q-155 0 -224 -164q-38 -92 -38 -262.5z" />
<glyph unicode="p" d="M176 -502v1591h193v-248q148 253 340 253q160 0 267 -125q131 -154 131 -414t-158 -440q-130 -147 -327 -147q-85 0 -140.5 21t-112.5 72v-563h-193zM369 376q0 -128 10 -170q20 -78 87.5 -123.5t151.5 -45.5q116 0 188 91q94 118 94 347t-107 360q-74 91 -176 91 q-56 0 -104 -24.5t-144 -128.5v-397z" />
<glyph unicode="q" d="M79 484q0 250 150 430t396 180q134 0 222 -74q67 32 129 74h39l-1 -1607h-190v697q-184 -216 -359.5 -216t-288.5 171q-97 150 -97 345zM274 570q0 -176 72 -295q87 -144 250 -144q129 0 228 127v498q0 160 -104 222q-58 35 -131 35q-163 0 -248 -148q-67 -119 -67 -295z " />
<glyph unicode="r" horiz-adv-x="791" d="M194 239v843l191 3v-230q132 227 262 227h3q105 -4 157 -168l-84 -65q-55 104 -129 104q-15 0 -31 -4q-44 -12 -83.5 -48t-94.5 -144v-509l-2 -243h-188z" />
<glyph unicode="s" horiz-adv-x="924" d="M116 805.5q0 129.5 94 209t224 79.5q151 -10 206 -58q61 -48 83 -97q38 -85 43 -173h-49q-29 170 -113 220q-78 46 -153 47q-5 -1 -11 -1q-80 -4 -139 -50.5t-59 -107t35 -103.5q59 -64 236 -159q140 -75 166 -93q159 -110 159 -252t-101 -225.5t-242 -83.5 q-47 0 -91 5.5t-90 26.5q-76 35 -133 117.5t-57 227.5h50q0 -111 24 -155q46 -84 122 -121q71 -39 136 -39q108 0 173 46.5t65 133.5t-90 155q-51 40 -149 93q-160 87 -221 134q-118 94 -118 223.5z" />
<glyph unicode="t" horiz-adv-x="660" d="M23 981v82h167v349h193v-349h248v-82h-248v-689q0 -175 105 -175q91 0 130 94h46q-82 -228 -268 -228q-129 0 -180 114q-25 55 -25 170v714h-168z" />
<glyph unicode="u" d="M182 382v681h193v-712q0 -241 176 -241q115 0 263 151v802h192v-644l-1 -451h-191v225q-104 -114 -159 -154q-97 -71 -201 -71q-188 0 -246 184q-26 81 -26 230z" />
<glyph unicode="v" d="M123 1063h217l326 -808l318 808l94 1l-446 -1096h-47z" />
<glyph unicode="w" horiz-adv-x="1715" d="M117 1063h190l286 -818l307 818h38l285 -790l301 790h83l-417 -1095h-47l-266 678l-310 -678h-43z" />
<glyph unicode="x" d="M129 1063h227l244 -367l255 367l100 -2l-301 -443l436 -618h-244l-294 467l-317 -467h-100l363 536z" />
<glyph unicode="y" d="M103 1063h213l361 -783l319 783l108 -3l-643 -1572h-110l234 554z" />
<glyph unicode="z" horiz-adv-x="1054" d="M48 0v42l705 939l-628 -1v83h891v-43l-712 -942h689v-78h-945z" />
<glyph unicode="{" horiz-adv-x="1140" d="M328 545v48q106 14 185.5 79.5t79.5 165.5q0 61 -27 182t-27 184q0 174 129.5 298t307.5 148v-41q-263 -63 -263 -268q0 -63 26.5 -185t26.5 -186q0 -139 -99.5 -243t-243.5 -155q142 -52 242.5 -159t100.5 -245q0 -64 -26.5 -186t-26.5 -185q0 -204 263 -269v-41 q-178 25 -307.5 149t-129.5 298q0 63 27 184t27 182q0 100 -80 165.5t-185 79.5z" />
<glyph unicode="|" horiz-adv-x="475" d="M187 -513v2163h96v-2163h-96z" />
<glyph unicode="}" horiz-adv-x="1140" d="M205 -472q262 65 262 269q0 63 -26.5 185t-26.5 185q0 140 99 244t244 155q-142 52 -242.5 159t-100.5 245q0 64 26.5 186t26.5 185q0 205 -262 268v41q179 -24 307.5 -148t128.5 -299q0 -63 -26.5 -183.5t-26.5 -181.5q0 -100 80 -165.5t185 -79.5v-48 q-105 -14 -185 -79.5t-80 -165.5q0 -61 26.5 -182t26.5 -184q0 -174 -129 -298t-307 -149v41z" />
<glyph unicode="~" horiz-adv-x="1285" d="M23 464q6 132 75.5 227t196.5 95q48 0 93.5 -13t286.5 -109.5t318 -96.5q194 0 216 216h52q-5 -136 -79 -228.5t-205 -92.5q-80 0 -203.5 48t-267 107t-216.5 59q-172 0 -216 -212h-51z" />
<glyph unicode="&#xa1;" horiz-adv-x="791" d="M264 -336q0 24 6 77l104 940h44l103 -940q6 -53 6 -104t-35 -100.5t-96 -49.5q-132 0 -132 177zM269 1001q0 53 37 91t91 38t91 -37t37 -91t-37.5 -91.5t-90.5 -37.5q-54 0 -91 37.5t-37 90.5z" />
<glyph unicode="&#xa2;" d="M150 524q0 294 182 453q140 122 316 122q24 0 71 -5l163 444h83l-168 -466q117 -52 166.5 -108t49.5 -126q0 -99 -109 -99q-64 0 -100 44q-21 26 -28 78.5t-22 92.5l-264 -732q63 -45 102.5 -58t86.5 -13q150 0 234 100q34 39 96 169l35 -15q-55 -218 -189 -339 q-104 -94 -256 -94q-94 0 -188 41l-165 -453h-81l180 496q-94 88 -144.5 197t-50.5 271zM335 638.5q0 -176.5 94 -348.5l259 713q-33 14 -70 14q-118 0 -188 -86q-95 -116 -95 -292.5z" />
<glyph unicode="&#xa3;" d="M71 130q0 72 54.5 122.5t135.5 50.5q38 0 99 -10q3 46 3 119t-24 352h-225v111h225q-15 172 -15 230q0 306 214 439q100 61 213.5 61t204 -63.5t90.5 -172.5q0 -36 -27 -65.5t-67.5 -29.5t-68.5 44q-11 16 -18 88.5t-41 104t-99 31.5q-211 0 -211 -325q0 -58 25 -342h300 v-111h-300q2 -53 2 -78q0 -202 -72 -416q224 -72 272.5 -83t105.5 -11q191 0 245 186l41 -11q-19 -153 -104.5 -266t-228.5 -113q-98 0 -203 60q-38 23 -175 126q-93 -186 -216 -186q-63 0 -99 43t-36 115zM137 130q0 -91 75 -91q94 0 134 161q-51 32 -99 32 q-110 0 -110 -102z" />
<glyph unicode="&#xa4;" d="M31 293l167 169q-118 135 -118 322t118 333l-167 164l65 66l170 -165q137 118 327.5 118t327.5 -118l166 165l67 -66l-167 -164q120 -153 120 -329t-120 -326l167 -169l-67 -63l-166 166q-155 -120 -313 -120q-89 0 -189 32t-153 88l-170 -166zM174 787 q0 -175 123 -296.5t296 -121.5t297 123t124 296q0 110 -58.5 211t-156.5 154t-205 53q-175 0 -297.5 -122t-122.5 -297z" />
<glyph unicode="&#xa5;" d="M2 408v85h492v167l-17 42h-475v84h438l-247 576q-36 85 -75 125.5t-116 41.5v44h513v-44q-140 -9 -140 -72q0 -17 21 -68l248 -603l247 585q24 58 24 85q0 63 -98 69q-8 2 -32 4v44h402v-44q-69 0 -110.5 -34.5t-90.5 -145.5l-248 -563h449v-84h-486l-8 -19v-190h494v-85 h-494v-125q0 -132 11 -161.5t46.5 -51.5t92.5 -22h48v-48h-598v48h38q136 0 159 96q4 21 4 139v125h-492z" />
<glyph unicode="&#xa6;" horiz-adv-x="475" d="M187 348h96v-861h-96v861zM187 789v861h96v-861h-96z" />
<glyph unicode="&#xa7;" d="M181 585q0 239 256 393q-144 159 -144 298.5t96 234t222.5 94.5t215.5 -71t89 -179.5t-91 -108.5q-39 0 -65 25.5t-26 63.5l15 112q0 110 -126 110q-85 0 -143.5 -58.5t-58.5 -139t31 -128.5q53 -83 176 -171q234 -169 319 -301q60 -94 60 -200q0 -242 -256 -397 q142 -156 142 -296t-94 -235t-222 -95t-216 74t-88 187q0 39 25.5 70.5t64.5 31.5q87 0 87 -101l-18 -126q0 -34 37 -62.5t107 -28.5t134.5 58.5t64.5 132t-36 129.5q-56 89 -202 198q-219 164 -287.5 272t-68.5 214zM299 684q0 -82 51 -162t221 -209q81 -61 141 -117 q178 108 178 261.5t-261 356.5q-100 78 -155 128q-175 -106 -175 -258z" />
<glyph unicode="&#xa8;" horiz-adv-x="791" d="M66 1424q0 53 36.5 90t89.5 37t89.5 -36.5t36.5 -89.5t-36.5 -89.5t-88.5 -36.5q-53 0 -90 36.5t-37 88.5zM474 1424q0 53 37.5 90t89.5 37t88.5 -37t36.5 -90q0 -52 -36.5 -88.5t-88.5 -36.5t-89.5 36.5t-37.5 88.5z" />
<glyph unicode="&#xa9;" horiz-adv-x="1804" d="M80 790.5q0 217.5 113 413t308 300.5t408 105t406.5 -110t302 -304t108.5 -411.5t-111.5 -411t-305 -301t-410.5 -107.5t-410 111t-301 304.5t-108 411zM152 784q0 -199 101.5 -375.5t278 -275t374.5 -98.5t375 102t275 278.5t98 374.5t-103 377t-280.5 275t-372.5 96 t-372 -101.5t-275.5 -277.5t-98.5 -375zM371 786q0 230 169 380.5t409 150.5q81 0 214 -44q28 -10 43 -10q36 0 57 52h47l23 -324h-45q-83 273 -352 273q-188 0 -291 -145q-81 -114 -81 -315.5t84 -325.5q99 -144 312.5 -144t349.5 188l43 -22q-162 -236 -445 -236 q-225 0 -381 146t-156 376z" />
<glyph unicode="&#xaa;" horiz-adv-x="655" d="M-7 1057q0 106 150 197q58 35 251 115q0 96 -16 137q-27 67 -107 67q-109 0 -109 -101.5t-66 -101.5t-66 70q0 89 98 133q74 32 174 32q192 0 237 -110q15 -38 15 -126v-253q0 -62 3 -71q7 -30 25.5 -30t69.5 35v-56q-118 -86 -173 -86q-66 0 -85 110 q-147 -105 -249 -105q-59 0 -105.5 42.5t-46.5 101.5zM154 1111q0 -41 31 -70t77.5 -29t131.5 51v262q-240 -80 -240 -214z" />
<glyph unicode="&#xab;" d="M74 538l449 545h66l-283 -545l283 -547h-66zM589 538l457 545h68l-282 -545l282 -547h-68z" />
<glyph unicode="&#xac;" horiz-adv-x="1339" d="M42 925v93h1253v-470h-92v377h-1161z" />
<glyph unicode="&#xad;" horiz-adv-x="791" d="M96 445v176h600v-176h-600z" />
<glyph unicode="&#xae;" horiz-adv-x="1804" d="M80 790.5q0 217.5 113 413t308 300.5t408 105t406.5 -110t302 -304t108.5 -411.5t-111.5 -411t-305 -301t-410.5 -107.5t-410 111t-301 304.5t-108 411zM152 784q0 -199 101.5 -375.5t278 -275t374.5 -98.5t375 102t275 278.5t98 374.5t-103 377t-280.5 275t-372.5 96 t-372 -101.5t-275.5 -277.5t-98.5 -375zM434 289v38q90 0 112 52q8 20 8 108v607q0 88 -3 101q-15 55 -103 55v42h448q139 0 233 -59q111 -70 111 -201q0 -190 -257 -257l242 -346q43 -61 71.5 -79.5t68.5 -22.5v-38h-213l-341 470h-88v-359q12 -73 137 -73v-38h-426z M723 809q226 0 297 102q33 47 33 109q0 97 -67 159t-166 62q-44 0 -97 -18v-414z" />
<glyph unicode="&#xaf;" d="M-20 1696v97h1229v-97h-1229z" />
<glyph unicode="&#xb0;" horiz-adv-x="950" d="M114 1251q0 149 103 253t253 104q149 0 253 -104t104 -253t-104.5 -253t-252.5 -104q-149 0 -252.5 104t-103.5 253zM211 1252.5q0 -108.5 75.5 -184t183.5 -75.5t183 75.5t75 184t-74.5 183t-183.5 74.5t-184 -74.5t-75 -183z" />
<glyph unicode="&#xb1;" horiz-adv-x="1303" d="M9 164v94h578v484h-578v96h578v576h93v-576h580v-96h-580v-484h581v-94h-1252z" />
<glyph unicode="&#xb2;" horiz-adv-x="712" d="M23 770v34q286 223 381 363q58 86 58 162t-49 123.5t-121 47.5q-140 0 -191 -137h-52q35 242 280 242q104 0 191 -59t87 -147t-56 -175q-87 -136 -342 -342h216q80 0 120.5 9t69.5 56h52l-71 -177h-573z" />
<glyph unicode="&#xb3;" horiz-adv-x="712" d="M51 826q0 52 68 52q31 0 96.5 -28t116.5 -28t98 45t47 109q0 124 -110 165q-70 27 -125 27h-34v33q81 0 146 50.5t65 120t-40 103.5t-101 34q-98 0 -170 -102l-44 19q87 179 267 179q84 0 156.5 -44.5t72.5 -124.5t-122 -181q169 -60 169 -208t-126 -227 q-105 -67 -267.5 -67t-162.5 73z" />
<glyph unicode="&#xb4;" horiz-adv-x="791" d="M274 1212l122 400h259l-342 -400h-39z" />
<glyph unicode="&#xb5;" horiz-adv-x="1368" d="M155 -386q0 54 28 167q46 184 46 352v25q-2 29 -2 62v843h191v-619q0 -167 20 -229q35 -105 144 -105q137 0 274 156v797h191v-759q0 -118 10 -152q16 -59 69 -59q72 0 94 144h49q-20 -269 -230 -269q-163 0 -183 220q-188 -220 -364 -220q-63 0 -100.5 20.5t-79.5 77.5 q-1 -36 -1 -90.5t27 -182.5t27 -178.5t-30 -89t-79 -38.5q-101 0 -101 127z" />
<glyph unicode="&#xb6;" horiz-adv-x="1076" d="M-16 1137q0 127 50 210q138 226 472 226h574v-64h-154v-2022h-84v2022h-217v-2022h-84v1210q-183 8 -282 41q-149 48 -217 170q-58 102 -58 229z" />
<glyph unicode="&#xb7;" horiz-adv-x="791" d="M574 816.5q0 50.5 35.5 85.5t86.5 35t86.5 -35t35.5 -85.5t-36 -86.5t-86 -36t-86 36t-36 86.5z" />
<glyph unicode="&#xb8;" horiz-adv-x="791" d="M217 -394q32 -5 71 -5t82 36.5t43 82.5t-28 70t-52 24t-43 -2l129 207h69l-58 -92q145 -37 145 -169q0 -96 -76 -153t-173 -57q-43 0 -109 8v50z" />
<glyph unicode="&#xb9;" horiz-adv-x="712" d="M158 1505l238 100h40v-686q0 -70 10.5 -91t106.5 -21v-37h-377v37q101 0 113 27q6 13 6 85v434q0 119 -13.5 130.5t-32 11.5t-73.5 -23z" />
<glyph unicode="&#xba;" horiz-adv-x="736" d="M34 1254.5q0 149.5 93 250t243 100.5t244.5 -97t94.5 -241.5t-102 -249t-245 -104.5t-235.5 96t-92.5 245.5zM197 1337q0 -183 80 -299q45 -66 119 -66q153 0 153 215q0 182 -83 297q-51 72 -123 72q-146 0 -146 -219z" />
<glyph unicode="&#xbb;" d="M74 -9l282 545l-282 547h68l457 -547l-457 -545h-68zM599 -9l283 545l-283 547h66l449 -547l-449 -545h-66z" />
<glyph unicode="&#xbc;" horiz-adv-x="1781" d="M155 1505l238 100h41v-686q0 -70 10.5 -91t106.5 -21v-37h-377v37q101 0 113 27q5 13 5 85v434q0 119 -13 130.5t-31.5 11.5t-73.5 -23zM311 -63l1084 1668h104l-1084 -1668h-104zM1082 166v85l436 539h98v-530h125v-94h-125v-212h-136v212h-398zM1179 260h301v366z" />
<glyph unicode="&#xbd;" horiz-adv-x="1781" d="M155 1505l238 100h41v-686q0 -70 10.5 -91t106.5 -21v-37h-377v37q101 0 113 27q5 13 5 85v434q0 119 -13 130.5t-31.5 11.5t-73.5 -23zM283 -63l1085 1668h103l-1085 -1668h-103zM1089 -12q286 223 381 363q58 86 58 162t-49 123.5t-121 47.5q-140 0 -191 -136h-52 q35 242 280 242q104 0 191 -60t87 -148t-56 -175q-86 -133 -342 -341h217q81 0 106 6q55 13 83 59h52l-71 -177h-573v34z" />
<glyph unicode="&#xbe;" horiz-adv-x="1781" d="M49 826q0 52 68 52q30 0 95.5 -28t116.5 -28t98 45t47 109q0 103 -78.5 148.5t-190.5 43.5v33q82 0 146.5 50.5t64.5 120t-40 103.5t-100 34q-99 0 -170 -102l-45 19q87 179 267 179q85 0 157.5 -44.5t72.5 -124.5t-122 -181q168 -60 168 -208t-125 -227 q-105 -67 -267.5 -67t-162.5 73zM297 -63l1085 1668h99l-1080 -1668h-104zM1082 166v85l436 539h98v-530h125v-94h-125v-212h-135v212h-399zM1180 260h301v366z" />
<glyph unicode="&#xbf;" horiz-adv-x="1054" d="M103 -145q0 99 38 186.5t166 239t163 230t42 215.5h45q-6 -155 -35 -247t-118.5 -280.5t-89.5 -324t70 -226.5t204 -91q79 0 148 39.5t69 112.5q0 33 -36 97.5t-36 101.5t27.5 64.5t77 27.5t84 -56.5t34.5 -119.5q0 -159 -137 -253q-120 -84 -290.5 -84t-298 98.5 t-127.5 269.5zM396 1002q0 54 37.5 91.5t90.5 37.5q54 0 91.5 -37.5t37.5 -91.5q0 -53 -37.5 -91t-91.5 -38q-53 0 -90.5 38t-37.5 91z" />
<glyph unicode="&#xc0;" horiz-adv-x="1715" d="M133 0l698 1609h40l723 -1609h-294l-50 135q-8 23 -68 165l-95 227h-609l-227 -527h-118zM514 612h540l-266 636zM595 2084h259l123 -400h-41z" />
<glyph unicode="&#xc1;" horiz-adv-x="1715" d="M133 0l698 1609h40l723 -1609h-294l-50 135q-8 23 -68 165l-95 227h-609l-227 -527h-118zM514 612h540l-266 636zM731 1684l122 400h259l-342 -400h-39z" />
<glyph unicode="&#xc2;" horiz-adv-x="1715" d="M133 0l698 1609h40l723 -1609h-294l-50 135q-8 23 -68 165l-95 227h-609l-227 -527h-118zM514 612h540l-266 636zM527 1696l219 384h213l221 -384h-36l-317 247l-266 -247h-34z" />
<glyph unicode="&#xc3;" horiz-adv-x="1715" d="M133 0l698 1609h40l723 -1609h-294l-50 135q-8 23 -68 165l-95 227h-609l-227 -527h-118zM484 1700q9 300 218 300q47 0 80.5 -13t144 -80.5t152.5 -67.5q83 0 110 161h36q2 -195 -112 -269q-54 -36 -109 -36q-91 0 -210.5 81.5t-166 81.5t-74.5 -41q-13 -20 -32 -117 h-37zM514 612h540l-266 636z" />
<glyph unicode="&#xc4;" horiz-adv-x="1715" d="M133 0l698 1609h40l723 -1609h-294l-50 135q-8 23 -68 165l-95 227h-609l-227 -527h-118zM514 612h540l-266 636zM522 1854q0 53 36.5 90t89.5 37t89.5 -36.5t36.5 -89.5t-36.5 -89.5t-88.5 -36.5q-53 0 -90 36.5t-37 88.5zM930 1854q0 53 37.5 90t89.5 37t88.5 -37 t36.5 -90q0 -52 -36.5 -88.5t-88.5 -36.5t-89.5 36.5t-37.5 88.5z" />
<glyph unicode="&#xc5;" horiz-adv-x="1715" d="M133 0l698 1609h40l723 -1609h-294l-50 135q-8 23 -68 165l-95 227h-609l-227 -527h-118zM514 612h540l-266 636zM626 1751q0 93 64.5 157.5t157.5 64.5q92 0 157 -64.5t65 -158t-64 -157.5t-157.5 -64t-158 64.5t-64.5 157.5zM706 1751q0 -59 41 -100t101 -41 q59 0 100 41t41 100t-41 100.5t-100 41.5q-60 0 -101 -41.5t-41 -100.5z" />
<glyph unicode="&#xc6;" horiz-adv-x="2112" d="M-28 0v43q92 2 167 97q44 56 109 178l478 894q89 167 89 224q0 84 -200 94v43h1289l17 -346h-39q-26 206 -149 249q-34 11 -158 11h-384v-622h298q132 0 187.5 49.5t64.5 179.5h42v-546h-42q-11 96 -25 131q-26 59 -92 89q-28 13 -135 13h-298v-609q6 -53 37 -69.5 t97 -16.5h211q115 0 186 18.5t148.5 91t131.5 200.5h44l-125 -396h-1181v43h59q98 0 142 57q28 36 28 177v332h-460l-144 -270q-81 -153 -81 -201q0 -82 182 -95v-43h-494zM554 694h415v793z" />
<glyph unicode="&#xc7;" horiz-adv-x="1584" d="M86 797q0 230 102.5 428t290.5 308.5t386.5 110.5t343 -89t262.5 -299l-36 -23q-140 195 -259 261t-271 66q-344 0 -482 -333q-73 -174 -73 -432q0 -444 275 -611q137 -83 314 -83t292 79.5t235 246.5l36 -23q-228 -405 -651 -405q-390 0 -605 290q-160 216 -160 508z M608 -394q32 -5 71 -5t82 36.5t43 82.5t-28 70t-52 24t-43 -2l129 207h69l-58 -92q145 -37 145 -169q0 -96 -76 -153t-173 -57q-43 0 -109 8v50z" />
<glyph unicode="&#xc8;" horiz-adv-x="1451" d="M271 0l2 1573h988v-86h-765v-622h638v-84h-638v-519q0 -81 2 -89q7 -55 35 -71t93 -16h635v-86h-990zM471 2084h259l123 -400h-41z" />
<glyph unicode="&#xc9;" horiz-adv-x="1451" d="M271 0l2 1573h988v-86h-765v-622h638v-84h-638v-519q0 -81 2 -89q7 -55 35 -71t93 -16h635v-86h-990zM608 1684l122 400h259l-342 -400h-39z" />
<glyph unicode="&#xca;" horiz-adv-x="1451" d="M271 0l2 1573h988v-86h-765v-622h638v-84h-638v-519q0 -81 2 -89q7 -55 35 -71t93 -16h635v-86h-990zM404 1696l219 384h213l221 -384h-36l-317 247l-266 -247h-34z" />
<glyph unicode="&#xcb;" horiz-adv-x="1451" d="M271 0l2 1573h988v-86h-765v-622h638v-84h-638v-519q0 -81 2 -89q7 -55 35 -71t93 -16h635v-86h-990zM399 1854q0 53 36.5 90t89.5 37t89.5 -36.5t36.5 -89.5t-36.5 -89.5t-88.5 -36.5q-53 0 -90 36.5t-37 88.5zM807 1854q0 53 37.5 90t89.5 37t88.5 -37t36.5 -90 q0 -52 -36.5 -88.5t-88.5 -36.5t-89.5 36.5t-37.5 88.5z" />
<glyph unicode="&#xcc;" horiz-adv-x="791" d="M138 2084h259l123 -400h-41zM284 0v1573h223v-1573h-223z" />
<glyph unicode="&#xcd;" horiz-adv-x="791" d="M274 1684l122 400h259l-342 -400h-39zM284 0v1573h223v-1573h-223z" />
<glyph unicode="&#xce;" horiz-adv-x="791" d="M70 1696l219 384h213l221 -384h-36l-317 247l-266 -247h-34zM284 0v1573h223v-1573h-223z" />
<glyph unicode="&#xcf;" horiz-adv-x="791" d="M66 1854q0 53 36.5 90t89.5 37t89.5 -36.5t36.5 -89.5t-36.5 -89.5t-88.5 -36.5q-53 0 -90 36.5t-37 88.5zM284 0v1573h223v-1573h-223zM474 1854q0 53 37.5 90t89.5 37t88.5 -37t36.5 -90q0 -52 -36.5 -88.5t-88.5 -36.5t-89.5 36.5t-37.5 88.5z" />
<glyph unicode="&#xd0;" horiz-adv-x="1704" d="M70 785v86l185 1v423l-1 278h415q307 0 471 -57q224 -76 359 -291q113 -183 113 -428q0 -390 -250 -600q-233 -197 -631 -197h-477l1 278v508zM479 116q147 -32 247 -32q292 0 457.5 201t165.5 502.5t-167 500.5t-465 199q-105 0 -238 -34v-581l338 -1v-86l-338 1v-670z " />
<glyph unicode="&#xd1;" horiz-adv-x="1715" d="M278 0l2 1573h116l961 -1180l1 1180h101v-1599h-41l-1038 1267v-1241h-102zM483 1700q9 300 218 300q47 0 80.5 -13t144 -80.5t152.5 -67.5q83 0 110 161h36q2 -195 -112 -269q-54 -36 -109 -36q-91 0 -210.5 81.5t-166 81.5t-74.5 -41q-13 -20 -32 -117h-37z" />
<glyph unicode="&#xd2;" horiz-adv-x="1715" d="M84 805q0 362 255 599q221 205 538.5 205t532 -241.5t214.5 -578.5t-217.5 -581t-559 -244t-552.5 239.5t-211 601.5zM349 792q0 -381 165 -588q125 -158 334 -158q275 0 406 235q104 185 104 492.5t-98 499.5q-129 251 -413 251q-211 0 -339 -156q-159 -195 -159 -576z M593 2084h259l123 -400h-41z" />
<glyph unicode="&#xd3;" horiz-adv-x="1715" d="M84 805q0 362 255 599q221 205 538.5 205t532 -241.5t214.5 -578.5t-217.5 -581t-559 -244t-552.5 239.5t-211 601.5zM349 792q0 -381 165 -588q125 -158 334 -158q275 0 406 235q104 185 104 492.5t-98 499.5q-129 251 -413 251q-211 0 -339 -156q-159 -195 -159 -576z M729 1684l122 400h259l-342 -400h-39z" />
<glyph unicode="&#xd4;" horiz-adv-x="1715" d="M84 805q0 362 255 599q221 205 538.5 205t532 -241.5t214.5 -578.5t-217.5 -581t-559 -244t-552.5 239.5t-211 601.5zM349 792q0 -381 165 -588q125 -158 334 -158q275 0 406 235q104 185 104 492.5t-98 499.5q-129 251 -413 251q-211 0 -339 -156q-159 -195 -159 -576z M525 1696l219 384h213l221 -384h-36l-317 247l-266 -247h-34z" />
<glyph unicode="&#xd5;" horiz-adv-x="1715" d="M84 805q0 362 255 599q221 205 538.5 205t532 -241.5t214.5 -578.5t-217.5 -581t-559 -244t-552.5 239.5t-211 601.5zM349 792q0 -381 165 -588q125 -158 334 -158q275 0 406 235q104 185 104 492.5t-98 499.5q-129 251 -413 251q-211 0 -339 -156q-159 -195 -159 -576z M481 1700q9 300 218 300q47 0 80.5 -13t144 -80.5t152.5 -67.5q83 0 110 161h36q2 -195 -112 -269q-54 -36 -109 -36q-91 0 -210.5 81.5t-166 81.5t-74.5 -41q-13 -20 -32 -117h-37z" />
<glyph unicode="&#xd6;" horiz-adv-x="1715" d="M84 805q0 362 255 599q221 205 538.5 205t532 -241.5t214.5 -578.5t-217.5 -581t-559 -244t-552.5 239.5t-211 601.5zM349 792q0 -381 165 -588q125 -158 334 -158q275 0 406 235q104 185 104 492.5t-98 499.5q-129 251 -413 251q-211 0 -339 -156q-159 -195 -159 -576z M520 1854q0 53 36.5 90t89.5 37t89.5 -36.5t36.5 -89.5t-36.5 -89.5t-88.5 -36.5q-53 0 -90 36.5t-37 88.5zM928 1854q0 53 37.5 90t89.5 37t88.5 -37t36.5 -90q0 -52 -36.5 -88.5t-88.5 -36.5t-89.5 36.5t-37.5 88.5z" />
<glyph unicode="&#xd7;" horiz-adv-x="1339" d="M191 380l410 410l-408 408l67 68l408 -409l408 409l65 -67l-408 -408l411 -411l-66 -67l-411 411l-409 -410z" />
<glyph unicode="&#xd8;" horiz-adv-x="1715" d="M85 803q0 333 221.5 569.5t553.5 236.5q263 0 471 -173l151 188l68 -51l-155 -194q230 -249 230 -582q0 -398 -283 -644q-218 -189 -486 -189t-473 166l-150 -185l-68 55l153 190q-233 240 -233 613zM350 809q0 -268 85 -474l798 982q-134 210 -379 210q-107 0 -171 -26 q-210 -85 -290 -361q-43 -147 -43 -331zM483 252q133 -204 354.5 -204t354.5 149q165 187 165 564q0 146 -18 248.5t-62 223.5z" />
<glyph unicode="&#xd9;" horiz-adv-x="1715" d="M241 680v894l223 -1v-964q0 -277 78 -394q101 -152 330 -152q140 0 258 58q136 65 183 175.5t47 361.5v913h104v-924q0 -218 -35 -331q-51 -161 -192.5 -257t-378.5 -96q-459 0 -580 329q-37 102 -37 388zM652 2084h259l123 -400h-41z" />
<glyph unicode="&#xda;" horiz-adv-x="1715" d="M241 680v894l223 -1v-964q0 -277 78 -394q101 -152 330 -152q140 0 258 58q136 65 183 175.5t47 361.5v913h104v-924q0 -218 -35 -331q-51 -161 -192.5 -257t-378.5 -96q-459 0 -580 329q-37 102 -37 388zM732 1684l122 400h259l-342 -400h-39z" />
<glyph unicode="&#xdb;" horiz-adv-x="1715" d="M241 680v894l223 -1v-964q0 -277 78 -394q101 -152 330 -152q140 0 258 58q136 65 183 175.5t47 361.5v913h104v-924q0 -218 -35 -331q-51 -161 -192.5 -257t-378.5 -96q-459 0 -580 329q-37 102 -37 388zM583 1696l219 384h213l221 -384h-36l-317 247l-266 -247h-34z " />
<glyph unicode="&#xdc;" horiz-adv-x="1715" d="M241 680v894l223 -1v-964q0 -277 78 -394q101 -152 330 -152q140 0 258 58q136 65 183 175.5t47 361.5v913h104v-924q0 -218 -35 -331q-51 -161 -192.5 -257t-378.5 -96q-459 0 -580 329q-37 102 -37 388zM579 1854q0 53 36.5 90t89.5 37t89.5 -36.5t36.5 -89.5 t-36.5 -89.5t-88.5 -36.5q-53 0 -90 36.5t-37 88.5zM987 1854q0 53 37.5 90t89.5 37t88.5 -37t36.5 -90q0 -52 -36.5 -88.5t-88.5 -36.5t-89.5 36.5t-37.5 88.5z" />
<glyph unicode="&#xdd;" horiz-adv-x="1715" d="M131 1572l261 1l521 -803l503 798h121l-577 -901v-667h-222v645zM774 1684l122 400h259l-342 -400h-39z" />
<glyph unicode="&#xde;" horiz-adv-x="1321" d="M42 0v43h44q108 0 154 65q23 32 23 170v1007q0 108 -3 124q-11 63 -60 92t-112 29h-46v43h670v-43h-46q-51 0 -109 -27q-70 -32 -70 -212v-75h86q179 0 260 -14q239 -41 344 -216q53 -88 53 -197q0 -177 -118.5 -290.5t-321.5 -140.5q-43 -5 -222 -5h-81v-71 q0 -127 27 -174q37 -65 151 -65h47v-43h-670zM487 435h51q143 0 221 32q204 86 204 318q0 182 -130 275q-59 41 -117.5 53t-172.5 12h-56v-690z" />
<glyph unicode="&#xdf;" d="M41 0v42q116 9 141 76q12 33 12 143v860q0 529 414 529q177 0 292.5 -101t115.5 -276q0 -123 -54 -197.5t-167 -123.5q316 -94 316 -462q0 -195 -95 -339q-109 -166 -293 -166q-90 0 -156.5 50.5t-66.5 144.5t93.5 94t93.5 -92l-12 -79q0 -53 65 -53q174 0 174 312 q0 513 -342 536v66q249 0 249 304.5t-222 304.5q-213 0 -213 -370v-1203h-345z" />
<glyph unicode="&#xe0;" horiz-adv-x="1054" d="M85 252q0 164 200 283q118 69 391 169v42q0 268 -168 288q-88 10 -169 -25t-84 -194h-86q4 177 94 228.5t251 50.5q266 0 333 -160q21 -50 21 -204v-361l7 -389h-194l-5 173q-164 -127 -216 -151t-122 -24q-116 0 -184.5 78.5t-68.5 195.5zM280 306q0 -75 45.5 -134 t126 -59t224.5 116v404q-173 -68 -226 -98q-170 -95 -170 -229zM302 1612h259l123 -400h-41z" />
<glyph unicode="&#xe1;" horiz-adv-x="1054" d="M85 252q0 164 200 283q118 69 391 169v42q0 268 -168 288q-88 10 -169 -25t-84 -194h-86q4 177 94 228.5t251 50.5q266 0 333 -160q21 -50 21 -204v-361l7 -389h-194l-5 173q-164 -127 -216 -151t-122 -24q-116 0 -184.5 78.5t-68.5 195.5zM280 306q0 -75 45.5 -134 t126 -59t224.5 116v404q-173 -68 -226 -98q-170 -95 -170 -229zM410 1212l122 400h259l-342 -400h-39z" />
<glyph unicode="&#xe2;" horiz-adv-x="1054" d="M85 252q0 164 200 283q118 69 391 169v42q0 268 -168 288q-88 10 -169 -25t-84 -194h-86q4 177 94 228.5t251 50.5q266 0 333 -160q21 -50 21 -204v-361l7 -389h-194l-5 173q-164 -127 -216 -151t-122 -24q-116 0 -184.5 78.5t-68.5 195.5zM206 1223l219 384h213 l221 -384h-36l-317 247l-266 -247h-34zM280 306q0 -75 45.5 -134t126 -59t224.5 116v404q-173 -68 -226 -98q-170 -95 -170 -229z" />
<glyph unicode="&#xe3;" horiz-adv-x="1054" d="M85 252q0 164 200 283q118 69 391 169v42q0 268 -168 288q-88 10 -169 -25t-84 -194h-86q4 177 94 228.5t251 50.5q266 0 333 -160q21 -50 21 -204v-361l7 -389h-194l-5 173q-164 -127 -216 -151t-122 -24q-116 0 -184.5 78.5t-68.5 195.5zM162 1273q9 300 218 300 q47 0 80.5 -13t144 -80.5t152.5 -67.5q83 0 110 161h36q2 -195 -112 -269q-54 -36 -109 -36q-91 0 -210.5 81.5t-166 81.5t-74.5 -41q-13 -20 -32 -117h-37zM280 306q0 -75 45.5 -134t126 -59t224.5 116v404q-173 -68 -226 -98q-170 -95 -170 -229z" />
<glyph unicode="&#xe4;" horiz-adv-x="1054" d="M85 252q0 164 200 283q118 69 391 169v42q0 268 -168 288q-88 10 -169 -25t-84 -194h-86q4 177 94 228.5t251 50.5q266 0 333 -160q21 -50 21 -204v-361l7 -389h-194l-5 173q-164 -127 -216 -151t-122 -24q-116 0 -184.5 78.5t-68.5 195.5zM201 1424q0 53 36.5 90 t89.5 37t89.5 -36.5t36.5 -89.5t-36.5 -89.5t-88.5 -36.5q-53 0 -90 36.5t-37 88.5zM280 306q0 -75 45.5 -134t126 -59t224.5 116v404q-173 -68 -226 -98q-170 -95 -170 -229zM609 1424q0 53 37.5 90t89.5 37t88.5 -37t36.5 -90q0 -52 -36.5 -88.5t-88.5 -36.5t-89.5 36.5 t-37.5 88.5z" />
<glyph unicode="&#xe5;" horiz-adv-x="1054" d="M85 252q0 164 200 283q118 69 391 169v42q0 268 -168 288q-88 10 -169 -25t-84 -194h-86q4 177 94 228.5t251 50.5q266 0 333 -160q21 -50 21 -204v-361l7 -389h-194l-5 173q-164 -127 -216 -151t-122 -24q-116 0 -184.5 78.5t-68.5 195.5zM280 306q0 -75 45.5 -134 t126 -59t224.5 116v404q-173 -68 -226 -98q-170 -95 -170 -229zM310 1432q0 93 64.5 157.5t157.5 64.5q92 0 157 -64.5t65 -158t-64 -157.5t-157.5 -64t-158 64.5t-64.5 157.5zM390 1432q0 -59 41 -100t101 -41q59 0 100 41t41 100t-41 100.5t-100 41.5q-60 0 -101 -41.5 t-41 -100.5z" />
<glyph unicode="&#xe6;" horiz-adv-x="1584" d="M85 236.5q0 114.5 61.5 182.5t214.5 146.5t292 127.5v106q0 229 -170 229q-62 0 -113 -32t-51 -90q0 -142 -41 -171q-20 -15 -58.5 -15t-68 32t-29.5 79q0 142 176 222q91 42 212 42q259 0 314 -143q113 143 305 143t288 -123t96 -314h-662q-1 -59 -1 -86 q0 -430 297 -430q113 0 204 70q58 46 125 185l37 -26q-42 -188 -180 -313q-100 -90 -238 -90t-226 54q-41 26 -129 131q-24 -18 -78 -61t-76 -56q-121 -68 -237 -68t-190 77t-74 191.5zM280 309q0 -94 51.5 -155.5t135.5 -61.5t241 121q-55 118 -55 301v103 q-158 -49 -288 -148q-85 -66 -85 -160zM851 733h439q-5 280 -215 280q-109 0 -165 -82.5t-59 -197.5z" />
<glyph unicode="&#xe7;" horiz-adv-x="1054" d="M81 535.5q0 226.5 140 392.5t367 166q279 -11 359 -255l-80 -44q-98 230 -317 221q-110 -4 -187 -86q-94 -113 -94 -296.5t81 -321.5q97 -164 265 -164q112 0 204 78q64 55 124 194l34 -16q-37 -184 -154 -310t-292 -126q-212 0 -338 180q-112 161 -112 387.5zM343 -394 q32 -5 71 -5t82 36.5t43 82.5t-28 70t-52 24t-43 -2l129 207h69l-58 -92q145 -37 145 -169q0 -96 -76 -153t-173 -57q-43 0 -109 8v50z" />
<glyph unicode="&#xe8;" horiz-adv-x="1054" d="M88 527.5q0 234.5 127 401t364 166.5q188 0 298 -122t110 -311h-734q-1 -197 92 -340q107 -165 295 -165q216 0 311 254l36 -24q-27 -171 -147 -295t-288 -124q-217 0 -340.5 162.5t-123.5 397zM253 730h492q-6 102 -25 143q-61 140 -206 140q-111 0 -180.5 -83.5 t-80.5 -199.5zM331 1612h259l123 -400h-41z" />
<glyph unicode="&#xe9;" horiz-adv-x="1054" d="M88 527.5q0 234.5 127 401t364 166.5q188 0 298 -122t110 -311h-734q-1 -197 92 -340q107 -165 295 -165q216 0 311 254l36 -24q-27 -171 -147 -295t-288 -124q-217 0 -340.5 162.5t-123.5 397zM253 730h492q-6 102 -25 143q-61 140 -206 140q-111 0 -180.5 -83.5 t-80.5 -199.5zM425 1212l122 400h259l-342 -400h-39z" />
<glyph unicode="&#xea;" horiz-adv-x="1054" d="M88 527.5q0 234.5 127 401t364 166.5q188 0 298 -122t110 -311h-734q-1 -197 92 -340q107 -165 295 -165q216 0 311 254l36 -24q-27 -171 -147 -295t-288 -124q-217 0 -340.5 162.5t-123.5 397zM249 1223l219 384h213l221 -384h-36l-317 247l-266 -247h-34zM253 730h492 q-6 102 -25 143q-61 140 -206 140q-111 0 -180.5 -83.5t-80.5 -199.5z" />
<glyph unicode="&#xeb;" horiz-adv-x="1054" d="M88 527.5q0 234.5 127 401t364 166.5q188 0 298 -122t110 -311h-734q-1 -197 92 -340q107 -165 295 -165q216 0 311 254l36 -24q-27 -171 -147 -295t-288 -124q-217 0 -340.5 162.5t-123.5 397zM243 1424q0 53 36.5 90t89.5 37t89.5 -36.5t36.5 -89.5t-36.5 -89.5 t-88.5 -36.5q-53 0 -90 36.5t-37 88.5zM253 730h492q-6 102 -25 143q-61 140 -206 140q-111 0 -180.5 -83.5t-80.5 -199.5zM651 1424q0 53 37.5 90t89.5 37t88.5 -37t36.5 -90q0 -52 -36.5 -88.5t-88.5 -36.5t-89.5 36.5t-37.5 88.5z" />
<glyph unicode="&#xec;" horiz-adv-x="660" d="M70 964l320 130h50v-854q0 -148 59 -182q28 -16 103 -16v-42h-516v42q117 0 147 65q15 35 15 133v410q0 174 -10 223q-14 67 -73 67q-33 0 -79 -18zM91 1612h259l123 -400h-41z" />
<glyph unicode="&#xed;" horiz-adv-x="660" d="M70 964l320 130h50v-854q0 -148 59 -182q28 -16 103 -16v-42h-516v42q117 0 147 65q15 35 15 133v410q0 174 -10 223q-14 67 -73 67q-33 0 -79 -18zM197 1212l122 400h259l-342 -400h-39z" />
<glyph unicode="&#xee;" horiz-adv-x="660" d="M17 1223l219 384h213l221 -384h-36l-317 247l-266 -247h-34zM70 964l320 130h50v-854q0 -148 59 -182q28 -16 103 -16v-42h-516v42q117 0 147 65q15 35 15 133v410q0 174 -10 223q-14 67 -73 67q-33 0 -79 -18z" />
<glyph unicode="&#xef;" horiz-adv-x="660" d="M3 1424q0 53 36.5 90t89.5 37t89.5 -36.5t36.5 -89.5t-36.5 -89.5t-88.5 -36.5q-53 0 -90 36.5t-37 88.5zM70 964l320 130h50v-854q0 -148 59 -182q28 -16 103 -16v-42h-516v42q117 0 147 65q15 35 15 133v410q0 174 -10 223q-14 67 -73 67q-33 0 -79 -18zM411 1424 q0 53 37.5 90t89.5 37t88.5 -37t36.5 -90q0 -52 -36.5 -88.5t-88.5 -36.5t-89.5 36.5t-37.5 88.5z" />
<glyph unicode="&#xf0;" d="M79 523q0 234 160 412q136 150 327 150q56 0 97 -13.5t99 -55.5q-93 192 -218 340l-286 -157l-35 64l270 153q-113 114 -218 184l31 50q139 -70 287 -180l289 161l39 -64l-266 -151q199 -171 322.5 -398.5t123.5 -467.5q0 -348 -254 -507q-121 -75 -268 -75 q-221 0 -360.5 160.5t-139.5 394.5zM293 601q0 -348 174 -487q81 -65 168 -65q139 0 203 133q48 101 48 282t-65 338q-87 212 -265 212q-263 0 -263 -413z" />
<glyph unicode="&#xf1;" d="M193 0v635l1 459h190v-225q187 225 361.5 225t243.5 -187q26 -68 26 -213v-454l1 -240h-192v675q0 276 -165 276q-138 0 -275 -151l-1 -800h-190zM224 1273q9 300 218 300q47 0 80.5 -13t144 -80.5t152.5 -67.5q83 0 110 161h36q2 -195 -112 -269q-54 -36 -109 -36 q-91 0 -210.5 81.5t-166 81.5t-74.5 -41q-13 -20 -32 -117h-37z" />
<glyph unicode="&#xf2;" d="M80 521q0 146 72 290t191 213.5t251 69.5q241 0 387 -183q124 -157 124 -360q0 -147 -69 -291.5t-188.5 -218t-266.5 -73.5q-240 0 -381 191q-120 161 -120 362zM296 591.5q0 -170.5 71 -331.5q91 -210 264 -210q259 0 259 412q0 282 -122 445q-84 111 -210 111 q-155 0 -224 -164q-38 -92 -38 -262.5zM349 1612h259l123 -400h-41z" />
<glyph unicode="&#xf3;" d="M80 521q0 146 72 290t191 213.5t251 69.5q241 0 387 -183q124 -157 124 -360q0 -147 -69 -291.5t-188.5 -218t-266.5 -73.5q-240 0 -381 191q-120 161 -120 362zM296 591.5q0 -170.5 71 -331.5q91 -210 264 -210q259 0 259 412q0 282 -122 445q-84 111 -210 111 q-155 0 -224 -164q-38 -92 -38 -262.5zM457 1212l122 400h259l-342 -400h-39z" />
<glyph unicode="&#xf4;" d="M80 521q0 146 72 290t191 213.5t251 69.5q241 0 387 -183q124 -157 124 -360q0 -147 -69 -291.5t-188.5 -218t-266.5 -73.5q-240 0 -381 191q-120 161 -120 362zM281 1223l219 384h213l221 -384h-36l-317 247l-266 -247h-34zM296 591.5q0 -170.5 71 -331.5 q91 -210 264 -210q259 0 259 412q0 282 -122 445q-84 111 -210 111q-155 0 -224 -164q-38 -92 -38 -262.5z" />
<glyph unicode="&#xf5;" d="M80 521q0 146 72 290t191 213.5t251 69.5q241 0 387 -183q124 -157 124 -360q0 -147 -69 -291.5t-188.5 -218t-266.5 -73.5q-240 0 -381 191q-120 161 -120 362zM223 1273q9 300 218 300q47 0 80.5 -13t144 -80.5t152.5 -67.5q83 0 110 161h36q2 -195 -112 -269 q-54 -36 -109 -36q-91 0 -210.5 81.5t-166 81.5t-74.5 -41q-13 -20 -32 -117h-37zM296 591.5q0 -170.5 71 -331.5q91 -210 264 -210q259 0 259 412q0 282 -122 445q-84 111 -210 111q-155 0 -224 -164q-38 -92 -38 -262.5z" />
<glyph unicode="&#xf6;" d="M80 521q0 146 72 290t191 213.5t251 69.5q241 0 387 -183q124 -157 124 -360q0 -147 -69 -291.5t-188.5 -218t-266.5 -73.5q-240 0 -381 191q-120 161 -120 362zM262 1424q0 53 36.5 90t89.5 37t89.5 -36.5t36.5 -89.5t-36.5 -89.5t-88.5 -36.5q-53 0 -90 36.5t-37 88.5z M296 591.5q0 -170.5 71 -331.5q91 -210 264 -210q259 0 259 412q0 282 -122 445q-84 111 -210 111q-155 0 -224 -164q-38 -92 -38 -262.5zM670 1424q0 53 37.5 90t89.5 37t88.5 -37t36.5 -90q0 -52 -36.5 -88.5t-88.5 -36.5t-89.5 36.5t-37.5 88.5z" />
<glyph unicode="&#xf7;" horiz-adv-x="1303" d="M27 742v96h1250v-96h-1250zM550 426.5q0 42.5 29.5 72t72.5 29.5t72.5 -29.5t29.5 -72t-30 -72.5t-72 -30t-72 30t-30 72.5zM550 1146.5q0 42.5 29.5 71.5t72 29t72 -29.5t29.5 -72t-29.5 -71.5t-72 -29t-72 29.5t-29.5 72z" />
<glyph unicode="&#xf8;" d="M45 -28l164 185q-123 152 -123 371q0 141 70.5 280.5t188.5 212.5t259 73q178 0 331 -129l154 171l54 -50l-157 -177q123 -156 123 -361q0 -144 -69 -288.5t-186 -218t-278.5 -73.5t-319.5 132l-156 -178zM302 617q0 -144 45 -304l470 521q-106 183 -251 183 q-264 0 -264 -400zM382 237q103 -187 253 -187q259 0 259 416q0 141 -45 293z" />
<glyph unicode="&#xf9;" d="M182 382v681h193v-712q0 -241 176 -241q115 0 263 151v802h192v-644l-1 -451h-191v225q-104 -114 -159 -154q-97 -71 -201 -71q-188 0 -246 184q-26 81 -26 230zM356 1612h259l123 -400h-41z" />
<glyph unicode="&#xfa;" d="M182 382v681h193v-712q0 -241 176 -241q115 0 263 151v802h192v-644l-1 -451h-191v225q-104 -114 -159 -154q-97 -71 -201 -71q-188 0 -246 184q-26 81 -26 230zM429 1212l122 400h259l-342 -400h-39z" />
<glyph unicode="&#xfb;" d="M182 382v681h193v-712q0 -241 176 -241q115 0 263 151v802h192v-644l-1 -451h-191v225q-104 -114 -159 -154q-97 -71 -201 -71q-188 0 -246 184q-26 81 -26 230zM272 1223l219 384h213l221 -384h-36l-317 247l-266 -247h-34z" />
<glyph unicode="&#xfc;" d="M182 382v681h193v-712q0 -241 176 -241q115 0 263 151v802h192v-644l-1 -451h-191v225q-104 -114 -159 -154q-97 -71 -201 -71q-188 0 -246 184q-26 81 -26 230zM262 1424q0 53 36.5 90t89.5 37t89.5 -36.5t36.5 -89.5t-36.5 -89.5t-88.5 -36.5q-53 0 -90 36.5t-37 88.5z M670 1424q0 53 37.5 90t89.5 37t88.5 -37t36.5 -90q0 -52 -36.5 -88.5t-88.5 -36.5t-89.5 36.5t-37.5 88.5z" />
<glyph unicode="&#xfd;" d="M103 1063h213l361 -783l319 783l108 -3l-643 -1572h-110l234 554zM468 1212l122 400h259l-342 -400h-39z" />
<glyph unicode="&#xfe;" d="M176 -507v2154h194l-1 -806q148 253 340 253q160 0 267 -125q131 -154 131 -414t-158 -440q-130 -147 -327 -147q-85 0 -140.5 21t-112.5 72v-323l1 -245h-194zM369 376q0 -128 10 -170q20 -78 87.5 -123.5t151.5 -45.5q116 0 188 91q94 118 94 347t-107 360 q-74 91 -176 91q-56 0 -104 -24.5t-144 -128.5v-397z" />
<glyph unicode="&#xff;" d="M103 1063h213l361 -783l319 783l108 -3l-643 -1572h-110l234 554zM306 1424q0 53 36.5 90t89.5 37t89.5 -36.5t36.5 -89.5t-36.5 -89.5t-88.5 -36.5q-53 0 -90 36.5t-37 88.5zM714 1424q0 53 37.5 90t89.5 37t88.5 -37t36.5 -90q0 -52 -36.5 -88.5t-88.5 -36.5 t-89.5 36.5t-37.5 88.5z" />
<glyph unicode="&#x152;" horiz-adv-x="2112" d="M87 784q0 299 164 528q196 275 571 275q16 0 196 -7t339 -7h549l14 -346h-37q-28 138 -53.5 179.5t-74.5 61t-177 19.5h-297v-620h212q246 0 244 227h45v-548h-45q-11 140 -59 187.5t-185 47.5h-212v-520q0 -136 50 -164q16 -9 89 -9h120q122 0 165 9q79 16 155 85 t139 212h46l-125 -394h-563q-149 0 -198 -1l-362 -18q-204 0 -363.5 103t-253 290t-93.5 410zM354 775q0 -432 206 -615q108 -96 271.5 -96t206.5 112q20 54 20 218v815q0 109 -8 149q-16 87 -75 121t-148 34q-310 0 -418 -344q-55 -175 -55 -394z" />
<glyph unicode="&#x153;" horiz-adv-x="1715" d="M78 518q0 233 130.5 404.5t364.5 171.5t357 -183q128 184 320.5 184t292.5 -122t94 -308h-636q-2 -29 -2 -44q0 -113 38.5 -229.5t115.5 -174.5t168 -58q199 0 277 253l39 -20q-79 -424 -395 -424q-214 0 -312 186q-145 -186 -369 -186q-223 0 -353 158.5t-130 391.5z M295 625q0 -299 118 -471q72 -104 177 -104q239 0 239 388q0 217 -52 368q-76 224 -252 224q-128 0 -187 -136q-43 -98 -43 -269zM1001 740h407q1 80 -28 156q-46 121 -175 121q-98 0 -148 -84.5t-56 -192.5z" />
<glyph unicode="&#x178;" horiz-adv-x="1715" d="M131 1572l261 1l521 -803l503 798h121l-577 -901v-667h-222v645zM551 1854q0 53 36.5 90t89.5 37t89.5 -36.5t36.5 -89.5t-36.5 -89.5t-88.5 -36.5q-53 0 -90 36.5t-37 88.5zM959 1854q0 53 37.5 90t89.5 37t88.5 -37t36.5 -90q0 -52 -36.5 -88.5t-88.5 -36.5t-89.5 36.5 t-37.5 88.5z" />
<glyph unicode="&#x2c6;" horiz-adv-x="791" d="M70 1223l219 384h213l221 -384h-36l-317 247l-266 -247h-34z" />
<glyph unicode="&#x2dc;" horiz-adv-x="791" d="M26 1273q9 300 218 300q47 0 80.5 -13t144 -80.5t152.5 -67.5q83 0 110 161h36q2 -195 -112 -269q-54 -36 -109 -36q-91 0 -210.5 81.5t-166 81.5t-74.5 -41q-13 -20 -32 -117h-37z" />
<glyph unicode="&#x2000;" horiz-adv-x="1042" />
<glyph unicode="&#x2001;" horiz-adv-x="2084" />
<glyph unicode="&#x2002;" horiz-adv-x="1042" />
<glyph unicode="&#x2003;" horiz-adv-x="2084" />
<glyph unicode="&#x2004;" horiz-adv-x="694" />
<glyph unicode="&#x2005;" horiz-adv-x="521" />
<glyph unicode="&#x2006;" horiz-adv-x="347" />
<glyph unicode="&#x2007;" horiz-adv-x="347" />
<glyph unicode="&#x2008;" horiz-adv-x="260" />
<glyph unicode="&#x2009;" horiz-adv-x="416" />
<glyph unicode="&#x200a;" horiz-adv-x="115" />
<glyph unicode="&#x2010;" horiz-adv-x="791" d="M96 445v176h600v-176h-600z" />
<glyph unicode="&#x2011;" horiz-adv-x="791" d="M96 445v176h600v-176h-600z" />
<glyph unicode="&#x2012;" horiz-adv-x="791" d="M96 445v176h600v-176h-600z" />
<glyph unicode="&#x2013;" d="M-21 525v85h1229v-85h-1229z" />
<glyph unicode="&#x2014;" horiz-adv-x="2375" d="M-22 525v86h2419v-86h-2419z" />
<glyph unicode="&#x2018;" horiz-adv-x="791" d="M215 1238q0 138 102 249q67 74 198 122v-50q-118 -72 -155.5 -125.5t-37.5 -120t45 -66.5q9 0 35 9.5t62 9.5t70 -36t34 -90.5t-42.5 -93t-119.5 -38.5t-134 70t-57 160z" />
<glyph unicode="&#x2019;" horiz-adv-x="791" d="M224 1478q0 54 42.5 92.5t119.5 38.5t134.5 -70t57.5 -159q0 -136 -104 -249q-68 -74 -198 -123v55q121 70 157 123t36 119t-43 66q-12 0 -37.5 -9t-61 -9t-69.5 35.5t-34 89.5z" />
<glyph unicode="&#x201a;" horiz-adv-x="791" d="M236 94q0 59 44.5 98.5t104.5 39.5q91 0 143.5 -75t52.5 -169q0 -270 -345 -384v51q105 35 177.5 114.5t72.5 184.5q0 47 -27 47q-11 0 -43 -16.5t-56 -16.5q-124 0 -124 126z" />
<glyph unicode="&#x201c;" horiz-adv-x="1054" d="M78 1245q0 130 84.5 225.5t215.5 138.5v-48q-190 -99 -190 -237q0 -72 37 -72l87 17q50 0 84 -36t34 -90.5t-44.5 -92.5t-118 -38t-131.5 71.5t-58 161.5zM633 1241q0 132 83 229t215 135v-44q-95 -54 -143 -106.5t-48 -128.5t40 -76l89 19q49 0 83.5 -35t34.5 -89.5 t-46.5 -94.5t-120 -40t-130.5 71.5t-57 159.5z" />
<glyph unicode="&#x201d;" horiz-adv-x="1054" d="M78 1474.5q0 54.5 46.5 94.5t120 40t130.5 -72t57 -161q0 -132 -84 -229.5t-215 -136.5v49q96 54 143.5 106t47.5 128t-40 76l-88 -19q-50 0 -84 35t-34 89.5zM635 1477q0 54 44 93t118 39t132 -72.5t58 -161.5q0 -130 -84.5 -226t-215.5 -139v49q190 99 190 238 q0 72 -37 72l-87 -19q-49 0 -83.5 36.5t-34.5 90.5z" />
<glyph unicode="&#x201e;" horiz-adv-x="1054" d="M78 97.5q0 54.5 46.5 94.5t120 40t130.5 -72t57 -161q0 -132 -84 -229.5t-215 -136.5v49q96 54 143.5 106t47.5 128t-40 76l-88 -19q-50 0 -84 35t-34 89.5zM635 100q0 54 44 93t118 39t132 -72.5t58 -161.5q0 -130 -84.5 -226t-215.5 -139v49q190 99 190 238 q0 72 -37 72l-87 -19q-49 0 -83.5 36.5t-34.5 90.5z" />
<glyph unicode="&#x2022;" horiz-adv-x="831" d="M130 785q0 122 84.5 206.5t206.5 84.5t206.5 -84.5t84.5 -206.5q0 -121 -84.5 -206t-206.5 -85t-206.5 85t-84.5 206z" />
<glyph unicode="&#x2026;" horiz-adv-x="2375" d="M267 97q0 54 37 91t92 37q54 0 91 -37t37 -91t-37.5 -91.5t-90.5 -37.5q-54 0 -91.5 37.5t-37.5 91.5zM1059 97q0 54 37 91t91 37t92 -37.5t38 -91.5q0 -53 -38 -90.5t-91 -37.5q-54 0 -91.5 37.5t-37.5 91.5zM1851 97q0 54 37.5 91t91 37t91.5 -37.5t38 -91.5 q0 -53 -38 -90.5t-91 -37.5t-91 37.5t-38 91.5z" />
<glyph unicode="&#x202f;" horiz-adv-x="416" />
<glyph unicode="&#x2039;" horiz-adv-x="791" d="M138 538l449 545h66l-283 -545l283 -547h-66z" />
<glyph unicode="&#x203a;" horiz-adv-x="791" d="M133 -9l282 545l-282 547h68l457 -547l-457 -545h-68z" />
<glyph unicode="&#x205f;" horiz-adv-x="521" />
<glyph unicode="&#x20ac;" d="M-27 668l27 91h86v18q0 35 2 78h-115l27 90h97q40 274 188 454q171 206 437 206q385 -16 394 -448h-45q-30 372 -349 372q-184 0 -290 -194q-83 -149 -108 -390h685l-26 -90h-666q-4 -49 -4 -96h641l-27 -91h-611q9 -246 97 -408q103 -190 268.5 -190t269.5 80 q63 48 159 181l36 -24q-100 -157 -181 -225q-133 -110 -320 -110q-267 0 -413 222q-119 181 -142 474h-117z" />
<glyph unicode="&#x2122;" horiz-adv-x="2328" d="M35 1340l24 233h845l25 -233h-39q-23 163 -225 163h-87v-671q0 -90 20 -120t103 -33v-42h-434v42q80 7 98 35t18 117v672h-88q-102 0 -152 -33.5t-69 -129.5h-39zM1009 637v42q100 0 121 47q10 25 10 105v540q0 124 -43 147q-23 12 -88 12v43h332l317 -664l307 664h324 v-43q-50 -1 -70 -7q-35 -9 -47 -38.5t-12 -111.5v-542q0 -93 21 -120.5t108 -31.5v-42h-462v42q51 1 82 9t43.5 37t12.5 104v571l-356 -763h-37l-357 753v-559q0 -115 41 -140q21 -12 66 -12h42v-42h-355z" />
<glyph unicode="&#xe000;" horiz-adv-x="1061" d="M0 0v1061h1061v-1061h-1061z" />
</font>
</defs>
</svg>
