<?xml version="1.0" encoding="utf-8"?>
<!DOCTYPE svg PUBLIC "-//W3C//DTD SVG 1.1//EN" "http://www.w3.org/Graphics/SVG/1.1/DTD/svg11.dtd">
<svg version="1.1" id="Calque_1" xmlns="http://www.w3.org/2000/svg" xmlns:xlink="http://www.w3.org/1999/xlink" viewBox="0 0 64 64" xml:space="preserve">
<g>
	
		<linearGradient id="SVGID_1_" gradientUnits="userSpaceOnUse" x1="-455.4956" y1="6730.7246" x2="-455.4956" y2="6719.6309" gradientTransform="matrix(1 0 0 -1 493.0049 6743.9102)">
		<stop  offset="0" style="stop-color:##spriteCouleur1##"/>
		<stop  offset="1" style="stop-color:##spriteCouleur1Moyen##"/>
	</linearGradient>
	<rect x="34.251" y="13.186" fill="url(#SVGID_1_)" width="6.518" height="11.094"/>
	
		<linearGradient id="SVGID_2_" gradientUnits="userSpaceOnUse" x1="-461.0054" y1="6733.5176" x2="-461.0054" y2="6690.3027" gradientTransform="matrix(1 0 0 -1 493.0049 6743.9102)">
		<stop  offset="0" style="stop-color:##spriteCouleur2##"/>
		<stop  offset="1" style="stop-color:##spriteCouleur2Fonce##"/>
	</linearGradient>
	<path fill="url(#SVGID_2_)" d="M43.205,10.393c0.03,0.186,0.046,0.375,0.046,0.569v12.206c0,1.985-1.611,3.596-3.596,3.596H24.269
		c-1.985,0-3.596-1.61-3.596-3.596V10.962c0-0.194,0.018-0.383,0.045-0.569H14.26c-1.985,0-3.596,1.61-3.596,3.595v36.024
		c0,1.985,1.61,3.596,3.596,3.596h35.481c1.986,0,3.595-1.609,3.595-3.596V16.685l-6.292-6.292H43.205L43.205,10.393z
		 M42.726,48.522H22.685c-0.438,0-0.795-0.355-0.795-0.795c0-0.438,0.355-0.794,0.795-0.794h20.041c0.439,0,0.795,0.356,0.795,0.794
		C43.521,48.167,43.165,48.522,42.726,48.522z M42.726,44.815H22.685c-0.438,0-0.795-0.355-0.795-0.795
		c0-0.438,0.355-0.795,0.795-0.795h20.041c0.439,0,0.795,0.356,0.795,0.795C43.521,44.46,43.165,44.815,42.726,44.815z
		 M42.726,40.934H22.685c-0.438,0-0.795-0.354-0.795-0.795c0-0.438,0.355-0.794,0.795-0.794h20.041c0.439,0,0.795,0.355,0.795,0.794
		C43.521,40.579,43.165,40.934,42.726,40.934z M47.841,36.273H18.469v14.275h-1.798V34.477h31.17V36.273L47.841,36.273z"/>
</g>
</svg>
