<?xml version="1.0" encoding="utf-8"?>
<!DOCTYPE svg PUBLIC "-//W3C//DTD SVG 1.1//EN" "http://www.w3.org/Graphics/SVG/1.1/DTD/svg11.dtd">
<svg version="1.1" id="Calque_1" xmlns="http://www.w3.org/2000/svg" xmlns:xlink="http://www.w3.org/1999/xlink" viewBox="0 0 64 64" xml:space="preserve">
<g>
	
		<linearGradient id="SVGID_1_" gradientUnits="userSpaceOnUse" x1="-455.2612" y1="6736.7988" x2="-455.2612" y2="6687.0225" gradientTransform="matrix(1 0 0 -1 493.0049 6743.9102)">
		<stop  offset="0" style="stop-color:##spriteCouleur1##"/>
		<stop  offset="1" style="stop-color:##spriteCouleur1Moyen##"/>
	</linearGradient>
	<path fill="url(#SVGID_1_)" d="M44.252,29.029c-1.378-1.802-4.602-5.479-4.268-15.94c0.241-7.567-6.118-5.797-6.118-5.797
		s-8.147,0.761-3.301,14.895c0.967,2.818,15.898,5.556,8.338,13.687c-2.074,2.234,2.503,2.115,2.37,5.234
		c-0.081,1.885-3.105,2.219-3.06,4.508c0.021,1.104,1.84,1.896,1.529,3.302c-0.229,1.036-1.349,1.698-2.104,2.979
		c-0.855,1.448,1.266,2.897-1.599,4.991c0,0.001,2.333-0.147,3.943-0.476c0,0,5.086-1.85,4.83-9.903
		c-0.162-5.079,1.65-7.502,1.647-10.067C46.46,32.572,45.436,30.578,44.252,29.029z"/>
	
		<linearGradient id="SVGID_2_" gradientUnits="userSpaceOnUse" x1="-463.7983" y1="6717.6025" x2="-463.7983" y2="6709.0635" gradientTransform="matrix(1 0 0 -1 493.0049 6743.9102)">
		<stop  offset="0" style="stop-color:##spriteCouleur2##"/>
		<stop  offset="1" style="stop-color:##spriteCouleur2Fonce##"/>
	</linearGradient>
	<path fill="url(#SVGID_2_)" d="M21,33.537c0,0,18.639,3.867,18.261-1.689c0,0-2.729-8.938-18.261-4.107
		C21,27.74,16.833,31.928,21,33.537z"/>
	
		<linearGradient id="SVGID_3_" gradientUnits="userSpaceOnUse" x1="-464.7847" y1="6708.4229" x2="-464.7847" y2="6701.3877" gradientTransform="matrix(1 0 0 -1 493.0049 6743.9102)">
		<stop  offset="0" style="stop-color:##spriteCouleur2##"/>
		<stop  offset="1" style="stop-color:##spriteCouleur2Fonce##"/>
	</linearGradient>
	<path fill="url(#SVGID_3_)" d="M38.897,40.097c0,0-2.536-5.517-19.362-4.479c0,0-4.469,4.545-0.04,5.848
		C19.495,41.465,39.3,44.59,38.897,40.097z"/>
	
		<linearGradient id="SVGID_4_" gradientUnits="userSpaceOnUse" x1="-464.9604" y1="6700.9189" x2="-464.9604" y2="6693.8848" gradientTransform="matrix(1 0 0 -1 493.0049 6743.9102)">
		<stop  offset="0" style="stop-color:##spriteCouleur2##"/>
		<stop  offset="1" style="stop-color:##spriteCouleur2Fonce##"/>
	</linearGradient>
	<path fill="url(#SVGID_4_)" d="M37.323,47.599c0,0-2.204-5.516-16.825-4.478c0,0-3.885,4.543-0.035,5.847
		C20.463,48.967,37.672,52.092,37.323,47.599z"/>
	
		<linearGradient id="SVGID_5_" gradientUnits="userSpaceOnUse" x1="-464.5806" y1="6693.3262" x2="-464.5806" y2="6687.5" gradientTransform="matrix(1 0 0 -1 493.0049 6743.9102)">
		<stop  offset="0" style="stop-color:##spriteCouleur2##"/>
		<stop  offset="1" style="stop-color:##spriteCouleur2Fonce##"/>
	</linearGradient>
	<path fill="url(#SVGID_5_)" d="M22.172,50.691c0,0-3.217,3.764-0.03,4.842c0,0,14.259,2.59,13.969-1.133
		C36.111,54.402,34.286,49.832,22.172,50.691z"/>
</g>
</svg>
