<?xml version="1.0" encoding="utf-8"?>
<!DOCTYPE svg PUBLIC "-//W3C//DTD SVG 1.1//EN" "http://www.w3.org/Graphics/SVG/1.1/DTD/svg11.dtd">
<svg version="1.1" id="Calque_1" xmlns="http://www.w3.org/2000/svg" xmlns:xlink="http://www.w3.org/1999/xlink" viewBox="0 0 64 64" xml:space="preserve">
<g>
	
		<linearGradient id="SVGID_1_" gradientUnits="userSpaceOnUse" x1="-466.8564" y1="6737.2637" x2="-466.8564" y2="6686.5576" gradientTransform="matrix(1 0 0 -1 493.0049 6743.9102)">
		<stop  offset="0" style="stop-color:##spriteCouleur1##"/>
		<stop  offset="1" style="stop-color:##spriteCouleur1Moyen##"/>
	</linearGradient>
	<path fill="url(#SVGID_1_)" d="M24.965,28.053c2.115-2.273-2.549-2.151-2.413-5.33c0.082-1.919,3.164-2.263,3.117-4.594
		c-0.022-1.124-1.875-1.93-1.559-3.362c0.232-1.054,1.373-1.729,2.145-3.034c0.87-1.477-1.289-2.952,1.629-5.085
		c0,0-2.378,0.15-4.02,0.486c0,0-5.182,1.882-4.92,10.087c0.164,5.174-1.681,7.643-1.678,10.256c0.003,3.94,1.045,5.973,2.253,7.549
		c1.403,1.835,4.688,5.583,4.346,16.239c-0.245,7.708,6.234,5.904,6.234,5.904s8.298-0.774,3.363-15.173
		C32.476,39.126,17.266,36.336,24.965,28.053z"/>
	
		<linearGradient id="SVGID_2_" gradientUnits="userSpaceOnUse" x1="-458.1606" y1="6714.8125" x2="-458.1606" y2="6706.1152" gradientTransform="matrix(1 0 0 -1 493.0049 6743.9102)">
		<stop  offset="0" style="stop-color:##spriteCouleur2##"/>
		<stop  offset="1" style="stop-color:##spriteCouleur2Fonce##"/>
	</linearGradient>
	<path fill="url(#SVGID_2_)" d="M43.205,30.431c0,0-18.988-3.937-18.602,1.723c0,0,2.778,9.104,18.602,4.184
		C43.205,36.336,47.45,32.072,43.205,30.431z"/>
	
		<linearGradient id="SVGID_3_" gradientUnits="userSpaceOnUse" x1="-457.1558" y1="6722.6309" x2="-457.1558" y2="6715.4658" gradientTransform="matrix(1 0 0 -1 493.0049 6743.9102)">
		<stop  offset="0" style="stop-color:##spriteCouleur2##"/>
		<stop  offset="1" style="stop-color:##spriteCouleur2Fonce##"/>
	</linearGradient>
	<path fill="url(#SVGID_3_)" d="M24.973,23.749c0,0,2.582,5.621,19.723,4.563c0,0,4.554-4.629,0.042-5.955
		C44.738,22.358,24.562,19.174,24.973,23.749z"/>
	
		<linearGradient id="SVGID_4_" gradientUnits="userSpaceOnUse" x1="-456.9761" y1="6730.2734" x2="-456.9761" y2="6723.1074" gradientTransform="matrix(1 0 0 -1 493.0049 6743.9102)">
		<stop  offset="0" style="stop-color:##spriteCouleur2##"/>
		<stop  offset="1" style="stop-color:##spriteCouleur2Fonce##"/>
	</linearGradient>
	<path fill="url(#SVGID_4_)" d="M26.578,16.108c0,0,2.244,5.62,17.139,4.562c0,0,3.956-4.628,0.035-5.954
		C43.752,14.715,26.22,11.531,26.578,16.108z"/>
	
		<linearGradient id="SVGID_5_" gradientUnits="userSpaceOnUse" x1="-457.3638" y1="6736.7793" x2="-457.3638" y2="6730.8428" gradientTransform="matrix(1 0 0 -1 493.0049 6743.9102)">
		<stop  offset="0" style="stop-color:##spriteCouleur2##"/>
		<stop  offset="1" style="stop-color:##spriteCouleur2Fonce##"/>
	</linearGradient>
	<path fill="url(#SVGID_5_)" d="M42.011,12.957c0,0,3.277-3.834,0.029-4.933c0,0-14.525-2.638-14.229,1.152
		C27.81,9.178,29.67,13.834,42.011,12.957z"/>
</g>
</svg>
