<?xml version="1.0" encoding="utf-8"?>
<!DOCTYPE svg PUBLIC "-//W3C//DTD SVG 1.1//EN" "http://www.w3.org/Graphics/SVG/1.1/DTD/svg11.dtd">
<svg version="1.1" id="Calque_1" xmlns="http://www.w3.org/2000/svg" xmlns:xlink="http://www.w3.org/1999/xlink" viewBox="0 0 64 64" xml:space="preserve">
<g>
	
		<linearGradient id="SVGID_1_" gradientUnits="userSpaceOnUse" x1="-462.8281" y1="6735.0664" x2="-462.8281" y2="6707.6543" gradientTransform="matrix(1 0 0 -1 493.0049 6743.9102)">
		<stop  offset="0" style="stop-color:##spriteCouleur2##"/>
		<stop  offset="1" style="stop-color:##spriteCouleur2Fonce##"/>
	</linearGradient>
	<path fill="url(#SVGID_1_)" d="M18.877,36.026c8.806-8.83,17.614-17.663,26.418-26.495c-0.655-0.412-1.979-0.647-2.901-0.688
		c-9.11,9.137-18.224,18.274-27.336,27.412c1.248-0.076,2.496-0.152,3.743-0.229C18.827,36.026,18.852,36.026,18.877,36.026z"/>
	
		<linearGradient id="SVGID_2_" gradientUnits="userSpaceOnUse" x1="-481.2949" y1="6694.6729" x2="-481.2949" y2="6689.6328" gradientTransform="matrix(1 0 0 -1 493.0049 6743.9102)">
		<stop  offset="0" style="stop-color:##spriteCouleur2##"/>
		<stop  offset="1" style="stop-color:##spriteCouleur2Fonce##"/>
	</linearGradient>
	<path fill="url(#SVGID_2_)" d="M9.868,49.237c-0.735,1.703-1.619,5.64,1.909,4.963c0.815-0.254,1.629-0.509,2.443-0.764
		C13.376,51.739,11.677,49.94,9.868,49.237z"/>
	
		<linearGradient id="SVGID_3_" gradientUnits="userSpaceOnUse" x1="-456.1826" y1="6733.0801" x2="-456.1826" y2="6701.4688" gradientTransform="matrix(1 0 0 -1 493.0049 6743.9102)">
		<stop  offset="0" style="stop-color:##spriteCouleur2##"/>
		<stop  offset="1" style="stop-color:##spriteCouleur2Fonce##"/>
	</linearGradient>
	<path fill="url(#SVGID_3_)" d="M21.704,41.448c0.562,0.599,2.976,0.884,3.895,0.993c5.928-5.955,11.86-11.912,17.792-17.867
		c3.131-3.131,6.261-6.261,9.393-9.393c-1.604-1.45-3.207-2.902-4.812-4.352C38.937,19.864,29.9,28.9,20.863,37.936
		C21.143,39.107,21.422,40.278,21.704,41.448z"/>
	
		<linearGradient id="SVGID_4_" gradientUnits="userSpaceOnUse" x1="-451.8901" y1="6726.0547" x2="-451.8901" y2="6696.0479" gradientTransform="matrix(1 0 0 -1 493.0049 6743.9102)">
		<stop  offset="0" style="stop-color:##spriteCouleur2##"/>
		<stop  offset="1" style="stop-color:##spriteCouleur2Fonce##"/>
	</linearGradient>
	<path fill="url(#SVGID_4_)" d="M54.154,17.855c-8.907,8.882-17.815,17.768-26.725,26.648c0.077,1.119,0.153,2.239,0.229,3.358
		c0.025,0,0.051,0,0.076,0c8.985-9.009,17.971-18.021,26.954-27.029C55.023,20.057,54.538,18.283,54.154,17.855z"/>
	
		<linearGradient id="SVGID_5_" gradientUnits="userSpaceOnUse" x1="-474.7695" y1="6704.9824" x2="-474.7695" y2="6691.3145" gradientTransform="matrix(1 0 0 -1 493.0049 6743.9102)">
		<stop  offset="0" style="stop-color:##spriteCouleur1##"/>
		<stop  offset="1" style="stop-color:##spriteCouleur1Moyen##"/>
	</linearGradient>
	<path fill="url(#SVGID_5_)" d="M25.108,45.113c-1.806-0.382-3.615-0.763-5.421-1.146c-0.331-1.68-0.661-3.358-0.992-5.039
		c-0.534,0-1.069,0-1.604,0c-1.145,0.052-2.289,0.102-3.436,0.152c-0.839,2.495-1.68,4.988-2.521,7.482
		c2.642,0.861,4.947,3.633,6.11,6.033c2.696-0.84,5.396-1.68,8.092-2.52C25.261,48.422,25.185,46.769,25.108,45.113z"/>
	
		<linearGradient id="SVGID_6_" gradientUnits="userSpaceOnUse" x1="-457.2866" y1="6690.5117" x2="-457.2866" y2="6688.7539" gradientTransform="matrix(1 0 0 -1 493.0049 6743.9102)">
		<stop  offset="0" style="stop-color:##spriteCouleur2##"/>
		<stop  offset="1" style="stop-color:##spriteCouleur2Fonce##"/>
	</linearGradient>
	<polygon fill="url(#SVGID_6_)" points="25.336,55.156 46.101,55.156 46.101,53.398 26.843,53.398 	"/>
</g>
</svg>
