<?xml version="1.0" encoding="utf-8"?>
<!DOCTYPE svg PUBLIC "-//W3C//DTD SVG 1.1//EN" "http://www.w3.org/Graphics/SVG/1.1/DTD/svg11.dtd">
<svg version="1.1" id="Calque_1" xmlns="http://www.w3.org/2000/svg" xmlns:xlink="http://www.w3.org/1999/xlink" viewBox="0 0 64 64" xml:space="preserve">
<g>
	
		<linearGradient id="SVGID_1_" gradientUnits="userSpaceOnUse" x1="-461.0063" y1="6724.9297" x2="-461.0063" y2="6688.0186" gradientTransform="matrix(1 0 0 -1 493.0049 6743.9102)">
		<stop  offset="0" style="stop-color:##spriteCouleur2##"/>
		<stop  offset="1" style="stop-color:##spriteCouleur2Fonce##"/>
	</linearGradient>
	<path fill="url(#SVGID_1_)" d="M16.832,18.98c-0.31,0-0.561,0.232-0.561,0.516v9.453v20.215c0,3.709,3.273,6.728,7.301,6.728
		h16.852c4.027,0,7.303-3.019,7.303-6.728V22.861v-3.366c0-0.283-0.252-0.515-0.562-0.515H16.832L16.832,18.98z M24.135,50.803
		c0,0.923-0.714,1.671-1.591,1.671c-0.879,0-1.592-0.748-1.592-1.671V27.427V24.07c0-0.925,0.713-1.669,1.592-1.669
		c0.877,0,1.591,0.744,1.591,1.669v2.793V50.803z M33.592,50.803c0,0.923-0.713,1.671-1.592,1.671c-0.879,0-1.592-0.748-1.592-1.671
		V25.041v-0.972c0-0.924,0.713-1.668,1.592-1.668c0.106,0,0.209,0.012,0.311,0.031c0.041,0.01,0.078,0.023,0.116,0.035
		c0.06,0.019,0.117,0.033,0.171,0.055c0.053,0.024,0.102,0.054,0.152,0.081c0.035,0.021,0.072,0.039,0.105,0.062
		c0.061,0.04,0.113,0.085,0.168,0.134c0.018,0.017,0.039,0.031,0.059,0.049c0.059,0.06,0.113,0.123,0.164,0.191
		c0.008,0.011,0.016,0.019,0.021,0.029c0.055,0.076,0.104,0.158,0.146,0.243c0,0.006,0.002,0.007,0.002,0.009
		c0.086,0.182,0.141,0.38,0.16,0.591c0.004,0.052,0.014,0.102,0.014,0.154V50.8l0,0L33.592,50.803L33.592,50.803z M43.047,50.803
		c0,0.923-0.713,1.671-1.592,1.671c-0.877,0-1.592-0.748-1.592-1.671V24.071c0-0.925,0.715-1.669,1.592-1.669
		c0.879,0,1.592,0.744,1.592,1.669V50.803z"/>
	
		<linearGradient id="SVGID_2_" gradientUnits="userSpaceOnUse" x1="-461.0054" y1="6731.418" x2="-461.0054" y2="6726.3516" gradientTransform="matrix(1 0 0 -1 493.0049 6743.9102)">
		<stop  offset="0" style="stop-color:##spriteCouleur1##"/>
		<stop  offset="1" style="stop-color:##spriteCouleur1Moyen##"/>
	</linearGradient>
	<path fill="url(#SVGID_2_)" d="M50.289,16.868c0-2.416-2.357-4.375-5.266-4.375H18.976c-2.91,0-5.265,1.959-5.265,4.375
		c0,0.235,0.028,0.465,0.07,0.69h36.436C50.262,17.333,50.289,17.103,50.289,16.868z"/>
	
		<linearGradient id="SVGID_3_" gradientUnits="userSpaceOnUse" x1="-461.0054" y1="6735.8027" x2="-461.0054" y2="6732.6973" gradientTransform="matrix(1 0 0 -1 493.0049 6743.9102)">
		<stop  offset="0" style="stop-color:##spriteCouleur2##"/>
		<stop  offset="1" style="stop-color:##spriteCouleur2Fonce##"/>
	</linearGradient>
	<path fill="url(#SVGID_3_)" d="M35.047,8.108h-6.096c-1.426,0-2.58,1.064-2.58,2.379v0.726h11.258v-0.726
		C37.629,9.174,36.473,8.108,35.047,8.108z"/>
</g>
</svg>
