<?xml version="1.0" encoding="utf-8"?>
<!DOCTYPE svg PUBLIC "-//W3C//DTD SVG 1.1//EN" "http://www.w3.org/Graphics/SVG/1.1/DTD/svg11.dtd">
<svg version="1.1" id="Calque_1" xmlns="http://www.w3.org/2000/svg" xmlns:xlink="http://www.w3.org/1999/xlink" viewBox="0 0 64 64" xml:space="preserve">
<g>
	
		<linearGradient id="SVGID_1_" gradientUnits="userSpaceOnUse" x1="-477.5576" y1="6719.0088" x2="-477.5576" y2="6692.3633" gradientTransform="matrix(1 0 0 -1 493.0049 6743.9102)">
		<stop  offset="0" style="stop-color:##spriteCouleur1##"/>
		<stop  offset="1" style="stop-color:##spriteCouleur1Moyen##"/>
	</linearGradient>
	<path fill="url(#SVGID_1_)" d="M24.764,34.027l2.678-1.775l-1.816-2.746l-2.646,1.753c-0.66-0.737-1.412-1.396-2.267-1.921
		l1.138-2.89l-3.062-1.207l-1.122,2.848c-0.38-0.089-0.766-0.163-1.163-0.208c-0.627-0.071-1.246-0.074-1.854-0.033l-0.708-2.946
		l-3.199,0.769l0.699,2.917c-0.95,0.392-1.833,0.921-2.62,1.571l-2.242-1.984L4.397,30.64l2.256,1.997
		c-0.534,0.852-0.955,1.781-1.226,2.787L2.421,35.08l-0.372,3.273l3.04,0.346c0.077,1.334,0.415,2.609,0.964,3.771l-2.604,1.725
		l1.815,2.746l2.661-1.764c0.673,0.707,1.438,1.334,2.293,1.826L9.041,50l3.062,1.207l1.192-3.031
		c0.29,0.059,0.583,0.105,0.88,0.143c0.681,0.076,1.351,0.082,2.005,0.025l0.769,3.203l3.199-0.768l-0.774-3.23
		c0.883-0.381,1.708-0.877,2.448-1.48l2.494,2.205l2.182-2.467l-2.491-2.205c0.506-0.799,0.912-1.674,1.187-2.611l3.279,0.375
		l0.373-3.271l-3.248-0.371C25.553,36.42,25.261,35.172,24.764,34.027z M20.204,38.654c-0.306,2.686-2.73,4.617-5.415,4.311
		c-2.686-0.307-4.616-2.732-4.31-5.42c0.306-2.688,2.729-4.619,5.417-4.311C18.58,33.539,20.508,35.965,20.204,38.654z"/>
	
		<linearGradient id="SVGID_2_" gradientUnits="userSpaceOnUse" x1="-477.5522" y1="6708.791" x2="-477.5522" y2="6702.7676" gradientTransform="matrix(1 0 0 -1 493.0049 6743.9102)">
		<stop  offset="0" style="stop-color:##spriteCouleur2##"/>
		<stop  offset="1" style="stop-color:##spriteCouleur2Fonce##"/>
	</linearGradient>
	<path fill="url(#SVGID_2_)" d="M15.27,35.125c-1.66,0.104-2.924,1.531-2.823,3.191c0.102,1.658,1.53,2.922,3.19,2.82
		s2.924-1.529,2.822-3.189S16.93,35.025,15.27,35.125z"/>
	
		<linearGradient id="SVGID_3_" gradientUnits="userSpaceOnUse" x1="-447.5649" y1="6731.457" x2="-447.5649" y2="6697.9141" gradientTransform="matrix(1 0 0 -1 493.0049 6743.9102)">
		<stop  offset="0" style="stop-color:##spriteCouleur2##"/>
		<stop  offset="1" style="stop-color:##spriteCouleur2Fonce##"/>
	</linearGradient>
	<path fill="url(#SVGID_3_)" d="M58.121,27.197l3.83-1.271L60.65,22l-3.787,1.255c-0.557-1.111-1.254-2.156-2.116-3.075l2.329-3.131
		l-3.315-2.471l-2.296,3.086c-0.434-0.231-0.875-0.45-1.341-0.635c-0.738-0.293-1.488-0.5-2.24-0.651l0.111-3.805l-4.132-0.119
		l-0.112,3.767c-1.28,0.164-2.524,0.517-3.692,1.044l-2.068-3.143l-3.453,2.274l2.078,3.161c-0.926,0.855-1.744,1.849-2.401,2.979
		l-3.534-1.404l-1.527,3.846l3.574,1.42c-0.347,1.642-0.354,3.299-0.072,4.891l-3.726,1.236l1.302,3.928l3.806-1.264
		c0.585,1.078,1.304,2.088,2.181,2.971l-2.413,3.244l3.316,2.469l2.442-3.283c0.334,0.166,0.67,0.32,1.021,0.459
		c0.797,0.318,1.609,0.543,2.423,0.695l-0.121,4.135l4.134,0.119l0.121-4.172c1.197-0.172,2.361-0.502,3.457-0.992l2.299,3.496
		l3.455-2.273l-2.298-3.494c0.877-0.803,1.657-1.729,2.298-2.777l3.854,1.535l1.527-3.85l-3.815-1.515
		C58.29,30.363,58.345,28.75,58.121,27.197z M51.068,31.31c-1.254,3.157-4.83,4.702-7.984,3.446
		c-3.156-1.254-4.698-4.83-3.443-7.987c1.254-3.158,4.829-4.703,7.985-3.447C50.781,24.576,52.322,28.151,51.068,31.31z"/>
	
		<linearGradient id="SVGID_4_" gradientUnits="userSpaceOnUse" x1="-447.5259" y1="6718.5781" x2="-447.5259" y2="6711.0098" gradientTransform="matrix(1 0 0 -1 493.0049 6743.9102)">
		<stop  offset="0" style="stop-color:##spriteCouleur1##"/>
		<stop  offset="1" style="stop-color:##spriteCouleur1Moyen##"/>
	</linearGradient>
	<path fill="url(#SVGID_4_)" d="M46.245,25.412c-2.048-0.424-4.05,0.894-4.472,2.939c-0.422,2.047,0.895,4.049,2.941,4.471
		c2.046,0.422,4.048-0.895,4.471-2.941C49.607,27.835,48.29,25.833,46.245,25.412z"/>
</g>
</svg>
