<?xml version="1.0" encoding="utf-8"?>
<!DOCTYPE svg PUBLIC "-//W3C//DTD SVG 1.1//EN" "http://www.w3.org/Graphics/SVG/1.1/DTD/svg11.dtd">
<svg version="1.1" id="Calque_1" xmlns="http://www.w3.org/2000/svg" xmlns:xlink="http://www.w3.org/1999/xlink" viewBox="0 0 64 64" xml:space="preserve">
<g>
	
		<linearGradient id="SVGID_1_" gradientUnits="userSpaceOnUse" x1="-461.0054" y1="6705.7373" x2="-461.0054" y2="6698.3301" gradientTransform="matrix(1 0 0 -1 493.0049 6743.9102)">
		<stop  offset="0" style="stop-color:##spriteCouleur2##"/>
		<stop  offset="1" style="stop-color:##spriteCouleur2Fonce##"/>
	</linearGradient>
	<path fill="url(#SVGID_1_)" d="M47.787,41.877c0,2.044-1.317,3.703-2.944,3.703H19.155c-1.626,0-2.943-1.659-2.943-3.703l0,0
		c0-2.044,1.317-3.704,2.943-3.704h25.688C46.468,38.174,47.787,39.832,47.787,41.877L47.787,41.877z"/>
	
		<linearGradient id="SVGID_2_" gradientUnits="userSpaceOnUse" x1="-461.0054" y1="6696.9336" x2="-461.0054" y2="6689.5264" gradientTransform="matrix(1 0 0 -1 493.0049 6743.9102)">
		<stop  offset="0" style="stop-color:##spriteCouleur2##"/>
		<stop  offset="1" style="stop-color:##spriteCouleur2Fonce##"/>
	</linearGradient>
	<path fill="url(#SVGID_2_)" d="M47.787,50.681c0,2.044-1.317,3.703-2.944,3.703H19.155c-1.626,0-2.943-1.658-2.943-3.703l0,0
		c0-2.045,1.317-3.704,2.943-3.704h25.688C46.468,46.977,47.787,48.636,47.787,50.681L47.787,50.681z"/>
	<path fill="#1C1C1C" d="M27.545,25.963c0,0.469,0,0.628,0,0.628"/>
	
		<linearGradient id="SVGID_3_" gradientUnits="userSpaceOnUse" x1="-461.0063" y1="6714.5332" x2="-461.0063" y2="6707.127" gradientTransform="matrix(1 0 0 -1 493.0049 6743.9102)">
		<stop  offset="0" style="stop-color:##spriteCouleur2##"/>
		<stop  offset="1" style="stop-color:##spriteCouleur2Fonce##"/>
	</linearGradient>
	<path fill="url(#SVGID_3_)" d="M44.843,29.377H19.155c-1.626,0-2.943,1.658-2.943,3.703s1.317,3.703,2.943,3.703h25.688
		c1.625,0,2.943-1.658,2.943-3.703C47.787,31.035,46.468,29.377,44.843,29.377z M43.215,32.13H20.784
		c-0.279,0-0.503-0.226-0.503-0.504c0-0.279,0.225-0.503,0.503-0.503h22.431c0.278,0,0.503,0.226,0.503,0.503
		C43.718,31.904,43.493,32.13,43.215,32.13z"/>
	
		<linearGradient id="SVGID_4_" gradientUnits="userSpaceOnUse" x1="-476.792" y1="6733.2852" x2="-476.792" y2="6716.1436" gradientTransform="matrix(1 0 0 -1 493.0049 6743.9102)">
		<stop  offset="0" style="stop-color:##spriteCouleur1##"/>
		<stop  offset="1" style="stop-color:##spriteCouleur1Moyen##"/>
	</linearGradient>
	<path fill="url(#SVGID_4_)" d="M23.341,21.537c0,1.965,0,3.121,0,3.779c0,0.322,0-0.027,0,0.646c0,2.407,4.205,2.407,4.205,0
		c0-0.646,0-0.386,0-0.646c0-0.649,0-1.6,0-2.969c0-6.475-4.608-11.722-11.334-11.722c-6.723,0-11.332,5.248-11.332,11.722
		c0,1.674,0,2.575,0,3.059c0,0.145,0,0.197,0,0.215c0,0.007,0,0.008,0,0.008c0,0.021,0,0.098,0,0.333c0,2.335,4.189,2.407,4.204,0
		c0.004-0.617,0-0.345,0-0.617c0-0.911,0-2.478,0-3.808c0-3.793,3.192-6.865,7.128-6.865C20.149,14.673,23.341,17.746,23.341,21.537
		z M13.929,12.898c-4.226,0.816-5.821,4.596-5.836,4.633c-0.067,0.162-0.225,0.26-0.39,0.26c-0.054,0-0.106-0.01-0.159-0.031
		c-0.215-0.089-0.316-0.334-0.229-0.549c0.07-0.172,1.79-4.237,6.455-5.138c0.228-0.044,0.446,0.104,0.491,0.332
		C14.305,12.634,14.155,12.854,13.929,12.898z"/>
</g>
</svg>
