<?xml version="1.0" encoding="utf-8"?>
<!DOCTYPE svg PUBLIC "-//W3C//DTD SVG 1.1//EN" "http://www.w3.org/Graphics/SVG/1.1/DTD/svg11.dtd">
<svg version="1.1" id="Calque_1" xmlns="http://www.w3.org/2000/svg" xmlns:xlink="http://www.w3.org/1999/xlink" viewBox="0 0 64 64" xml:space="preserve">
<g>
	
		<linearGradient id="SVGID_1_" gradientUnits="userSpaceOnUse" x1="-453.6665" y1="6735.0371" x2="-453.6665" y2="6688.7842" gradientTransform="matrix(1 0 0 -1 493.0049 6743.9102)">
		<stop  offset="0" style="stop-color:##spriteCouleur2##"/>
		<stop  offset="1" style="stop-color:##spriteCouleur2Fonce##"/>
	</linearGradient>
	<path fill="url(#SVGID_1_)" d="M56.892,30.48L31.008,9.504c-0.757-0.617-1.898-0.8-2.89-0.468
		c-0.991,0.334-1.637,1.117-1.637,1.985v9.269h-5.475v23.42h5.474v9.269c0,0.869,0.647,1.653,1.638,1.982
		c0.991,0.334,2.131,0.15,2.89-0.462l23.755-19.253l2.131-1.727c0.5-0.403,0.776-0.949,0.776-1.519
		C57.669,31.43,57.393,30.885,56.892,30.48z"/>
	
		<linearGradient id="SVGID_2_" gradientUnits="userSpaceOnUse" x1="-478.0034" y1="6723.6201" x2="-478.0034" y2="6700.2002" gradientTransform="matrix(1 0 0 -1 493.0049 6743.9102)">
		<stop  offset="0" style="stop-color:##spriteCouleur1##"/>
		<stop  offset="1" style="stop-color:##spriteCouleur1Moyen##"/>
	</linearGradient>
	<rect x="12.135" y="20.291" fill="url(#SVGID_2_)" width="5.733" height="23.419"/>
	
		<linearGradient id="SVGID_3_" gradientUnits="userSpaceOnUse" x1="-485.3423" y1="6723.6201" x2="-485.3423" y2="6700.2002" gradientTransform="matrix(1 0 0 -1 493.0049 6743.9102)">
		<stop  offset="0" style="stop-color:##spriteCouleur1##"/>
		<stop  offset="1" style="stop-color:##spriteCouleur1Moyen##"/>
	</linearGradient>
	<rect x="6.33" y="20.291" fill="url(#SVGID_3_)" width="2.665" height="23.419"/>
</g>
</svg>
