<?xml version="1.0" encoding="utf-8"?>
<!DOCTYPE svg PUBLIC "-//W3C//DTD SVG 1.1//EN" "http://www.w3.org/Graphics/SVG/1.1/DTD/svg11.dtd">
<svg version="1.1" id="Calque_1" xmlns="http://www.w3.org/2000/svg" xmlns:xlink="http://www.w3.org/1999/xlink" viewBox="0 0 64 64" xml:space="preserve">
<g>
	<g>
		<linearGradient id="SVGID_1_" gradientUnits="userSpaceOnUse" x1="-282.0049" y1="-6395.3145" x2="-282.0049" y2="-6347.5054" gradientTransform="matrix(1 0 0 1 314.0049 6403.4102)">
			<stop  offset="0" style="stop-color:##spriteCouleur1##"/>
			<stop  offset="1" style="stop-color:##spriteCouleur1Moyen##"/>
		</linearGradient>
		<path fill="url(#SVGID_1_)" d="M32.001,8.096C18.799,8.096,8.096,18.798,8.096,32c0,13.2,10.703,23.904,23.905,23.904
			S55.904,45.2,55.904,32C55.904,18.798,45.203,8.096,32.001,8.096z M32.001,52.772c-11.474,0-20.774-9.3-20.774-20.771
			c0.002-11.472,9.301-20.772,20.774-20.772c11.472,0,20.772,9.303,20.772,20.772C52.773,43.473,43.473,52.772,32.001,52.772z"/>
	</g>
	
	<linearGradient id="SVGID_2_" gradientUnits="userSpaceOnUse" x1="-281.7637" y1="-6388.9463" x2="-281.7637" y2="-6353.8765" gradientTransform="matrix(1 0 0 1 314.0049 6403.4102)">
		<stop  offset="0" style="stop-color:##spriteCouleur2##"/>
		<stop  offset="1" style="stop-color:##spriteCouleur2Fonce##"/>
	</linearGradient>
	<path fill="url(#SVGID_2_)" d="M14.707,32c0,9.685,7.849,17.533,17.533,17.533S49.775,41.684,49.775,32
		c0-9.685-7.851-17.536-17.535-17.536S14.707,22.316,14.707,32z"/>
</g>
</svg>
