<?xml version="1.0" encoding="utf-8"?>
<!DOCTYPE svg PUBLIC "-//W3C//DTD SVG 1.1//EN" "http://www.w3.org/Graphics/SVG/1.1/DTD/svg11.dtd">
<svg version="1.1" id="Calque_1" xmlns="http://www.w3.org/2000/svg" xmlns:xlink="http://www.w3.org/1999/xlink" viewBox="0 0 64 64" xml:space="preserve">
<g>
		<linearGradient id="SVGID_1_" gradientUnits="userSpaceOnUse" x1="-452.1836" y1="6729.3926" x2="-452.1836" y2="6688.1514" gradientTransform="matrix(1 0 0 -1 493.0049 6743.9102)">
		<stop  offset="0" style="stop-color:##spriteCouleur1##"/>
		<stop  offset="1" style="stop-color:##spriteCouleur1Moyen##"/>
	</linearGradient>
	<path fill="url(#SVGID_1_)" d="M51.521,14.518h-0.523c0.258,0.633,0.404,1.324,0.404,2.05v20.107c0,2.97-2.408,5.38-5.377,5.38
		H26.139c0.598,1.954,2.019,3.33,3.681,3.33h12.225l8.342,10.374l-1.043-10.374h2.18c2.197,0,3.98-2.408,3.98-5.38V19.896
		C55.502,16.927,53.721,14.518,51.521,14.518z"/>
	
		<linearGradient id="SVGID_2_" gradientUnits="userSpaceOnUse" x1="-464.4648" y1="6735.6699" x2="-464.4648" y2="6694.4268" gradientTransform="matrix(1 0 0 -1 493.0049 6743.9102)">
		<stop  offset="0" style="stop-color:##spriteCouleur3##"/>
		<stop  offset="1" style="stop-color:##spriteCouleur3Fonce##"/>
	</linearGradient>
	<path fill="url(#SVGID_2_)" d="M43.207,8.241H13.876c-2.971,0-5.38,2.408-5.38,5.379v20.108c0,2.971,2.408,5.38,5.38,5.38h2.944
		l-1.408,10.375l11.271-10.375h16.522c2.973,0,5.379-2.408,5.379-5.38V13.62C48.586,10.65,46.178,8.241,43.207,8.241z
		 M40.822,24.003c0,0.316-0.258,0.574-0.574,0.574H16.837c-0.315,0-0.574-0.257-0.574-0.574v-0.957c0-0.317,0.258-0.575,0.574-0.575
		h23.411c0.316,0,0.574,0.258,0.574,0.575V24.003z M40.822,16.822c0,0.317-0.258,0.574-0.574,0.574H16.837
		c-0.315,0-0.574-0.257-0.574-0.574v-0.957c0-0.316,0.258-0.574,0.574-0.574h23.411c0.316,0,0.574,0.258,0.574,0.574V16.822z"/>
</g>
</svg>
