<?xml version="1.0" encoding="utf-8"?>
<!DOCTYPE svg PUBLIC "-//W3C//DTD SVG 1.1//EN" "http://www.w3.org/Graphics/SVG/1.1/DTD/svg11.dtd">
<svg version="1.1" id="Calque_1" xmlns="http://www.w3.org/2000/svg" xmlns:xlink="http://www.w3.org/1999/xlink" viewBox="0 0 64 64" xml:space="preserve">
<g>
	<linearGradient id="SVGID_1_" gradientUnits="userSpaceOnUse" x1="-526.5054" y1="-6239.5684" x2="-526.5054" y2="-6202.4937" gradientTransform="matrix(1 0 0 1 558.5049 6258.9102)">
		<stop  offset="0" style="stop-color:##spriteCouleur3##"/>
		<stop  offset="1" style="stop-color:##spriteCouleur3Fonce##"/>
	</linearGradient>
	<path fill="url(#SVGID_1_)" d="M37.673,23.951H24.93c-1.929,0-3.491,1.615-3.491,3.607V52.81c0,1.992,1.563,3.606,3.491,3.606
		h14.142c1.927,0,3.489-1.614,3.489-3.606V27.558v-0.013v-5.761c0-1.349-1.095-2.442-2.443-2.442l0,0
		c-1.35,0-2.443,1.094-2.443,2.442v1.846 M26.211,45.354c0.998,0,1.807,0.669,1.807,1.494s-0.809,1.493-1.807,1.493
		c-1,0-1.809-0.668-1.809-1.493S25.212,45.354,26.211,45.354z M24.288,42.377c0-0.827,0.81-1.494,1.808-1.494
		c0.998,0,1.808,0.668,1.808,1.494c0,0.824-0.81,1.491-1.808,1.491C25.097,43.87,24.288,43.201,24.288,42.377z M32,52.812
		c-0.998,0-1.807-0.668-1.807-1.492c0-0.827,0.809-1.495,1.807-1.495s1.808,0.67,1.808,1.495C33.808,52.145,32.999,52.812,32,52.812
		z M32.117,48.342c-0.998,0-1.809-0.668-1.809-1.492c0-0.825,0.812-1.494,1.809-1.494c0.999,0,1.808,0.669,1.808,1.494
		C33.924,47.674,33.115,48.342,32.117,48.342z M30.193,42.377c0-0.827,0.81-1.494,1.808-1.494s1.808,0.668,1.808,1.494
		c0,0.824-0.81,1.491-1.808,1.491C31.001,43.87,30.193,43.201,30.193,42.377z M37.673,52.812c-0.998,0-1.808-0.668-1.808-1.492
		c0-0.827,0.81-1.495,1.808-1.495s1.808,0.67,1.808,1.495C39.481,52.145,38.671,52.812,37.673,52.812z M37.79,48.342
		c-0.998,0-1.808-0.668-1.808-1.492c0-0.825,0.81-1.494,1.808-1.494c0.999,0,1.808,0.669,1.808,1.494
		C39.597,47.674,38.788,48.342,37.79,48.342z M35.866,42.377c0-0.827,0.81-1.494,1.808-1.494s1.809,0.668,1.809,1.494
		c0,0.824-0.811,1.491-1.809,1.491C36.675,43.87,35.866,43.201,35.866,42.377z M23.938,30.69c0-2.312,1.876-4.188,4.188-4.188h7.748
		c2.312,0,4.188,1.875,4.188,4.188v2.512c0,2.313-1.875,4.188-4.188,4.188h-7.748c-2.312,0-4.188-1.875-4.188-4.188V30.69
		L23.938,30.69z M24.288,51.32c0-0.825,0.81-1.495,1.808-1.495c0.998,0,1.808,0.67,1.808,1.495c0,0.824-0.81,1.492-1.808,1.492
		C25.098,52.812,24.288,52.145,24.288,51.32z"/>
	<linearGradient id="SVGID_2_" gradientUnits="userSpaceOnUse" x1="-518.1846" y1="-6246.1709" x2="-518.1846" y2="-6240.8574" gradientTransform="matrix(1 0 0 1 558.5049 6258.9102)">
		<stop  offset="0" style="stop-color:##spriteCouleur1##"/>
		<stop  offset="1" style="stop-color:##spriteCouleur1Moyen##"/>
	</linearGradient>
	<path fill="url(#SVGID_2_)" d="M40.217,12.739c-4.31,0-6.695,3.273-6.796,3.412c-0.385,0.54-0.263,1.292,0.277,1.678
		c0.212,0.15,0.457,0.224,0.697,0.224c0.374,0,0.74-0.174,0.975-0.501c0.072-0.1,1.799-2.412,4.846-2.412
		c3.086,0,5.066,2.43,5.083,2.451c0.41,0.52,1.165,0.611,1.687,0.202c0.521-0.41,0.612-1.164,0.201-1.686
		C47.081,15.97,44.493,12.739,40.217,12.739z"/>
	<linearGradient id="SVGID_3_" gradientUnits="userSpaceOnUse" x1="-518.1846" y1="-6251.3262" x2="-518.1846" y2="-6243.7725" gradientTransform="matrix(1 0 0 1 558.5049 6258.9102)">
		<stop  offset="0" style="stop-color:##spriteCouleur1##"/>
		<stop  offset="1" style="stop-color:##spriteCouleur1Moyen##"/>
	</linearGradient>
	<path fill="url(#SVGID_3_)" d="M40.137,7.584c-7.165,0-11.123,5.427-11.288,5.657c-0.385,0.539-0.26,1.285,0.277,1.67
		c0.537,0.386,1.287,0.265,1.674-0.272c0.034-0.047,3.437-4.655,9.337-4.655c5.938,0,9.699,4.652,9.734,4.696
		c0.237,0.302,0.588,0.458,0.944,0.458c0.26,0,0.521-0.084,0.74-0.256c0.521-0.41,0.611-1.164,0.202-1.687
		C51.58,12.969,47.268,7.584,40.137,7.584z"/>
</g>
</svg>