<?xml version="1.0" encoding="utf-8"?>
<!DOCTYPE svg PUBLIC "-//W3C//DTD SVG 1.1//EN" "http://www.w3.org/Graphics/SVG/1.1/DTD/svg11.dtd">
<svg version="1.1" id="Calque_1" xmlns="http://www.w3.org/2000/svg" xmlns:xlink="http://www.w3.org/1999/xlink" viewBox="0 0 64 64" xml:space="preserve">
<g>
	<linearGradient id="SVGID_1_" gradientUnits="userSpaceOnUse" x1="-294.4062" y1="-6393.0894" x2="-294.4062" y2="-6382.3999" gradientTransform="matrix(1 0 0 1 314.0049 6403.4102)">
		<stop  offset="0" style="stop-color:##spriteCouleur1##"/>
		<stop  offset="1" style="stop-color:##spriteCouleur1Moyen##"/>
	</linearGradient>
	<path fill="url(#SVGID_1_)" d="M24.553,17.647v-7.326L14.644,21.01h6.546C23.048,21.01,24.553,19.505,24.553,17.647z"/>
		<linearGradient id="SVGID_2_" gradientUnits="userSpaceOnUse" x1="-282.0049" y1="-6393.5698" x2="-282.0049" y2="-6349.2495" gradientTransform="matrix(1 0 0 1 314.0049 6403.4102)">
			<stop  offset="0" style="stop-color:##spriteCouleur3##"/>
			<stop  offset="1" style="stop-color:##spriteCouleur3Fonce##"/>
		</linearGradient>
	<path fill="url(#SVGID_2_)" d="M46.474,9.84H26.955v10.209c0,1.857-1.506,3.362-3.363,3.362h-9.428v27.385
		c0,1.855,1.506,3.363,3.363,3.363h28.946c1.856,0,3.362-1.506,3.362-3.363V13.203C49.836,11.346,48.331,9.84,46.474,9.84z
		 M44.443,41.771H19.201c-0.857,0-1.552-0.396-1.552-0.883s0.695-0.881,1.552-0.881h25.243c0.857,0,1.552,0.395,1.552,0.881
		C45.995,41.375,45.302,41.771,44.443,41.771z M44.443,37.926H19.201c-0.857,0-1.552-0.395-1.552-0.881
		c0-0.484,0.695-0.879,1.552-0.879h25.243c0.857,0,1.552,0.395,1.552,0.879C45.995,37.531,45.302,37.926,44.443,37.926z
		 M44.452,33.762H19.208c-0.856,0-1.552-0.395-1.552-0.881c0-0.486,0.695-0.879,1.552-0.879h25.244c0.857,0,1.552,0.394,1.552,0.879
		C46.004,33.367,45.308,33.762,44.452,33.762z"/>
</g>
</svg>