<?xml version="1.0" encoding="utf-8"?>
<!DOCTYPE svg PUBLIC "-//W3C//DTD SVG 1.1//EN" "http://www.w3.org/Graphics/SVG/1.1/DTD/svg11.dtd">
<svg version="1.1" id="Calque_1" xmlns="http://www.w3.org/2000/svg" xmlns:xlink="http://www.w3.org/1999/xlink" viewBox="0 0 64 64" xml:space="preserve">
<g>
	<linearGradient id="SVGID_1_" gradientUnits="userSpaceOnUse" x1="22.0444" y1="46.5254" x2="49.6374" y2="46.5254">
		<stop  offset="0" style="stop-color:##spriteCouleur3Fonce##"/>
		<stop  offset="0.7239" style="stop-color:##spriteCouleur3ClairSup##"/>
	</linearGradient>
	<path fill="url(#SVGID_1_)" d="M22.044,45.173c1.487-0.495,3.979,10.437,12.035,9.197c5.621-1.608,7.66-9.943,7.682-10.031
		c-1.096-0.483-1.934-0.87-2.312-0.997c-1.486-0.497-0.857-4.758-0.857-4.758l-13.237,0.744c0,0,0.628,4.261-0.859,4.757
		L22.044,45.173z"/>
	<linearGradient id="SVGID_2_" gradientUnits="userSpaceOnUse" x1="43.623" y1="28.7129" x2="16.7724" y2="30.7783">
		<stop  offset="0" style="stop-color:##spriteCouleur3ClairSup##"/>
		<stop  offset="1" style="stop-color:##spriteCouleur3Fonce##"/>
	</linearGradient>
	<path fill="url(#SVGID_2_)" d="M20.301,27.059c0,0-1.762-1.736-0.874,1.012c0.887,2.747,2.189,5.163,2.436,5.286
		c0.249,0.127,0.436,0.311,0.745,0.166c0.309-0.146,0.474,4.688,3.491,6.63c3.015,1.941,3.47,3.264,5.823,3.182
		c2.356-0.084,2.974,0.413,5.95-3.801c2.975-4.215,2.851-3.224,2.851-8.055c0,0,0.743,0.64,1.528-2.54
		c0.275-1.115,0.351-2.142,0.351-2.873c0.001-1.352-0.109-2.039-0.323-2.039c-1.115-0.289-0.771,2.08-0.936,3.072
		c0,0-0.661-11.856-3.429-11.691c-2.77,0.166-15.782,0.785-16.235,2.891c-0.456,2.108-1.405,8.469-0.662,10.949
		C21.76,31.726,20.301,27.059,20.301,27.059z"/>
	<path d="M19.612,26.48c-0.116-0.517-2.231-7.189-1.404-8.841c0,0-0.021-0.062,0.062,0.228c0,0,0.971-2.169,0.702-3.037l0.35,0.786
		c0,0,0.125-1.198,1.365-1.984c0,0-0.167,0.235-0.167,0.786s0.497-2.836,1.819-3.333c0,0-0.387,0.497-0.166,1.046
		c0,0,0.632-1.432,0.22-1.872c0,0,0.579,0.109,0.881,0.66c0,0,0.577-1.68,2.478-2.313c0,0-0.385,0.469-0.357,1.046
		c0,0,0.469-1.211,2.093-1.322c0,0-0.495,0.332-0.495,0.688c0,0,1.1-0.495,0.798-1.018c0,0,0.854,0.303,0.854,0.909
		c0,0,0.446-0.462,0.261-0.627c0,0,0.848-0.206,1.281,0.826c0,0,0.165-0.536,0.743-0.558c0,0-0.33,0.249-0.185,0.683
		c0.145,0.434,1.114-0.31,1.114-0.64c0,0,0.867,0.578,0.621,1.197c0,0,0.889-0.288,0.806-1.197c0,0,1.486,0.826,1.486,2.024
		c0,0,0.497-0.827,1.404-0.785c0,0-0.373,0.331,0.373,1.28c0,0,1.217-1.197,0.411-2.147c0,0,1.345,1.074,1.323,2.272l0.138-0.51
		c0,0,0.844,0.37,1.324,2.121c0,0,0.107-0.399-0.111-0.867c0,0,1.004,1.115,1.129,2.973c0,0,0.123-0.744,0.536-0.909
		c0,0-0.578,1.406-0.166,2.355c0.413,0.95,1.652,3.842,0.867,7.271c0,0-0.413,2.231-0.413,3.14l-0.246,0.537
		c0,0-0.373-4.833-1.405-5.246c0,0,0.083-4.173-1.86-4.958c0,0,0.827-0.495,0.416-1.281c0,0,0.039,1.198-3.183,0.992
		c0,0,0.909-0.206,0.785-0.909c0,0,0.082,0.62-2.686,0.951c0,0-3.099,0.909-5.784,0.619c-2.685-0.289-6.939-1.364-6.238,6.693
		c0,0,0.247,2.313-0.372,4.048c0,0-0.228,0.557,0.238,1.281l-0.444-0.098C20.811,29.44,19.709,26.907,19.612,26.48z"/>
	<linearGradient id="SVGID_3_" gradientUnits="userSpaceOnUse" x1="31.9995" y1="45.1885" x2="31.9995" y2="63.8542">
		<stop  offset="0" style="stop-color:##spriteCouleur1##"/>
		<stop  offset="1" style="stop-color:##spriteCouleur1Moyen##"/>
	</linearGradient>
	<path fill="url(#SVGID_3_)" d="M52.263,48.875c-0.874-1.258-3.831-1.89-6.535-2.849c-1.92-0.683-2.699-1.094-3.233-1.368
		c-0.253-0.11-0.502-0.217-0.733-0.319c-0.021,0.088-2.061,8.423-7.682,10.031c-8.056,1.239-10.547-9.692-12.035-9.197
		c-0.172,0.058-3.048,1.318-3.828,1.595c-2.705,0.963-5.661,1.594-6.535,2.853C9.955,52.103,9.313,62.994,9.257,64l45.486-0.069
		C54.685,62.885,53.99,51.36,52.263,48.875z"/>
</g>
</svg>