<?xml version="1.0" encoding="utf-8"?>
<!DOCTYPE svg PUBLIC "-//W3C//DTD SVG 1.1//EN" "http://www.w3.org/Graphics/SVG/1.1/DTD/svg11.dtd">
<svg version="1.1" id="Calque_1" xmlns="http://www.w3.org/2000/svg" xmlns:xlink="http://www.w3.org/1999/xlink" viewBox="0 0 64 64" xml:space="preserve">
<g>
	
		<linearGradient id="SVGID_1_" gradientUnits="userSpaceOnUse" x1="-460.894" y1="6741.3994" x2="-460.894" y2="6719.1348" gradientTransform="matrix(1 0 0 -1 493.0049 6743.9102)">
		<stop  offset="0" style="stop-color:##spriteCouleur1##"/>
		<stop  offset="1" style="stop-color:##spriteCouleur1Moyen##"/>
	</linearGradient>
	<path fill="url(#SVGID_1_)" d="M49.27,21.886l7.312-5.302L35.271,3.602c-2.266-1.385-4.139-1.523-6.543,0L7.641,16.501l6.021,4.468
		v-1.558c0-1.992,1.615-3.607,3.607-3.607H40.41v5.54c0,2.117,1.266,3.432,3.302,3.432h1.571l2.691-1.952H42.37v-7.02L49.27,21.886z
		"/>
	
		<linearGradient id="SVGID_2_" gradientUnits="userSpaceOnUse" x1="-461.0044" y1="6726.1104" x2="-461.0044" y2="6695.2246" gradientTransform="matrix(1 0 0 -1 493.0049 6743.9102)">
		<stop  offset="0" style="stop-color:##spriteCouleur3##"/>
		<stop  offset="1" style="stop-color:##spriteCouleur3Fonce##"/>
	</linearGradient>
	<path fill="url(#SVGID_2_)" d="M43.579,35.188c0.205-0.26,0.584-0.305,0.845-0.098L59.417,46.97
		c0.342-0.549,0.539-1.197,0.539-1.894V21.061c0-0.002,0-0.004,0-0.004v-0.022c0-1.299-0.413-2.271-1.562-3.234L34.547,34.328
		c0,0-1.436,1.232-2.789,1.232c-1.355,0-3.167-1.523-3.167-1.523L5.58,17.802c-1.164,0.895-1.535,1.997-1.535,4.004v23.272
		c0,0.74,0.223,1.427,0.605,2l14.924-11.984c0.258-0.208,0.636-0.166,0.846,0.092c0.207,0.26,0.166,0.639-0.093,0.847L5.478,47.955
		c0.605,0.459,1.358,0.73,2.175,0.73H56.35c0.862,0,1.655-0.303,2.276-0.809L43.678,36.034
		C43.416,35.826,43.372,35.449,43.579,35.188z"/>
</g>
</svg>
