<?xml version="1.0" encoding="utf-8"?>
<!DOCTYPE svg PUBLIC "-//W3C//DTD SVG 1.1//EN" "http://www.w3.org/Graphics/SVG/1.1/DTD/svg11.dtd">
<svg version="1.1" id="Calque_1" xmlns="http://www.w3.org/2000/svg" xmlns:xlink="http://www.w3.org/1999/xlink" viewBox="0 0 64 64" xml:space="preserve">
<g>
	<g>
		<linearGradient id="SVGID_1_" gradientUnits="userSpaceOnUse" x1="-461.0034" y1="6722.25" x2="-461.0034" y2="6695.2246" gradientTransform="matrix(1 0 0 -1 493.0049 6743.9102)">
			<stop  offset="0" style="stop-color:##spriteCouleur3##"/>
			<stop  offset="1" style="stop-color:##spriteCouleur3Fonce##"/>
		</linearGradient>
		<path fill="url(#SVGID_1_)" d="M35.153,39.223c0,0-1.624,1.391-3.151,1.391c-1.528,0-3.571-1.719-3.571-1.719L4.142,21.661v23.57
			c0,1.908,1.609,3.455,3.594,3.455h48.532c1.985,0,3.595-1.547,3.595-3.455V21.932L35.153,39.223z M20.833,36.711L8.742,46.312
			c-0.105,0.084-0.23,0.125-0.355,0.125c-0.169,0-0.337-0.076-0.451-0.219c-0.197-0.248-0.157-0.609,0.091-0.809l12.091-9.602
			c0.248-0.197,0.61-0.156,0.808,0.094C21.124,36.15,21.082,36.512,20.833,36.711z M56.066,46.219
			c-0.113,0.143-0.282,0.219-0.451,0.219c-0.125,0-0.252-0.041-0.356-0.125l-12.09-9.602c-0.249-0.197-0.291-0.561-0.094-0.809
			c0.198-0.248,0.56-0.291,0.809-0.092l12.09,9.602C56.224,45.609,56.265,45.971,56.066,46.219z"/>
	</g>
	<linearGradient id="SVGID_2_" gradientUnits="userSpaceOnUse" x1="-461.0054" y1="6728.5967" x2="-461.0054" y2="6706.1797" gradientTransform="matrix(1 0 0 -1 493.0049 6743.9102)">
		<stop  offset="0" style="stop-color:##spriteCouleur1##"/>
		<stop  offset="1" style="stop-color:##spriteCouleur1Moyen##"/>
	</linearGradient>
	<path fill="url(#SVGID_2_)" d="M31.758,37.73c1.354,0,2.794-1.234,2.794-1.234l25.314-17.973l0.09-0.081
		c0-1.182-0.35-3.128-3.369-3.128H8.376c-3.229,0-4.332,1.466-4.332,2.887l0.052,0.093L28.59,36.205
		C28.592,36.207,30.402,37.73,31.758,37.73z"/>
</g>
</svg>