<?xml version="1.0" encoding="utf-8"?>
<!DOCTYPE svg PUBLIC "-//W3C//DTD SVG 1.1//EN" "http://www.w3.org/Graphics/SVG/1.1/DTD/svg11.dtd">
<svg version="1.1" id="Calque_1" xmlns="http://www.w3.org/2000/svg" xmlns:xlink="http://www.w3.org/1999/xlink" viewBox="0 0 64 64" xml:space="preserve">
<g>
	<linearGradient id="SVGID_1_" gradientUnits="userSpaceOnUse" x1="-16.5049" y1="6070.3145" x2="-16.5049" y2="6022.5059" gradientTransform="matrix(1 0 0 -1 48.5049 6078.4102)">
		<stop  offset="0" style="stop-color:##spriteCouleur1##"/>
		<stop  offset="1" style="stop-color:##spriteCouleur1Moyen##"/>
	</linearGradient>
	<path fill="url(#SVGID_1_)" d="M32.001,8.096C18.799,8.096,8.096,18.798,8.096,32c0,13.2,10.703,23.904,23.905,23.904
		S55.904,45.2,55.904,32C55.904,18.798,45.203,8.096,32.001,8.096z M32.001,52.771c-11.474,0-20.774-9.299-20.774-20.771
		c0.002-11.472,9.301-20.772,20.774-20.772c11.472,0,20.772,9.303,20.772,20.772C52.773,43.473,43.473,52.771,32.001,52.771z"/>
	
		<linearGradient id="SVGID_2_" gradientUnits="userSpaceOnUse" x1="-16.2642" y1="6063.9473" x2="-16.2642" y2="6028.877" gradientTransform="matrix(1 0 0 -1 48.5049 6078.4102)">
		<stop  offset="0" style="stop-color:##spriteCouleur3##"/>
		<stop  offset="1" style="stop-color:##spriteCouleur3Fonce##"/>
	</linearGradient>
	<path fill="url(#SVGID_2_)" d="M14.707,32c0,9.686,7.849,17.533,17.533,17.533c9.684,0,17.535-7.85,17.535-17.533
		c0-9.685-7.852-17.536-17.535-17.536C22.556,14.464,14.707,22.316,14.707,32z"/>
	
		<linearGradient id="SVGID_3_" gradientUnits="userSpaceOnUse" x1="-16.2642" y1="6060.4121" x2="-16.2642" y2="6032.4111" gradientTransform="matrix(1 0 0 -1 48.5049 6078.4102)">
		<stop  offset="0" style="stop-color:##spriteCouleur1##"/>
		<stop  offset="1" style="stop-color:##spriteCouleur1Moyen##"/>
	</linearGradient>
	<path fill="url(#SVGID_3_)" d="M18.241,32c0,7.734,6.267,14,14,14c7.732,0,14-6.267,14-14c0-7.733-6.269-14.001-14-14.001
		C24.508,17.998,18.241,24.268,18.241,32z"/>
</g>
</svg>