<?xml version="1.0" encoding="utf-8"?>
<!DOCTYPE svg PUBLIC "-//W3C//DTD SVG 1.1//EN" "http://www.w3.org/Graphics/SVG/1.1/DTD/svg11.dtd">
<svg version="1.1" id="Calque_1" xmlns="http://www.w3.org/2000/svg" xmlns:xlink="http://www.w3.org/1999/xlink" viewBox="0 0 64 64" xml:space="preserve">
<g>
	<linearGradient id="SVGID_1_" gradientUnits="userSpaceOnUse" x1="6.457" y1="50.1504" x2="57.543" y2="50.1504">
		<stop  offset="0" style="stop-color:##spriteCouleur3Fonce##"/>
		<stop  offset="1" style="stop-color:##spriteCouleur3ClairSup##"/>
	</linearGradient>
	<path fill="url(#SVGID_1_)" d="M36.429,36.302c0,0-1.399,9.926,3.995,13.167c5.395,3.24,5.395,3.24,5.395,3.24
		s8.74,2.541,10.193,6.242c0.48,1.225,1.531,4.99,1.531,4.99L6.457,64c0,0,0.751-6.344,3.269-7.705
		c2.516-1.36,11.72-2.977,15.116-6.421c1.843-1.867,2.197-11.75,2.197-11.75L36.429,36.302z"/>
	<linearGradient id="SVGID_2_" gradientUnits="userSpaceOnUse" x1="17.6245" y1="27.3916" x2="41.7119" y2="27.3916">
		<stop  offset="0" style="stop-color:##spriteCouleur3Fonce##"/>
		<stop  offset="1" style="stop-color:##spriteCouleur3ClairSup##"/>
	</linearGradient>
	<path fill="url(#SVGID_2_)" d="M21.952,12.444c0,0-5.274,0.903-4.178,11.46c0,0-0.355,3.23,0.239,6.986
		c0.506,3.196,1.76,6.764,3.869,9.126c0,0,1.713,2.776,5.48,3.819c0,0,0.138,0.207,2.123,0c1.986-0.209,9.04-3.056,10.616-9.515
		c1.574-6.459,1.574-6.737,1.574-6.737S43.458,4.736,21.952,12.444z"/>
	<path fill="##spriteCouleurBlack##" d="M22.697,37.113c0.179-0.076-1.612-0.167-3.002-2.412s-1.969-5.844-1.974-9.693c-0.002-2.289,0.787-5.098,1.349-7.43
		c0.126-0.524-0.518,1.598,2.824,1.87c-2.523-2.309-0.544-5.015,0.124-6.708c0.436,2.362,1.592,5.939,4.644,7.133
		c0,0-2.521-1.837-2.18-3.674c0,0,1.429,3.462,5.924,4.168c0,0-1.906-0.848-2.11-1.907c0,0,3.063,2.542,6.742,1.484
		c0,0-1.839,0.07-2.52-1.132c0,0,4.494-0.07,4.494,1.837c0,0,0.75-1.766-0.885-3.25c0,0,4.291,1.202,3.063,7.701
		c0,0,1.091-0.989,1.091-3.885c0,0,1.352,4.044,0.731,8.435c-0.714,5.036-3.591,10.535-6.792,11.062c0,0,2.791,0.708,4.222-0.847
		c0,0-1.635,3.886-6.128,1.767c0,0,2.52,6.641,10.213,1.979c0,0-1.906,1.837-3.744,2.119c0,0,6.377-1.021,8.836-3.603
		c7.537-7.903,3.421-41.189-11.151-42.038C21.894-0.758,21.554,4.682,19.579,5.954c-1.974,1.272-10.691,18.439-4.631,32.358
		c4.222,9.608,10.188,6.415,11.821,5.143c0,0-4.786,1.411-5.624-1.682c0,0,2.042,1.767,4.699-0.495c0,0-3.8,0.354-5.585-4.731
		C20.124,36.158,21.034,37.829,22.697,37.113z"/>
	<linearGradient id="SVGID_3_" gradientUnits="userSpaceOnUse" x1="31.8013" y1="50.791" x2="31.8013" y2="63.9182">
		<stop  offset="0" style="stop-color:##spriteCouleur1##"/>
		<stop  offset="1" style="stop-color:##spriteCouleur1Moyen##"/>
	</linearGradient>
	<path fill="url(#SVGID_3_)" d="M45.511,52.486c-0.027,0.052-0.518,1.023-1.117,2.691c-0.596,1.672-1.214,2.839-1.22,5.158
		c0,0.067,0.009,0.136,0.01,0.203c-1.401,0.145-2.662,0.527-3.066,0.617c-0.749,0.169-2.296,1.688-5.676,0.945
		c-3.506-0.77-7.037-0.676-7.037-0.676s-0.933,0.135-2.779,0.54c-1.728,0.38-3.249-0.081-4.481-0.567
		c0.002-0.106,0.005-0.217,0.005-0.335c-0.008-2.029-0.574-3.129-1.113-4.847c-0.542-1.708-1.008-2.715-1.023-2.748l-3.287,1.138
		h-0.001c0,0,0.025,0.056,0.077,0.185c0.183,0.448,0.659,1.657,1.077,3.081c0.423,1.414,0.761,2.973,0.754,4.144v0.086
		c0,0.076,0.011,0.162,0.009,0.247l0.023,0.001v1.582l30.117-0.022l-0.123-1.67l0.062-0.008h-0.001
		c-0.031-0.274-0.045-0.561-0.045-0.853c-0.005-1.672,0.492-3.574,1.015-5.018c0.26-0.727,0.521-1.336,0.714-1.76
		c0.096-0.211,0.176-0.376,0.229-0.484c0.055-0.109,0.244-0.321,0.244-0.321L45.511,52.486z"/>
</g>
</svg>