<?xml version="1.0" encoding="utf-8"?>
<!DOCTYPE svg PUBLIC "-//W3C//DTD SVG 1.1//EN" "http://www.w3.org/Graphics/SVG/1.1/DTD/svg11.dtd">
<svg version="1.1" id="Calque_1" xmlns="http://www.w3.org/2000/svg" xmlns:xlink="http://www.w3.org/1999/xlink" viewBox="0 0 64 64" xml:space="preserve">
<g>
	<linearGradient id="SVGID_1_" gradientUnits="userSpaceOnUse" x1="11.8496" y1="50.3184" x2="52.1514" y2="50.3184">
		<stop  offset="0" style="stop-color:##spriteCouleur3Fonce##"/>
		<stop  offset="1" style="stop-color:##spriteCouleur3ClairSup##"/>
	</linearGradient>
	<path fill="url(#SVGID_1_)" d="M35.493,36.637c0,0-1.104,7.83,3.15,10.388c4.256,2.556,4.256,2.556,4.256,2.556
		s6.896,2.004,8.043,4.925c0.38,0.965,1.209,9.448,1.209,9.448L11.85,64c0,0,0.592-10.517,2.579-11.592
		c1.985-1.073,9.246-2.348,11.925-5.065c1.453-1.473,1.733-9.27,1.733-9.27L35.493,36.637z"/>
	<linearGradient id="SVGID_2_" gradientUnits="userSpaceOnUse" x1="20.6592" y1="29.6079" x2="39.6621" y2="29.6079">
		<stop  offset="0" style="stop-color:##spriteCouleur3Fonce##"/>
		<stop  offset="1" style="stop-color:##spriteCouleur3ClairSup##"/>
	</linearGradient>
	<path fill="url(#SVGID_2_)" d="M24.073,17.816c0,0-4.161,0.713-3.296,9.041c0,0-0.281,2.548,0.188,5.51
		c0.399,2.522,1.389,5.335,3.053,7.2c0,0,1.351,2.19,4.322,3.013c0,0,0.109,0.163,1.675,0c1.567-0.165,7.132-2.41,8.374-7.506
		c1.244-5.095,1.244-5.314,1.244-5.314S41.038,11.736,24.073,17.816z"/>
	<path fill="##spriteCouleurBlack##" d="M24.661,37.276c0.142-0.06-1.271-0.132-2.369-1.901c-1.096-1.773-1.552-4.61-1.557-7.647
		c-0.001-1.806,0.621-4.021,1.064-5.861c0.1-0.414-0.408,1.26,2.228,1.475c-1.99-1.821-0.429-3.957,0.098-5.292
		c0.343,1.863,1.255,4.686,3.664,5.627c0,0-1.989-1.449-1.72-2.898c0,0,1.127,2.732,4.673,3.289c0,0-1.503-0.669-1.664-1.505
		c0,0,2.416,2.006,5.317,1.171c0,0-1.45,0.055-1.987-0.893c0,0,3.545-0.056,3.545,1.449c0,0,0.593-1.393-0.697-2.564
		c0,0,3.385,0.948,2.416,6.075c0,0,0.86-0.78,0.86-3.064c0,0,1.065,3.19,0.577,6.654c-0.562,3.972-2.833,8.31-5.357,8.725
		c0,0,2.201,0.56,3.331-0.667c0,0-1.29,3.065-4.835,1.394c0,0,1.987,5.238,8.057,1.56c0,0-1.503,1.45-2.954,1.673
		c0,0,5.031-0.807,6.971-2.842c5.945-6.235,2.698-32.493-8.798-33.162c-11.496-0.669-11.764,3.623-13.321,4.626
		c-1.557,1.004-8.434,14.546-3.653,25.526c3.33,7.579,8.037,5.06,9.326,4.056c0,0-3.775,1.113-4.437-1.326
		c0,0,1.611,1.395,3.708-0.39c0,0-2.999,0.279-4.406-3.732C22.631,36.523,23.349,37.842,24.661,37.276z"/>
	<linearGradient id="SVGID_3_" gradientUnits="userSpaceOnUse" x1="31.8413" y1="47.251" x2="31.8413" y2="63.9288">
		<stop  offset="0" style="stop-color:##spriteCouleur1##"/>
		<stop  offset="1" style="stop-color:##spriteCouleur1Moyen##"/>
	</linearGradient>
	<path fill="url(#SVGID_3_)" d="M42.657,49.404c-0.021,0.042-0.408,0.808-0.881,2.123c-0.471,1.32-0.957,2.24-0.963,4.069
		c0,0.053,0.008,0.107,0.01,0.16c-1.106,0.115-2.103,0.417-2.42,0.488c-0.591,0.133-1.812,1.331-4.478,0.744
		c-2.767-0.606-5.551-0.531-5.551-0.531s-0.736,0.104-2.192,0.425c-1.363,0.3-2.562-0.064-3.536-0.447
		c0.002-0.084,0.004-0.173,0.004-0.265c-0.007-1.601-0.453-2.468-0.878-3.824c-0.428-1.348-0.795-2.142-0.807-2.167l-2.593,0.897h0
		c0,0,0.02,0.044,0.061,0.146c0.145,0.354,0.52,1.307,0.851,2.432c0.334,1.114,0.6,2.344,0.595,3.268v0.067
		c0,0.061,0.009,0.13,0.007,0.195l0.018,0.002v6.759l23.758-0.016l-0.097-6.832l0.049-0.006l0,0
		c-0.025-0.216-0.037-0.441-0.037-0.671c-0.004-1.32,0.39-2.822,0.8-3.96c0.206-0.572,0.411-1.053,0.564-1.389
		c0.075-0.165,0.139-0.295,0.18-0.381c0.045-0.087,0.191-0.253,0.191-0.253L42.657,49.404z"/>
</g>
</svg>