<?xml version="1.0" encoding="utf-8"?>
<!DOCTYPE svg PUBLIC "-//W3C//DTD SVG 1.1//EN" "http://www.w3.org/Graphics/SVG/1.1/DTD/svg11.dtd">
<svg version="1.1" id="Calque_1" xmlns="http://www.w3.org/2000/svg" xmlns:xlink="http://www.w3.org/1999/xlink" viewBox="0 0 64 64" xml:space="preserve">
<g>
	
		<linearGradient id="SVGID_1_" gradientUnits="userSpaceOnUse" x1="-443.811" y1="6723.7559" x2="-443.811" y2="6700.0635" gradientTransform="matrix(1 0 0 -1 493.0049 6743.9102)">
		<stop  offset="0" style="stop-color:##spriteCouleur1##"/>
		<stop  offset="1" style="stop-color:##spriteCouleur1Moyen##"/>
	</linearGradient>
	<rect x="46.295" y="20.154" fill="url(#SVGID_1_)" width="5.799" height="23.692"/>
	
		<linearGradient id="SVGID_2_" gradientUnits="userSpaceOnUse" x1="-468.4292" y1="6735.3057" x2="-468.4292" y2="6688.5156" gradientTransform="matrix(1 0 0 -1 493.0049 6743.9102)">
		<stop  offset="0" style="stop-color:##spriteCouleur3##"/>
		<stop  offset="1" style="stop-color:##spriteCouleur3Fonce##"/>
	</linearGradient>
	<path fill="url(#SVGID_2_)" d="M37.582,20.154v-9.375c0-0.879-0.654-1.671-1.656-2.009c-1.002-0.336-2.156-0.15-2.922,0.474
		L6.82,30.464c-0.506,0.409-0.787,0.96-0.787,1.538c0,0.576,0.28,1.13,0.787,1.537l2.154,1.746L33.002,54.76
		c0.768,0.62,1.92,0.806,2.922,0.469c1.004-0.333,1.658-1.126,1.658-2.005v-9.375h5.537V20.156L37.582,20.154L37.582,20.154z"/>
	
		<linearGradient id="SVGID_3_" gradientUnits="userSpaceOnUse" x1="-436.3862" y1="6723.7559" x2="-436.3862" y2="6700.0635" gradientTransform="matrix(1 0 0 -1 493.0049 6743.9102)">
		<stop  offset="0" style="stop-color:##spriteCouleur1##"/>
		<stop  offset="1" style="stop-color:##spriteCouleur1Moyen##"/>
	</linearGradient>
	<rect x="55.271" y="20.154" fill="url(#SVGID_3_)" width="2.695" height="23.692"/>
</g>
</svg>
