<?xml version="1.0" encoding="utf-8"?>
<!DOCTYPE svg PUBLIC "-//W3C//DTD SVG 1.1//EN" "http://www.w3.org/Graphics/SVG/1.1/DTD/svg11.dtd">
<svg version="1.1" id="Calque_1" xmlns="http://www.w3.org/2000/svg" xmlns:xlink="http://www.w3.org/1999/xlink" viewBox="0 0 64 64" xml:space="preserve">
<g>
	<linearGradient id="SVGID_1_" gradientUnits="userSpaceOnUse" x1="31.9995" y1="12.9375" x2="31.9995" y2="51.063">
		<stop  offset="0" style="stop-color:##spriteCouleur3##"/>
		<stop  offset="1" style="stop-color:##spriteCouleur3Fonce##"/>
	</linearGradient>
	<path fill="url(#SVGID_1_)" d="M51.379,42.629c-0.329-0.535-1.791-3-3.815-6.412c-4.181-7.047-11.179-18.842-12.466-20.814
		c-1.607-2.465-2.201-2.465-3.099-2.465c-0.897,0-1.49,0-3.099,2.466c-1.278,1.96-8.233,13.683-12.389,20.688
		c-2.066,3.481-3.559,5.997-3.89,6.536c-0.139,0.225-0.3,0.48-0.477,0.761c-0.586,0.929-2.356,3.731-2.521,4.721
		c0.022,0.353,0.297,2.954,3.373,2.954h19.002h19.002c3.074,0,3.352-2.595,3.375-2.952c-0.164-0.988-1.931-3.787-2.517-4.715
		C51.681,43.112,51.518,42.854,51.379,42.629z M32.167,48.433c-2.08,0-3.623-1.677-3.623-3.621s1.543-3.621,3.623-3.621
		c2.078,0,3.621,1.678,3.621,3.621C35.788,46.756,34.245,48.433,32.167,48.433z M34.814,30.012c-0.772,2.312-1.509,4.659-1.61,7.106
		c-0.033,0.704-0.201,1.374-1.207,1.374s-1.172-0.671-1.207-1.374c-0.101-2.447-0.838-4.795-1.608-7.106
		c-0.437-1.344-0.974-2.985-0.974-4.359c0-2.381,1.174-4.626,3.791-4.626c2.614,0,3.789,2.245,3.789,4.626
		C35.788,27.025,35.251,28.669,34.814,30.012z"/>
	<linearGradient id="SVGID_2_" gradientUnits="userSpaceOnUse" x1="32" y1="7" x2="32" y2="57">
		<stop  offset="0" style="stop-color:##spriteCouleur1##"/>
		<stop  offset="1" style="stop-color:##spriteCouleur1Moyen##"/>
	</linearGradient>
	<g fill="url(#SVGID_2_)">
		<path d="M33.5,10.108c1.487,0.373,2.651,1.418,4.11,3.655c1.913,2.933,15.305,25.634,16.323,27.292
			c1.021,1.657,3.442,5.227,3.444,7.014c0,0.472-0.103,1.115-0.339,1.804l2.639,1.523c0.466-1.13,0.7-2.287,0.7-3.327
			c-0.003-2.24-1.562-4.893-3.444-7.876c-0.166-0.263-0.317-0.503-0.445-0.711c-0.302-0.49-1.83-3.066-3.765-6.327
			c-4.478-7.547-11.244-18.952-12.601-21.031c-1.754-2.691-3.611-4.599-6.623-5.068V10.108z"/>
		<path d="M6.961,49.874c-0.236-0.688-0.339-1.332-0.339-1.805c0-1.785,2.422-5.356,3.443-7.014
			c1.02-1.658,14.41-24.358,16.322-27.292c1.46-2.237,2.625-3.282,4.112-3.655V7.056c-3.011,0.469-4.868,2.377-6.625,5.068
			c-1.349,2.069-8.074,13.404-12.524,20.904c-1.975,3.328-3.534,5.957-3.841,6.456c-0.125,0.203-0.275,0.439-0.439,0.7
			c-1.887,2.988-3.449,5.645-3.449,7.885c0,1.04,0.235,2.198,0.7,3.328L6.961,49.874z"/>
		<path d="M55.438,52.413c-0.987,0.947-2.413,1.649-4.438,1.649c-4.974,0-19.002,0-19.002,0
			s-14.027,0-19.002,0c-2.024,0-3.448-0.701-4.436-1.648l-2.68,1.548c1.535,1.783,3.88,3.101,7.116,3.101h19.002h19.002
			c3.237,0,5.582-1.317,7.118-3.102L55.438,52.413z"/>
	</g>
</g>
</svg>