<?xml version="1.0" encoding="utf-8"?>
<!DOCTYPE svg PUBLIC "-//W3C//DTD SVG 1.1//EN" "http://www.w3.org/Graphics/SVG/1.1/DTD/svg11.dtd">
<svg version="1.1" id="Calque_1" xmlns="http://www.w3.org/2000/svg" xmlns:xlink="http://www.w3.org/1999/xlink" viewBox="0 0 64 64" xml:space="preserve">
<g>
	<g>
		
			<linearGradient id="SVGID_1_" gradientUnits="userSpaceOnUse" x1="-461.0054" y1="6729.7734" x2="-461.0054" y2="6710.2676" gradientTransform="matrix(1 0 0 -1 493.0049 6743.9102)">
			<stop  offset="0" style="stop-color:##spriteCouleur2##"/>
			<stop  offset="1" style="stop-color:##spriteCouleur2Fonce##"/>
		</linearGradient>
		<path fill="url(#SVGID_1_)" d="M53.604,14.137H10.396c-2.027,0-3.672,1.645-3.672,3.672v12.163c0,2.027,1.646,3.67,3.672,3.67
			h6.616v-5.365h31.209v5.365h5.384c2.027,0,3.672-1.644,3.672-3.67V17.809C57.276,15.781,55.631,14.137,53.604,14.137z
			 M11.438,21.509c-0.989,0-1.789-0.801-1.789-1.789c0-0.987,0.801-1.789,1.789-1.789s1.789,0.802,1.789,1.789
			C13.228,20.708,12.426,21.509,11.438,21.509z M16.964,21.509c-0.988,0-1.788-0.801-1.788-1.789c0-0.987,0.8-1.789,1.788-1.789
			s1.79,0.802,1.79,1.789C18.753,20.708,17.952,21.509,16.964,21.509z"/>
	</g>
	<g>
		
			<linearGradient id="SVGID_2_" gradientUnits="userSpaceOnUse" x1="-451.687" y1="6703.748" x2="-451.687" y2="6690.1113" gradientTransform="matrix(1 0 0 -1 493.0049 6743.9102)">
			<stop  offset="0" style="stop-color:##spriteCouleur1##"/>
			<stop  offset="1" style="stop-color:##spriteCouleur1Moyen##"/>
		</linearGradient>
		<path fill="url(#SVGID_2_)" d="M36.253,53.799h-1.836v-9.045c0-2.531,2.059-4.592,4.59-4.592h9.213v1.836h-9.213
			c-1.52,0-2.754,1.236-2.754,2.756V53.799L36.253,53.799z"/>
	</g>
	
		<linearGradient id="SVGID_3_" gradientUnits="userSpaceOnUse" x1="-466.5649" y1="6708.3848" x2="-466.5649" y2="6706.6445" gradientTransform="matrix(1 0 0 -1 493.0049 6743.9102)">
		<stop  offset="0" style="stop-color:##spriteCouleur2##"/>
		<stop  offset="1" style="stop-color:##spriteCouleur2Fonce##"/>
	</linearGradient>
	<rect x="20.914" y="35.525" fill="url(#SVGID_3_)" width="11.052" height="1.74"/>
	
		<linearGradient id="SVGID_4_" gradientUnits="userSpaceOnUse" x1="-466.5649" y1="6704.8652" x2="-466.5649" y2="6703.125" gradientTransform="matrix(1 0 0 -1 493.0049 6743.9102)">
		<stop  offset="0" style="stop-color:##spriteCouleur2##"/>
		<stop  offset="1" style="stop-color:##spriteCouleur2Fonce##"/>
	</linearGradient>
	<rect x="20.914" y="39.045" fill="url(#SVGID_4_)" width="11.052" height="1.74"/>
	
		<linearGradient id="SVGID_5_" gradientUnits="userSpaceOnUse" x1="-466.5649" y1="6701.2305" x2="-466.5649" y2="6699.4922" gradientTransform="matrix(1 0 0 -1 493.0049 6743.9102)">
		<stop  offset="0" style="stop-color:##spriteCouleur2##"/>
		<stop  offset="1" style="stop-color:##spriteCouleur2Fonce##"/>
	</linearGradient>
	<rect x="20.914" y="42.68" fill="url(#SVGID_5_)" width="11.052" height="1.738"/>
	<g>
		
			<linearGradient id="SVGID_6_" gradientUnits="userSpaceOnUse" x1="-460.8276" y1="6734.6279" x2="-460.8276" y2="6730.6914" gradientTransform="matrix(1 0 0 -1 493.0049 6743.9102)">
			<stop  offset="0" style="stop-color:##spriteCouleur2##"/>
			<stop  offset="1" style="stop-color:##spriteCouleur2Fonce##"/>
		</linearGradient>
		<path fill="url(#SVGID_6_)" d="M48.261,12.955c0-2.027-1.645-3.672-3.672-3.672H19.767c-2.029,0-3.673,1.645-3.673,3.672v0.265
			h32.167V12.955L48.261,12.955z"/>
	</g>
	<g>
		
			<linearGradient id="SVGID_7_" gradientUnits="userSpaceOnUse" x1="-460.3882" y1="6706.4902" x2="-460.3882" y2="6689.1934" gradientTransform="matrix(1 0 0 -1 493.0049 6743.9102)">
			<stop  offset="0" style="stop-color:##spriteCouleur1##"/>
			<stop  offset="1" style="stop-color:##spriteCouleur1Moyen##"/>
		</linearGradient>
		<path fill="url(#SVGID_7_)" d="M47.302,40.697L34.958,52.881H20.685c-1.52,0-2.754-1.236-2.754-2.754V37.42h-1.836v12.707
			c0,2.529,2.059,4.59,4.59,4.59h15.027L49.14,41.465V37.42h-1.837L47.302,40.697L47.302,40.697z"/>
	</g>
</g>
</svg>
