<?xml version="1.0" encoding="utf-8"?>
<!DOCTYPE svg PUBLIC "-//W3C//DTD SVG 1.1//EN" "http://www.w3.org/Graphics/SVG/1.1/DTD/svg11.dtd">
<svg version="1.1" id="Calque_1" xmlns="http://www.w3.org/2000/svg" xmlns:xlink="http://www.w3.org/1999/xlink" viewBox="0 0 64 64" xml:space="preserve">
<linearGradient id="SVGID_1_" gradientUnits="userSpaceOnUse" x1="32" y1="0" x2="32" y2="48">
	<stop  offset="0" style="stop-color:##spriteCouleur3##"/>
	<stop  offset="1" style="stop-color:##spriteCouleur3Fonce##"/>
</linearGradient>
<path fill="url(#SVGID_1_)" d="M53.502,0H10.5C4.709,0,0,4.71,0,10.501v42.998C0,59.29,4.709,64,10.5,64h43.002
	C59.29,64,64,59.29,64,53.499V10.501C64,4.71,59.29,0,53.502,0z M51.573,21.961c0.019,0.435,0.026,0.869,0.026,1.307
	C51.6,36.612,41.443,52,22.869,52c-5.702,0-11.011-1.673-15.479-4.538c0.791,0.093,1.594,0.141,2.41,0.141
	c4.731,0,9.085-1.612,12.542-4.321c-4.419-0.081-8.148-3.002-9.434-7.014c0.617,0.119,1.25,0.183,1.899,0.183
	c0.921,0,1.813-0.125,2.661-0.355c-4.62-0.925-8.101-5.008-8.101-9.901c0-0.042,0-0.084,0.001-0.126
	c1.361,0.756,2.917,1.209,4.573,1.262c-2.708-1.812-4.492-4.901-4.492-8.405c0-1.851,0.499-3.585,1.368-5.076
	c4.98,6.108,12.421,10.128,20.813,10.55c-0.172-0.738-0.261-1.511-0.261-2.302C31.369,16.521,35.89,12,41.466,12
	c2.907,0,5.526,1.227,7.372,3.189c2.3-0.452,4.46-1.292,6.414-2.45c-0.755,2.357-2.357,4.337-4.443,5.586
	c2.044-0.242,3.988-0.787,5.802-1.588C55.256,18.761,53.544,20.539,51.573,21.961z"/>
</svg>