<?xml version="1.0" encoding="utf-8"?>
<!DOCTYPE svg PUBLIC "-//W3C//DTD SVG 1.1//EN" "http://www.w3.org/Graphics/SVG/1.1/DTD/svg11.dtd">
<svg version="1.1" id="Calque_1" xmlns="http://www.w3.org/2000/svg" xmlns:xlink="http://www.w3.org/1999/xlink" viewBox="0 0 64 64" xml:space="preserve">
<linearGradient id="SVGID_1_" gradientUnits="userSpaceOnUse" x1="32" y1="0" x2="32" y2="48">
	<stop  offset="0" style="stop-color:##spriteCouleur3##"/>
	<stop  offset="1" style="stop-color:##spriteCouleur3Fonce##"/>
</linearGradient>
<path fill="url(#SVGID_1_)" d="M53.502,0H10.5C4.709,0,0,4.71,0,10.501v42.998C0,59.29,4.709,64,10.5,64h43.002
	C59.29,64,64,59.29,64,53.499V10.501C64,4.71,59.29,0,53.502,0z M24.021,51.973h-7.992V24.002h7.992V51.973z M20.025,21.005
	c-2.763,0-4.995-2.237-4.995-4.995c0-2.759,2.232-4.995,4.995-4.995s4.995,2.236,4.995,4.995
	C25.02,18.768,22.788,21.005,20.025,21.005z M51.992,51.973H44V34.989c0-0.799-0.848-2.04-1.37-2.423
	c-0.647-0.475-2.154-0.971-3.327-0.693c-1.463,0.347-3.294,1.16-3.294,3.386c0,2.226,0,16.713,0,16.713h-7.992V24.002h7.992v1.676
	c3.163-1.444,7.553-1.754,10.527-0.084c3.163,1.771,5.456,5.725,5.456,9.396V51.973z"/>
</svg>