<?xml version="1.0" encoding="utf-8"?>
<!DOCTYPE svg PUBLIC "-//W3C//DTD SVG 1.1//EN" "http://www.w3.org/Graphics/SVG/1.1/DTD/svg11.dtd">
<svg version="1.1" id="Calque_1" xmlns="http://www.w3.org/2000/svg" xmlns:xlink="http://www.w3.org/1999/xlink" viewBox="0 0 64 64" xml:space="preserve">
<linearGradient id="SVGID_1_" gradientUnits="userSpaceOnUse" x1="32" y1="0" x2="32" y2="48">
	<stop  offset="0" style="stop-color:##spriteCouleur3##"/>
	<stop  offset="1" style="stop-color:##spriteCouleur3Fonce##"/>
</linearGradient>
<path fill="url(#SVGID_1_)" d="M53.502,0H10.5C4.709,0,0,4.709,0,10.5v42.999C0,59.29,4.709,64,10.5,64H32V39.999h-8.065V29.984H32
	v-5.039c0-7.225,5.423-13.102,12.094-13.102h8.063v9.983h-8.063c-0.949,0-2.016,1.294-2.016,3.024v5.133h10.079v10.015H42.079V64
	h11.423C59.29,64,64,59.29,64,53.499V10.5C64,4.709,59.29,0,53.502,0z"/>
</svg>