<?xml version="1.0" encoding="utf-8"?>
<!DOCTYPE svg PUBLIC "-//W3C//DTD SVG 1.1//EN" "http://www.w3.org/Graphics/SVG/1.1/DTD/svg11.dtd">
<svg version="1.1" id="Calque_1" xmlns="http://www.w3.org/2000/svg" xmlns:xlink="http://www.w3.org/1999/xlink" viewBox="0 0 64 64" xml:space="preserve">
<g>
	<linearGradient id="SVGID_1_" gradientUnits="userSpaceOnUse" x1="32" y1="0" x2="32" y2="48">
		<stop  offset="0" style="stop-color:##spriteCouleur3##"/>
		<stop  offset="1" style="stop-color:##spriteCouleur3Fonce##"/>
	</linearGradient>
	<g fill="url(#SVGID_1_)">
		<path d="M19.037,23.457c-6.977,0-9.872-9.504-9.872-14.593c0-2.502,0.548-4.396,1.68-5.794
			c0.752-0.941,2.736-2.643,4.009-3.071l3.614,0.012c4.671,1.735,7.591,10.323,7.591,15.71c0,0.927,0,3.749-1.858,5.614
			C22.948,22.582,20.822,23.457,19.037,23.457z"/>
		<path d="M0.005,19.822c2.613,4.315,8.141,8.65,14.847,8.65c0.313,0,0.639-0.013,0.971-0.027
			c-0.185,0.665-0.272,1.33-0.272,2.062c0,2.205,0.784,3.791,1.552,4.958c-4.369,0.357-10.518,1.193-15.286,4.114
			c-0.25,0.147-0.81,0.637-1.353,1.11c-0.162,0.143-0.319,0.28-0.459,0.4V19.822z"/>
		<path d="M59.604,21.86v0.121h-8.491v8.492h-4.942v-8.492h-8.492v-1.225
			c-1.998,0.068-4.004,0.169-5.974,0.298c-1.196,1.28-2.569,2.39-3.85,3.394l-0.151,0.151c-1.117,1.115-2.271,2.266-2.271,4.033
			c0,1.809,1.205,2.799,2.219,3.631l3.209,2.497c3.896,3.276,7.571,6.366,7.571,12.659c0,7.272-5.968,14.621-17.449,16.579h32.514
			c5.789,0,10.498-4.709,10.498-10.497V22.534C62.537,22.282,61.072,22.062,59.604,21.86z"/>
	</g>
	<linearGradient id="SVGID_2_" gradientUnits="userSpaceOnUse" x1="46.8525" y1="-1.498" x2="46.8525" y2="22.4239">
		<stop  offset="0" style="stop-color:##spriteCouleur1##"/>
		<stop  offset="1" style="stop-color:##spriteCouleur1Moyen##"/>
	</linearGradient>
	<path fill="url(#SVGID_2_)" d="M53.498,0.011H29.709c2.051,1.75,5.698,5.32,5.698,11.617c0,3.508-1.469,6.847-3.702,9.427
		c1.929-0.153,3.97-0.25,5.974-0.311v-3.707h8.492V8.546h4.942v8.491h8.491v4.825c1.468,0.201,2.933,0.421,4.392,0.672V10.509
		C63.996,4.721,59.287,0.011,53.498,0.011z"/>
	<linearGradient id="SVGID_3_" gradientUnits="userSpaceOnUse" x1="17.8354" y1="34.9199" x2="17.8354" y2="58.1531">
		<stop  offset="0" style="stop-color:##spriteCouleur1##"/>
		<stop  offset="1" style="stop-color:##spriteCouleur1Moyen##"/>
	</linearGradient>
	<path fill="url(#SVGID_3_)" d="M19.128,59.25c-8.623,0-14.415-3.857-14.415-9.602c0-5.514,5.138-7.373,6.827-7.983
		c3.855-1.287,8.876-1.354,8.925-1.354c0.016,0,0.03,0,0.044,0c0.732,0,1.119,0,1.603,0.051c6.386,4.583,8.845,6.696,8.845,10.532
		C30.958,56.049,26.423,59.25,19.128,59.25z"/>
</g>
</svg>