<?xml version="1.0" encoding="utf-8"?>
<!DOCTYPE svg PUBLIC "-//W3C//DTD SVG 1.1//EN" "http://www.w3.org/Graphics/SVG/1.1/DTD/svg11.dtd">
<svg version="1.1" id="Calque_1" xmlns="http://www.w3.org/2000/svg" xmlns:xlink="http://www.w3.org/1999/xlink" viewBox="0 0 64 64" xml:space="preserve">
<g>
	<linearGradient id="SVGID_1_" gradientUnits="userSpaceOnUse" x1="32" y1="0" x2="32" y2="48">
		<stop  offset="0" style="stop-color:##spriteCouleur3##"/>
		<stop  offset="1" style="stop-color:##spriteCouleur3Fonce##"/>
	</linearGradient>
	<path fill="url(#SVGID_1_)" d="M53.502,0H10.5C4.709,0,0,4.71,0,10.501v42.998C0,59.29,4.709,64,10.5,64h43.002
		C59.29,64,64,59.29,64,53.499V10.501C64,4.71,59.29,0,53.502,0z M41.885,53.978C38.202,57.993,33.47,60,27.687,60
		c-5.808,0-10.552-2.007-14.232-6.022c-3.682-4.013-5.522-8.705-5.522-14.072c0-5.321,1.742-9.936,5.226-13.844
		c3.833-4.309,8.675-6.463,14.529-6.463c2.462,0,4.743,0.387,6.849,1.15c-0.684,1.337-1.302,2.976-1.47,4.735
		c-1.672-0.695-3.47-1.047-5.396-1.047c-4.048,0-7.527,1.519-10.436,4.556c-2.908,3.038-4.363,6.71-4.363,11.019
		c0,2.779,0.663,5.367,1.989,7.771c1.326,2.4,3.118,4.255,5.375,5.562c1.496,0.866,3.091,1.439,4.781,1.731
		c14.494-5.623,12.766-33.119,12.666-34.552C37.112,18.856,34.583,11.829,29.918,4c0,0,6.618,4.389,7.759,16.453
		c0,0,0.002,0.031,0.005,0.069c0.083,0.244,0.126,0.376,0.126,0.376c8.506,22.704-10.035,34.398-10.035,34.398
		c-0.069,0.003-0.136,0.003-0.205,0.005c0.034,0,0.067,0.003,0.101,0.003c2.699,0,5.177-0.654,7.435-1.961
		c2.257-1.307,4.049-3.161,5.375-5.562c1.326-2.403,1.989-4.991,1.989-7.771c0-2.254-0.402-4.332-1.203-6.239
		c1.331-0.276,2.938-0.821,4.628-1.86c1.006,2.458,1.514,5.121,1.514,7.994C47.406,45.272,45.566,49.965,41.885,53.978z
		 M55.085,21.153c0,0-1.493,4.063-4.611,5.918c-2.352,1.399-5.915,1.84-9.641-1.81c0,0,11.268-6.173,11.688-11.399
		c0,0-3.46,7.778-12.926,9.932c0,0-3.453-5.344,0.931-9.751c0,0,1.535-1.692,5.919-2.805c0,0,4.385-0.935,6.753-5.965
		C53.197,5.272,58.106,12.128,55.085,21.153z"/>
	<linearGradient id="SVGID_2_" gradientUnits="userSpaceOnUse" x1="32.479" y1="4" x2="32.479" y2="55.3091">
		<stop  offset="0" style="stop-color:##spriteCouleur1##"/>
		<stop  offset="1" style="stop-color:##spriteCouleur1Moyen##"/>
	</linearGradient>
	<g fill="url(#SVGID_2_)">
		<path d="M29.918,4c0,0,6.618,4.389,7.759,16.453c0,0,2.235,28.982-12.758,34.665c0,0,1.341,0.25,2.854,0.179
			c0,0,18.541-11.694,10.035-34.398C37.808,20.898,35.265,12.974,29.918,4z"/>
		<path d="M39.595,23.793c0,0-3.453-5.344,0.931-9.751c0,0,1.535-1.692,5.919-2.805
			c0,0,4.385-0.935,6.753-5.965c0,0,4.909,6.856,1.888,15.88c0,0-1.493,4.063-4.611,5.918c-2.352,1.399-5.915,1.84-9.641-1.81
			c0,0,11.268-6.173,11.688-11.399C52.521,13.862,49.061,21.64,39.595,23.793z"/>
	</g>
</g>
</svg>