<?xml version="1.0" encoding="utf-8"?>
<!DOCTYPE svg PUBLIC "-//W3C//DTD SVG 1.1//EN" "http://www.w3.org/Graphics/SVG/1.1/DTD/svg11.dtd">
<svg version="1.1" id="Calque_1" xmlns="http://www.w3.org/2000/svg" xmlns:xlink="http://www.w3.org/1999/xlink" viewBox="0 0 64 64" xml:space="preserve">
<linearGradient id="SVGID_1_" gradientUnits="userSpaceOnUse" x1="32" y1="0" x2="32" y2="48">
	<stop  offset="0" style="stop-color:##spriteCouleur3##"/>
	<stop  offset="1" style="stop-color:##spriteCouleur3Fonce##"/>
</linearGradient>
<path fill="url(#SVGID_1_)" d="M53.502,0H10.5C4.709,0,0,4.71,0,10.501v42.998C0,59.29,4.709,64,10.5,64h43.002
	C59.29,64,64,59.29,64,53.499V10.501C64,4.71,59.29,0,53.502,0z M47.658,23.969c0.015,0.348,0.022,0.695,0.022,1.046
	C47.681,35.689,39.556,48,24.695,48c-4.562,0-8.809-1.339-12.383-3.63c0.633,0.073,1.275,0.112,1.928,0.112
	c3.784,0,7.268-1.291,10.033-3.457c-3.536-0.066-6.519-2.401-7.547-5.612c0.494,0.097,1,0.147,1.519,0.147
	c0.738,0,1.451-0.101,2.129-0.284c-3.696-0.741-6.481-4.007-6.481-7.921c0-0.034,0-0.067,0.001-0.1
	c1.089,0.604,2.334,0.967,3.659,1.009c-2.167-1.45-3.594-3.921-3.594-6.724c0-1.48,0.399-2.868,1.094-4.061
	c3.984,4.887,9.937,8.103,16.65,8.44c-0.138-0.591-0.209-1.208-0.209-1.841c0-4.461,3.616-8.079,8.078-8.079
	c2.324,0,4.422,0.982,5.896,2.551c1.841-0.362,3.568-1.034,5.131-1.96c-0.603,1.886-1.885,3.469-3.554,4.469
	c1.636-0.194,3.19-0.629,4.642-1.271C50.605,21.408,49.235,22.831,47.658,23.969z"/>
</svg>