<?xml version="1.0" encoding="utf-8"?>
<!DOCTYPE svg PUBLIC "-//W3C//DTD SVG 1.1//EN" "http://www.w3.org/Graphics/SVG/1.1/DTD/svg11.dtd">
<svg version="1.1" id="Calque_1" xmlns="http://www.w3.org/2000/svg" xmlns:xlink="http://www.w3.org/1999/xlink" viewBox="0 0 64 64" xml:space="preserve">
<linearGradient id="SVGID_1_" gradientUnits="userSpaceOnUse" x1="32" y1="0" x2="32" y2="48">
	<stop  offset="0" style="stop-color:##spriteCouleur3##"/>
	<stop  offset="1" style="stop-color:##spriteCouleur3Fonce##"/>
</linearGradient>
<path fill="url(#SVGID_1_)" d="M53.502,0H10.5C4.709,0,0,4.71,0,10.501v42.998C0,59.29,4.709,64,10.5,64h43.002
	C59.29,64,64,59.29,64,53.499V10.501C64,4.71,59.29,0,53.502,0z M50.036,23.349c-2.124,11.966-13.993,22.098-17.56,24.412
	c-3.572,2.313-6.827-0.927-8.008-3.378c-1.353-2.795-5.405-17.945-6.466-19.2c-1.061-1.255-4.244,1.254-4.244,1.254l-1.544-2.025
	c0,0,6.465-7.719,11.384-8.685c5.217-1.025,5.21,8.009,6.464,13.024c1.212,4.851,2.028,7.626,3.088,7.626s3.086-2.706,5.305-6.853
	c2.224-4.151-0.095-7.817-4.438-5.21C35.756,13.893,52.158,11.388,50.036,23.349z"/>
</svg>