<?xml version="1.0" encoding="utf-8"?>
<!DOCTYPE svg PUBLIC "-//W3C//DTD SVG 1.1//EN" "http://www.w3.org/Graphics/SVG/1.1/DTD/svg11.dtd">
<svg version="1.1" id="Calque_2" xmlns="http://www.w3.org/2000/svg" xmlns:xlink="http://www.w3.org/1999/xlink" viewBox="0 0 64 64" xml:space="preserve">
<g>
	<linearGradient id="SVGID_1_" gradientUnits="userSpaceOnUse" x1="31.9995" y1="0" x2="31.9995" y2="47.6379">
		<stop  offset="0" style="stop-color:##spriteCouleur3##"/>
		<stop  offset="1" style="stop-color:##spriteCouleur3Fonce##"/>
	</linearGradient>
	<g fill="url(#SVGID_1_)">
		<path d="M53.502,0H10.5C4.709,0,0,4.71,0,10.501v42.998C0,59.29,4.709,64,10.5,64h43.002
			C59.29,64,64,59.29,64,53.499V10.501C64,4.71,59.29,0,53.502,0z M39.704,11.19h3.263v12.257c0,0.379,0.074,0.653,0.211,0.82
			c0.131,0.171,0.356,0.258,0.661,0.258c0.24,0,0.546-0.114,0.915-0.337c0.364-0.226,0.701-0.512,1.001-0.863V11.19h3.271v15.989
			h-3.271v-1.766c-0.595,0.648-1.222,1.149-1.876,1.488c-0.652,0.338-1.281,0.508-1.894,0.508c-0.759,0-1.324-0.239-1.708-0.714
			c-0.382-0.477-0.573-1.191-0.573-2.143V11.19z M21.944,38.776h-3.383v16.815h-3.269V38.776H11.91v-2.858h10.034V38.776z
			 M23.03,27.179h-3.677v-8.587L14.974,5.506h3.705l2.387,8.663h0.231l2.274-8.663h3.74L23.03,18.187V27.179z M31.505,55.592h-2.901
			v-1.597c-0.539,0.593-1.093,1.037-1.676,1.345c-0.579,0.312-1.138,0.464-1.684,0.464c-0.673,0-1.173-0.215-1.517-0.647
			c-0.336-0.435-0.508-1.078-0.508-1.944V41.074h2.9v11.135c0,0.342,0.062,0.591,0.18,0.742c0.125,0.157,0.323,0.233,0.596,0.233
			c0.21,0,0.482-0.102,0.807-0.308c0.33-0.202,0.628-0.462,0.902-0.775V41.074h2.901V55.592z M28.862,26.376
			c-0.858-0.803-1.287-1.885-1.287-3.242v-8.287c0-1.241,0.439-2.226,1.319-2.96c0.877-0.732,2.062-1.102,3.545-1.102
			c1.353,0,2.458,0.388,3.326,1.163c0.857,0.772,1.289,1.77,1.289,2.99v8.258c0,1.368-0.424,2.438-1.267,3.219
			c-0.851,0.777-2.013,1.167-3.498,1.167C30.86,27.582,29.718,27.179,28.862,26.376z M42.029,52.591
			c0,1.026-0.228,1.815-0.682,2.366c-0.453,0.546-1.115,0.819-1.973,0.819c-0.57,0-1.076-0.104-1.518-0.316
			c-0.443-0.209-0.862-0.537-1.239-0.981v1.113h-2.933V35.918h2.933v6.333c0.392-0.438,0.809-0.781,1.242-1.009
			c0.441-0.229,0.887-0.342,1.338-0.342c0.92,0,1.622,0.309,2.105,0.925c0.483,0.618,0.726,1.521,0.726,2.71V52.591z M52.089,48.679
			h-5.55v2.737c0,0.765,0.094,1.294,0.282,1.59c0.195,0.295,0.523,0.441,0.984,0.441c0.483,0,0.817-0.125,1.011-0.378
			c0.188-0.249,0.288-0.801,0.288-1.653v-0.662h2.984v0.745c0,1.488-0.362,2.61-1.093,3.366c-0.725,0.75-1.81,1.121-3.255,1.121
			c-1.302,0-2.325-0.397-3.069-1.194c-0.746-0.797-1.125-1.896-1.125-3.293v-6.521c0-1.254,0.414-2.283,1.236-3.077
			c0.821-0.792,1.874-1.188,3.173-1.188c1.332,0,2.351,0.37,3.064,1.104c0.714,0.732,1.068,1.787,1.068,3.161V48.679z"/>
		<path d="M47.835,43.255c-0.464,0-0.793,0.129-0.994,0.398c-0.203,0.257-0.302,0.696-0.302,1.303v1.465
			h2.565v-1.465c0-0.606-0.104-1.046-0.305-1.303C48.604,43.384,48.276,43.255,47.835,43.255z"/>
		<path d="M37.83,43.204c-0.208,0-0.414,0.044-0.614,0.142c-0.201,0.093-0.399,0.24-0.598,0.442v9.043
			c0.233,0.235,0.464,0.41,0.687,0.512c0.224,0.104,0.456,0.156,0.699,0.156c0.356,0,0.617-0.101,0.786-0.306
			c0.163-0.205,0.25-0.533,0.25-1.001v-7.494c0-0.492-0.1-0.864-0.305-1.117C38.521,43.328,38.22,43.204,37.83,43.204z"/>
		<path d="M32.281,13.557c-0.399,0-0.721,0.105-0.972,0.322c-0.248,0.216-0.375,0.497-0.375,0.845v8.711
			c0,0.439,0.119,0.776,0.35,1.018c0.23,0.24,0.565,0.361,0.997,0.361c0.444,0,0.793-0.124,1.053-0.367
			c0.263-0.247,0.394-0.585,0.394-1.011v-8.711c0-0.348-0.134-0.629-0.398-0.845C33.062,13.663,32.715,13.557,32.281,13.557z"/>
	</g>
	<linearGradient id="SVGID_2_" gradientUnits="userSpaceOnUse" x1="31.9995" y1="31.6528" x2="31.9995" y2="55.7304">
		<stop  offset="0" style="stop-color:##spriteCouleur1##"/>
		<stop  offset="1" style="stop-color:##spriteCouleur1Moyen##"/>
	</linearGradient>
	<g fill="url(#SVGID_2_)">
		<path d="M53.502,31.653H10.5c-5.791,0-10.5,4.71-10.5,10.5v11.346C0,59.29,4.709,64,10.5,64h43.002
			C59.29,64,64,59.29,64,53.499V42.153C64,36.363,59.29,31.653,53.502,31.653z M21.944,38.776h-3.383v16.815h-3.269V38.776H11.91
			v-2.858h10.034V38.776z M31.505,55.592h-2.901v-1.597c-0.539,0.593-1.093,1.037-1.676,1.345c-0.579,0.312-1.138,0.464-1.684,0.464
			c-0.673,0-1.173-0.215-1.517-0.647c-0.336-0.435-0.508-1.078-0.508-1.944V41.074h2.9v11.135c0,0.342,0.062,0.591,0.18,0.742
			c0.125,0.157,0.323,0.233,0.596,0.233c0.21,0,0.482-0.102,0.807-0.308c0.33-0.202,0.628-0.462,0.902-0.775V41.074h2.901V55.592z
			 M42.029,52.591c0,1.026-0.228,1.815-0.682,2.366c-0.453,0.546-1.115,0.819-1.973,0.819c-0.57,0-1.076-0.104-1.518-0.316
			c-0.443-0.209-0.862-0.537-1.239-0.981v1.113h-2.933V35.918h2.933v6.333c0.392-0.438,0.809-0.781,1.242-1.009
			c0.441-0.229,0.887-0.342,1.338-0.342c0.92,0,1.622,0.309,2.105,0.925c0.483,0.618,0.726,1.521,0.726,2.71V52.591z M52.089,48.679
			h-5.55v2.737c0,0.765,0.094,1.294,0.282,1.59c0.195,0.295,0.523,0.441,0.984,0.441c0.483,0,0.817-0.125,1.011-0.378
			c0.188-0.249,0.288-0.801,0.288-1.653v-0.662h2.984v0.745c0,1.488-0.362,2.61-1.093,3.366c-0.725,0.75-1.81,1.121-3.255,1.121
			c-1.302,0-2.325-0.397-3.069-1.194c-0.746-0.797-1.125-1.896-1.125-3.293v-6.521c0-1.254,0.414-2.283,1.236-3.077
			c0.821-0.792,1.874-1.188,3.173-1.188c1.332,0,2.351,0.37,3.064,1.104c0.714,0.732,1.068,1.787,1.068,3.161V48.679z"/>
		<path d="M47.835,43.255c-0.464,0-0.793,0.129-0.994,0.398c-0.203,0.257-0.302,0.696-0.302,1.303v1.465
			h2.565v-1.465c0-0.606-0.104-1.046-0.305-1.303C48.604,43.384,48.276,43.255,47.835,43.255z"/>
		<path d="M37.83,43.204c-0.208,0-0.414,0.044-0.614,0.142c-0.201,0.093-0.399,0.24-0.598,0.442v9.043
			c0.233,0.235,0.464,0.41,0.687,0.512c0.224,0.104,0.456,0.156,0.699,0.156c0.356,0,0.617-0.101,0.786-0.306
			c0.163-0.205,0.25-0.533,0.25-1.001v-7.494c0-0.492-0.1-0.864-0.305-1.117C38.521,43.328,38.22,43.204,37.83,43.204z"/>
	</g>
</g>
</svg>