<?xml version="1.0" encoding="utf-8"?>
<!DOCTYPE svg PUBLIC "-//W3C//DTD SVG 1.1//EN" "http://www.w3.org/Graphics/SVG/1.1/DTD/svg11.dtd">
<svg version="1.1" id="Calque_1" xmlns="http://www.w3.org/2000/svg" xmlns:xlink="http://www.w3.org/1999/xlink" viewBox="0 0 64 64" xml:space="preserve">
<g>
	<linearGradient id="SVGID_1_" gradientUnits="userSpaceOnUse" x1="32" y1="0" x2="32" y2="48">
		<stop  offset="0" style="stop-color:##spriteCouleur3##"/>
		<stop  offset="1" style="stop-color:##spriteCouleur3Fonce##"/>
	</linearGradient>
	<path fill="url(#SVGID_1_)" d="M53.502,0H10.5C4.709,0,0,4.71,0,10.501v42.998C0,59.29,4.709,64,10.5,64h43.002
		C59.29,64,64,59.29,64,53.499V10.501C64,4.71,59.29,0,53.502,0z M32.059,40.446h11.004c3.634,0,6.479,2.87,6.479,6.532
		c0,3.647-2.982,6.616-6.648,6.616H31.893c-9.688,0-17.569-8.429-17.569-18.787V17.06c0-3.671,2.964-6.657,6.606-6.657
		c3.62,0,6.457,2.924,6.457,6.657v3.357h15.55c3.645,0,6.606,2.958,6.606,6.594c0,3.634-2.962,6.591-6.606,6.591h-15.55v1.205
		C27.386,37.706,29.657,40.446,32.059,40.446z"/>
	<linearGradient id="SVGID_2_" gradientUnits="userSpaceOnUse" x1="17.4971" y1="31.999" x2="46.3701" y2="31.999">
		<stop  offset="0" style="stop-color:##spriteCouleur1##"/>
		<stop  offset="1" style="stop-color:##spriteCouleur1Moyen##"/>
	</linearGradient>
	<path fill="url(#SVGID_2_)" d="M20.93,13.576c-1.893,0-3.433,1.563-3.433,3.484v17.748c0,8.61,6.458,15.614,14.396,15.614h11.001
		c1.916,0,3.476-1.545,3.476-3.443c0-1.915-1.421-3.358-3.307-3.358H32.059c-4.18,0-7.846-4.118-7.846-8.812V30.43h18.723
		c1.895,0,3.434-1.533,3.434-3.418c0-1.886-1.539-3.421-3.434-3.421H24.213v-6.53C24.213,15.106,22.771,13.576,20.93,13.576z"/>
</g>
</svg>