<?xml version="1.0" encoding="utf-8"?>
<!DOCTYPE svg PUBLIC "-//W3C//DTD SVG 1.1//EN" "http://www.w3.org/Graphics/SVG/1.1/DTD/svg11.dtd">
<svg version="1.1" id="Calque_1" xmlns="http://www.w3.org/2000/svg" xmlns:xlink="http://www.w3.org/1999/xlink" viewBox="0 0 64 64" xml:space="preserve">
<g>
	<linearGradient id="SVGID_1_" gradientUnits="userSpaceOnUse" x1="3.1958" y1="51.3105" x2="60.8047" y2="51.3105">
		<stop  offset="0" style="stop-color:##spriteCouleur3Fonce##"/>
		<stop  offset="0.7239" style="stop-color:##spriteCouleur3ClairSup##"/>
	</linearGradient>
	<path fill="url(#SVGID_1_)" d="M40.346,38.727l-16.761,0.942c0,0,0.796,5.396-1.088,6.022c-0.972,0.323-4.303,1.998-7.95,3.296
		c-3.424,1.216-7.166,2.014-8.275,3.608c-2.292,3.295-3.075,11.299-3.075,11.299l57.609-0.086c0,0-0.855-8.857-3.146-12.153
		c-1.107-1.596-4.852-2.394-8.275-3.611c-3.648-1.295-6.98-2.969-7.951-3.293C39.549,44.123,40.346,38.727,40.346,38.727
		L40.346,38.727z"/>
	<linearGradient id="SVGID_2_" gradientUnits="userSpaceOnUse" x1="46.7178" y1="26.2261" x2="12.7174" y2="28.8415">
		<stop  offset="0" style="stop-color:##spriteCouleur3ClairSup##"/>
		<stop  offset="1" style="stop-color:##spriteCouleur3Fonce##"/>
	</linearGradient>
	<path fill="url(#SVGID_2_)" d="M17.185,24.133c0,0-2.231-2.198-1.106,1.281c1.124,3.478,2.772,6.539,3.086,6.695
		c0.313,0.158,0.55,0.393,0.941,0.209c0.393-0.184,0.602,5.935,4.421,8.394c3.818,2.458,4.395,4.133,7.375,4.029
		c2.983-0.106,3.766,0.522,7.534-4.813c3.766-5.336,3.609-4.08,3.609-10.199c0,0,0.941,0.811,1.936-3.216
		c0.348-1.412,0.443-2.712,0.443-3.637c0.002-1.712-0.139-2.581-0.408-2.581c-1.412-0.366-0.979,2.633-1.186,3.89
		c0,0-0.838-15.014-4.342-14.805c-3.506,0.209-19.983,0.994-20.558,3.661c-0.576,2.669-1.779,10.724-0.837,13.863
		C19.034,30.042,17.185,24.133,17.185,24.133z"/>
	<path fill="##spriteCouleurBlack##" d="M16.314,23.401c-0.147-0.654-2.825-9.103-1.778-11.195c0,0-0.026-0.079,0.079,0.288c0,0,1.229-2.747,0.889-3.846
		l0.443,0.995c0,0,0.158-1.518,1.729-2.511c0,0-0.211,0.297-0.211,0.994c0,0.698,0.629-3.591,2.303-4.22
		c0,0-0.489,0.628-0.209,1.325c0,0,0.801-1.813,0.278-2.371c0,0,0.733,0.139,1.116,0.836c0,0,0.731-2.127,3.138-2.93
		c0,0-0.488,0.594-0.453,1.326c0,0,0.594-1.535,2.65-1.674c0,0-0.627,0.419-0.627,0.872c0,0,1.394-0.627,1.011-1.29
		c0,0,1.081,0.383,1.081,1.151c0,0,0.566-0.584,0.331-0.793c0,0,1.072-0.261,1.622,1.045c0,0,0.209-0.679,0.941-0.706
		c0,0-0.418,0.314-0.235,0.864c0.184,0.549,1.412-0.393,1.412-0.811c0,0,1.098,0.731,0.785,1.516c0,0,1.125-0.365,1.02-1.516
		c0,0,1.883,1.046,1.883,2.563c0,0,0.629-1.047,1.777-0.994c0,0-0.471,0.418,0.473,1.621c0,0,1.541-1.516,0.521-2.719
		c0,0,1.701,1.36,1.676,2.877l0.174-0.646c0,0,1.068,0.468,1.676,2.685c0,0,0.137-0.505-0.141-1.097c0,0,1.271,1.412,1.43,3.766
		c0,0,0.156-0.942,0.68-1.151c0,0-0.732,1.779-0.211,2.982c0.523,1.203,2.094,4.864,1.1,9.207c0,0-0.523,2.825-0.523,3.976
		l-0.312,0.679c0,0-0.473-6.12-1.779-6.643c0,0,0.104-5.284-2.355-6.278c0,0,1.047-0.627,0.525-1.621c0,0,0.051,1.516-4.027,1.255
		c0,0,1.148-0.262,0.992-1.151c0,0,0.104,0.785-3.4,1.204c0,0-3.923,1.15-7.323,0.784c-3.399-0.365-8.787-1.727-7.899,8.475
		c0,0,0.313,2.93-0.47,5.126c0,0-0.289,0.706,0.301,1.622l-0.562-0.123C17.832,27.149,16.436,23.94,16.314,23.401z"/>
	<linearGradient id="SVGID_3_" gradientUnits="userSpaceOnUse" x1="32" y1="46.7842" x2="32" y2="63.7912">
		<stop  offset="0" style="stop-color:##spriteCouleur1##"/>
		<stop  offset="1" style="stop-color:##spriteCouleur1Moyen##"/>
	</linearGradient>
	<path fill="url(#SVGID_3_)" d="M44.361,46.004c0.973,0.325,1.373,0.849,5.021,2.146c3.424,1.216,7.168,2.014,8.275,3.609
		c2.291,3.296,3.146,12.155,3.146,12.155L3.196,64c0,0,0.783-8.003,3.075-11.299c1.108-1.595,4.852-2.393,8.275-3.61
		c0.987-0.351,4.63-1.947,4.847-2.021c1.884-0.627,5.039,13.216,15.24,11.646C41.789,56.668,44.361,46.004,44.361,46.004z"/>
</g>
</svg>