<?xml version="1.0" encoding="utf-8"?>
<!DOCTYPE svg PUBLIC "-//W3C//DTD SVG 1.1//EN" "http://www.w3.org/Graphics/SVG/1.1/DTD/svg11.dtd">
<svg version="1.1" id="Calque_1" xmlns="http://www.w3.org/2000/svg" xmlns:xlink="http://www.w3.org/1999/xlink" viewBox="0 0 64 64" xml:space="preserve">
<g>
	
		<linearGradient id="SVGID_1_" gradientUnits="userSpaceOnUse" x1="-461.0054" y1="6734.8828" x2="-461.0054" y2="6688.9385" gradientTransform="matrix(1 0 0 -1 493.0049 6743.9102)">
		<stop  offset="0" style="stop-color:##spriteCouleur1##"/>
		<stop  offset="1" style="stop-color:##spriteCouleur1Moyen##"/>
	</linearGradient>
	<path fill="url(#SVGID_1_)" d="M48.022,9.028H15.979c-3.837,0-6.95,3.111-6.95,6.95v13.583v18.46c0,3.836,3.112,6.95,6.95,6.95
		h32.044c3.836,0,6.949-3.111,6.949-6.95V24.199v-8.221C54.972,12.141,51.859,9.028,48.022,9.028z M51.387,25.418v20.104
		c0,3.24-2.626,5.865-5.864,5.865H18.479c-3.24,0-5.867-2.627-5.867-5.865V29.943V18.48c0-3.239,2.627-5.866,5.867-5.866h27.043
		c3.238,0,5.864,2.626,5.864,5.866V25.418z"/>
	
		<linearGradient id="SVGID_2_" gradientUnits="userSpaceOnUse" x1="-464.3916" y1="6717.3281" x2="-464.3916" y2="6697.2402" gradientTransform="matrix(1 0 0 -1 493.0049 6743.9102)">
		<stop  offset="0" style="stop-color:##spriteCouleur2##"/>
		<stop  offset="1" style="stop-color:##spriteCouleur2Fonce##"/>
	</linearGradient>
	<path fill="url(#SVGID_2_)" d="M27.647,28.561c-0.312-0.149-0.628-0.294-0.952-0.43c-0.039-0.017-0.08-0.029-0.12-0.047
		c-0.27-0.112-0.544-0.22-0.82-0.319c-0.09-0.032-0.182-0.061-0.271-0.092c-0.231-0.08-0.464-0.157-0.7-0.229
		c-0.105-0.033-0.215-0.062-0.324-0.093c-0.221-0.062-0.442-0.124-0.665-0.179c-0.117-0.028-0.235-0.056-0.354-0.084
		c-0.22-0.05-0.441-0.096-0.664-0.138c-0.122-0.024-0.244-0.048-0.367-0.069c-0.226-0.038-0.452-0.071-0.682-0.104
		c-0.118-0.016-0.238-0.033-0.358-0.049c-0.244-0.029-0.494-0.053-0.744-0.072c-0.104-0.01-0.206-0.021-0.31-0.028
		c-0.354-0.023-0.709-0.04-1.066-0.044c-0.005,0-0.008,0-0.012,0c-0.209,0-0.408,0.083-0.557,0.228
		c-0.153,0.149-0.237,0.353-0.237,0.565v2.497v0.683c0,0.436,0.349,0.785,0.782,0.793c8.025,0.133,14.523,6.524,14.789,14.551
		c0.016,0.43,0.364,0.771,0.792,0.771h3.183c0.218,0,0.421-0.089,0.571-0.241c0.15-0.155,0.23-0.362,0.225-0.577
		C38.578,38.204,34.099,31.687,27.647,28.561z"/>
	
		<linearGradient id="SVGID_3_" gradientUnits="userSpaceOnUse" x1="-469.6704" y1="6707.0244" x2="-469.6704" y2="6697.2402" gradientTransform="matrix(1 0 0 -1 493.0049 6743.9102)">
		<stop  offset="0" style="stop-color:##spriteCouleur2##"/>
		<stop  offset="1" style="stop-color:##spriteCouleur2Fonce##"/>
	</linearGradient>
	<path fill="url(#SVGID_3_)" d="M23.336,36.886c-2.701,0-4.893,2.189-4.893,4.893c0,2.697,2.19,4.892,4.893,4.892
		c2.701,0,4.89-2.193,4.89-4.892C28.226,39.076,26.037,36.886,23.336,36.886z"/>
	
		<linearGradient id="SVGID_4_" gradientUnits="userSpaceOnUse" x1="-459.8931" y1="6726.5762" x2="-459.8931" y2="6697.2412" gradientTransform="matrix(1 0 0 -1 493.0049 6743.9102)">
		<stop  offset="0" style="stop-color:##spriteCouleur2##"/>
		<stop  offset="1" style="stop-color:##spriteCouleur2Fonce##"/>
	</linearGradient>
	<path fill="url(#SVGID_4_)" d="M38.85,25.267c-0.99-0.945-2.037-1.81-3.132-2.595c-0.005-0.004-0.011-0.007-0.016-0.012
		c-0.357-0.257-0.72-0.503-1.089-0.74c-0.015-0.009-0.029-0.021-0.045-0.03c-0.358-0.23-0.722-0.455-1.089-0.669
		c-0.026-0.016-0.053-0.03-0.08-0.045c-0.357-0.208-0.718-0.407-1.084-0.597c-0.041-0.021-0.083-0.042-0.122-0.063
		c-0.354-0.183-0.708-0.356-1.068-0.524c-0.059-0.026-0.119-0.053-0.179-0.078c-0.344-0.158-0.689-0.311-1.041-0.452
		c-0.077-0.034-0.157-0.063-0.236-0.095c-0.333-0.133-0.668-0.263-1.006-0.382c-0.103-0.037-0.205-0.068-0.308-0.104
		c-0.317-0.109-0.639-0.217-0.963-0.314c-0.125-0.04-0.256-0.073-0.383-0.109c-0.302-0.087-0.604-0.173-0.91-0.25
		c-0.156-0.039-0.313-0.071-0.473-0.108c-0.279-0.064-0.561-0.132-0.841-0.189c-0.192-0.04-0.386-0.07-0.577-0.104
		c-0.254-0.046-0.507-0.095-0.763-0.135c-0.229-0.035-0.462-0.062-0.692-0.09c-0.223-0.028-0.443-0.062-0.664-0.083
		c-0.289-0.031-0.578-0.053-0.869-0.073c-0.169-0.013-0.337-0.031-0.506-0.042c-0.461-0.026-0.925-0.042-1.392-0.047
		c-0.005,0-0.006,0-0.007,0c-0.23,0-0.452,0.089-0.614,0.251c-0.165,0.164-0.258,0.388-0.258,0.62v3.484
		c0,0.479,0.385,0.866,0.859,0.873c0.562,0.007,1.117,0.041,1.669,0.087c0.117,0.009,0.237,0.02,0.354,0.03
		c0.542,0.055,1.076,0.123,1.608,0.214c0.069,0.011,0.137,0.027,0.205,0.039c0.505,0.09,1.006,0.198,1.5,0.322
		c0.067,0.017,0.138,0.03,0.207,0.049c0.535,0.141,1.064,0.299,1.586,0.474c0.063,0.021,0.125,0.043,0.188,0.065
		c1.079,0.374,2.124,0.825,3.126,1.346c0.032,0.019,0.062,0.034,0.097,0.051c7.44,3.908,12.601,11.685,12.707,20.565
		c0.005,0.479,0.396,0.863,0.872,0.863h3.487c0.229,0,0.454-0.097,0.619-0.261c0.16-0.166,0.254-0.389,0.249-0.626
		c-0.077-7.564-3.065-14.681-8.421-20.031C39.192,25.585,39.021,25.428,38.85,25.267z"/>
</g>
</svg>
