<?xml version="1.0" encoding="UTF-8" standalone="no"?>
<svg
   xmlns:dc="http://purl.org/dc/elements/1.1/"
   xmlns:cc="http://creativecommons.org/ns#"
   xmlns:rdf="http://www.w3.org/1999/02/22-rdf-syntax-ns#"
   xmlns:svg="http://www.w3.org/2000/svg"
   xmlns="http://www.w3.org/2000/svg"
   xmlns:xlink="http://www.w3.org/1999/xlink"
   xmlns:sodipodi="http://sodipodi.sourceforge.net/DTD/sodipodi-0.dtd"
   xmlns:inkscape="http://www.inkscape.org/namespaces/inkscape"
   version="1.1"
   id="Calque_1"
   viewBox="0 0 64 64"
   xml:space="preserve"
   inkscape:version="0.48.1 r9760"
   width="100%"
   height="100%"
   sodipodi:docname="silhouette-homme.svg"><metadata
   id="metadata58"><rdf:RDF><cc:Work
       rdf:about=""><dc:format>image/svg+xml</dc:format><dc:type
         rdf:resource="http://purl.org/dc/dcmitype/StillImage" /><dc:title></dc:title></cc:Work></rdf:RDF></metadata><defs
   id="defs56">
	<linearGradient
   gradientTransform="translate(314.0049,6403.4102)"
   y2="-6345.9868"
   x2="-297.1934"
   y1="-6365.3413"
   x1="-297.1934"
   gradientUnits="userSpaceOnUse"
   id="SVGID_1_">
		<stop
   id="stop6"
   style="stop-color:##spriteCouleur3##"
   offset="0" />
		<stop
   id="stop8"
   style="stop-color:##spriteCouleur3Fonce##"
   offset="1" />
	</linearGradient>
	
	
		<linearGradient
   gradientTransform="translate(314.0049,6403.4102)"
   y2="-6364.4019"
   x2="-296.9712"
   y1="-6380.8994"
   x1="-296.9712"
   gradientUnits="userSpaceOnUse"
   id="SVGID_2_">
		<stop
   id="stop13"
   style="stop-color:##spriteCouleur3##"
   offset="0" />
		<stop
   id="stop15"
   style="stop-color:##spriteCouleur3Fonce##"
   offset="1" />
	</linearGradient>
	
	
		<linearGradient
   gradientTransform="translate(314.0049,6403.4102)"
   y2="-6369.2554"
   x2="-275.6582"
   y1="-6396.833"
   x1="-275.6582"
   gradientUnits="userSpaceOnUse"
   id="SVGID_3_">
		<stop
   id="stop20"
   style="stop-color:##spriteCouleur1##"
   offset="0" />
		<stop
   id="stop22"
   style="stop-color:##spriteCouleur1Moyen##"
   offset="1" />
	</linearGradient>
	
	
		<linearGradient
   gradientTransform="translate(314.0049,6403.4102)"
   y2="-6379.9346"
   x2="-276.6328"
   y1="-6381.1426"
   x1="-276.6328"
   gradientUnits="userSpaceOnUse"
   id="SVGID_4_">
		<stop
   id="stop27"
   style="stop-color:##spriteCouleur3##"
   offset="0" />
		<stop
   id="stop29"
   style="stop-color:##spriteCouleur3Fonce##"
   offset="1" />
	</linearGradient>
	
	
		<linearGradient
   gradientTransform="translate(314.0049,6403.4102)"
   y2="-6383.8828"
   x2="-272.8711"
   y1="-6385.0908"
   x1="-272.8711"
   gradientUnits="userSpaceOnUse"
   id="SVGID_5_">
		<stop
   id="stop34"
   style="stop-color:##spriteCouleur3##"
   offset="0" />
		<stop
   id="stop36"
   style="stop-color:##spriteCouleur3Fonce##"
   offset="1" />
	</linearGradient>
	
	
		<linearGradient
   gradientTransform="translate(314.0049,6403.4102)"
   y2="-6369.1733"
   x2="-282.1162"
   y1="-6373.7949"
   x1="-282.1162"
   gradientUnits="userSpaceOnUse"
   id="SVGID_6_">
		<stop
   id="stop41"
   style="stop-color:##spriteCouleur3##"
   offset="0" />
		<stop
   id="stop43"
   style="stop-color:##spriteCouleur3Fonce##"
   offset="1" />
	</linearGradient>
	
	
		<linearGradient
   gradientTransform="translate(314.0049,6403.4102)"
   y2="-6365.3091"
   x2="-284.9976"
   y1="-6367.8452"
   x1="-284.9976"
   gradientUnits="userSpaceOnUse"
   id="SVGID_7_">
		<stop
   id="stop48"
   style="stop-color:##spriteCouleur3##"
   offset="0" />
		<stop
   id="stop50"
   style="stop-color:##spriteCouleur3Fonce##"
   offset="1" />
	</linearGradient>
	
<linearGradient
   inkscape:collect="always"
   xlink:href="#SVGID_2_"
   id="linearGradient3070"
   gradientUnits="userSpaceOnUse"
   gradientTransform="matrix(1.6844912,0,0,1.6844912,531.97178,10750.655)"
   x1="-296.9712"
   y1="-6380.8994"
   x2="-296.9712"
   y2="-6364.4019" /><linearGradient
   inkscape:collect="always"
   xlink:href="#SVGID_1_"
   id="linearGradient3073"
   gradientUnits="userSpaceOnUse"
   gradientTransform="matrix(1.6844912,0,0,1.6844912,531.97178,10750.655)"
   x1="-297.1934"
   y1="-6365.3413"
   x2="-297.1934"
   y2="-6345.9868" /></defs><sodipodi:namedview
   pagecolor="#ffffff"
   bordercolor="#666666"
   borderopacity="1"
   objecttolerance="10"
   gridtolerance="10"
   guidetolerance="10"
   inkscape:pageopacity="0"
   inkscape:pageshadow="2"
   inkscape:window-width="1920"
   inkscape:window-height="1025"
   id="namedview54"
   showgrid="false"
   inkscape:zoom="4.40625"
   inkscape:cx="32.453901"
   inkscape:cy="32"
   inkscape:window-x="1680"
   inkscape:window-y="26"
   inkscape:window-maximized="1"
   inkscape:current-layer="Calque_1" />
<path
   inkscape:connector-curvature="0"
   style="fill:url(#linearGradient3073)"
   id="path10"
   d="m 42.300448,29.003638 -0.112862,-0.08928 -0.0977,0.106121 c -1.881577,2.071924 -4.401576,3.513849 -7.120344,4.113528 0.539037,0.655267 0.870881,1.4554 0.870881,2.348181 0,1.071336 -0.469972,2.039919 -1.236416,2.737298 L 36.677615,53.871778 31.750479,58.8006 26.685214,53.871778 28.76556,38.229592 c -0.766443,-0.700747 -1.244839,-1.676068 -1.244839,-2.74572 0,-0.951738 0.392486,-1.814197 1.014064,-2.486309 -2.772674,-0.739491 -5.26909,-2.35155 -7.079917,-4.60203 l -0.09096,-0.104442 -0.119599,0.08085 C 13.525969,33.66631 8.4354366,41.521092 7.936827,53.772398 v 0.491871 l 0.080851,-0.353743 c 7.209623,4.56834 15.514165,6.983901 24.024215,6.983901 7.950798,0 15.780315,-2.120775 22.651354,-6.146708 l 0.07749,-0.0438 v -0.08591 C 54.491112,42.580637 49.720632,34.653422 42.300448,29.003638 z" /><path
   inkscape:connector-curvature="0"
   style="fill:url(#linearGradient3070)"
   id="path17"
   d="m 22.383023,26.261286 c 2.476203,2.242059 5.747485,3.613234 9.33882,3.613234 3.11294,0 5.991736,-1.030908 8.31128,-2.767619 3.392565,-2.536844 5.587458,-6.584676 5.587458,-11.131118 0,-7.6576966 -6.232618,-13.8903148 -13.898738,-13.8903148 -7.656012,0 -13.890315,6.2326182 -13.890315,13.8903148 0,4.069731 1.760294,7.740237 4.551495,10.285503 z" />
</svg>