<?xml version="1.0" encoding="utf-8"?>
<!DOCTYPE svg PUBLIC "-//W3C//DTD SVG 1.1//EN" "http://www.w3.org/Graphics/SVG/1.1/DTD/svg11.dtd">
<svg version="1.1" id="Calque_1" xmlns="http://www.w3.org/2000/svg" xmlns:xlink="http://www.w3.org/1999/xlink" viewBox="0 0 64 64" xml:space="preserve">
<g>
	<linearGradient id="SVGID_1_" gradientUnits="userSpaceOnUse" x1="-284.4033" y1="-6392.6587" x2="-284.4033" y2="-6351.8159" gradientTransform="matrix(1 0 0 1 314.0049 6403.4102)">
		<stop  offset="0" style="stop-color:##spriteCouleur1##"/>
		<stop  offset="1" style="stop-color:##spriteCouleur1Moyen##"/>
	</linearGradient>
	<path fill="url(#SVGID_1_)" d="M16.994,18.689L16.994,18.689h17.089h18.586v-0.166c0-1.918-1.188-3.472-2.654-3.472H38.861
		c0,0-3.567,0.034-5.271-1.643c-2.139-2.108-4.992-2.657-8.619-2.657H10.008c-0.167,0-0.331,0.013-0.492,0.035
		c-0.001,0-0.001,0-0.002,0l0,0c-1.685,0.239-2.979,1.688-2.979,3.438v1.819v0.517v32.471c0,1.414,1.147,2.562,2.562,2.562
		s2.562-1.148,2.562-2.562v-3.555V22.492v-0.331c0-1.919,1.556-3.473,3.474-3.473L16.994,18.689L16.994,18.689L16.994,18.689z"/>
	<linearGradient id="SVGID_2_" gradientUnits="userSpaceOnUse" x1="-278.2012" y1="-6382.4058" x2="-278.2012" y2="-6350.1616" gradientTransform="matrix(1 0 0 1 314.0049 6403.4102)">
		<stop  offset="0" style="stop-color:##spriteCouleur2##"/>
		<stop  offset="1" style="stop-color:##spriteCouleur2Fonce##"/>
	</linearGradient>
	<path fill="url(#SVGID_2_)" d="M53.993,21.004H17.615c-1.919,0-3.473,1.555-3.473,3.473v25.3c0,1.918,1.554,3.471,3.473,3.471
		h36.378c1.918,0,3.473-1.553,3.473-3.471v-25.3C57.466,22.558,55.911,21.004,53.993,21.004z M48.306,36.91
		c0,0.328-0.268,0.596-0.596,0.596H23.448c-0.329,0-0.596-0.268-0.596-0.596v-0.992c0-0.326,0.267-0.594,0.596-0.594H47.71
		c0.33,0,0.596,0.268,0.596,0.594V36.91z M48.306,29.469c0,0.328-0.268,0.595-0.596,0.595H23.448c-0.329,0-0.596-0.267-0.596-0.595
		v-0.992c0-0.328,0.267-0.595,0.596-0.595H47.71c0.33,0,0.596,0.267,0.596,0.595V29.469z"/>
</g>
</svg>