<?xml version="1.0" encoding="utf-8"?>
<!DOCTYPE svg PUBLIC "-//W3C//DTD SVG 1.1//EN" "http://www.w3.org/Graphics/SVG/1.1/DTD/svg11.dtd">
<svg version="1.1" id="Calque_1" xmlns="http://www.w3.org/2000/svg" xmlns:xlink="http://www.w3.org/1999/xlink" viewBox="0 0 64 64" xml:space="preserve">
<g>
	
		<linearGradient id="SVGID_1_" gradientUnits="userSpaceOnUse" x1="-461.0059" y1="6705.7373" x2="-461.0059" y2="6698.3311" gradientTransform="matrix(1 0 0 -1 493.0049 6743.9102)">
		<stop  offset="0" style="stop-color:##spriteCouleur2##"/>
		<stop  offset="1" style="stop-color:##spriteCouleur2Fonce##"/>
	</linearGradient>
	<path fill="url(#SVGID_1_)" d="M47.787,41.876c0,2.045-1.318,3.703-2.943,3.703H19.156c-1.626,0-2.944-1.658-2.944-3.703l0,0
		c0-2.043,1.317-3.703,2.944-3.703h25.688C46.469,38.173,47.787,39.833,47.787,41.876L47.787,41.876z"/>
	
		<linearGradient id="SVGID_2_" gradientUnits="userSpaceOnUse" x1="-461.0059" y1="6696.9316" x2="-461.0059" y2="6689.5264" gradientTransform="matrix(1 0 0 -1 493.0049 6743.9102)">
		<stop  offset="0" style="stop-color:##spriteCouleur2##"/>
		<stop  offset="1" style="stop-color:##spriteCouleur2Fonce##"/>
	</linearGradient>
	<path fill="url(#SVGID_2_)" d="M47.787,50.682c0,2.044-1.318,3.702-2.943,3.702H19.156c-1.626,0-2.944-1.657-2.944-3.702l0,0
		c0-2.045,1.317-3.703,2.944-3.703h25.688C46.469,46.979,47.787,48.637,47.787,50.682L47.787,50.682z"/>
	<path fill="#1C1C1C" d="M43.334,24.955c0,0.468,0,0.629,0,0.629"/>
	<g>
		
			<linearGradient id="SVGID_3_" gradientUnits="userSpaceOnUse" x1="-461.0049" y1="6734.2949" x2="-461.0049" y2="6716.3691" gradientTransform="matrix(1 0 0 -1 493.0049 6743.9102)">
			<stop  offset="0" style="stop-color:##spriteCouleur1##"/>
			<stop  offset="1" style="stop-color:##spriteCouleur1Moyen##"/>
		</linearGradient>
		<path fill="url(#SVGID_3_)" d="M32,9.616c-6.725,0-11.334,5.249-11.334,11.723c0,1.675,0,2.575,0,3.06c0,0.145,0,0.199,0,0.215
			c0,0.006,0,0.007,0,0.007c0,0.021,0,0.097,0,0.334c0,3.486,4.221,3.414,4.205,0c-0.002-0.616,0-0.346,0-0.617
			c0-0.911,0-2.478,0-3.808c0-3.792,3.192-6.865,7.129-6.865c3.937,0,7.128,3.073,7.128,6.865c0,1.964,0,3.12,0,3.778
			c0,0.322,0-0.027,0,0.646c0,3.414,4.205,3.414,4.205,0c0-0.646,0-0.385,0-0.646c0-0.648,0-1.6,0-2.969
			C43.334,14.865,38.723,9.616,32,9.616z M29.717,11.891c-4.211,0.813-5.821,4.596-5.838,4.635c-0.066,0.162-0.224,0.26-0.389,0.26
			c-0.052,0-0.107-0.01-0.16-0.032c-0.214-0.089-0.315-0.333-0.229-0.548c0.07-0.172,1.789-4.238,6.454-5.139
			c0.228-0.044,0.448,0.104,0.493,0.333C30.092,11.625,29.944,11.847,29.717,11.891z"/>
	</g>
	<g>
		
			<linearGradient id="SVGID_4_" gradientUnits="userSpaceOnUse" x1="-461.0059" y1="6714.5332" x2="-461.0059" y2="6707.126" gradientTransform="matrix(1 0 0 -1 493.0049 6743.9102)">
			<stop  offset="0" style="stop-color:##spriteCouleur2##"/>
			<stop  offset="1" style="stop-color:##spriteCouleur2Fonce##"/>
		</linearGradient>
		<path fill="url(#SVGID_4_)" d="M44.842,29.378H19.156c-1.626,0-2.944,1.658-2.944,3.701c0,2.047,1.317,3.705,2.944,3.705h25.686
			c1.625,0,2.945-1.658,2.945-3.705C47.787,31.036,46.469,29.378,44.842,29.378z M43.215,32.13H20.784
			c-0.277,0-0.504-0.227-0.504-0.504c0-0.278,0.227-0.504,0.504-0.504h22.431c0.277,0,0.502,0.226,0.502,0.504
			C43.717,31.903,43.492,32.13,43.215,32.13z"/>
	</g>
</g>
</svg>
