<?xml version="1.0" encoding="utf-8"?>
<!-- Generator: Adobe Illustrator 14.0.0, SVG Export Plug-In . SVG Version: 6.00 Build 43363)  -->
<!DOCTYPE svg PUBLIC "-//W3C//DTD SVG 1.1//EN" "http://www.w3.org/Graphics/SVG/1.1/DTD/svg11.dtd">
<svg version="1.1" id="Calque_1" xmlns="http://www.w3.org/2000/svg" xmlns:xlink="http://www.w3.org/1999/xlink" viewBox="0 0 64 64" xml:space="preserve">
<g>
	
		<linearGradient id="SVGID_1_" gradientUnits="userSpaceOnUse" x1="-709.4341" y1="-7053.7046" x2="-709.4341" y2="-7017.4111" gradientTransform="matrix(1 0 0 1 758.5049 7068.9102)">
		<stop  offset="0" style="stop-color:##spriteCouleur2##"/>
		<stop  offset="1" style="stop-color:##spriteCouleur2Fonce##"/>
	</linearGradient>
	<path fill="url(#SVGID_1_)" d="M50.172,15.207c-2.873-0.016-5.65,0.209-8.305,0.665c-0.004,0.752-0.174,1.466-0.477,2.104
		c2.787,3.346,4.484,7.018,5.059,10.953c0.553,3.79,0.047,7.693-1.498,11.656c1.146,0.91,1.881,2.313,1.881,3.89
		c0,1.33-0.521,2.537-1.373,3.428c0.656,1.165,1.258,2.365,1.801,3.598c5.779-4.53,9.492-11.576,9.492-19.488
		C56.75,25.523,54.254,19.621,50.172,15.207z"/>
	
		<linearGradient id="SVGID_2_" gradientUnits="userSpaceOnUse" x1="-721.1099" y1="-7061.6514" x2="-721.1099" y2="-7055.4155" gradientTransform="matrix(1 0 0 1 758.5049 7068.9102)">
		<stop  offset="0" style="stop-color:##spriteCouleur2##"/>
		<stop  offset="1" style="stop-color:##spriteCouleur2Fonce##"/>
	</linearGradient>
	<path fill="url(#SVGID_2_)" d="M36.904,10.884c1.891,0,3.533,1.056,4.373,2.611c2.053-0.363,4.17-0.593,6.334-0.69
		C43.354,9.338,37.92,7.259,32,7.259c-1.649,0-3.262,0.162-4.82,0.47c2.598,1.201,4.955,2.512,7.061,3.93
		C35.01,11.168,35.924,10.884,36.904,10.884z"/>
	
		<linearGradient id="SVGID_3_" gradientUnits="userSpaceOnUse" x1="-732.2031" y1="-7037.1978" x2="-732.2031" y2="-7012.2876" gradientTransform="matrix(1 0 0 1 758.5049 7068.9102)">
		<stop  offset="0" style="stop-color:##spriteCouleur1##"/>
		<stop  offset="1" style="stop-color:##spriteCouleur1Moyen##"/>
	</linearGradient>
	<path fill="url(#SVGID_3_)" d="M38.072,47.671c-0.729-0.863-1.168-1.979-1.168-3.197c0-1.053,0.328-2.027,0.887-2.832
		c-3.965-4.18-8.908-7.481-14.62-9.626c-0.276-0.104-0.555-0.205-0.835-0.303c-0.862,1.471-2.458,2.458-4.284,2.458
		c-0.408,0-0.805-0.05-1.184-0.143c-2.043,4.764-2.75,10.111-2.106,15.742c3.864,3.752,8.948,6.253,14.603,6.852
		C32.857,53.708,35.768,50.715,38.072,47.671z"/>
	
		<linearGradient id="SVGID_4_" gradientUnits="userSpaceOnUse" x1="-725.4199" y1="-7050.3467" x2="-725.4199" y2="-7028.8794" gradientTransform="matrix(1 0 0 1 758.5049 7068.9102)">
		<stop  offset="0" style="stop-color:##spriteCouleur1##"/>
		<stop  offset="1" style="stop-color:##spriteCouleur1Moyen##"/>
	</linearGradient>
	<path fill="url(#SVGID_4_)" d="M24.04,29.708c5.977,2.245,11.32,5.786,15.613,10.323c0.668-0.332,1.42-0.521,2.215-0.521
		c0.283,0,0.559,0.025,0.83,0.07c1.354-3.525,1.795-6.974,1.312-10.296c-0.484-3.333-1.93-6.479-4.256-9.371
		c-0.807,0.566-1.789,0.899-2.85,0.899c-1.74,0-3.268-0.894-4.154-2.248c-4.18,1.829-7.832,4.379-10.779,7.598
		c0.655,0.841,1.046,1.898,1.046,3.046c0,0.043-0.003,0.087-0.003,0.131C23.356,29.458,23.699,29.58,24.04,29.708z"/>
	
		<linearGradient id="SVGID_5_" gradientUnits="userSpaceOnUse" x1="-747.5356" y1="-7039.4668" x2="-747.5356" y2="-7022.2544" gradientTransform="matrix(1 0 0 1 758.5049 7068.9102)">
		<stop  offset="0" style="stop-color:##spriteCouleur2##"/>
		<stop  offset="1" style="stop-color:##spriteCouleur2Fonce##"/>
	</linearGradient>
	<path fill="url(#SVGID_5_)" d="M14.69,32.859c-0.882-0.813-1.469-1.942-1.582-3.206C11.2,29.458,9.285,29.4,7.376,29.476
		c-0.085,0.833-0.128,1.68-0.128,2.536c0,5.48,1.781,10.542,4.795,14.644c-0.022-1.025-0.003-2.043,0.062-3.053
		C12.344,39.828,13.223,36.202,14.69,32.859z"/>
	
		<linearGradient id="SVGID_6_" gradientUnits="userSpaceOnUse" x1="-738.3604" y1="-7060.1211" x2="-738.3604" y2="-7041.7021" gradientTransform="matrix(1 0 0 1 758.5049 7068.9102)">
		<stop  offset="0" style="stop-color:##spriteCouleur2##"/>
		<stop  offset="1" style="stop-color:##spriteCouleur2Fonce##"/>
	</linearGradient>
	<path fill="url(#SVGID_6_)" d="M13.508,27.208c0.77-1.745,2.515-2.965,4.545-2.965c0.697,0,1.364,0.145,1.967,0.405
		c3.199-3.523,7.252-6.372,11.938-8.394c-0.011-0.135-0.018-0.269-0.018-0.406c0-0.848,0.213-1.646,0.587-2.342
		c-2.628-1.74-5.674-3.32-9.111-4.717C15.507,11.712,9.5,18.563,7.762,26.975C9.682,26.924,11.602,27.002,13.508,27.208z"/>
	
		<linearGradient id="SVGID_7_" gradientUnits="userSpaceOnUse" x1="-719.4087" y1="-7019.8052" x2="-719.4087" y2="-7012.1685" gradientTransform="matrix(1 0 0 1 758.5049 7068.9102)">
		<stop  offset="0" style="stop-color:##spriteCouleur2##"/>
		<stop  offset="1" style="stop-color:##spriteCouleur2Fonce##"/>
	</linearGradient>
	<path fill="url(#SVGID_7_)" d="M41.867,49.438c-0.631,0-1.232-0.119-1.789-0.334c-1.955,2.594-4.322,5.143-7.088,7.637
		c4.48-0.176,8.652-1.542,12.213-3.791c-0.551-1.287-1.164-2.535-1.842-3.742C42.891,49.357,42.389,49.438,41.867,49.438z"/>
</g>
</svg>
