<?xml version="1.0" encoding="utf-8"?>
<!DOCTYPE svg PUBLIC "-//W3C//DTD SVG 1.1//EN" "http://www.w3.org/Graphics/SVG/1.1/DTD/svg11.dtd">
<svg version="1.1" id="Calque_1" xmlns="http://www.w3.org/2000/svg" xmlns:xlink="http://www.w3.org/1999/xlink" viewBox="0 0 64 64" xml:space="preserve">
<g fill="##spriteCouleurMedium##" transform="translate(32, 32) scale(-1,1) translate(-32, -32)">
	<path d="M39.087,7.791c-9.435,0-17.083,7.648-17.083,17.084c0,3.956,1.345,7.598,3.602,10.494l3.42,3.314
		c2.823,2.061,6.3,3.275,10.062,3.275c9.437,0,17.085-7.648,17.085-17.083C56.172,15.439,48.522,7.791,39.087,7.791z M39.087,36.504
		c-6.514,0-11.793-5.28-11.793-11.795c0-6.512,5.279-11.793,11.793-11.793s11.795,5.281,11.795,11.793
		C50.882,31.224,45.601,36.504,39.087,36.504z"/>
	<path d="M23.575,36.938c-1.845-0.576-3.941-0.133-5.404,1.33l-8.77,8.768c-2.098,2.1-2.098,5.502,0,7.6
		c2.1,2.1,5.501,2.1,7.6,0l8.769-8.769c1.513-1.511,1.935-3.7,1.269-5.589L23.575,36.938z M23.159,43.845l-3.594,3.595
		c-0.861,0.859-2.255,0.861-3.115,0c-0.861-0.859-0.86-2.254,0-3.115l3.594-3.594c0.6-0.6,1.459-0.781,2.215-0.545l1.42,1.368
		C23.952,42.329,23.779,43.226,23.159,43.845z"/>
	<path d="M45.325,25.991c0,3.257-2.723,5.898-5.98,5.898v2.644c4.719,0,8.475-3.948,8.475-8.666l-2.498,0.013
		C45.324,25.916,45.325,25.952,45.325,25.991z"/>
</g>
</svg>