<?xml version="1.0" encoding="utf-8"?>
<!DOCTYPE svg PUBLIC "-//W3C//DTD SVG 1.1//EN" "http://www.w3.org/Graphics/SVG/1.1/DTD/svg11.dtd">
<svg version="1.1" id="Calque_1" xmlns="http://www.w3.org/2000/svg" xmlns:xlink="http://www.w3.org/1999/xlink" viewBox="0 0 64 64" xml:space="preserve">
<path fill="##spriteCouleurMedium##" d="M53.503,0H10.501c-5.79,0-10.5,4.71-10.5,10.501v42.998C0.001,59.29,4.711,64,10.501,64h43.002
	c5.788,0,10.496-4.71,10.496-10.501V10.501C64.001,4.71,59.291,0,53.503,0z M44.842,53.334c-0.742,0.742-1.718,1.117-2.692,1.117
	c-0.974,0-1.948-0.375-2.691-1.117L18.045,31.92l21.254-21.254c1.487-1.487,3.897-1.487,5.385,0c1.487,1.486,1.487,3.896,0,5.384
	L28.812,31.92l16.029,16.029C46.329,49.438,46.329,51.849,44.842,53.334z"/>
</svg>