<?xml version="1.0" encoding="utf-8"?>
<!DOCTYPE svg PUBLIC "-//W3C//DTD SVG 1.1//EN" "http://www.w3.org/Graphics/SVG/1.1/DTD/svg11.dtd">
<svg version="1.1" id="Calque_1" xmlns="http://www.w3.org/2000/svg" xmlns:xlink="http://www.w3.org/1999/xlink" viewBox="0 0 64 64" xml:space="preserve">
<g>
	<!-- Fond neutre -->
	<g>
		<radialGradient id="fondBordure" cx="297.5" cy="-357" r="27.0991" gradientTransform="matrix(1 0 0 -1 -265.5 -325)" gradientUnits="userSpaceOnUse">
			<stop  offset="0.60" style="stop-color:##spriteCouleurBlack##"/>
			<stop  offset="0.85" style="stop-color:##spriteCouleur2Fonce##"/>
			<stop  offset="0.92" style="stop-color:##spriteCouleur2##"/>
			<stop  offset="0.98" style="stop-color:##spriteCouleur2Moyen##"/>
		</radialGradient>
		<path fill="url(#fondBordure)" d="M59.1,31.992c0,14.96-12.137,27.106-27.098,27.106C17.035,59.101,4.9,46.952,4.9,31.992
			S17.035,4.901,32.002,4.901C46.963,4.901,59.1,17.032,59.1,31.992z"/>
		<g>
			<radialGradient id="fondBackground" cx="56.2461" cy="-343.7988" r="41.1343" gradientTransform="matrix(1 0 0 -1 -19.7197 -325)" gradientUnits="userSpaceOnUse">
				<stop  offset="0.2802" style="stop-color:##spriteCouleur3Sup##"/>
				<stop  offset="0.76" style="stop-color:##spriteCouleur3##"/>
				<stop  offset="0.8046" style="stop-color:##spriteCouleur3Sup##"/>
				<stop  offset="0.8774" style="stop-color:##spriteCouleur3Moyen##"/>
				<stop  offset="0.98" style="stop-color:##spriteCouleur3Clair##"/>
			</radialGradient>
			<path fill="url(#fondBackground)" d="M56.018,31.994c0,13.261-10.758,24.022-24.016,24.022c-13.266,0-24.02-10.763-24.02-24.022
				S18.736,7.983,32.002,7.983C45.26,7.983,56.018,18.734,56.018,31.994z"/>
			<linearGradient id="fondHalo" gradientUnits="userSpaceOnUse" x1="-792.7246" y1="41.832" x2="-792.5552" y2="42.464" gradientTransform="matrix(37.3965 0 0 37.3965 29672.7188 -1554.1572)">
				<stop  offset="0" style="stop-color:##spriteCouleurWhite##"/>
				<stop  offset="0.1787" style="stop-color:##spriteCouleur3ClairSup##"/>
				<stop  offset="0.5358" style="stop-color:##spriteCouleur3Clair##"/>
				<stop  offset="0.7363" style="stop-color:##spriteCouleur3MoyenSup##"/>
				<stop  offset="0.8273" style="stop-color:##spriteCouleur3Moyen##"/>
				<stop  offset="0.9656" style="stop-color:##spriteCouleur3Sup##"/>
				<stop  offset="1" style="stop-color:##spriteCouleur3##"/>
			</linearGradient>
			<path fill="url(#fondHalo)" d="M32.834,9.622c-1.404,0-2.857,0.132-4.326,0.404c-9.264,1.733-15.768,8.522-14.531,15.157
				c1.041,5.581,7.242,9.278,14.701,9.278c1.408,0,2.859-0.133,4.326-0.406c9.27-1.733,15.771-8.517,14.533-15.146
				C46.496,13.326,40.299,9.622,32.834,9.622z"/>
		</g>
	</g>

	<!-- Icône en superposition avec dégradé (recopier icône standard à l'intérieur du groupe redimensionné) -->
	<g transform="translate(32, 32) scale(0.6863, 0.6863) translate(-32, -32)">
		<linearGradient id="SVGID_1_" gradientUnits="userSpaceOnUse" x1="-478.3931" y1="6718.8633" x2="-478.3931" y2="6715.5879" gradientTransform="matrix(1 0 0 -1 493.0049 6743.9102)">
			<stop  offset="0" style="stop-color:##spriteCouleur3Fonce##"/>
			<stop  offset="1" style="stop-color:##spriteCouleurBlack##"/>
		</linearGradient>
		<path fill="url(#SVGID_1_)" d="M11.897,28.322h5.434c1.221,0,2.215-0.735,2.215-1.637c0-0.903-0.994-1.638-2.215-1.638h-5.434
			c-1.229,0-2.219,0.732-2.219,1.638C9.678,27.586,10.667,28.322,11.897,28.322z"/>
		
		<linearGradient id="SVGID_2_" gradientUnits="userSpaceOnUse" x1="-478.3931" y1="6729.6113" x2="-478.3931" y2="6726.3379" gradientTransform="matrix(1 0 0 -1 493.0049 6743.9102)">
			<stop  offset="0" style="stop-color:##spriteCouleur3Fonce##"/>
			<stop  offset="1" style="stop-color:##spriteCouleurBlack##"/>
		</linearGradient>
		<path fill="url(#SVGID_2_)" d="M11.897,17.572h5.434c1.221,0,2.215-0.733,2.215-1.638c0-0.898-0.994-1.636-2.215-1.636h-5.434
			c-1.229,0-2.219,0.738-2.219,1.636C9.678,16.84,10.667,17.572,11.897,17.572z"/>
		
		<linearGradient id="SVGID_3_" gradientUnits="userSpaceOnUse" x1="-478.3931" y1="6708.1113" x2="-478.3931" y2="6704.8457" gradientTransform="matrix(1 0 0 -1 493.0049 6743.9102)">
			<stop  offset="0" style="stop-color:##spriteCouleur3Fonce##"/>
			<stop  offset="1" style="stop-color:##spriteCouleurBlack##"/>
		</linearGradient>
		<path fill="url(#SVGID_3_)" d="M11.897,39.064h5.434c1.221,0,2.215-0.729,2.215-1.63c0-0.908-0.994-1.636-2.215-1.636h-5.434
			c-1.229,0-2.219,0.729-2.219,1.636C9.678,38.334,10.667,39.064,11.897,39.064z"/>
		
		<linearGradient id="SVGID_4_" gradientUnits="userSpaceOnUse" x1="-478.395" y1="6697.3682" x2="-478.395" y2="6694.0928" gradientTransform="matrix(1 0 0 -1 493.0049 6743.9102)">
			<stop  offset="0" style="stop-color:##spriteCouleur3Fonce##"/>
			<stop  offset="1" style="stop-color:##spriteCouleurBlack##"/>
		</linearGradient>
		<path fill="url(#SVGID_4_)" d="M19.543,48.175c0-0.898-0.994-1.633-2.213-1.633h-5.436c-1.229,0-2.219,0.733-2.219,1.633
			c0,0.909,0.99,1.643,2.219,1.643h5.436C18.549,49.817,19.543,49.084,19.543,48.175z"/>
		
		<linearGradient id="SVGID_5_" gradientUnits="userSpaceOnUse" x1="-461.0049" y1="6735.1367" x2="-461.0049" y2="6688.6836" gradientTransform="matrix(1 0 0 -1 493.0049 6743.9102)">
			<stop  offset="0" style="stop-color:##spriteCouleur3Fonce##"/>
			<stop  offset="1" style="stop-color:##spriteCouleurBlack##"/>
		</linearGradient>
		<path fill="url(#SVGID_5_)" d="M47.834,8.773H16.17c-1.531,0-2.775,1.243-2.775,2.771v1.617h4.797c1.535,0,2.773,1.244,2.773,2.773
			c0,1.531-1.238,2.773-2.773,2.773h-4.797v5.203h4.797c1.535,0,2.773,1.239,2.773,2.773c0,1.531-1.238,2.773-2.773,2.773h-4.797
			v5.198h4.797c1.535,0,2.773,1.241,2.773,2.777c0,1.527-1.238,2.77-2.773,2.77h-4.797v5.198h4.797c1.535,0,2.773,1.247,2.773,2.772
			c0,1.531-1.238,2.775-2.773,2.775h-4.797v1.505c0,1.526,1.244,2.771,2.775,2.771h31.664c1.533,0,2.771-1.244,2.771-2.771V11.543
			C50.605,10.016,49.367,8.773,47.834,8.773z M38.857,51.156c-1.451,0.546-2.98,0.056-3.416-1.095l-3.996-10.6l0,0l-2.908-7.714
			c-0.436-1.149,0.391-2.528,1.842-3.079l1.021-0.384l4.429,11.751l4.049,10.735L38.857,51.156z M33.662,27.479l1.986-0.75
			c0.375-0.142,0.801,0.065,0.947,0.463l2.41,6.393c0.148,0.397-0.031,0.833-0.406,0.975l-1.984,0.749
			c-0.373,0.142-0.799-0.066-0.947-0.463l-2.412-6.395C33.107,28.055,33.289,27.618,33.662,27.479z M44.162,49.308l-1.984,0.747
			c-0.375,0.143-0.799-0.065-0.947-0.462l-2.412-6.394c-0.148-0.397,0.033-0.833,0.406-0.973l1.986-0.75
			c0.375-0.142,0.799,0.066,0.949,0.464l2.408,6.393C44.719,48.729,44.537,49.165,44.162,49.308z M47.719,20.211L47.719,20.211
			c0,1.53-1.242,2.777-2.775,2.777H26.92c-1.533,0-2.773-1.247-2.773-2.777v-4.507c0-1.528,1.24-2.773,2.773-2.773h18.025
			c1.531,0,2.773,1.244,2.773,2.773V20.211L47.719,20.211z"/>
	</g>
</g>
</svg>