<?xml version="1.0" encoding="utf-8"?>
<!DOCTYPE svg PUBLIC "-//W3C//DTD SVG 1.1//EN" "http://www.w3.org/Graphics/SVG/1.1/DTD/svg11.dtd">
<svg version="1.1" id="Calque_1" xmlns="http://www.w3.org/2000/svg" xmlns:xlink="http://www.w3.org/1999/xlink" viewBox="0 0 64 64" xml:space="preserve">
<g>
	<!-- Fond neutre -->
	<g>
		<radialGradient id="fondBordure" cx="297.5" cy="-357" r="27.0991" gradientTransform="matrix(1 0 0 -1 -265.5 -325)" gradientUnits="userSpaceOnUse">
			<stop  offset="0.60" style="stop-color:##spriteCouleurBlack##"/>
			<stop  offset="0.85" style="stop-color:##spriteCouleur2Fonce##"/>
			<stop  offset="0.92" style="stop-color:##spriteCouleur2##"/>
			<stop  offset="0.98" style="stop-color:##spriteCouleur2Moyen##"/>
		</radialGradient>
		<path fill="url(#fondBordure)" d="M59.1,31.992c0,14.96-12.137,27.106-27.098,27.106C17.035,59.101,4.9,46.952,4.9,31.992
			S17.035,4.901,32.002,4.901C46.963,4.901,59.1,17.032,59.1,31.992z"/>
		<g>
			<radialGradient id="fondBackground" cx="56.2461" cy="-343.7988" r="41.1343" gradientTransform="matrix(1 0 0 -1 -19.7197 -325)" gradientUnits="userSpaceOnUse">
				<stop  offset="0.2802" style="stop-color:##spriteCouleur3Sup##"/>
				<stop  offset="0.76" style="stop-color:##spriteCouleur3##"/>
				<stop  offset="0.8046" style="stop-color:##spriteCouleur3Sup##"/>
				<stop  offset="0.8774" style="stop-color:##spriteCouleur3Moyen##"/>
				<stop  offset="0.98" style="stop-color:##spriteCouleur3Clair##"/>
			</radialGradient>
			<path fill="url(#fondBackground)" d="M56.018,31.994c0,13.261-10.758,24.022-24.016,24.022c-13.266,0-24.02-10.763-24.02-24.022
				S18.736,7.983,32.002,7.983C45.26,7.983,56.018,18.734,56.018,31.994z"/>
			<linearGradient id="fondHalo" gradientUnits="userSpaceOnUse" x1="-792.7246" y1="41.832" x2="-792.5552" y2="42.464" gradientTransform="matrix(37.3965 0 0 37.3965 29672.7188 -1554.1572)">
				<stop  offset="0" style="stop-color:##spriteCouleurWhite##"/>
				<stop  offset="0.1787" style="stop-color:##spriteCouleur3ClairSup##"/>
				<stop  offset="0.5358" style="stop-color:##spriteCouleur3Clair##"/>
				<stop  offset="0.7363" style="stop-color:##spriteCouleur3MoyenSup##"/>
				<stop  offset="0.8273" style="stop-color:##spriteCouleur3Moyen##"/>
				<stop  offset="0.9656" style="stop-color:##spriteCouleur3Sup##"/>
				<stop  offset="1" style="stop-color:##spriteCouleur3##"/>
			</linearGradient>
			<path fill="url(#fondHalo)" d="M32.834,9.622c-1.404,0-2.857,0.132-4.326,0.404c-9.264,1.733-15.768,8.522-14.531,15.157
				c1.041,5.581,7.242,9.278,14.701,9.278c1.408,0,2.859-0.133,4.326-0.406c9.27-1.733,15.771-8.517,14.533-15.146
				C46.496,13.326,40.299,9.622,32.834,9.622z"/>
		</g>
	</g>

	<!-- Icône en superposition avec dégradé (recopier icône standard à l'intérieur du groupe redimensionné) -->
	<g transform="translate(32, 32) scale(0.6863, 0.6863) translate(-32, -32)">
		<linearGradient id="SVGID_1_" gradientUnits="userSpaceOnUse" x1="-453.8271" y1="6722.0635" x2="-453.8271" y2="6688.3984" gradientTransform="matrix(1 0 0 -1 493.0049 6743.9102)">
			<stop  offset="0" style="stop-color:##spriteCouleur3Fonce##"/>
			<stop  offset="1" style="stop-color:##spriteCouleurBlack##"/>
		</linearGradient>
		<path fill="url(#SVGID_1_)" d="M39.176,21.847c-12.845,0-15.337,6.219-15.337,10.452c0,4.234,3.394,7.873,7.67,11.675
			c4.275,3.801,5.769,9.094,5.769,11.537h1.102c0,0,0-15.682,0-15.943c-2.523,0-4.594-1.936-4.594-5.178
			c0-3.455,2.541-5.349,5.393-5.349c2.85,0,5.393,1.895,5.393,5.349c0,3.242-2.07,5.178-4.596,5.178c0,0.262,0,15.943,0,15.943h1.104
			c0-2.443,1.492-7.736,5.77-11.537c4.275-3.803,7.67-7.439,7.67-11.675C54.516,28.066,52.023,21.847,39.176,21.847z"/>
		
		<linearGradient id="SVGID_2_" gradientUnits="userSpaceOnUse" x1="-453.8286" y1="6735.4219" x2="-453.8286" y2="6724.2246" gradientTransform="matrix(1 0 0 -1 493.0049 6743.9102)">
			<stop  offset="0" style="stop-color:##spriteCouleur3Fonce##"/>
			<stop  offset="1" style="stop-color:##spriteCouleurBlack##"/>
		</linearGradient>
		<path fill="url(#SVGID_2_)" d="M33.803,19.686h10.748c1.41,0,2.553-1.144,2.553-2.553v-6.092c0-1.409-1.143-2.553-2.553-2.553
			H33.803c-1.409,0-2.553,1.143-2.553,2.553v6.092C31.25,18.542,32.394,19.686,33.803,19.686z"/>
		
		<linearGradient id="SVGID_3_" gradientUnits="userSpaceOnUse" x1="-472.6382" y1="6690.6465" x2="-472.6382" y2="6688.3984" gradientTransform="matrix(1 0 0 -1 493.0049 6743.9102)">
			<stop  offset="0" style="stop-color:##spriteCouleur3Fonce##"/>
			<stop  offset="1" style="stop-color:##spriteCouleurBlack##"/>
		</linearGradient>
		<rect x="9.483" y="53.264" fill="url(#SVGID_3_)" width="21.768" height="2.248"/>
	</g>
</g>
</svg>