<?xml version="1.0" encoding="utf-8"?>
<!DOCTYPE svg PUBLIC "-//W3C//DTD SVG 1.1//EN" "http://www.w3.org/Graphics/SVG/1.1/DTD/svg11.dtd">
<svg version="1.1" id="Calque_1" xmlns="http://www.w3.org/2000/svg" xmlns:xlink="http://www.w3.org/1999/xlink" viewBox="0 0 64 64" xml:space="preserve">
<g>
	<!-- Fond neutre -->
	<g>
		<radialGradient id="fondBordure" cx="297.5" cy="-357" r="27.0991" gradientTransform="matrix(1 0 0 -1 -265.5 -325)" gradientUnits="userSpaceOnUse">
			<stop  offset="0.60" style="stop-color:##spriteCouleurBlack##"/>
			<stop  offset="0.85" style="stop-color:##spriteCouleur2Fonce##"/>
			<stop  offset="0.92" style="stop-color:##spriteCouleur2##"/>
			<stop  offset="0.98" style="stop-color:##spriteCouleur2Moyen##"/>
		</radialGradient>
		<path fill="url(#fondBordure)" d="M59.1,31.992c0,14.96-12.137,27.106-27.098,27.106C17.035,59.101,4.9,46.952,4.9,31.992
			S17.035,4.901,32.002,4.901C46.963,4.901,59.1,17.032,59.1,31.992z"/>
		<g>
			<radialGradient id="fondBackground" cx="56.2461" cy="-343.7988" r="41.1343" gradientTransform="matrix(1 0 0 -1 -19.7197 -325)" gradientUnits="userSpaceOnUse">
				<stop  offset="0.2802" style="stop-color:##spriteCouleur3Sup##"/>
				<stop  offset="0.76" style="stop-color:##spriteCouleur3##"/>
				<stop  offset="0.8046" style="stop-color:##spriteCouleur3Sup##"/>
				<stop  offset="0.8774" style="stop-color:##spriteCouleur3Moyen##"/>
				<stop  offset="0.98" style="stop-color:##spriteCouleur3Clair##"/>
			</radialGradient>
			<path fill="url(#fondBackground)" d="M56.018,31.994c0,13.261-10.758,24.022-24.016,24.022c-13.266,0-24.02-10.763-24.02-24.022
				S18.736,7.983,32.002,7.983C45.26,7.983,56.018,18.734,56.018,31.994z"/>
			<linearGradient id="fondHalo" gradientUnits="userSpaceOnUse" x1="-792.7246" y1="41.832" x2="-792.5552" y2="42.464" gradientTransform="matrix(37.3965 0 0 37.3965 29672.7188 -1554.1572)">
				<stop  offset="0" style="stop-color:##spriteCouleurWhite##"/>
				<stop  offset="0.1787" style="stop-color:##spriteCouleur3ClairSup##"/>
				<stop  offset="0.5358" style="stop-color:##spriteCouleur3Clair##"/>
				<stop  offset="0.7363" style="stop-color:##spriteCouleur3MoyenSup##"/>
				<stop  offset="0.8273" style="stop-color:##spriteCouleur3Moyen##"/>
				<stop  offset="0.9656" style="stop-color:##spriteCouleur3Sup##"/>
				<stop  offset="1" style="stop-color:##spriteCouleur3##"/>
			</linearGradient>
			<path fill="url(#fondHalo)" d="M32.834,9.622c-1.404,0-2.857,0.132-4.326,0.404c-9.264,1.733-15.768,8.522-14.531,15.157
				c1.041,5.581,7.242,9.278,14.701,9.278c1.408,0,2.859-0.133,4.326-0.406c9.27-1.733,15.771-8.517,14.533-15.146
				C46.496,13.326,40.299,9.622,32.834,9.622z"/>
		</g>
	</g>

	<!-- Icône en superposition avec dégradé (recopier icône standard à l'intérieur du groupe redimensionné) -->
	<g transform="translate(32, 32) scale(0.6863, 0.6863) translate(-32, -32)">
		<linearGradient id="SVGID_1_" gradientUnits="userSpaceOnUse" x1="-482.0669" y1="6732.9453" x2="-482.0669" y2="6689.9883" gradientTransform="matrix(1 0 0 -1 493.0049 6743.9102)">
			<stop  offset="0" style="stop-color:##spriteCouleur3Fonce##"/>
			<stop  offset="1" style="stop-color:##spriteCouleurBlack##"/>
		</linearGradient>
		<path fill="url(#SVGID_1_)" d="M15.646,10.966H6.23c-1.102,0-1.996,0.982-1.996,2.195v38.566c0,1.212,0.895,2.194,1.996,2.194
			h9.416c1.104,0,1.996-0.982,1.996-2.194V13.161C17.642,11.948,16.75,10.966,15.646,10.966z M10.939,50.63
			c-1.496,0-2.711-1.333-2.711-2.979c0-1.645,1.215-2.979,2.711-2.979s2.709,1.333,2.709,2.979S12.435,50.63,10.939,50.63z
			 M14.753,37.344H7.193V15.237h7.561V37.344z"/>
		
		<linearGradient id="SVGID_2_" gradientUnits="userSpaceOnUse" x1="-482.0659" y1="6725.5762" x2="-482.0659" y2="6723.0684" gradientTransform="matrix(1 0 0 -1 493.0049 6743.9102)">
			<stop  offset="0" style="stop-color:##spriteCouleur3Fonce##"/>
			<stop  offset="1" style="stop-color:##spriteCouleurBlack##"/>
		</linearGradient>
		<rect x="8.103" y="18.335" fill="url(#SVGID_2_)" width="5.672" height="2.507"/>
		
		<linearGradient id="SVGID_3_" gradientUnits="userSpaceOnUse" x1="-467.1846" y1="6732.9453" x2="-467.1846" y2="6689.9883" gradientTransform="matrix(1 0 0 -1 493.0049 6743.9102)">
			<stop  offset="0" style="stop-color:##spriteCouleur3Fonce##"/>
			<stop  offset="1" style="stop-color:##spriteCouleurBlack##"/>
		</linearGradient>
		<path fill="url(#SVGID_3_)" d="M30.529,10.966h-9.414c-1.105,0-1.998,0.982-1.998,2.193v38.568c0,1.212,0.893,2.194,1.998,2.194
			h9.414c1.104,0,1.996-0.982,1.996-2.194V13.159C32.524,11.948,31.632,10.966,30.529,10.966z M25.822,50.63
			c-1.496,0-2.711-1.333-2.711-2.979c0-1.645,1.215-2.979,2.711-2.979c1.494,0,2.709,1.333,2.709,2.979
			C28.533,49.297,27.316,50.63,25.822,50.63z M29.636,37.344h-7.559V15.236h7.559V37.344z"/>
		
		<linearGradient id="SVGID_4_" gradientUnits="userSpaceOnUse" x1="-467.1821" y1="6725.5762" x2="-467.1821" y2="6723.0684" gradientTransform="matrix(1 0 0 -1 493.0049 6743.9102)">
			<stop  offset="0" style="stop-color:##spriteCouleur3Fonce##"/>
			<stop  offset="1" style="stop-color:##spriteCouleurBlack##"/>
		</linearGradient>
		<rect x="22.988" y="18.334" fill="url(#SVGID_4_)" width="5.67" height="2.508"/>
		
		<linearGradient id="SVGID_5_" gradientUnits="userSpaceOnUse" x1="-446.1392" y1="6733.834" x2="-446.1392" y2="6689.9873" gradientTransform="matrix(1 0 0 -1 493.0049 6743.9102)">
			<stop  offset="0" style="stop-color:##spriteCouleur3Fonce##"/>
			<stop  offset="1" style="stop-color:##spriteCouleurBlack##"/>
		</linearGradient>
		<path fill="url(#SVGID_5_)" d="M59.628,47.937L46.745,11.584c-0.406-1.143-1.576-1.771-2.617-1.402l-8.875,3.146
			c-1.039,0.367-1.553,1.593-1.148,2.735l12.881,36.354c0.406,1.143,1.576,1.77,2.617,1.4l8.875-3.146
			C59.517,50.304,60.032,49.079,59.628,47.937z M44.974,37.868l-7.383-20.836l7.125-2.525l7.385,20.836L44.974,37.868z M52.94,49.142
			c-1.41,0.5-3-0.352-3.549-1.902c-0.551-1.553,0.148-3.214,1.561-3.714c1.41-0.5,3,0.352,3.549,1.903
			C55.05,46.979,54.353,48.642,52.94,49.142z"/>
		
		<linearGradient id="SVGID_6_" gradientUnits="userSpaceOnUse" x1="-450.4458" y1="6726.1445" x2="-450.4458" y2="6721.8867" gradientTransform="matrix(1 0 0 -1 493.0049 6743.9102)">
			<stop  offset="0" style="stop-color:##spriteCouleur3Fonce##"/>
			<stop  offset="1" style="stop-color:##spriteCouleurBlack##"/>
		</linearGradient>
		<polygon fill="url(#SVGID_6_)" points="45.651,20.131 40.306,22.023 39.468,19.66 44.813,17.767 	"/>
	</g>
</g>
</svg>