<?xml version="1.0" encoding="utf-8"?>
<!DOCTYPE svg PUBLIC "-//W3C//DTD SVG 1.1//EN" "http://www.w3.org/Graphics/SVG/1.1/DTD/svg11.dtd">
<svg version="1.1" id="Calque_1" xmlns="http://www.w3.org/2000/svg" xmlns:xlink="http://www.w3.org/1999/xlink" viewBox="0 0 64 64" xml:space="preserve">
<g>
	<!-- Fond coloré -->
	<g>
		<radialGradient id="fondBordure" cx="297.5" cy="-357" r="27.0991" gradientTransform="matrix(1 0 0 -1 -265.5 -325)" gradientUnits="userSpaceOnUse">
			<stop  offset="0.60" style="stop-color:##spriteCouleurBlack##"/>
			<stop  offset="0.85" style="stop-color:##spriteCouleur2Fonce##"/>
			<stop  offset="0.92" style="stop-color:##spriteCouleur2##"/>
			<stop  offset="0.98" style="stop-color:##spriteCouleur2Moyen##"/>
		</radialGradient>
		<path fill="url(#fondBordure)" d="M59.1,31.992c0,14.96-12.137,27.106-27.098,27.106C17.035,59.101,4.9,46.952,4.9,31.992
			S17.035,4.901,32.002,4.901C46.963,4.901,59.1,17.032,59.1,31.992z"/>
		<g>
			<radialGradient id="fondBackground" cx="56.2461" cy="-343.7988" r="41.1343" gradientTransform="matrix(1 0 0 -1 -19.7197 -325)" gradientUnits="userSpaceOnUse">
				<stop  offset="0.489" style="stop-color:##spriteCouleur1Clair##"/>
				<stop  offset="0.6414" style="stop-color:##spriteCouleur1##"/>
				<stop  offset="0.76" style="stop-color:##spriteCouleur1Moyen##"/>
				<stop  offset="0.8437" style="stop-color:##spriteCouleur1##"/>
				<stop  offset="0.8951" style="stop-color:##spriteCouleur1Clair##"/>
			</radialGradient>
			<path fill="url(#fondBackground)" d="M56.018,31.994c0,13.261-10.758,24.022-24.016,24.022c-13.266,0-24.02-10.763-24.02-24.022
				S18.736,7.983,32.002,7.983C45.26,7.983,56.018,18.734,56.018,31.994z"/>
			<linearGradient id="fondHalo" gradientUnits="userSpaceOnUse" x1="-792.7246" y1="41.832" x2="-792.5552" y2="42.464" gradientTransform="matrix(37.3965 0 0 37.3965 29672.7188 -1554.1572)">
				<stop  offset="0" style="stop-color:##spriteCouleurWhite##" stop-opacity="0.80"/>
				<stop  offset="0.7363" style="stop-color:##spriteCouleurWhite##" stop-opacity="0.05"/>
			</linearGradient>
			<path fill="url(#fondHalo)" d="M32.834,9.622c-1.404,0-2.857,0.132-4.326,0.404c-9.264,1.733-15.768,8.522-14.531,15.157
				c1.041,5.581,7.242,9.278,14.701,9.278c1.408,0,2.859-0.133,4.326-0.406c9.27-1.733,15.771-8.517,14.533-15.146
				C46.496,13.326,40.299,9.622,32.834,9.622z"/>
		</g>
	</g>

	<!-- Icône en superposition monocouleur (recopier icône standard à l'intérieur du groupe redimensionné) -->
	<g transform="translate(32, 32) scale(0.6863, 0.6863) translate(-32, -32)">
		<rect x="10.709" y="44.873" fill="##spriteCouleur3ClairSup##" width="8.406" height="11.149"/>
		<rect x="22.59" y="37.013" fill="##spriteCouleur3ClairSup##" width="8.408" height="19.009"/>
		<rect x="34.471" y="42.314" fill="##spriteCouleur3ClairSup##" width="8.408" height="13.707"/>
		<rect x="46.168" y="27.143" fill="##spriteCouleur3ClairSup##" width="8.408" height="28.879"/>
		<polygon fill="##spriteCouleur3ClairSup##" points="50.92,23.629 53.301,7.978 38.066,11.669 42.027,15.592 32.703,25.136 26.34,18.834 
			9.424,35.909 14.424,40.863 26.645,28.525 33.137,34.958 47.543,20.413"/>
	</g>
</g>
</svg>