<?xml version="1.0" encoding="utf-8"?>
<!DOCTYPE svg PUBLIC "-//W3C//DTD SVG 1.1//EN" "http://www.w3.org/Graphics/SVG/1.1/DTD/svg11.dtd">
<svg version="1.1" id="Calque_1" xmlns="http://www.w3.org/2000/svg" xmlns:xlink="http://www.w3.org/1999/xlink" viewBox="0 0 64 64" xml:space="preserve">
<g>
	<!-- Fond coloré -->
	<g>
		<radialGradient id="fondBordure" cx="297.5" cy="-357" r="27.0991" gradientTransform="matrix(1 0 0 -1 -265.5 -325)" gradientUnits="userSpaceOnUse">
			<stop  offset="0.60" style="stop-color:##spriteCouleurBlack##"/>
			<stop  offset="0.85" style="stop-color:##spriteCouleur2Fonce##"/>
			<stop  offset="0.92" style="stop-color:##spriteCouleur2##"/>
			<stop  offset="0.98" style="stop-color:##spriteCouleur2Moyen##"/>
		</radialGradient>
		<path fill="url(#fondBordure)" d="M59.1,31.992c0,14.96-12.137,27.106-27.098,27.106C17.035,59.101,4.9,46.952,4.9,31.992
			S17.035,4.901,32.002,4.901C46.963,4.901,59.1,17.032,59.1,31.992z"/>
		<g>
			<radialGradient id="fondBackground" cx="56.2461" cy="-343.7988" r="41.1343" gradientTransform="matrix(1 0 0 -1 -19.7197 -325)" gradientUnits="userSpaceOnUse">
				<stop  offset="0.489" style="stop-color:##spriteCouleur1Sup##"/>
				<stop  offset="0.6414" style="stop-color:##spriteCouleur1##"/>
				<stop  offset="0.76" style="stop-color:##spriteCouleur1MoyenSup##"/>
				<stop  offset="0.8437" style="stop-color:##spriteCouleur1##"/>
				<stop  offset="0.8951" style="stop-color:##spriteCouleur1Sup##"/>
			</radialGradient>
			<path fill="url(#fondBackground)" d="M56.018,31.994c0,13.261-10.758,24.022-24.016,24.022c-13.266,0-24.02-10.763-24.02-24.022
				S18.736,7.983,32.002,7.983C45.26,7.983,56.018,18.734,56.018,31.994z"/>
			<linearGradient id="fondHalo" gradientUnits="userSpaceOnUse" x1="-792.7246" y1="41.832" x2="-792.5552" y2="42.464" gradientTransform="matrix(37.3965 0 0 37.3965 29672.7188 -1554.1572)">
				<stop  offset="0" style="stop-color:##spriteCouleurWhite##" stop-opacity="0.80"/>
				<stop  offset="0.7363" style="stop-color:##spriteCouleurWhite##" stop-opacity="0.05"/>
			</linearGradient>
			<path fill="url(#fondHalo)" d="M32.834,9.622c-1.404,0-2.857,0.132-4.326,0.404c-9.264,1.733-15.768,8.522-14.531,15.157
				c1.041,5.581,7.242,9.278,14.701,9.278c1.408,0,2.859-0.133,4.326-0.406c9.27-1.733,15.771-8.517,14.533-15.146
				C46.496,13.326,40.299,9.622,32.834,9.622z"/>
		</g>
	</g>

	<!-- Icône en superposition monocouleur (recopier icône standard à l'intérieur du groupe redimensionné) -->
	<g transform="translate(32, 32) scale(0.62, 0.62) translate(-32, -32)">
		<path fill="##spriteCouleur3ClairSup##" d="M50.479,13.667h-6.594v3.812c0,2.269-1.838,4.106-4.107,4.106h-2.053
			c-2.27,0-4.107-1.838-4.107-4.106v-3.812h-3.236v3.812c0,2.269-1.84,4.106-4.107,4.106h-2.053c-2.268,0-4.105-1.838-4.105-4.106
			v-3.812H13.52c-2.268,0-4.106,1.838-4.106,4.106v34.612c0,2.268,1.838,4.107,4.106,4.107h36.958c2.27,0,4.107-1.84,4.107-4.107
			V17.773C54.588,15.505,52.746,13.667,50.479,13.667z M31.528,44.695c-0.548,0.963-1.338,1.703-2.369,2.223
			c-1.033,0.521-2.388,0.779-4.065,0.779c-1.638,0-2.929-0.191-3.875-0.576c-0.945-0.385-1.724-0.945-2.333-1.688
			c-0.609-0.74-1.079-1.672-1.406-2.793l4.999-0.664c0.196,1.008,0.501,1.705,0.915,2.094c0.414,0.391,0.939,0.584,1.578,0.584
			c0.672,0,1.23-0.244,1.676-0.736c0.446-0.492,0.669-1.146,0.669-1.965c0-0.836-0.214-1.48-0.644-1.939s-1.014-0.688-1.75-0.688
			c-0.395,0-0.934,0.098-1.623,0.295l0.258-3.574c0.277,0.041,0.496,0.062,0.652,0.062c0.654,0,1.201-0.209,1.639-0.627
			s0.658-0.914,0.658-1.486c0-0.549-0.165-0.986-0.492-1.312c-0.328-0.327-0.777-0.491-1.352-0.491c-0.588,0-1.067,0.178-1.437,0.534
			c-0.368,0.355-0.618,0.98-0.749,1.873l-4.727-0.848c0.393-1.506,1.146-2.662,2.265-3.464c1.117-0.802,2.7-1.203,4.747-1.203
			c2.35,0,4.048,0.438,5.096,1.313c1.049,0.875,1.571,1.979,1.571,3.305c0,0.777-0.212,1.48-0.638,2.109
			c-0.426,0.633-1.068,1.184-1.928,1.658c0.695,0.174,1.228,0.373,1.596,0.604c0.598,0.367,1.062,0.852,1.395,1.455
			c0.332,0.602,0.498,1.32,0.498,2.156C32.35,42.73,32.077,43.734,31.528,44.695z M40.678,47.391V35.393
			c-0.82,0.623-1.611,1.127-2.375,1.51c-0.768,0.387-1.727,0.756-2.881,1.105v-4.102c1.703-0.549,3.025-1.207,3.967-1.977
			c0.939-0.771,1.676-1.72,2.211-2.851h4.137v18.31L40.678,47.391L40.678,47.391L40.678,47.391z"/>
		<path fill="##spriteCouleur3ClairSup##" d="M38.238,18.361h1.027c1.135,0,2.053-1.261,2.053-2.813v-5.226c0-1.554-0.92-2.813-2.053-2.813
			h-1.027c-1.135,0-2.053,1.261-2.053,2.813v5.226C36.186,17.1,37.105,18.361,38.238,18.361z"/>
		<path fill="##spriteCouleur3ClairSup##" d="M24.735,18.361h1.027c1.135,0,2.053-1.261,2.053-2.813v-5.226c0-1.554-0.919-2.813-2.053-2.813
			h-1.027c-1.134,0-2.054,1.261-2.054,2.813v5.226C22.681,17.1,23.601,18.361,24.735,18.361z"/>
	</g>
</g>
</svg>