<?xml version="1.0" encoding="utf-8"?>
<!DOCTYPE svg PUBLIC "-//W3C//DTD SVG 1.1//EN" "http://www.w3.org/Graphics/SVG/1.1/DTD/svg11.dtd">
<svg version="1.1" id="Calque_1" xmlns="http://www.w3.org/2000/svg" xmlns:xlink="http://www.w3.org/1999/xlink" viewBox="0 0 64 64" xml:space="preserve">
<g>
	<!-- Fond neutre -->
	<g>
		<radialGradient id="fondBordure" cx="297.5" cy="-357" r="27.0991" gradientTransform="matrix(1 0 0 -1 -265.5 -325)" gradientUnits="userSpaceOnUse">
			<stop  offset="0.60" style="stop-color:##spriteCouleurBlack##"/>
			<stop  offset="0.85" style="stop-color:##spriteCouleur2Fonce##"/>
			<stop  offset="0.92" style="stop-color:##spriteCouleur2##"/>
			<stop  offset="0.98" style="stop-color:##spriteCouleur2Moyen##"/>
		</radialGradient>
		<path fill="url(#fondBordure)" d="M59.1,31.992c0,14.96-12.137,27.106-27.098,27.106C17.035,59.101,4.9,46.952,4.9,31.992
			S17.035,4.901,32.002,4.901C46.963,4.901,59.1,17.032,59.1,31.992z"/>
		<g>
			<radialGradient id="fondBackground" cx="56.2461" cy="-343.7988" r="41.1343" gradientTransform="matrix(1 0 0 -1 -19.7197 -325)" gradientUnits="userSpaceOnUse">
				<stop  offset="0.2802" style="stop-color:##spriteCouleur3Sup##"/>
				<stop  offset="0.76" style="stop-color:##spriteCouleur3##"/>
				<stop  offset="0.8046" style="stop-color:##spriteCouleur3Sup##"/>
				<stop  offset="0.8774" style="stop-color:##spriteCouleur3Moyen##"/>
				<stop  offset="0.98" style="stop-color:##spriteCouleur3Clair##"/>
			</radialGradient>
			<path fill="url(#fondBackground)" d="M56.018,31.994c0,13.261-10.758,24.022-24.016,24.022c-13.266,0-24.02-10.763-24.02-24.022
				S18.736,7.983,32.002,7.983C45.26,7.983,56.018,18.734,56.018,31.994z"/>
			<linearGradient id="fondHalo" gradientUnits="userSpaceOnUse" x1="-792.7246" y1="41.832" x2="-792.5552" y2="42.464" gradientTransform="matrix(37.3965 0 0 37.3965 29672.7188 -1554.1572)">
				<stop  offset="0" style="stop-color:##spriteCouleurWhite##"/>
				<stop  offset="0.1787" style="stop-color:##spriteCouleur3ClairSup##"/>
				<stop  offset="0.5358" style="stop-color:##spriteCouleur3Clair##"/>
				<stop  offset="0.7363" style="stop-color:##spriteCouleur3MoyenSup##"/>
				<stop  offset="0.8273" style="stop-color:##spriteCouleur3Moyen##"/>
				<stop  offset="0.9656" style="stop-color:##spriteCouleur3Sup##"/>
				<stop  offset="1" style="stop-color:##spriteCouleur3##"/>
			</linearGradient>
			<path fill="url(#fondHalo)" d="M32.834,9.622c-1.404,0-2.857,0.132-4.326,0.404c-9.264,1.733-15.768,8.522-14.531,15.157
				c1.041,5.581,7.242,9.278,14.701,9.278c1.408,0,2.859-0.133,4.326-0.406c9.27-1.733,15.771-8.517,14.533-15.146
				C46.496,13.326,40.299,9.622,32.834,9.622z"/>
		</g>
	</g>

	<!-- Icône en superposition avec dégradé -->
	<g>
		<linearGradient id="SVGID_7_" gradientUnits="userSpaceOnUse" x1="23.0513" y1="13.8784" x2="23.0513" y2="45.1816">
			<stop  offset="0" style="stop-color:##spriteCouleur3Fonce##"/>
			<stop  offset="1" style="stop-color:##spriteCouleurBlack##"/>
		</linearGradient>
		<path fill="url(#SVGID_7_)" d="M30.342,24.815h-9.006l-0.5,3.573c0.5-0.071,0.929-0.071,1.501-0.071c2.215,0,4.502,0.5,6.11,1.68
			c1.751,1.179,2.823,3.108,2.823,5.824c0,4.324-3.717,8.148-9.971,8.148c-2.823,0-5.182-0.644-6.468-1.322l1.001-4.074
			c1,0.5,3.108,1.144,5.217,1.144c2.252,0,4.646-1.072,4.646-3.538c0-2.394-1.894-3.859-6.539-3.859
			c-1.287,0-2.18,0.071-3.109,0.215l1.501-12.187h12.794V24.815z"/>
		<linearGradient id="SVGID_8_" gradientUnits="userSpaceOnUse" x1="36.3232" y1="13.8789" x2="36.3232" y2="45.181">
			<stop  offset="0" style="stop-color:##spriteCouleur3Fonce##"/>
			<stop  offset="1" style="stop-color:##spriteCouleurBlack##"/>
		</linearGradient>
		<path fill="url(#SVGID_8_)" d="M39.94,17.797c-0.345-0.021-0.711,0-1.199,0.04c-2.743,0.224-3.963,1.626-4.309,3.15h0.062
			c0.65-0.65,1.585-1.036,2.805-1.036c2.215,0,4.085,1.565,4.085,4.309c0,2.622-2.012,4.776-4.857,4.776
			c-3.537,0-5.265-2.622-5.265-5.772c0-2.479,0.915-4.553,2.358-5.894c1.301-1.199,3.028-1.829,5.081-1.931
			c0.568-0.062,0.955-0.041,1.239-0.021V17.797z M38.254,24.423c0-1.22-0.65-2.276-1.972-2.276c-0.833,0-1.524,0.508-1.809,1.158
			c-0.102,0.183-0.143,0.427-0.143,0.793c0.062,1.402,0.731,2.662,2.154,2.662C37.562,26.76,38.254,25.764,38.254,24.423z"/>
		<linearGradient id="SVGID_9_" gradientUnits="userSpaceOnUse" x1="40.9277" y1="13.8784" x2="40.9277" y2="45.1819">
			<stop  offset="0" style="stop-color:##spriteCouleur3Fonce##"/>
			<stop  offset="1" style="stop-color:##spriteCouleurBlack##"/>
		</linearGradient>
		<path fill="url(#SVGID_9_)" d="M42.013,48.602v-5.019h-9.325v-3.206l7.933-12.822h6.055v12.337h2.493v3.691h-2.493v5.019H42.013z
			 M42.013,39.892v-4.663c0-1.263,0.064-2.558,0.129-3.918h-0.097c-0.681,1.36-1.263,2.591-1.976,3.918l-2.784,4.598l-0.032,0.065
			H42.013z"/>
	</g>
</g>
</svg>