<?xml version="1.0" encoding="utf-8"?>
<!DOCTYPE svg PUBLIC "-//W3C//DTD SVG 1.1//EN" "http://www.w3.org/Graphics/SVG/1.1/DTD/svg11.dtd">
<svg version="1.1" id="Calque_1" xmlns="http://www.w3.org/2000/svg" xmlns:xlink="http://www.w3.org/1999/xlink" viewBox="0 0 64 64" xml:space="preserve">
<linearGradient id="SVGID_1_" gradientUnits="userSpaceOnUse" x1="-282.0049" y1="-6393.4727" x2="-282.0049" y2="-6349.3472" gradientTransform="matrix(1 0 0 1 314.0049 6403.4102)">
	<stop  offset="0" style="stop-color:##spriteCouleur2##"/>
	<stop  offset="1" style="stop-color:##spriteCouleur2Fonce##"/>
</linearGradient>
<path fill="url(#SVGID_1_)" d="M53.934,41.056c-1.02-1.658-14.41-24.359-16.323-27.292c-1.913-2.935-3.315-3.826-5.61-3.826
	c-2.297,0-3.698,0.894-5.612,3.826c-1.912,2.934-15.302,25.634-16.322,27.292c-1.021,1.657-3.443,5.229-3.443,7.014
	s1.401,5.993,6.375,5.993c4.975,0,19.003,0,19.003,0s14.027,0,19.001,0s6.377-4.208,6.377-5.993
	C57.377,46.282,54.953,42.713,53.934,41.056z M32.166,48.433c-2.079,0-3.621-1.677-3.621-3.621s1.542-3.621,3.621-3.621
	c2.078,0,3.622,1.678,3.622,3.621C35.788,46.756,34.245,48.433,32.166,48.433z M34.814,30.012c-0.771,2.312-1.509,4.659-1.61,7.106
	c-0.032,0.704-0.2,1.374-1.207,1.374s-1.173-0.671-1.208-1.374c-0.1-2.447-0.838-4.795-1.607-7.106
	c-0.437-1.344-0.973-2.985-0.973-4.359c0-2.381,1.174-4.626,3.789-4.626s3.789,2.245,3.789,4.626
	C35.788,27.025,35.251,28.669,34.814,30.012z"/>
</svg>
